<svg xmlns="http://www.w3.org/2000/svg" width="148" height="148" fill="none"><path fill="#fff" d="M0 0h148v148H0z"/><path fill="#75442B" d="M38.064 78.727v7.405c-.814.315-1.589.604-2.324.867a27.42 27.42 0 0 1-2.206.63c-.735.184-1.523.341-2.363.473-.84.131-1.773.25-2.797.354a17.69 17.69 0 0 1-5.554-.866c-1.76-.578-3.309-1.431-4.648-2.56-1.313-1.156-2.364-2.6-3.151-4.334-.788-1.733-1.182-3.742-1.182-6.026 0-2.285.341-4.307 1.024-6.066.709-1.786 1.707-3.31 2.994-4.57 1.313-1.26 2.888-2.258 4.727-2.993 1.864-.762 3.965-1.26 6.302-1.497 1.024 0 1.956.053 2.797.158.84.078 1.615.21 2.324.393.735.158 1.43.355 2.087.591.657.237 1.313.512 1.97.828v7.405h-.67l-3.072-6.42a7.368 7.368 0 0 0-2.127-1.616c-.788-.394-1.786-.59-2.994-.59a6.625 6.625 0 0 0-3.309.866c-1.024.551-1.917 1.392-2.678 2.52-.736 1.13-1.326 2.548-1.773 4.255-.42 1.68-.63 3.65-.63 5.909 0 1.943.17 3.755.512 5.435.368 1.681.906 3.138 1.615 4.373.709 1.234 1.602 2.206 2.678 2.915 1.077.682 2.35 1.024 3.821 1.024.972 0 1.878-.184 2.718-.552a8.172 8.172 0 0 0 2.206-1.496l3.073-6.815h.63Zm12.421-9.099c-1.024 0-1.825.617-2.403 1.851-.551 1.208-.827 3.151-.827 5.83 0 3.282.394 5.777 1.182 7.484.814 1.68 1.799 2.521 2.954 2.521 1.024 0 1.812-.617 2.363-1.851.578-1.234.867-3.165.867-5.79 0-3.388-.407-5.91-1.221-7.564-.814-1.654-1.786-2.481-2.915-2.481Zm-.315 18.75c-1.26 0-2.43-.224-3.506-.67a8.856 8.856 0 0 1-2.757-1.93c-.788-.84-1.405-1.838-1.851-2.994-.447-1.155-.67-2.442-.67-3.86 0-1.628.262-3.02.788-4.175a8.723 8.723 0 0 1 2.206-2.915 12.423 12.423 0 0 1 3.269-2.01c1.26-.524 2.6-.958 4.018-1.3 1.26 0 2.429.237 3.505.71a7.974 7.974 0 0 1 2.797 1.93c.788.814 1.405 1.799 1.851 2.954.447 1.156.67 2.43.67 3.821 0 1.628-.276 3.033-.827 4.215a8.478 8.478 0 0 1-2.206 2.954c-.92.814-2.009 1.484-3.27 2.01a27.926 27.926 0 0 1-4.017 1.26Zm12.424-.591v-.63l2.088-.316V70.455l-2.127.394-.08-.63 6.737-1.497h.63l.315 6.578 3.348-6.578h3.112v5.554h-5.12l-1.3 1.93v10.596l3.269.354v.63H62.594Zm16.319 0v-.63l2.088-.316V70.534l-2.127.354-.079-.67 7.051-1.496h.67v4.096l6.932-4.293c1.024 0 1.8.105 2.324.315.525.21.959.486 1.3.827.236.237.42.486.552.749.157.236.275.525.354.866.079.342.132.749.158 1.221.026.473.04 1.064.04 1.773V86.84l2.284.316v.63h-9.493v-.63l1.496-.316V74.08c0-.84-.157-1.444-.472-1.812-.289-.368-.735-.551-1.34-.551-.603 0-1.129.105-1.575.315-.42.21-.92.485-1.497.827l-1.063.67V86.84l1.496.316v.63h-9.099Zm31.96.591a11.15 11.15 0 0 1-3.624-.591 9.044 9.044 0 0 1-2.954-1.773c-.841-.788-1.51-1.746-2.009-2.875-.499-1.13-.749-2.403-.749-3.821 0-1.523.25-2.889.749-4.097.525-1.234 1.221-2.297 2.088-3.19a10.704 10.704 0 0 1 3.033-2.246 14.663 14.663 0 0 1 3.702-1.26c.998 0 1.93.157 2.797.473a5.883 5.883 0 0 1 2.245 1.339c.657.578 1.169 1.313 1.536 2.206.368.866.552 1.89.552 3.072v1.497h-11.738c.105 1.182.354 2.206.748 3.072.42.867.932 1.59 1.536 2.167a6.034 6.034 0 0 0 2.049 1.3 7.146 7.146 0 0 0 2.481.433c.893 0 1.694-.118 2.403-.355a11.73 11.73 0 0 0 2.206-1.024l.354.473a34.04 34.04 0 0 1-1.812 1.694c-.551.472-1.129.919-1.733 1.34-.578.393-1.182.774-1.812 1.141-.63.342-1.313.683-2.048 1.025Zm-4.412-11.896h5.988v-1.694c0-1.602-.197-2.85-.591-3.742-.368-.893-1.09-1.34-2.167-1.34-1.129 0-1.956.539-2.481 1.616-.499 1.05-.749 2.573-.749 4.569v.59Zm14.015 11.305v-.63l2.088-.316V70.455l-2.127.394-.079-.63 6.736-1.497h.63l.315 6.578 3.348-6.578h3.112v5.554h-5.121l-1.3 1.93v10.596l3.27.354v.63h-10.872Z"/></svg>