<svg xmlns="http://www.w3.org/2000/svg" width="1392" height="820" fill="none"><g clip-path="url(#a)"><g clip-path="url(#b)"><path fill="#000" fill-opacity=".9" d="M0 0h1392v2116H0z"/><g clip-path="url(#c)"><rect width="40" height="40" x="24" y="24" fill="#E0E0EE" fill-opacity=".05" rx="4"/><path fill="#fff" d="M38.716 53V36.9h6.44c3.381 0 5.36 2.07 5.36 4.991s-1.979 4.991-5.36 4.991h-3.404V53h-3.036Zm3.036-8.671h3.266c1.794 0 2.53-1.15 2.53-2.438 0-1.288-.736-2.438-2.53-2.438h-3.266v4.876Z"/></g><path fill="#FCFCFD" fill-opacity=".98" d="M77.36 50V38.8h4.224c2.208 0 3.568 1.344 3.568 3.312 0 1.968-1.36 3.312-3.568 3.312h-2.848V50H77.36Zm1.376-5.792h2.848c1.568 0 2.16-.992 2.16-2.096s-.592-2.096-2.16-2.096h-2.848v4.192Zm10.255 5.92c-1.696 0-2.8-.96-2.8-2.432 0-1.536 1.264-2.512 3.216-2.512h1.824c.352 0 .512-.176.512-.432 0-1.104-.784-1.856-2.16-1.856-1.184 0-2.112.736-2.176 1.616h-1.216c.144-1.552 1.616-2.704 3.424-2.704 2.096 0 3.408 1.2 3.408 2.992V50h-1.28v-1.392c-.432.928-1.504 1.52-2.752 1.52Zm-1.488-2.448c0 .832.656 1.36 1.68 1.36 1.616 0 2.56-1.008 2.56-2.672v-.208h-2.256c-1.2 0-1.984.576-1.984 1.52Zm13.022-8.32h1.28v2.576h2.464v1.136h-2.464v4.368c0 .896.496 1.424 1.296 1.424h1.168V50h-1.216c-1.552 0-2.528-.96-2.528-2.528V39.36ZM95.357 50v-8.064h1.28v1.632c.352-1.104 1.008-1.632 2.192-1.632h.944v1.136h-1.024c-1.632 0-2.112 1.472-2.112 3.376V50h-1.28Zm10.531 0v-8.064h1.28v1.552c.432-1.12 1.424-1.68 2.672-1.68 1.824 0 3.008 1.296 3.008 3.264V50h-1.28v-4.72c0-1.376-.8-2.304-2.016-2.304-1.392 0-2.384 1.104-2.384 2.672V50h-1.28Zm12.705.128c-2.384 0-3.984-1.904-3.984-4.208 0-2.368 1.472-4.112 3.84-4.112 2.352 0 3.76 1.632 3.76 3.776 0 .176-.016.448-.032.56h-6.304c.096 1.664 1.2 2.848 2.72 2.848 1.312 0 2.144-.576 2.4-1.584h1.296c-.272 1.648-1.696 2.72-3.696 2.72Zm-2.656-5.008h4.96c-.096-1.36-1.008-2.224-2.448-2.224-1.36 0-2.272.8-2.512 2.224Zm11.593-2.048c-1.632 0-2.112 1.472-2.112 3.376V50h-1.28v-8.064h1.28v1.632c.352-1.104 1.008-1.632 2.192-1.632h1.024v1.136h-1.104Z"/><rect width="224" height="40" x="20" y="72" fill="#6B9FFF" fill-opacity=".12" rx="12"/><path fill="#90BEFF" fill-rule="evenodd" d="M44.523 81.336a2 2 0 0 0-1.046 0c-.397.108-.731.37-.998.58l-.075.058-6.86 5.336c-.377.292-.709.55-.956.884a2.998 2.998 0 0 0-.477.975c-.112.4-.111.82-.11 1.297v7.372c0 .527 0 .982.03 1.357.032.395.103.788.296 1.167a3.004 3.004 0 0 0 1.311 1.311c.379.193.772.264 1.167.296.375.031.83.031 1.357.031h11.677c.527 0 .982 0 1.356-.031.395-.032.789-.103 1.167-.296a3.005 3.005 0 0 0 1.311-1.311c.193-.379.264-.772.297-1.167.03-.375.03-.83.03-1.357v-7.372c0-.476.001-.896-.11-1.297a3 3 0 0 0-.478-.975c-.247-.334-.579-.592-.956-.884l-6.86-5.336-.074-.058c-.267-.21-.602-.472-1-.58Zm-3.428 12.415a1 1 0 0 0-1.937.498 5.002 5.002 0 0 0 9.685 0 1 1 0 0 0-1.937-.498 3.002 3.002 0 0 1-5.811 0Z" clip-rule="evenodd"/><path fill="#90BEFF" d="M69.36 98V86.8h3.296c3.136 0 5.6 2.032 5.6 5.6 0 3.568-2.464 5.6-5.6 5.6H69.36Zm1.376-1.232h1.904c2.176 0 4.192-1.28 4.192-4.368s-2.016-4.368-4.192-4.368h-1.904v8.736Zm11.865 1.36c-1.696 0-2.8-.96-2.8-2.432 0-1.536 1.264-2.512 3.216-2.512h1.824c.352 0 .512-.176.512-.432 0-1.104-.784-1.856-2.16-1.856-1.184 0-2.112.736-2.176 1.616H79.8c.144-1.552 1.616-2.704 3.424-2.704 2.096 0 3.408 1.2 3.408 2.992V98h-1.28v-1.392c-.432.928-1.504 1.52-2.752 1.52Zm-1.488-2.448c0 .832.656 1.36 1.68 1.36 1.616 0 2.56-1.008 2.56-2.672v-.208h-2.256c-1.2 0-1.984.576-1.984 1.52Zm10.445 2.448c-1.856 0-3.088-1.04-3.216-2.72h1.232c.112 1.04.816 1.6 1.984 1.6 1.024 0 1.696-.56 1.696-1.216 0-2.4-4.704-.24-4.704-3.728 0-1.36 1.152-2.256 2.864-2.256 1.76 0 2.96.976 3.056 2.464h-1.232c-.128-1.024-1.136-1.376-1.856-1.376-.944 0-1.568.448-1.568 1.152 0 2.176 4.72.016 4.72 3.712 0 1.44-1.2 2.368-2.976 2.368ZM96.419 98V86.624h1.28v4.864c.432-1.12 1.424-1.68 2.672-1.68 1.824 0 3.008 1.296 3.008 3.264V98h-1.28v-4.72c0-1.376-.8-2.304-2.016-2.304-1.392 0-2.384 1.104-2.384 2.672V98h-1.28Zm13.233.128c-1.12 0-2.176-.576-2.672-1.456V98h-1.28V86.624h1.28v4.624c.496-.864 1.536-1.44 2.688-1.44 2.512 0 3.888 1.808 3.888 4.16 0 2.352-1.376 4.16-3.904 4.16Zm-2.784-4.16c0 1.824 1.056 3.008 2.688 3.008 1.616 0 2.672-1.184 2.672-3.008s-1.056-3.008-2.672-3.008c-1.632 0-2.688 1.184-2.688 3.008Zm12.103 4.16c-2.384 0-4.096-1.744-4.096-4.16 0-2.432 1.712-4.16 4.096-4.16 2.4 0 4.112 1.728 4.112 4.16 0 2.416-1.712 4.16-4.112 4.16Zm-2.784-4.16c0 1.76 1.136 3.008 2.784 3.008 1.664 0 2.8-1.248 2.8-3.008s-1.136-3.008-2.8-3.008c-1.648 0-2.784 1.248-2.784 3.008Zm11.179 4.16c-1.696 0-2.8-.96-2.8-2.432 0-1.536 1.264-2.512 3.216-2.512h1.824c.352 0 .512-.176.512-.432 0-1.104-.784-1.856-2.16-1.856-1.184 0-2.112.736-2.176 1.616h-1.216c.144-1.552 1.616-2.704 3.424-2.704 2.096 0 3.408 1.2 3.408 2.992V98h-1.28v-1.392c-.432.928-1.504 1.52-2.752 1.52Zm-1.488-2.448c0 .832.656 1.36 1.68 1.36 1.616 0 2.56-1.008 2.56-2.672v-.208h-2.256c-1.2 0-1.984.576-1.984 1.52Zm11.246-4.608c-1.632 0-2.112 1.472-2.112 3.376V98h-1.28v-8.064h1.28v1.632c.352-1.104 1.008-1.632 2.192-1.632h1.024v1.136h-1.104Zm5.608 7.056c-2.512 0-3.888-1.808-3.888-4.16 0-2.352 1.376-4.16 3.888-4.16 1.136 0 2.192.576 2.672 1.44v-4.624h1.28V98h-1.28v-1.328c-.48.88-1.536 1.456-2.672 1.456Zm-2.56-4.16c0 1.824 1.056 3.008 2.672 3.008s2.672-1.184 2.672-3.008-1.056-3.008-2.672-3.008-2.672 1.184-2.672 3.008Z"/><path stroke="#FCFCFD" stroke-linecap="round" stroke-linejoin="round" stroke-opacity=".98" stroke-width="2" d="M48 127.468a4.5 4.5 0 0 1 0 8.064m2 5.234c1.511.684 2.873 1.799 4 3.234m-20 0c1.947-2.477 4.59-4 7.5-4s5.553 1.523 7.5 4m-3-12.5a4.5 4.5 0 1 1-9 0 4.5 4.5 0 0 1 9 0Z"/><path fill="#FCFCFD" fill-opacity=".98" d="M69.36 142v-11.2h1.792l3.68 9.36 3.696-9.36h1.776V142h-1.328v-8.928L75.424 142H74.24l-3.552-8.928V142H69.36Zm16.827.128c-2.384 0-3.984-1.904-3.984-4.208 0-2.368 1.472-4.112 3.84-4.112 2.352 0 3.76 1.632 3.76 3.776 0 .176-.016.448-.032.56h-6.304c.096 1.664 1.2 2.848 2.72 2.848 1.312 0 2.144-.576 2.4-1.584h1.296c-.272 1.648-1.696 2.72-3.696 2.72Zm-2.656-5.008h4.96c-.096-1.36-1.008-2.224-2.448-2.224-1.36 0-2.272.8-2.512 2.224Zm11.593-2.048c-1.632 0-2.112 1.472-2.112 3.376V142h-1.28v-8.064h1.28v1.632c.352-1.104 1.008-1.632 2.192-1.632h1.024v1.136h-1.104Zm5.608 7.056c-2.544 0-3.92-2-3.92-4.16s1.376-4.16 3.92-4.16c1.808 0 3.424 1.056 3.664 2.848h-1.264c-.16-.976-1.168-1.696-2.384-1.696-1.76 0-2.608 1.36-2.608 3.008s.864 3.008 2.608 3.008c1.216 0 2.096-.608 2.384-1.584h1.248c-.272 1.648-1.6 2.736-3.648 2.736Zm5.453-.128v-11.376h1.28v4.864c.432-1.12 1.424-1.68 2.672-1.68 1.824 0 3.008 1.296 3.008 3.264V142h-1.28v-4.72c0-1.376-.8-2.304-2.016-2.304-1.392 0-2.384 1.104-2.384 2.672V142h-1.28Zm11.697.128c-1.696 0-2.8-.96-2.8-2.432 0-1.536 1.264-2.512 3.216-2.512h1.824c.352 0 .512-.176.512-.432 0-1.104-.784-1.856-2.16-1.856-1.184 0-2.112.736-2.176 1.616h-1.216c.144-1.552 1.616-2.704 3.424-2.704 2.096 0 3.408 1.2 3.408 2.992v5.2h-1.28v-1.392c-.432.928-1.504 1.52-2.752 1.52Zm-1.488-2.448c0 .832.656 1.36 1.68 1.36 1.616 0 2.56-1.008 2.56-2.672v-.208h-2.256c-1.2 0-1.984.576-1.984 1.52Zm7.853 2.32v-8.064h1.28v1.552c.432-1.12 1.424-1.68 2.672-1.68 1.824 0 3.008 1.296 3.008 3.264V142h-1.28v-4.72c0-1.376-.8-2.304-2.016-2.304-1.392 0-2.384 1.104-2.384 2.672V142h-1.28Zm9.813-10.64h1.28v2.576h2.48v1.136h-2.48v4.368c0 .896.512 1.424 1.296 1.424h1.184V142h-1.232c-1.552 0-2.528-.96-2.528-2.528v-4.4h-1.68v-1.136h1.68v-2.576Zm7.967 10.768c-1.856 0-3.088-1.04-3.216-2.72h1.232c.112 1.04.816 1.6 1.984 1.6 1.024 0 1.696-.56 1.696-1.216 0-2.4-4.704-.24-4.704-3.728 0-1.36 1.152-2.256 2.864-2.256 1.76 0 2.96.976 3.056 2.464h-1.232c-.128-1.024-1.136-1.376-1.856-1.376-.944 0-1.568.448-1.568 1.152 0 2.176 4.72.016 4.72 3.712 0 1.44-1.2 2.368-2.976 2.368Z"/><path stroke="#FCFCFD" stroke-linecap="round" stroke-linejoin="round" stroke-opacity=".98" stroke-width="2" d="M42.101 172A7 7 0 0 1 52 181.899M48 183a7 7 0 1 1-14 0 7 7 0 0 1 14 0Z"/><path fill="#FCFCFD" fill-opacity=".98" d="M71.776 186v-9.968h-3.6V174.8h8.528v1.232h-3.568V186h-1.36Zm8.16-6.928c-1.632 0-2.112 1.472-2.112 3.376V186h-1.28v-8.064h1.28v1.632c.352-1.104 1.008-1.632 2.192-1.632h1.024v1.136h-1.104Zm4.696 7.056c-1.696 0-2.8-.96-2.8-2.432 0-1.536 1.264-2.512 3.216-2.512h1.824c.352 0 .512-.176.512-.432 0-1.104-.784-1.856-2.16-1.856-1.184 0-2.112.736-2.176 1.616h-1.216c.144-1.552 1.616-2.704 3.424-2.704 2.096 0 3.408 1.2 3.408 2.992v5.2h-1.28v-1.392c-.432.928-1.504 1.52-2.752 1.52Zm-1.488-2.448c0 .832.656 1.36 1.68 1.36 1.616 0 2.56-1.008 2.56-2.672v-.208h-2.256c-1.2 0-1.984.576-1.984 1.52Zm7.853 2.32v-8.064h1.28v1.552c.432-1.12 1.424-1.68 2.672-1.68 1.824 0 3.008 1.296 3.008 3.264V186h-1.28v-4.72c0-1.376-.8-2.304-2.016-2.304-1.392 0-2.384 1.104-2.384 2.672V186h-1.28Zm11.874.128c-1.856 0-3.088-1.04-3.216-2.72h1.232c.112 1.04.816 1.6 1.984 1.6 1.024 0 1.696-.56 1.696-1.216 0-2.4-4.704-.24-4.704-3.728 0-1.36 1.152-2.256 2.864-2.256 1.76 0 2.96.976 3.056 2.464h-1.232c-.128-1.024-1.136-1.376-1.856-1.376-.944 0-1.568.448-1.568 1.152 0 2.176 4.72.016 4.72 3.712 0 1.44-1.2 2.368-2.976 2.368Zm7.277 0c-1.696 0-2.8-.96-2.8-2.432 0-1.536 1.264-2.512 3.216-2.512h1.824c.352 0 .512-.176.512-.432 0-1.104-.784-1.856-2.16-1.856-1.184 0-2.112.736-2.176 1.616h-1.216c.144-1.552 1.616-2.704 3.424-2.704 2.096 0 3.408 1.2 3.408 2.992v5.2h-1.28v-1.392c-.432.928-1.504 1.52-2.752 1.52Zm-1.488-2.448c0 .832.656 1.36 1.68 1.36 1.616 0 2.56-1.008 2.56-2.672v-.208h-2.256c-1.2 0-1.984.576-1.984 1.52Zm11.213 2.448c-2.544 0-3.92-2-3.92-4.16s1.376-4.16 3.92-4.16c1.808 0 3.424 1.056 3.664 2.848h-1.264c-.16-.976-1.168-1.696-2.384-1.696-1.76 0-2.608 1.36-2.608 3.008s.864 3.008 2.608 3.008c1.216 0 2.096-.608 2.384-1.584h1.248c-.272 1.648-1.6 2.736-3.648 2.736Zm6.093-10.768h1.28v2.576h2.48v1.136h-2.48v4.368c0 .896.512 1.424 1.296 1.424h1.184V186h-1.232c-1.552 0-2.528-.96-2.528-2.528v-4.4h-1.68v-1.136h1.68v-2.576Zm5.375 10.64v-8.064h1.28V186h-1.28Zm-.096-9.584v-1.792h1.472v1.792h-1.472Zm7.366 9.712c-2.384 0-4.096-1.744-4.096-4.16 0-2.432 1.712-4.16 4.096-4.16 2.4 0 4.112 1.728 4.112 4.16 0 2.416-1.712 4.16-4.112 4.16Zm-2.784-4.16c0 1.76 1.136 3.008 2.784 3.008 1.664 0 2.8-1.248 2.8-3.008s-1.136-3.008-2.8-3.008c-1.648 0-2.784 1.248-2.784 3.008Zm8.764 4.032v-8.064h1.28v1.552c.432-1.12 1.424-1.68 2.672-1.68 1.824 0 3.008 1.296 3.008 3.264V186h-1.28v-4.72c0-1.376-.8-2.304-2.016-2.304-1.392 0-2.384 1.104-2.384 2.672V186h-1.28Zm11.873.128c-1.856 0-3.088-1.04-3.216-2.72h1.232c.112 1.04.816 1.6 1.984 1.6 1.024 0 1.696-.56 1.696-1.216 0-2.4-4.704-.24-4.704-3.728 0-1.36 1.152-2.256 2.864-2.256 1.76 0 2.96.976 3.056 2.464h-1.232c-.128-1.024-1.136-1.376-1.856-1.376-.944 0-1.568.448-1.568 1.152 0 2.176 4.72.016 4.72 3.712 0 1.44-1.2 2.368-2.976 2.368Z"/><path stroke="#FCFCFD" stroke-linecap="round" stroke-linejoin="round" stroke-opacity=".98" stroke-width="2" d="m214 177 6 6 6-6M35 233h18m-15-3v-8m4 8v-8m4 8v-8m4 8v-8m2-3-7.576-4.735c-.154-.096-.23-.144-.313-.163a.518.518 0 0 0-.222 0c-.082.019-.16.067-.313.163L36 219h16Z"/><path fill="#FCFCFD" fill-opacity=".98" d="M69.36 230v-11.2h7.008v1.232h-5.632v3.696h4.592v1.232h-4.592V230H69.36Zm8.543 0v-8.064h1.28V230h-1.28Zm-.096-9.584v-1.792h1.472v1.792h-1.471Zm3.83 9.584v-8.064h1.28v1.552c.433-1.12 1.425-1.68 2.673-1.68 1.824 0 3.008 1.296 3.008 3.264V230h-1.28v-4.72c0-1.376-.8-2.304-2.016-2.304-1.392 0-2.384 1.104-2.384 2.672V230h-1.28Zm11.698.128c-1.696 0-2.8-.96-2.8-2.432 0-1.536 1.264-2.512 3.216-2.512h1.824c.352 0 .512-.176.512-.432 0-1.104-.784-1.856-2.16-1.856-1.184 0-2.112.736-2.176 1.616h-1.216c.144-1.552 1.616-2.704 3.424-2.704 2.096 0 3.408 1.2 3.408 2.992v5.2h-1.28v-1.392c-.432.928-1.504 1.52-2.752 1.52Zm-1.488-2.448c0 .832.656 1.36 1.68 1.36 1.616 0 2.56-1.008 2.56-2.672v-.208h-2.256c-1.2 0-1.984.576-1.984 1.52ZM99.7 230v-8.064h1.28v1.552c.432-1.12 1.424-1.68 2.672-1.68 1.824 0 3.008 1.296 3.008 3.264V230h-1.28v-4.72c0-1.376-.8-2.304-2.016-2.304-1.392 0-2.384 1.104-2.384 2.672V230H99.7Zm12.642.128c-2.544 0-3.92-2-3.92-4.16s1.376-4.16 3.92-4.16c1.808 0 3.424 1.056 3.664 2.848h-1.264c-.16-.976-1.168-1.696-2.384-1.696-1.76 0-2.608 1.36-2.608 3.008s.864 3.008 2.608 3.008c1.216 0 2.096-.608 2.384-1.584h1.248c-.272 1.648-1.6 2.736-3.648 2.736Zm8.876 0c-2.384 0-3.984-1.904-3.984-4.208 0-2.368 1.472-4.112 3.84-4.112 2.352 0 3.76 1.632 3.76 3.776 0 .176-.016.448-.032.56h-6.304c.096 1.664 1.2 2.848 2.72 2.848 1.312 0 2.144-.576 2.4-1.584h1.296c-.272 1.648-1.696 2.72-3.696 2.72Zm-2.656-5.008h4.96c-.096-1.36-1.008-2.224-2.448-2.224-1.36 0-2.272.8-2.512 2.224Z"/><path stroke="#FCFCFD" stroke-linecap="round" stroke-linejoin="round" stroke-opacity=".98" stroke-width="2" d="m214 221 6 6 6-6M44 273.5h.01M40.2 278h7.6c1.12 0 1.68 0 2.108-.218.376-.192.682-.498.874-.874.218-.428.218-.988.218-2.108v-13.6c0-1.12 0-1.68-.218-2.108a2.003 2.003 0 0 0-.874-.874C49.48 258 48.92 258 47.8 258h-7.6c-1.12 0-1.68 0-2.108.218a2.003 2.003 0 0 0-.874.874C37 259.52 37 260.08 37 261.2v13.6c0 1.12 0 1.68.218 2.108.192.376.498.682.874.874.428.218.988.218 2.108.218Zm4.3-4.5a.5.5 0 1 1-1 0 .5.5 0 0 1 1 0Z"/><path fill="#FCFCFD" fill-opacity=".98" d="M71.776 274v-9.968h-3.6V262.8h8.528v1.232h-3.568V274h-1.36Zm8.208.128c-2.384 0-3.984-1.904-3.984-4.208 0-2.368 1.472-4.112 3.84-4.112 2.352 0 3.76 1.632 3.76 3.776 0 .176-.016.448-.032.56h-6.304c.096 1.664 1.2 2.848 2.72 2.848 1.312 0 2.144-.576 2.4-1.584h1.296c-.272 1.648-1.696 2.72-3.696 2.72Zm-2.656-5.008h4.96c-.096-1.36-1.008-2.224-2.448-2.224-1.36 0-2.272.8-2.512 2.224Zm11.593-2.048c-1.633 0-2.113 1.472-2.113 3.376V274h-1.28v-8.064h1.28v1.632c.352-1.104 1.008-1.632 2.192-1.632h1.025v1.136H88.92ZM91.466 274v-8.064h1.28v1.552c.32-.976 1.2-1.68 2.448-1.68 1.328 0 2.368.608 2.64 1.712.304-.96 1.392-1.712 2.608-1.712 1.744 0 2.816 1.168 2.816 3.12V274h-1.28v-4.736c0-1.376-.688-2.32-1.824-2.32-1.36 0-2.16.944-2.16 2.32V274h-1.28v-4.736c0-1.376-.688-2.32-1.808-2.32-1.344 0-2.16.944-2.16 2.32V274h-1.28Zm14.109 0v-8.064h1.28V274h-1.28Zm-.096-9.584v-1.792h1.472v1.792h-1.472ZM109.31 274v-8.064h1.28v1.552c.432-1.12 1.424-1.68 2.672-1.68 1.824 0 3.008 1.296 3.008 3.264V274h-1.28v-4.72c0-1.376-.8-2.304-2.016-2.304-1.392 0-2.384 1.104-2.384 2.672V274h-1.28Zm11.697.128c-1.696 0-2.8-.96-2.8-2.432 0-1.536 1.264-2.512 3.216-2.512h1.824c.352 0 .512-.176.512-.432 0-1.104-.784-1.856-2.16-1.856-1.184 0-2.112.736-2.176 1.616h-1.216c.144-1.552 1.616-2.704 3.424-2.704 2.096 0 3.408 1.2 3.408 2.992v5.2h-1.28v-1.392c-.432.928-1.504 1.52-2.752 1.52Zm-1.488-2.448c0 .832.656 1.36 1.68 1.36 1.616 0 2.56-1.008 2.56-2.672v-.208h-2.256c-1.2 0-1.984.576-1.984 1.52Zm7.853 2.32v-11.376h1.28V274h-1.28Zm6.327.128c-1.856 0-3.088-1.04-3.216-2.72h1.232c.112 1.04.816 1.6 1.984 1.6 1.024 0 1.696-.56 1.696-1.216 0-2.4-4.704-.24-4.704-3.728 0-1.36 1.152-2.256 2.864-2.256 1.76 0 2.96.976 3.056 2.464h-1.232c-.128-1.024-1.136-1.376-1.856-1.376-.944 0-1.568.448-1.568 1.152 0 2.176 4.72.016 4.72 3.712 0 1.44-1.2 2.368-2.976 2.368Z"/><rect width="48" height="48" x="292" y="44" fill="#E0E0EE" fill-opacity=".06" rx="24"/><path stroke="#FCFCFD" stroke-linecap="round" stroke-linejoin="round" stroke-opacity=".98" stroke-width="2" d="M312.126 70a4.001 4.001 0 0 0 7.748 0m-4.856-11.236-6.783 5.275c-.453.353-.68.53-.843.75a2.002 2.002 0 0 0-.318.65c-.074.265-.074.552-.074 1.126V73.8c0 1.12 0 1.68.218 2.108a2 2 0 0 0 .874.874c.428.218.988.218 2.108.218h11.6c1.12 0 1.68 0 2.108-.218a2 2 0 0 0 .874-.874c.218-.428.218-.988.218-2.108v-7.235c0-.574 0-.861-.074-1.126a2.002 2.002 0 0 0-.318-.65c-.163-.22-.39-.397-.843-.75l-6.783-5.275c-.351-.273-.527-.41-.721-.462a.998.998 0 0 0-.522 0c-.194.052-.37.189-.721.462Z"/><path fill="#FCFCFD" fill-opacity=".98" d="M349.681 76V61.293h4.517c4.097 0 7.416 2.563 7.416 7.354 0 4.79-3.319 7.353-7.416 7.353h-4.517Zm2.185-1.933h2.206c2.731 0 5.294-1.534 5.294-5.42 0-3.887-2.563-5.421-5.294-5.421h-2.206v10.841Zm15.221 2.101c-2.164 0-3.593-1.303-3.593-3.193 0-2.038 1.618-3.299 4.118-3.299h2.206c.483 0 .714-.252.714-.63 0-1.282-.924-2.164-2.563-2.164-1.471 0-2.542.924-2.605 1.996h-1.891c.168-2.08 2.059-3.635 4.559-3.635 2.731 0 4.538 1.576 4.538 3.929V76h-2.038v-1.723c-.504 1.156-1.849 1.891-3.445 1.891Zm-1.576-3.236c0 .967.798 1.618 1.975 1.618 1.933 0 3.046-1.24 3.046-3.193v-.252h-2.731c-1.387 0-2.29.714-2.29 1.828Zm13.403 3.236c-2.5 0-4.139-1.387-4.286-3.614h1.912c.126 1.219.987 1.912 2.374 1.912 1.198 0 1.996-.651 1.996-1.428 0-2.816-6.009-.231-6.009-4.749 0-1.828 1.555-3.046 3.761-3.046 2.395 0 4.013 1.324 4.139 3.32h-1.933c-.147-1.22-1.303-1.702-2.206-1.702-1.114 0-1.849.546-1.849 1.365 0 2.627 6.072-.063 6.072 4.77 0 1.933-1.576 3.172-3.971 3.172Zm6.278-.168V60.978h2.038v6.303c.568-1.324 1.828-2.038 3.404-2.038 2.395 0 3.95 1.723 3.95 4.244V76h-2.038v-6.114c0-1.68-.988-2.815-2.479-2.815-1.66 0-2.837 1.344-2.837 3.193V76h-2.038Zm17.586.168c-1.407 0-2.71-.693-3.319-1.744V76h-2.038V60.978h2.038v5.988c.609-1.03 1.891-1.723 3.34-1.723 3.236 0 5.064 2.311 5.064 5.463 0 3.151-1.828 5.462-5.085 5.462Zm-3.487-5.463c0 2.207 1.281 3.677 3.256 3.677 1.954 0 3.257-1.47 3.257-3.677 0-2.206-1.303-3.676-3.257-3.676-1.975 0-3.256 1.47-3.256 3.677Zm15.64 5.463c-3.173 0-5.463-2.29-5.463-5.463 0-3.172 2.29-5.462 5.463-5.462 3.172 0 5.442 2.29 5.442 5.463 0 3.172-2.27 5.462-5.442 5.462Zm-3.383-5.463c0 2.165 1.366 3.677 3.383 3.677 1.996 0 3.362-1.513 3.362-3.677s-1.366-3.676-3.362-3.676c-2.017 0-3.383 1.512-3.383 3.677Zm14.198 5.463c-2.164 0-3.592-1.303-3.592-3.193 0-2.038 1.617-3.299 4.118-3.299h2.206c.483 0 .714-.252.714-.63 0-1.282-.924-2.164-2.563-2.164-1.471 0-2.542.924-2.605 1.996h-1.891c.168-2.08 2.059-3.635 4.559-3.635 2.731 0 4.538 1.576 4.538 3.929V76h-2.038v-1.723c-.504 1.156-1.849 1.891-3.446 1.891Zm-1.575-3.236c0 .967.798 1.618 1.975 1.618 1.932 0 3.046-1.24 3.046-3.193v-.252h-2.731c-1.387 0-2.29.714-2.29 1.828Zm14.495-5.756c-1.933 0-2.563 1.723-2.563 4.034V76h-2.038V65.411h2.038v2.038c.483-1.408 1.324-2.038 2.815-2.038h1.282v1.765h-1.534Zm7.341 8.992c-3.256 0-5.084-2.311-5.084-5.463 0-3.151 1.828-5.462 5.063-5.462 1.45 0 2.71.693 3.341 1.723v-5.988h2.038V76h-2.038v-1.576c-.631 1.05-1.933 1.744-3.32 1.744Zm-3.025-5.463c0 2.207 1.281 3.677 3.256 3.677 1.954 0 3.257-1.47 3.257-3.677 0-2.206-1.303-3.676-3.257-3.676-1.975 0-3.256 1.47-3.256 3.677Z"/><rect width="36" height="36" x="1280" y="50" fill="#E0E0EE" fill-opacity=".06" rx="18"/><path stroke="#EBEBFB" stroke-linecap="round" stroke-linejoin="round" stroke-opacity=".36" stroke-width="2" d="M1296.75 65.502a1.9 1.9 0 0 1 .82-.994c.38-.224.83-.306 1.26-.231.44.075.84.302 1.12.64.29.338.44.767.44 1.21 0 1.249-1.87 1.873-1.87 1.873m.02 2.5h.01m-.13 4.167c3.91 0 7.08-3.172 7.08-7.084a7.082 7.082 0 0 0-7.08-7.083 7.084 7.084 0 0 0-6.72 9.347c.09.268.14.401.15.504 0 .102 0 .173-.03.272-.02.1-.08.203-.19.411l-1.36 2.523c-.2.36-.3.54-.27.679.02.12.09.227.19.29.12.074.32.053.73.011l4.27-.441c.13-.014.19-.02.25-.018.06.002.1.008.16.02.05.014.13.042.27.097.79.305 1.65.472 2.55.472Z"/><rect width="36" height="36" x="1328" y="50" fill="#E0E0EE" fill-opacity=".06" rx="18"/><path fill="#EBEBFB" fill-opacity=".36" d="M1344.74 75V63.76h-4.06v-2.186h10.64v2.187h-4.05V75h-2.53Z"/><g clip-path="url(#d)"><path fill="#FCFCFD" fill-opacity=".98" d="M317.61 147.117c-2.557 0-4.923-1.709-4.923-5.231 0-3.535 2.381-5.23 4.923-5.23 2.236 0 4.047 1.388 4.325 3.302h-1.3c-.19-1.256-1.461-2.177-3.025-2.177-2.133 0-3.638 1.446-3.638 4.105 0 2.66 1.505 4.106 3.638 4.106 1.593 0 2.878-.921 3.039-2.177h1.271c-.219 1.914-2.031 3.302-4.31 3.302Zm12.24-7.48V147h-1.169v-1.417c-.394 1.023-1.3 1.534-2.425 1.534-1.665 0-2.747-1.184-2.747-2.981v-4.499h1.169v4.31c0 1.256.731 2.103 1.841 2.103 1.256 0 2.162-1.008 2.162-2.44v-3.973h1.169Zm5.319 1.037c-1.49 0-1.928 1.344-1.928 3.083V147h-1.169v-7.363h1.169v1.49c.321-1.008.92-1.49 2.001-1.49h.935v1.037h-1.008Zm5.422 0c-1.49 0-1.929 1.344-1.929 3.083V147h-1.168v-7.363h1.168v1.49c.322-1.008.921-1.49 2.002-1.49h.935v1.037h-1.008Zm5.18 6.443c-2.177 0-3.638-1.739-3.638-3.843 0-2.162 1.344-3.754 3.506-3.754 2.148 0 3.434 1.49 3.434 3.448 0 .16-.015.409-.03.511h-5.756c.088 1.519 1.096 2.601 2.484 2.601 1.198 0 1.958-.526 2.191-1.447h1.184c-.249 1.505-1.549 2.484-3.375 2.484Zm-2.425-4.573h4.529c-.088-1.242-.921-2.031-2.236-2.031-1.242 0-2.074.731-2.293 2.031Zm7.488 4.456v-7.363h1.169v1.417c.394-1.023 1.3-1.534 2.44-1.534 1.665 0 2.746 1.183 2.746 2.98v4.5h-1.169v-4.31c0-1.256-.73-2.104-1.84-2.104-1.272 0-2.177 1.008-2.177 2.44V147h-1.169Zm8.96-9.716h1.168v2.353h2.265v1.037h-2.265v3.988c0 .819.468 1.301 1.184 1.301h1.081V147h-1.125c-1.417 0-2.308-.877-2.308-2.308v-4.018h-1.534v-1.037h1.534v-2.353Zm8.549 9.716v-10.227h3.667c1.929 0 3.112.964 3.112 2.63 0 .949-.657 1.709-1.358 2.001 1.051.351 1.826 1.184 1.826 2.616 0 1.84-1.242 2.98-3.346 2.98h-3.901Zm1.242-1.125h2.44c1.505 0 2.294-.657 2.294-1.87 0-1.227-.789-1.885-2.294-1.885h-2.44v3.755Zm0-4.865h2.382c1.241 0 1.913-.526 1.913-1.578s-.672-1.563-1.899-1.563h-2.396v3.141Zm9.964 6.107c-1.549 0-2.557-.877-2.557-2.221 0-1.402 1.155-2.294 2.937-2.294h1.666c.321 0 .467-.16.467-.394 0-1.008-.716-1.695-1.972-1.695-1.081 0-1.929.672-1.987 1.476h-1.111c.132-1.417 1.476-2.469 3.127-2.469 1.914 0 3.112 1.095 3.112 2.732V147h-1.169v-1.271c-.394.847-1.373 1.388-2.513 1.388Zm-1.359-2.235c0 .759.599 1.241 1.534 1.241 1.476 0 2.338-.92 2.338-2.439v-.19h-2.06c-1.096 0-1.812.526-1.812 1.388Zm7.171 2.118v-10.388h1.169V147h-1.169Zm5.616.117c-1.548 0-2.556-.877-2.556-2.221 0-1.402 1.154-2.294 2.936-2.294h1.666c.321 0 .467-.16.467-.394 0-1.008-.716-1.695-1.972-1.695-1.081 0-1.929.672-1.987 1.476h-1.11c.131-1.417 1.475-2.469 3.126-2.469 1.914 0 3.112 1.095 3.112 2.732V147h-1.169v-1.271c-.394.847-1.373 1.388-2.513 1.388Zm-1.358-2.235c0 .759.599 1.241 1.534 1.241 1.475 0 2.337-.92 2.337-2.439v-.19h-2.06c-1.095 0-1.811.526-1.811 1.388ZM396.79 147v-7.363h1.169v1.417c.394-1.023 1.3-1.534 2.439-1.534 1.666 0 2.747 1.183 2.747 2.98v4.5h-1.169v-4.31c0-1.256-.73-2.104-1.841-2.104-1.271 0-2.176 1.008-2.176 2.44V147h-1.169Zm11.543.117c-2.323 0-3.58-1.826-3.58-3.799 0-1.972 1.257-3.798 3.58-3.798 1.651 0 3.126.964 3.345 2.6h-1.154c-.146-.891-1.066-1.548-2.177-1.548-1.607 0-2.381 1.241-2.381 2.746s.789 2.747 2.381 2.747c1.111 0 1.914-.555 2.177-1.446h1.14c-.249 1.504-1.461 2.498-3.331 2.498Zm8.105 0c-2.177 0-3.638-1.739-3.638-3.843 0-2.162 1.344-3.754 3.507-3.754 2.147 0 3.433 1.49 3.433 3.448 0 .16-.015.409-.029.511h-5.757c.088 1.519 1.096 2.601 2.484 2.601 1.198 0 1.958-.526 2.192-1.447h1.183c-.248 1.505-1.549 2.484-3.375 2.484Zm-2.425-4.573h4.529c-.088-1.242-.92-2.031-2.235-2.031-1.242 0-2.075.731-2.294 2.031Z"/><g clip-path="url(#e)"><path stroke="#E8E8FA" stroke-linecap="round" stroke-linejoin="round" stroke-opacity=".25" stroke-width="1.333" d="M431.06 140a1.997 1.997 0 0 1 2.224-1.307 1.995 1.995 0 0 1 1.662 1.974c0 1.333-2 2-2 2m.054 2.666h.006m6.66-3.333a6.666 6.666 0 1 1-13.333 0 6.667 6.667 0 0 1 13.333 0Z"/></g><g clip-path="url(#f)"><rect width="55" height="40" x="304.5" y="168" fill="#1A47B8" rx="20"/><path fill="#1A47B8" d="M354.262 168h-44.524c-2.893 0-5.238 2.388-5.238 5.333v29.334c0 2.945 2.345 5.333 5.238 5.333h44.524c2.893 0 5.238-2.388 5.238-5.333v-29.334c0-2.945-2.345-5.333-5.238-5.333Z"/><path fill="#FF0" d="m332.69 199.55 1.687.178-1.26 1.135.352 1.659-1.469-.847-1.47.847.352-1.659-1.26-1.135 1.687-.178L332 198l.69 1.55Zm-8.75-3.75 1.687.178-1.26 1.135.352 1.659-1.469-.847-1.47.847.352-1.659-1.26-1.135 1.687-.178.691-1.55.69 1.55Zm17.5 0 1.687.178-1.26 1.135.352 1.659-1.469-.847-1.47.847.352-1.659-1.26-1.135 1.687-.178.691-1.55.69 1.55Zm-21.25-8.75 1.687.178-1.26 1.135.352 1.659-1.469-.847-1.47.847.352-1.659-1.26-1.135 1.687-.178.691-1.55.69 1.55Zm25 0 1.687.178-1.26 1.135.352 1.659-1.469-.847-1.47.847.352-1.659-1.26-1.135 1.687-.178.691-1.55.69 1.55Zm-21.25-8.75 1.687.178-1.26 1.135.352 1.659-1.469-.847-1.47.847.352-1.659-1.26-1.135 1.687-.178.691-1.55.69 1.55Zm17.5 0 1.687.178-1.26 1.135.352 1.659-1.469-.847-1.47.847.352-1.659-1.26-1.135 1.687-.178.691-1.55.69 1.55Zm-8.75-3.75 1.687.178-1.26 1.135.352 1.659-1.469-.847-1.47.847.352-1.659-1.26-1.135 1.687-.178L332 173l.69 1.55Z"/></g><path fill="#FCFCFD" fill-opacity=".98" d="M378.12 193.118c-.469 3.089-2.648 5.103-6.123 5.103h-1.103c-4.137 0-6.398-2.317-6.978-6.62h-2.427v-2.096h2.262v-2.482h-2.262v-2.096h2.455c.607-4.192 2.868-6.454 6.95-6.454h1.103c3.448 0 5.571 1.959 6.068 4.965h-2.951c-.359-1.462-1.489-2.427-3.172-2.427h-.965c-2.372 0-3.751 1.351-4.192 3.916h6.371v2.096h-6.537v2.482h6.537v2.096h-6.399c.414 2.676 1.793 4.082 4.22 4.082h.965c1.765 0 2.896-1.048 3.255-2.565h2.923Zm9.163 5.103c-3.917 0-7.006-2.455-7.006-6.289h2.813c0 2.317 1.821 3.751 4.193 3.751 2.482 0 4.054-1.213 4.054-3.254 0-2.069-1.572-3.172-4.054-3.172h-1.628v-2.454h1.6c2.069 0 3.337-1.269 3.337-3.007 0-1.737-1.379-2.785-3.475-2.785-2.041 0-3.392 1.13-3.502 3.282h-2.758c.11-3.586 2.84-5.82 6.288-5.82 3.64 0 6.316 2.207 6.316 5.13a4.769 4.769 0 0 1-2.648 4.248c1.986.661 3.42 2.344 3.42 4.605 0 3.724-3.255 5.765-6.95 5.765Zm9.519-3.172h2.979V198h-2.979v-2.951ZM411.756 198v-4.523h-10.177v-2.537l9.79-12.246h3.255v12.246h2.785v2.537h-2.785V198h-2.868Zm-7.226-7.06h7.226v-8.964l-7.226 8.964Zm24.679 7.06v-4.523h-10.177v-2.537l9.79-12.246h3.255v12.246h2.785v2.537h-2.785V198h-2.868Zm-7.226-7.06h7.226v-8.964l-7.226 8.964Zm17.133 7.06c.027-3.117.468-5.902 2.923-9.846l4.303-6.923H435.53v-2.537h14.038v2.289l-5.185 8.467c-2.041 3.337-2.371 5.764-2.399 8.55h-2.868Zm8.589 1.682c.8 0 1.324-.606 1.324-1.517v-3.116h2.731v3.31c0 2.151-1.379 3.613-3.42 3.613h-1.103v-2.29h.468Zm11.254-20.988V198h-2.868v-14.838c-.331.441-1.186.689-1.958.689h-1.71v-2.537h1.489c1.324 0 2.096-.551 2.262-2.62h2.785Zm9.926 19.527c-3.613 0-6.343-2.455-6.619-5.765h2.73c.276 2.069 1.738 3.227 3.889 3.227 2.592 0 4.247-1.544 4.247-4.054 0-2.51-1.655-4.165-4.219-4.165-1.931 0-3.282.745-3.862 2.041h-2.427l1.545-10.811h10.535v2.537h-8.384l-.772 5.213c.855-.772 2.289-1.407 3.806-1.407 3.944 0 6.702 2.758 6.702 6.592 0 3.916-2.979 6.592-7.171 6.592Z"/><rect width="42" height="20" x="486" y="178" fill="#E0E0EE" fill-opacity=".06" rx="4"/><path fill="#FCFCFD" fill-opacity=".98" d="M495.134 193v-9.338h5.843v1.027h-4.696v2.975h3.829v1.027h-3.829v3.282h4.843V193h-5.99Zm11.076.107c-2.108 0-3.522-1.268-3.522-3.309v-6.136h1.12v6.19c0 1.374.961 2.228 2.402 2.228 1.454 0 2.414-.854 2.414-2.228v-6.19h1.121v6.136c0 2.041-1.414 3.309-3.535 3.309Zm5.716-.107v-9.338h3.549c1.841 0 2.961 1.107 2.961 2.735 0 1.027-.574 1.761-1.454 2.174.734.4 1.174 1.161 1.241 2.108l.16 2.321h-1.108l-.16-2.254c-.053-.908-.64-1.548-1.52-1.548h-2.522V193h-1.147Zm1.147-4.829h2.388c1.321 0 1.814-.854 1.814-1.774 0-.921-.493-1.721-1.814-1.721h-2.388v3.495ZM313.439 445v-10.227h3.857c2.016 0 3.258 1.227 3.258 3.024s-1.242 3.025-3.258 3.025h-2.601V445h-1.256Zm1.256-5.289h2.601c1.431 0 1.972-.906 1.972-1.914s-.541-1.914-1.972-1.914h-2.601v3.828Zm9.365 5.406c-1.549 0-2.557-.877-2.557-2.221 0-1.402 1.154-2.294 2.936-2.294h1.666c.321 0 .467-.16.467-.394 0-1.008-.715-1.695-1.972-1.695-1.081 0-1.928.672-1.987 1.476h-1.11c.131-1.417 1.475-2.469 3.126-2.469 1.914 0 3.112 1.095 3.112 2.732V445h-1.169v-1.271c-.394.847-1.373 1.388-2.512 1.388Zm-1.359-2.235c0 .759.599 1.241 1.534 1.241 1.475 0 2.337-.92 2.337-2.439v-.19h-2.06c-1.095 0-1.811.526-1.811 1.388Zm8.022 5.098.949-2.863-2.761-7.48h1.213l2.089 5.844 2.104-5.844h1.212l-2.381 6.516-1.3 3.827h-1.125Zm6.226-2.98v-7.363h1.168V445h-1.168Zm-.088-8.751v-1.637h1.344v1.637h-1.344Zm3.497 8.751v-7.363h1.169v1.417c.395-1.023 1.301-1.534 2.44-1.534 1.666 0 2.747 1.183 2.747 2.98v4.5h-1.169v-4.31c0-1.256-.73-2.104-1.841-2.104-1.271 0-2.177 1.008-2.177 2.44V445h-1.169Zm8.943 2.98v-1.008h3.404c.95 0 1.622-.716 1.622-1.694v-1.301c-.336.687-1.33 1.14-2.44 1.14-2.294 0-3.55-1.651-3.55-3.799 0-2.147 1.256-3.798 3.55-3.798.993 0 1.987.496 2.44 1.198v-1.081h1.169v7.684c0 1.564-1.125 2.659-2.718 2.659h-3.477Zm.248-6.662c0 1.666.965 2.747 2.44 2.747 1.476 0 2.44-1.081 2.44-2.747 0-1.665-.964-2.746-2.44-2.746-1.475 0-2.44 1.081-2.44 2.746Zm14.912 3.799c-2.177 0-3.74-1.593-3.74-3.799 0-2.22 1.563-3.798 3.74-3.798 2.191 0 3.755 1.578 3.755 3.798 0 2.206-1.564 3.799-3.755 3.799Zm-2.542-3.799c0 1.607 1.037 2.747 2.542 2.747 1.519 0 2.556-1.14 2.556-2.747s-1.037-2.746-2.556-2.746c-1.505 0-2.542 1.139-2.542 2.746Zm14.255-3.681V445h-1.169v-1.417c-.394 1.023-1.3 1.534-2.425 1.534-1.666 0-2.747-1.184-2.747-2.981v-4.499h1.169v4.31c0 1.256.731 2.103 1.841 2.103 1.256 0 2.162-1.008 2.162-2.44v-3.973h1.169Zm2.821-2.353h1.169v2.353h2.264v1.037h-2.264v3.988c0 .819.467 1.301 1.183 1.301h1.081V445h-1.125c-1.417 0-2.308-.877-2.308-2.308v-4.018h-1.534v-1.037h1.534v-2.353Zm11.647 9.833c-2.177 0-3.74-1.593-3.74-3.799 0-2.22 1.563-3.798 3.74-3.798 2.191 0 3.755 1.578 3.755 3.798 0 2.206-1.564 3.799-3.755 3.799Zm-2.542-3.799c0 1.607 1.037 2.747 2.542 2.747 1.519 0 2.556-1.14 2.556-2.747s-1.037-2.746-2.556-2.746c-1.505 0-2.542 1.139-2.542 2.746Zm8.002 3.682v-7.363h1.169v1.417c.394-1.023 1.3-1.534 2.44-1.534 1.665 0 2.746 1.183 2.746 2.98v4.5h-1.169v-4.31c0-1.256-.73-2.104-1.84-2.104-1.271 0-2.177 1.008-2.177 2.44V445h-1.169Zm12.413 0v-6.326h-1.534v-1.037h1.534v-.746c0-1.402.891-2.279 2.294-2.279h1.154v1.038h-1.11c-.702 0-1.169.467-1.169 1.256v.731h2.279v1.037h-2.279V445h-1.169Zm7.592.117c-2.177 0-3.638-1.739-3.638-3.843 0-2.162 1.344-3.754 3.506-3.754 2.148 0 3.434 1.49 3.434 3.448 0 .16-.015.409-.029.511h-5.757c.088 1.519 1.096 2.601 2.484 2.601 1.198 0 1.958-.526 2.191-1.447h1.184c-.248 1.505-1.549 2.484-3.375 2.484Zm-2.425-4.573h4.529c-.088-1.242-.921-2.031-2.236-2.031-1.241 0-2.074.731-2.293 2.031Zm11.097 4.573c-1.023 0-1.987-.526-2.44-1.33V445h-1.169v-10.388h1.169v4.223c.453-.789 1.402-1.315 2.454-1.315 2.294 0 3.551 1.651 3.551 3.798 0 2.148-1.257 3.799-3.565 3.799Zm-2.542-3.799c0 1.666.964 2.747 2.454 2.747 1.476 0 2.44-1.081 2.44-2.747 0-1.665-.964-2.746-2.44-2.746-1.49 0-2.454 1.081-2.454 2.746Zm11.054-3.229c-.073-2.089 1.271-3.433 3.375-3.433 1.928 0 3.316 1.198 3.316 3.054 0 1.329-.818 2.454-2.381 3.228l-1.461.746c-.833.423-1.768 1.198-1.768 2.191h5.669V445h-6.882v-.891c0-1.826 1.432-2.951 2.484-3.477l1.563-.804c1.096-.555 1.491-1.256 1.491-2.148 0-1.168-.862-1.928-2.031-1.928-1.315 0-2.148.935-2.089 2.337h-1.286ZM446.395 445v-2.557h-5.479v-1.125l5.274-6.545h1.461v6.545h1.593v1.125h-1.593V445h-1.256Zm-4.149-3.682h4.164v-5.172l-4.164 5.172Zm12.353-6.034h1.169v2.353h2.264v1.037h-2.264v3.988c0 .819.467 1.301 1.183 1.301h1.081V445h-1.125c-1.417 0-2.308-.877-2.308-2.308v-4.018h-1.534v-1.037h1.534v-2.353Zm8.051 9.833c-2.177 0-3.74-1.593-3.74-3.799 0-2.22 1.563-3.798 3.74-3.798 2.192 0 3.755 1.578 3.755 3.798 0 2.206-1.563 3.799-3.755 3.799Zm-2.542-3.799c0 1.607 1.037 2.747 2.542 2.747 1.52 0 2.557-1.14 2.557-2.747s-1.037-2.746-2.557-2.746c-1.505 0-2.542 1.139-2.542 2.746Z"/><rect width="28" height="28" x="483" y="426" fill="#fff" rx="8"/><path fill="#000" fill-rule="evenodd" d="M494.358 436.455h-2.608V447h2.608v-10.545Zm8.178.603a4.065 4.065 0 0 0-4.062-4.058h-6.724v2.252h6.404c1.014 0 1.853.797 1.872 1.775a1.8 1.8 0 0 1-.518 1.303c-.343.35-.802.542-1.292.542h-2.495a.16.16 0 0 0-.16.161v2.001c0 .034.01.067.03.094l4.233 5.872h3.098l-4.242-5.888c2.136-.107 3.856-1.902 3.856-4.054Z" clip-rule="evenodd"/><path fill="#FCFCFD" fill-opacity=".98" d="M522.513 442.414a1.325 1.325 0 0 1-1.329-1.329c0-.731.584-1.33 1.329-1.33.716 0 1.315.599 1.315 1.33 0 .73-.599 1.329-1.315 1.329Zm5.194 0c-.745 0-1.33-.599-1.33-1.329 0-.731.585-1.33 1.33-1.33.716 0 1.315.599 1.315 1.33 0 .73-.599 1.329-1.315 1.329Zm5.193 0a1.325 1.325 0 0 1-1.329-1.329c0-.731.584-1.33 1.329-1.33.716 0 1.315.599 1.315 1.33 0 .73-.599 1.329-1.315 1.329Zm5.194 0c-.745 0-1.33-.599-1.33-1.329 0-.731.585-1.33 1.33-1.33.716 0 1.315.599 1.315 1.33 0 .73-.599 1.329-1.315 1.329Zm9.565-7.641V445h-1.242v-8.094c-.161.234-.511.351-.92.351h-.965v-1.125h.818c.658 0 1.009-.278 1.096-1.359h1.213Zm2.107 3.316c-.073-2.089 1.271-3.433 3.375-3.433 1.928 0 3.316 1.198 3.316 3.054 0 1.329-.818 2.454-2.381 3.228l-1.461.746c-.833.423-1.768 1.198-1.768 2.191h5.669V445h-6.882v-.891c0-1.826 1.432-2.951 2.484-3.477l1.563-.804c1.096-.555 1.491-1.256 1.491-2.148 0-1.168-.862-1.928-2.031-1.928-1.315 0-2.148.935-2.089 2.337h-1.286Zm11.693 7.028c-2.045 0-3.652-1.33-3.652-3.331h1.227c0 1.329 1.052 2.206 2.425 2.206 1.432 0 2.338-.687 2.338-1.899 0-1.198-.906-1.841-2.338-1.841h-.818v-1.096h.818c1.213 0 1.943-.745 1.943-1.768 0-1.008-.789-1.607-2.016-1.607-1.169 0-1.928.687-2.001 1.899h-1.213c.073-1.855 1.402-3.024 3.229-3.024 1.899 0 3.258 1.125 3.258 2.688a2.508 2.508 0 0 1-1.476 2.28c1.081.35 1.899 1.256 1.899 2.483 0 1.958-1.694 3.01-3.623 3.01Zm10.3-.117v-2.557h-5.479v-1.125l5.274-6.545h1.461v6.545h1.593v1.125h-1.593V445h-1.256Zm-4.15-3.682h4.164v-5.172l-4.164 5.172Z"/></g><rect width="456" height="361" x="292.5" y="112.5" stroke="#fff" stroke-opacity=".1" rx="19.5"/><path stroke="#fff" stroke-opacity=".1" d="M789 112.5h555c10.77 0 19.5 8.73 19.5 19.5v322c0 10.77-8.73 19.5-19.5 19.5H789c-10.77 0-19.5-8.73-19.5-19.5V132c0-10.77 8.73-19.5 19.5-19.5Z"/><path fill="#FCFCFD" fill-opacity=".98" d="M792.904 132.773h1.256V143h-1.256v-4.719h-5.406V143h-1.256v-10.227h1.256v4.383h5.406v-4.383ZM796.497 143v-7.363h1.169V143h-1.169Zm-.088-8.751v-1.637h1.345v1.637h-1.345Zm3.966 11.731v-1.008h3.404c.949 0 1.621-.716 1.621-1.694v-1.301c-.336.687-1.329 1.14-2.439 1.14-2.294 0-3.551-1.651-3.551-3.799 0-2.147 1.257-3.798 3.551-3.798.993 0 1.987.496 2.439 1.198v-1.081h1.169v7.684c0 1.564-1.125 2.659-2.717 2.659h-3.477Zm.248-6.662c0 1.666.964 2.747 2.44 2.747 1.475 0 2.44-1.081 2.44-2.747 0-1.665-.965-2.746-2.44-2.746-1.476 0-2.44 1.081-2.44 2.746Zm8.173 3.682v-10.388h1.169v4.442c.394-1.023 1.3-1.534 2.439-1.534 1.666 0 2.747 1.183 2.747 2.98v4.5h-1.169v-4.31c0-1.256-.73-2.104-1.841-2.104-1.271 0-2.176 1.008-2.176 2.44V143h-1.169Zm8.475 0v-10.388h1.169V143h-1.169Zm3.41 0v-7.363h1.169V143h-1.169Zm-.088-8.751v-1.637h1.344v1.637h-1.344Zm3.965 11.731v-1.008h3.404c.95 0 1.622-.716 1.622-1.694v-1.301c-.336.687-1.329 1.14-2.44 1.14-2.294 0-3.55-1.651-3.55-3.799 0-2.147 1.256-3.798 3.55-3.798.994 0 1.987.496 2.44 1.198v-1.081h1.169v7.684c0 1.564-1.125 2.659-2.718 2.659h-3.477Zm.249-6.662c0 1.666.964 2.747 2.439 2.747 1.476 0 2.44-1.081 2.44-2.747 0-1.665-.964-2.746-2.44-2.746-1.475 0-2.439 1.081-2.439 2.746Zm8.172 3.682v-10.388h1.169v4.442c.395-1.023 1.3-1.534 2.44-1.534 1.666 0 2.747 1.183 2.747 2.98v4.5h-1.169v-4.31c0-1.256-.731-2.104-1.841-2.104-1.271 0-2.177 1.008-2.177 2.44V143h-1.169Zm8.96-9.716h1.169v2.353h2.265v1.037h-2.265v3.988c0 .819.467 1.301 1.183 1.301h1.082V143h-1.125c-1.418 0-2.309-.877-2.309-2.308v-4.018h-1.534v-1.037h1.534v-2.353Zm7.275 9.833c-1.695 0-2.819-.95-2.936-2.484h1.125c.102.95.745 1.461 1.811 1.461.935 0 1.549-.511 1.549-1.11 0-2.192-4.295-.219-4.295-3.404 0-1.242 1.051-2.06 2.615-2.06 1.607 0 2.703.891 2.79 2.25h-1.125c-.117-.935-1.037-1.257-1.694-1.257-.862 0-1.432.409-1.432 1.052 0 1.987 4.31.015 4.31 3.39 0 1.315-1.096 2.162-2.718 2.162Z"/><rect width="124" height="28" x="1224" y="128" fill="#E0E0EE" fill-opacity=".05" rx="12"/><path fill="#FCFCFD" fill-opacity=".98" d="M1233.48 147v-10.227h1.25v9.102h5.12V147h-6.37Zm9.78.117c-1.55 0-2.56-.877-2.56-2.221 0-1.402 1.15-2.294 2.94-2.294h1.66c.32 0 .47-.16.47-.394 0-1.008-.72-1.695-1.97-1.695-1.08 0-1.93.672-1.99 1.476h-1.11c.13-1.417 1.48-2.469 3.13-2.469 1.91 0 3.11 1.095 3.11 2.732V147h-1.17v-1.271c-.39.847-1.37 1.388-2.51 1.388Zm-1.36-2.235c0 .759.6 1.241 1.53 1.241 1.48 0 2.34-.92 2.34-2.439v-.19h-2.06c-1.1 0-1.81.526-1.81 1.388Zm9.54 2.235c-1.7 0-2.82-.95-2.94-2.484h1.12c.11.95.75 1.461 1.82 1.461.93 0 1.54-.511 1.54-1.11 0-2.192-4.29-.219-4.29-3.404 0-1.242 1.05-2.06 2.61-2.06 1.61 0 2.71.891 2.8 2.25h-1.13c-.12-.935-1.04-1.257-1.69-1.257-.87 0-1.44.409-1.44 1.052 0 1.987 4.31.015 4.31 3.39 0 1.315-1.09 2.162-2.71 2.162Zm5.01-9.833h1.16v2.353h2.27v1.037h-2.27v3.988c0 .819.47 1.301 1.19 1.301h1.08V147h-1.13c-1.41 0-2.3-.877-2.3-2.308v-4.018h-1.54v-1.037h1.54v-2.353Zm10.77-.511V147h-1.25v-8.094c-.16.234-.51.351-.92.351h-.96v-1.125h.82c.65 0 1.01-.278 1.09-1.359h1.22Zm7.19 10.227v-2.557h-5.48v-1.125l5.27-6.545h1.47v6.545h1.59v1.125h-1.59V147h-1.26Zm-4.15-3.682h4.16v-5.172l-4.16 5.172Zm15.06 3.799c-2.29 0-3.55-1.651-3.55-3.799 0-2.147 1.26-3.798 3.55-3.798 1.04 0 2.01.526 2.44 1.315v-4.223h1.17V147h-1.17v-1.213c-.43.804-1.4 1.33-2.44 1.33Zm-2.33-3.799c0 1.666.96 2.747 2.44 2.747 1.47 0 2.44-1.081 2.44-2.747 0-1.665-.97-2.746-2.44-2.746-1.48 0-2.44 1.081-2.44 2.746Zm10.37 3.799c-1.54 0-2.55-.877-2.55-2.221 0-1.402 1.15-2.294 2.93-2.294h1.67c.32 0 .47-.16.47-.394 0-1.008-.72-1.695-1.97-1.695-1.09 0-1.93.672-1.99 1.476h-1.11c.13-1.417 1.47-2.469 3.12-2.469 1.92 0 3.12 1.095 3.12 2.732V147h-1.17v-1.271c-.4.847-1.38 1.388-2.52 1.388Zm-1.35-2.235c0 .759.6 1.241 1.53 1.241 1.48 0 2.34-.92 2.34-2.439v-.19h-2.06c-1.1 0-1.81.526-1.81 1.388Zm8.02 5.098.95-2.863-2.76-7.48h1.21l2.09 5.844 2.1-5.844h1.21l-2.38 6.516-1.3 3.827h-1.12Zm8.41-2.863c-1.7 0-2.82-.95-2.94-2.484h1.12c.11.95.75 1.461 1.82 1.461.93 0 1.54-.511 1.54-1.11 0-2.192-4.29-.219-4.29-3.404 0-1.242 1.05-2.06 2.61-2.06 1.61 0 2.71.891 2.79 2.25h-1.12c-.12-.935-1.04-1.257-1.7-1.257-.86 0-1.43.409-1.43 1.052 0 1.987 4.31.015 4.31 3.39 0 1.315-1.09 2.162-2.71 2.162Z"/><path stroke="#FCFCFD" stroke-linecap="round" stroke-linejoin="round" stroke-opacity=".98" stroke-width="2.1" d="m1325 139.5 5 5 5-5"/><rect width="272" height="131" x="785.5" y="172.5" stroke="#fff" stroke-opacity=".1" rx="15.5"/><path fill="#FCFCFD" fill-opacity=".98" d="M810.61 207.117c-2.557 0-4.923-1.709-4.923-5.231 0-3.535 2.381-5.23 4.923-5.23 2.236 0 4.047 1.388 4.325 3.302h-1.3c-.19-1.256-1.461-2.177-3.025-2.177-2.133 0-3.638 1.446-3.638 4.105 0 2.66 1.505 4.106 3.638 4.106 1.593 0 2.878-.921 3.039-2.177h1.271c-.219 1.914-2.031 3.302-4.31 3.302Zm9.202 0c-2.177 0-3.741-1.593-3.741-3.799 0-2.22 1.564-3.798 3.741-3.798 2.191 0 3.754 1.578 3.754 3.798 0 2.206-1.563 3.799-3.754 3.799Zm-2.543-3.799c0 1.607 1.038 2.747 2.543 2.747 1.519 0 2.556-1.14 2.556-2.747s-1.037-2.746-2.556-2.746c-1.505 0-2.543 1.139-2.543 2.746Zm8.003 3.682v-7.363h1.169v1.417c.292-.891 1.095-1.534 2.235-1.534 1.212 0 2.162.555 2.41 1.563.278-.877 1.272-1.563 2.382-1.563 1.592 0 2.571 1.066 2.571 2.849V207h-1.169v-4.325c0-1.256-.628-2.118-1.665-2.118-1.242 0-1.972.862-1.972 2.118V207h-1.169v-4.325c0-1.256-.628-2.118-1.651-2.118-1.227 0-1.972.862-1.972 2.118V207h-1.169Zm12.883 2.98v-10.343h1.169v1.212c.453-.803 1.417-1.329 2.469-1.329 2.265 0 3.536 1.651 3.536 3.798 0 2.148-1.286 3.799-3.58 3.799-1.022 0-1.987-.511-2.425-1.3v4.163h-1.169Zm1.067-6.662c0 1.666.964 2.747 2.454 2.747 1.476 0 2.44-1.081 2.44-2.747 0-1.665-.964-2.746-2.44-2.746-1.49 0-2.454 1.081-2.454 2.746Zm7.822 3.682v-10.388h1.169V207h-1.169Zm6.537.117c-2.177 0-3.638-1.739-3.638-3.843 0-2.162 1.344-3.754 3.506-3.754 2.148 0 3.433 1.49 3.433 3.448 0 .16-.014.409-.029.511h-5.756c.087 1.519 1.096 2.601 2.484 2.601 1.198 0 1.957-.526 2.191-1.447h1.183c-.248 1.505-1.548 2.484-3.374 2.484Zm-2.426-4.573h4.529c-.087-1.242-.92-2.031-2.235-2.031-1.242 0-2.075.731-2.294 2.031Zm7.988-5.26h1.169v2.353h2.264v1.037h-2.264v3.988c0 .819.467 1.301 1.183 1.301h1.081V207h-1.125c-1.417 0-2.308-.877-2.308-2.308v-4.018h-1.534v-1.037h1.534v-2.353Zm7.949 9.833c-2.177 0-3.638-1.739-3.638-3.843 0-2.162 1.344-3.754 3.506-3.754 2.148 0 3.434 1.49 3.434 3.448 0 .16-.015.409-.029.511h-5.757c.088 1.519 1.096 2.601 2.484 2.601 1.198 0 1.958-.526 2.191-1.447h1.184c-.249 1.505-1.549 2.484-3.375 2.484Zm-2.425-4.573h4.529c-.088-1.242-.921-2.031-2.236-2.031-1.241 0-2.074.731-2.293 2.031Zm10.541 4.573c-2.293 0-3.55-1.651-3.55-3.799 0-2.147 1.257-3.798 3.55-3.798 1.038 0 2.002.526 2.44 1.315v-4.223h1.169V207h-1.169v-1.213c-.438.804-1.402 1.33-2.44 1.33Zm-2.337-3.799c0 1.666.964 2.747 2.44 2.747 1.475 0 2.44-1.081 2.44-2.747 0-1.665-.965-2.746-2.44-2.746-1.476 0-2.44 1.081-2.44 2.746ZM886.406 207v-9.102h-3.287v-1.125h7.787v1.125h-3.258V207h-1.242Zm7.451-6.326c-1.49 0-1.928 1.344-1.928 3.083V207h-1.169v-7.363h1.169v1.49c.321-1.008.92-1.49 2.001-1.49h.935v1.037h-1.008Zm4.288 6.443c-1.549 0-2.557-.877-2.557-2.221 0-1.402 1.155-2.294 2.937-2.294h1.666c.321 0 .467-.16.467-.394 0-1.008-.716-1.695-1.972-1.695-1.081 0-1.929.672-1.987 1.476h-1.111c.132-1.417 1.476-2.469 3.127-2.469 1.914 0 3.112 1.095 3.112 2.732V207h-1.169v-1.271c-.394.847-1.373 1.388-2.513 1.388Zm-1.359-2.235c0 .759.599 1.241 1.534 1.241 1.476 0 2.338-.92 2.338-2.439v-.19h-2.06c-1.096 0-1.812.526-1.812 1.388Zm7.171 2.118v-7.363h1.169v1.417c.395-1.023 1.301-1.534 2.44-1.534 1.666 0 2.747 1.183 2.747 2.98v4.5h-1.169v-4.31c0-1.256-.731-2.104-1.841-2.104-1.271 0-2.177 1.008-2.177 2.44V207h-1.169Zm10.842.117c-1.695 0-2.82-.95-2.936-2.484h1.125c.102.95.745 1.461 1.811 1.461.935 0 1.549-.511 1.549-1.11 0-2.192-4.296-.219-4.296-3.404 0-1.242 1.052-2.06 2.616-2.06 1.607 0 2.703.891 2.79 2.25h-1.125c-.117-.935-1.037-1.257-1.695-1.257-.862 0-1.431.409-1.431 1.052 0 1.987 4.31.015 4.31 3.39 0 1.315-1.096 2.162-2.718 2.162Zm6.645 0c-1.549 0-2.557-.877-2.557-2.221 0-1.402 1.155-2.294 2.937-2.294h1.665c.322 0 .468-.16.468-.394 0-1.008-.716-1.695-1.972-1.695-1.081 0-1.929.672-1.987 1.476h-1.111c.132-1.417 1.476-2.469 3.127-2.469 1.914 0 3.112 1.095 3.112 2.732V207h-1.169v-1.271c-.394.847-1.373 1.388-2.513 1.388Zm-1.359-2.235c0 .759.599 1.241 1.534 1.241 1.476 0 2.338-.92 2.338-2.439v-.19h-2.06c-1.096 0-1.812.526-1.812 1.388Zm10.239 2.235c-2.323 0-3.579-1.826-3.579-3.799 0-1.972 1.256-3.798 3.579-3.798 1.651 0 3.127.964 3.346 2.6h-1.154c-.146-.891-1.067-1.548-2.177-1.548-1.607 0-2.381 1.241-2.381 2.746s.789 2.747 2.381 2.747c1.11 0 1.914-.555 2.177-1.446h1.14c-.249 1.504-1.461 2.498-3.332 2.498Zm5.564-9.833h1.169v2.353h2.264v1.037h-2.264v3.988c0 .819.467 1.301 1.183 1.301h1.081V207h-1.125c-1.417 0-2.308-.877-2.308-2.308v-4.018h-1.534v-1.037h1.534v-2.353Zm4.908 9.716v-7.363h1.169V207h-1.169Zm-.087-8.751v-1.637h1.344v1.637h-1.344Zm6.726 8.868c-2.177 0-3.74-1.593-3.74-3.799 0-2.22 1.563-3.798 3.74-3.798 2.192 0 3.755 1.578 3.755 3.798 0 2.206-1.563 3.799-3.755 3.799Zm-2.542-3.799c0 1.607 1.037 2.747 2.542 2.747 1.519 0 2.557-1.14 2.557-2.747s-1.038-2.746-2.557-2.746c-1.505 0-2.542 1.139-2.542 2.746Zm8.002 3.682v-7.363h1.169v1.417c.394-1.023 1.3-1.534 2.44-1.534 1.665 0 2.747 1.183 2.747 2.98v4.5h-1.169v-4.31c0-1.256-.731-2.104-1.841-2.104-1.271 0-2.177 1.008-2.177 2.44V207h-1.169Zm10.842.117c-1.695 0-2.82-.95-2.937-2.484h1.125c.103.95.745 1.461 1.812 1.461.935 0 1.549-.511 1.549-1.11 0-2.192-4.296-.219-4.296-3.404 0-1.242 1.052-2.06 2.615-2.06 1.608 0 2.703.891 2.791 2.25h-1.125c-.117-.935-1.037-1.257-1.695-1.257-.862 0-1.432.409-1.432 1.052 0 1.987 4.31.015 4.31 3.39 0 1.315-1.095 2.162-2.717 2.162Zm-157.518 31.142c-.115-3.404 2.047-5.543 5.451-5.543 3.151 0 5.382 1.932 5.382 4.876 0 2.116-1.288 3.864-3.772 5.129l-2.369 1.196c-1.173.575-2.484 1.633-2.484 2.967h8.671V249h-11.017v-1.725c-.023-2.76 2.208-4.508 3.818-5.313l2.507-1.265c1.564-.805 2.208-1.817 2.208-3.128 0-1.702-1.219-2.806-2.944-2.806-1.932 0-3.105 1.403-3.013 3.496h-2.438Zm18.658 10.925c-3.266 0-5.842-2.047-5.842-5.244h2.346c0 1.932 1.518 3.128 3.496 3.128 2.07 0 3.381-1.012 3.381-2.714 0-1.725-1.311-2.645-3.381-2.645h-1.357v-2.047h1.334c1.725 0 2.783-1.058 2.783-2.507s-1.15-2.323-2.898-2.323c-1.702 0-2.829.943-2.921 2.737h-2.3c.092-2.99 2.369-4.853 5.244-4.853 3.036 0 5.267 1.84 5.267 4.278a3.974 3.974 0 0 1-2.208 3.542c1.656.552 2.852 1.955 2.852 3.841 0 3.105-2.714 4.807-5.796 4.807Zm8.048-10.925c-.115-3.404 2.047-5.543 5.451-5.543 3.151 0 5.382 1.932 5.382 4.876 0 2.116-1.288 3.864-3.772 5.129l-2.369 1.196c-1.173.575-2.484 1.633-2.484 2.967h8.671V249h-11.017v-1.725c-.023-2.76 2.208-4.508 3.818-5.313l2.507-1.265c1.564-.805 2.208-1.817 2.208-3.128 0-1.702-1.219-2.806-2.944-2.806-1.932 0-3.105 1.403-3.013 3.496h-2.438Z"/><path fill="#4CBE89" d="M811.268 269c.77-1.333 2.694-1.333 3.464 0l3.464 6c.77 1.333-.192 3-1.732 3h-6.928c-1.54 0-2.502-1.667-1.732-3l3.464-6Z"/><path fill="#2EAD72" d="M826.154 274.88v-1.023h2.849v-2.863h1.023v2.863h2.863v1.023h-2.863v2.849h-1.023v-2.849h-2.849Zm11.997 4.237c-1.885 0-3.288-1.271-3.463-2.995h1.213c.146 1.198 1.008 1.87 2.235 1.87 1.505 0 2.484-.877 2.484-2.338s-.979-2.425-2.469-2.425c-1.111 0-1.929.453-2.236 1.198h-1.022l.789-5.654h5.493v1.125h-4.544l-.453 3.083c.497-.468 1.344-.833 2.133-.833 2.133 0 3.594 1.432 3.594 3.506 0 2.075-1.534 3.463-3.754 3.463Zm5.247-.117 7.422-10.227h1.096L844.494 279h-1.096Zm-.438-8.006c0-1.301.935-2.338 2.22-2.338 1.271 0 2.192 1.037 2.192 2.338 0 1.3-.921 2.337-2.192 2.337-1.285 0-2.22-1.037-2.22-2.337Zm.935 0c0 .832.496 1.475 1.285 1.475.775 0 1.271-.643 1.271-1.475 0-.848-.496-1.491-1.271-1.491-.789 0-1.285.643-1.285 1.491Zm4.076 5.785c0-1.3.935-2.337 2.221-2.337 1.271 0 2.191 1.037 2.191 2.337 0 1.301-.92 2.338-2.191 2.338-1.286 0-2.221-1.037-2.221-2.338Zm.935 0c0 .833.497 1.476 1.286 1.476.774 0 1.271-.643 1.271-1.476 0-.847-.497-1.49-1.271-1.49-.789 0-1.286.643-1.286 1.49Z"/><path fill="#EBEBFD" fill-opacity=".45" d="m859.995 279-2.703-7.363h1.213l2.089 5.902 2.104-5.902h1.213L861.222 279h-1.227Zm7.516.117c-1.695 0-2.82-.95-2.937-2.484h1.125c.103.95.746 1.461 1.812 1.461.935 0 1.549-.511 1.549-1.11 0-2.192-4.296-.219-4.296-3.404 0-1.242 1.052-2.06 2.616-2.06 1.607 0 2.702.891 2.79 2.25h-1.125c-.117-.935-1.037-1.257-1.695-1.257-.862 0-1.431.409-1.431 1.052 0 1.987 4.31.015 4.31 3.39 0 1.315-1.096 2.162-2.718 2.162Zm7.949 2.863v-10.343h1.169v1.212c.452-.803 1.417-1.329 2.469-1.329 2.264 0 3.535 1.651 3.535 3.798 0 2.148-1.285 3.799-3.579 3.799-1.023 0-1.987-.511-2.425-1.3v4.163h-1.169Zm1.066-6.662c0 1.666.965 2.747 2.455 2.747 1.475 0 2.44-1.081 2.44-2.747 0-1.665-.965-2.746-2.44-2.746-1.49 0-2.455 1.081-2.455 2.746Zm10.92-2.644c-1.49 0-1.929 1.344-1.929 3.083V279h-1.169v-7.363h1.169v1.49c.322-1.008.921-1.49 2.002-1.49h.935v1.037h-1.008Zm5.18 6.443c-2.177 0-3.638-1.739-3.638-3.843 0-2.162 1.344-3.754 3.506-3.754 2.148 0 3.433 1.49 3.433 3.448 0 .16-.014.409-.029.511h-5.756c.088 1.519 1.096 2.601 2.484 2.601 1.198 0 1.957-.526 2.191-1.447H896c-.248 1.505-1.548 2.484-3.374 2.484Zm-2.426-4.573h4.529c-.087-1.242-.92-2.031-2.235-2.031-1.242 0-2.075.731-2.294 2.031Zm9.231 4.456-2.703-7.363h1.212l2.09 5.902 2.103-5.902h1.213L900.658 279h-1.227Zm5.334 0v-7.363h1.169V279h-1.169Zm-.087-8.751v-1.637h1.344v1.637h-1.344Zm6.726 8.868c-2.177 0-3.74-1.593-3.74-3.799 0-2.22 1.563-3.798 3.74-3.798 2.192 0 3.755 1.578 3.755 3.798 0 2.206-1.563 3.799-3.755 3.799Zm-2.542-3.799c0 1.607 1.037 2.747 2.542 2.747 1.52 0 2.557-1.14 2.557-2.747s-1.037-2.746-2.557-2.746c-1.505 0-2.542 1.139-2.542 2.746Zm14.255-3.681V279h-1.168v-1.417c-.395 1.023-1.301 1.534-2.426 1.534-1.665 0-2.746-1.184-2.746-2.981v-4.499h1.168v4.31c0 1.256.731 2.103 1.841 2.103 1.257 0 2.163-1.008 2.163-2.44v-3.973h1.168Zm4.589 7.48c-1.695 0-2.82-.95-2.937-2.484h1.125c.103.95.745 1.461 1.812 1.461.935 0 1.549-.511 1.549-1.11 0-2.192-4.296-.219-4.296-3.404 0-1.242 1.052-2.06 2.616-2.06 1.607 0 2.702.891 2.79 2.25h-1.125c-.117-.935-1.037-1.257-1.695-1.257-.862 0-1.431.409-1.431 1.052 0 1.987 4.309.015 4.309 3.39 0 1.315-1.095 2.162-2.717 2.162Zm10.301-10.344V279h-1.242v-8.094c-.161.234-.511.351-.92.351h-.965v-1.125h.818c.658 0 1.009-.278 1.096-1.359h1.213ZM945.2 279v-2.557h-5.479v-1.125l5.274-6.545h1.461v6.545h1.592v1.125h-1.592V279H945.2Zm-4.15-3.682h4.164v-5.172l-4.164 5.172Zm15.065 3.799c-2.294 0-3.551-1.651-3.551-3.799 0-2.147 1.257-3.798 3.551-3.798 1.037 0 2.001.526 2.439 1.315v-4.223h1.169V279h-1.169v-1.213c-.438.804-1.402 1.33-2.439 1.33Zm-2.338-3.799c0 1.666.964 2.747 2.44 2.747 1.475 0 2.44-1.081 2.44-2.747 0-1.665-.965-2.746-2.44-2.746-1.476 0-2.44 1.081-2.44 2.746Zm10.379 3.799c-1.549 0-2.557-.877-2.557-2.221 0-1.402 1.154-2.294 2.937-2.294h1.665c.322 0 .468-.16.468-.394 0-1.008-.716-1.695-1.973-1.695-1.081 0-1.928.672-1.986 1.476h-1.111c.132-1.417 1.476-2.469 3.127-2.469 1.914 0 3.112 1.095 3.112 2.732V279h-1.169v-1.271c-.395.847-1.374 1.388-2.513 1.388Zm-1.359-2.235c0 .759.599 1.241 1.534 1.241 1.476 0 2.338-.92 2.338-2.439v-.19h-2.06c-1.096 0-1.812.526-1.812 1.388Zm8.022 5.098.95-2.863-2.762-7.48h1.213l2.089 5.844 2.104-5.844h1.213l-2.382 6.516-1.3 3.827h-1.125Zm8.407-2.863c-1.695 0-2.819-.95-2.936-2.484h1.125c.102.95.745 1.461 1.811 1.461.935 0 1.549-.511 1.549-1.11 0-2.192-4.295-.219-4.295-3.404 0-1.242 1.051-2.06 2.615-2.06 1.607 0 2.703.891 2.79 2.25h-1.125c-.117-.935-1.037-1.257-1.694-1.257-.862 0-1.432.409-1.432 1.052 0 1.987 4.31.015 4.31 3.39 0 1.315-1.096 2.162-2.718 2.162Z"/><rect width="272" height="131" x="1074.5" y="172.5" stroke="#fff" stroke-opacity=".1" rx="15.5"/><path fill="#FCFCFD" fill-opacity=".98" d="M1095.24 207v-10.227h3.89c2.01 0 3.24 1.213 3.24 2.995 0 1.125-.63 1.929-1.59 2.381.8.439 1.28 1.272 1.36 2.309l.17 2.542h-1.21l-.17-2.469c-.06-.994-.71-1.695-1.67-1.695h-2.76V207h-1.26Zm1.26-5.289h2.61c1.45 0 1.99-.935 1.99-1.943s-.54-1.885-1.99-1.885h-2.61v3.828Zm10.85 5.406c-2.17 0-3.63-1.739-3.63-3.843 0-2.162 1.34-3.754 3.5-3.754 2.15 0 3.44 1.49 3.44 3.448 0 .16-.02.409-.03.511h-5.76c.09 1.519 1.1 2.601 2.48 2.601 1.2 0 1.96-.526 2.2-1.447h1.18c-.25 1.505-1.55 2.484-3.38 2.484Zm-2.42-4.573h4.53c-.09-1.242-.92-2.031-2.24-2.031-1.24 0-2.07.731-2.29 2.031Zm8.02 4.456v-6.326h-1.54v-1.037h1.54v-.746c0-1.402.89-2.279 2.29-2.279h1.15v1.038h-1.11c-.7 0-1.17.467-1.17 1.256v.731h2.28v1.037h-2.28V207h-1.16Zm10.93-7.363V207h-1.17v-1.417c-.4 1.023-1.3 1.534-2.43 1.534-1.66 0-2.74-1.184-2.74-2.981v-4.499h1.17v4.31c0 1.256.73 2.103 1.84 2.103 1.25 0 2.16-1.008 2.16-2.44v-3.973h1.17Zm2.22 7.363v-7.363h1.17v1.417c.39-1.023 1.3-1.534 2.44-1.534 1.66 0 2.74 1.183 2.74 2.98v4.5h-1.16v-4.31c0-1.256-.73-2.104-1.84-2.104-1.28 0-2.18 1.008-2.18 2.44V207h-1.17Zm11.53.117c-2.3 0-3.55-1.651-3.55-3.799 0-2.147 1.25-3.798 3.55-3.798 1.04 0 2 .526 2.44 1.315v-4.223h1.17V207h-1.17v-1.213c-.44.804-1.4 1.33-2.44 1.33Zm-2.34-3.799c0 1.666.96 2.747 2.44 2.747s2.44-1.081 2.44-2.747c0-1.665-.96-2.746-2.44-2.746s-2.44 1.081-2.44 2.746Zm10.54 3.799c-1.69 0-2.82-.95-2.94-2.484h1.13c.1.95.74 1.461 1.81 1.461.94 0 1.55-.511 1.55-1.11 0-2.192-4.3-.219-4.3-3.404 0-1.242 1.06-2.06 2.62-2.06 1.61 0 2.7.891 2.79 2.25h-1.13c-.11-.935-1.03-1.257-1.69-1.257-.86 0-1.43.409-1.43 1.052 0 1.987 4.31.015 4.31 3.39 0 1.315-1.1 2.162-2.72 2.162Zm-50.61 31.142c-.12-3.404 2.05-5.543 5.45-5.543 3.15 0 5.38 1.932 5.38 4.876 0 2.116-1.29 3.864-3.77 5.129l-2.37 1.196c-1.17.575-2.48 1.633-2.48 2.967h8.67V249h-11.02v-1.725c-.02-2.76 2.21-4.508 3.82-5.313l2.51-1.265c1.56-.805 2.2-1.817 2.2-3.128 0-1.702-1.21-2.806-2.94-2.806-1.93 0-3.1 1.403-3.01 3.496h-2.44Zm17.92-5.359V249h-2.39v-12.374c-.28.368-.99.575-1.63.575h-1.43v-2.116h1.24c1.11 0 1.75-.46 1.89-2.185h2.32Z"/><path fill="#4CBE89" d="M1102.66 277c-.77 1.333-2.69 1.333-3.46 0l-3.47-6c-.77-1.333.19-3 1.73-3h6.93c1.54 0 2.5 1.667 1.73 3l-3.46 6Zm9.88-2.12v-1.023h5.34v1.023h-5.34Zm6.54-2.791c-.07-2.089 1.27-3.433 3.38-3.433 1.92 0 3.31 1.198 3.31 3.054 0 1.329-.82 2.454-2.38 3.228l-1.46.746c-.83.423-1.77 1.198-1.77 2.191h5.67V279h-6.88v-.891c0-1.826 1.43-2.951 2.48-3.477l1.57-.804c1.09-.555 1.49-1.256 1.49-2.148 0-1.168-.87-1.928-2.03-1.928-1.32 0-2.15.935-2.09 2.337h-1.29Zm8.38 6.911 7.42-10.227h1.1L1128.55 279h-1.09Zm-.44-8.006c0-1.301.93-2.338 2.22-2.338 1.27 0 2.19 1.037 2.19 2.338 0 1.3-.92 2.337-2.19 2.337-1.29 0-2.22-1.037-2.22-2.337Zm.93 0c0 .832.5 1.475 1.29 1.475.77 0 1.27-.643 1.27-1.475 0-.848-.5-1.491-1.27-1.491-.79 0-1.29.643-1.29 1.491Zm4.08 5.785c0-1.3.94-2.337 2.22-2.337 1.27 0 2.19 1.037 2.19 2.337 0 1.301-.92 2.338-2.19 2.338-1.28 0-2.22-1.037-2.22-2.338Zm.94 0c0 .833.49 1.476 1.28 1.476.78 0 1.27-.643 1.27-1.476 0-.847-.49-1.49-1.27-1.49-.79 0-1.28.643-1.28 1.49Z"/><path fill="#EBEBFD" fill-opacity=".45" d="m1144.85 279-2.7-7.363h1.21l2.09 5.902 2.1-5.902h1.22l-2.69 7.363h-1.23Zm7.52.117c-1.7 0-2.82-.95-2.94-2.484h1.13c.1.95.74 1.461 1.81 1.461.93 0 1.55-.511 1.55-1.11 0-2.192-4.3-.219-4.3-3.404 0-1.242 1.05-2.06 2.62-2.06 1.6 0 2.7.891 2.79 2.25h-1.13c-.12-.935-1.04-1.257-1.69-1.257-.87 0-1.43.409-1.43 1.052 0 1.987 4.31.015 4.31 3.39 0 1.315-1.1 2.162-2.72 2.162Zm7.95 2.863v-10.343h1.16v1.212c.46-.803 1.42-1.329 2.47-1.329 2.27 0 3.54 1.651 3.54 3.798 0 2.148-1.29 3.799-3.58 3.799-1.02 0-1.99-.511-2.43-1.3v4.163h-1.16Zm1.06-6.662c0 1.666.97 2.747 2.46 2.747 1.47 0 2.44-1.081 2.44-2.747 0-1.665-.97-2.746-2.44-2.746-1.49 0-2.46 1.081-2.46 2.746Zm10.92-2.644c-1.49 0-1.93 1.344-1.93 3.083V279h-1.17v-7.363h1.17v1.49c.33-1.008.92-1.49 2.01-1.49h.93v1.037h-1.01Zm5.18 6.443c-2.17 0-3.64-1.739-3.64-3.843 0-2.162 1.35-3.754 3.51-3.754 2.15 0 3.43 1.49 3.43 3.448 0 .16-.01.409-.03.511H1175c.09 1.519 1.09 2.601 2.48 2.601 1.2 0 1.96-.526 2.19-1.447h1.19c-.25 1.505-1.55 2.484-3.38 2.484Zm-2.42-4.573h4.53c-.09-1.242-.92-2.031-2.24-2.031-1.24 0-2.07.731-2.29 2.031Zm9.23 4.456-2.71-7.363h1.22l2.09 5.902 2.1-5.902h1.21l-2.69 7.363h-1.22Zm5.33 0v-7.363h1.17V279h-1.17Zm-.09-8.751v-1.637h1.35v1.637h-1.35Zm6.73 8.868c-2.18 0-3.74-1.593-3.74-3.799 0-2.22 1.56-3.798 3.74-3.798 2.19 0 3.76 1.578 3.76 3.798 0 2.206-1.57 3.799-3.76 3.799Zm-2.54-3.799c0 1.607 1.04 2.747 2.54 2.747 1.52 0 2.56-1.14 2.56-2.747s-1.04-2.746-2.56-2.746c-1.5 0-2.54 1.139-2.54 2.746Zm14.25-3.681V279h-1.17v-1.417c-.39 1.023-1.3 1.534-2.42 1.534-1.67 0-2.75-1.184-2.75-2.981v-4.499h1.17v4.31c0 1.256.73 2.103 1.84 2.103 1.26 0 2.16-1.008 2.16-2.44v-3.973h1.17Zm4.59 7.48c-1.69 0-2.82-.95-2.93-2.484h1.12c.1.95.75 1.461 1.81 1.461.94 0 1.55-.511 1.55-1.11 0-2.192-4.29-.219-4.29-3.404 0-1.242 1.05-2.06 2.61-2.06 1.61 0 2.7.891 2.79 2.25h-1.12c-.12-.935-1.04-1.257-1.7-1.257-.86 0-1.43.409-1.43 1.052 0 1.987 4.31.015 4.31 3.39 0 1.315-1.1 2.162-2.72 2.162Zm10.3-10.344V279h-1.24v-8.094c-.16.234-.51.351-.92.351h-.96v-1.125h.81c.66 0 1.01-.278 1.1-1.359h1.21Zm7.2 10.227v-2.557h-5.48v-1.125l5.27-6.545h1.46v6.545h1.59v1.125h-1.59V279h-1.25Zm-4.15-3.682h4.16v-5.172l-4.16 5.172Zm15.06 3.799c-2.29 0-3.55-1.651-3.55-3.799 0-2.147 1.26-3.798 3.55-3.798 1.04 0 2 .526 2.44 1.315v-4.223h1.17V279h-1.17v-1.213c-.44.804-1.4 1.33-2.44 1.33Zm-2.34-3.799c0 1.666.97 2.747 2.44 2.747 1.48 0 2.44-1.081 2.44-2.747 0-1.665-.96-2.746-2.44-2.746-1.47 0-2.44 1.081-2.44 2.746Zm10.38 3.799c-1.55 0-2.55-.877-2.55-2.221 0-1.402 1.15-2.294 2.93-2.294h1.67c.32 0 .47-.16.47-.394 0-1.008-.72-1.695-1.98-1.695-1.08 0-1.93.672-1.98 1.476h-1.11c.13-1.417 1.47-2.469 3.12-2.469 1.92 0 3.11 1.095 3.11 2.732V279h-1.16v-1.271c-.4.847-1.38 1.388-2.52 1.388Zm-1.36-2.235c0 .759.6 1.241 1.54 1.241 1.47 0 2.34-.92 2.34-2.439v-.19h-2.06c-1.1 0-1.82.526-1.82 1.388Zm8.03 5.098.95-2.863-2.77-7.48h1.22l2.09 5.844 2.1-5.844h1.21l-2.38 6.516-1.3 3.827h-1.12Zm8.4-2.863c-1.69 0-2.82-.95-2.93-2.484h1.12c.1.95.75 1.461 1.81 1.461.94 0 1.55-.511 1.55-1.11 0-2.192-4.29-.219-4.29-3.404 0-1.242 1.05-2.06 2.61-2.06 1.61 0 2.7.891 2.79 2.25h-1.12c-.12-.935-1.04-1.257-1.7-1.257-.86 0-1.43.409-1.43 1.052 0 1.987 4.31.015 4.31 3.39 0 1.315-1.1 2.162-2.72 2.162Z"/><rect width="272" height="131" x="785.5" y="320.5" stroke="#fff" stroke-opacity=".1" rx="15.5"/><path fill="#FCFCFD" fill-opacity=".98" d="M806.242 355v-10.227h1.432l5.259 8.328v-8.328h1.257V355h-1.432l-5.26-8.298V355h-1.256Zm13.325.117c-2.177 0-3.638-1.739-3.638-3.843 0-2.162 1.344-3.754 3.506-3.754 2.148 0 3.433 1.49 3.433 3.448 0 .16-.014.409-.029.511h-5.756c.088 1.519 1.096 2.601 2.484 2.601 1.198 0 1.957-.526 2.191-1.447h1.184c-.249 1.505-1.549 2.484-3.375 2.484Zm-2.426-4.573h4.529c-.087-1.242-.92-2.031-2.235-2.031-1.242 0-2.074.731-2.294 2.031Zm8.921 4.456-2.235-7.363h1.169l1.622 5.844 1.811-5.844h1.14l1.797 5.844 1.607-5.844h1.183L831.921 355h-1.125l-1.812-5.859-1.797 5.859h-1.125Zm12.952 0v-10.227h1.637l3.36 8.547 3.375-8.547h1.622V355h-1.213v-8.152L844.552 355h-1.081l-3.244-8.152V355h-1.213Zm15.366.117c-2.177 0-3.638-1.739-3.638-3.843 0-2.162 1.344-3.754 3.506-3.754 2.148 0 3.433 1.49 3.433 3.448 0 .16-.014.409-.029.511h-5.756c.087 1.519 1.096 2.601 2.484 2.601 1.198 0 1.957-.526 2.191-1.447h1.183c-.248 1.505-1.548 2.484-3.374 2.484Zm-2.426-4.573h4.529c-.087-1.242-.92-2.031-2.235-2.031-1.242 0-2.075.731-2.294 2.031Zm10.586-1.87c-1.49 0-1.929 1.344-1.929 3.083V355h-1.168v-7.363h1.168v1.49c.322-1.008.921-1.49 2.002-1.49h.935v1.037h-1.008Zm5.121 6.443c-2.323 0-3.579-1.826-3.579-3.799 0-1.972 1.256-3.798 3.579-3.798 1.651 0 3.127.964 3.346 2.6h-1.154c-.146-.891-1.067-1.548-2.177-1.548-1.607 0-2.382 1.241-2.382 2.746s.789 2.747 2.382 2.747c1.11 0 1.914-.555 2.177-1.446h1.139c-.248 1.504-1.461 2.498-3.331 2.498Zm4.979-.117v-10.388h1.169v4.442c.394-1.023 1.3-1.534 2.44-1.534 1.665 0 2.746 1.183 2.746 2.98v4.5h-1.168v-4.31c0-1.256-.731-2.104-1.841-2.104-1.271 0-2.177 1.008-2.177 2.44V355h-1.169Zm10.681.117c-1.549 0-2.557-.877-2.557-2.221 0-1.402 1.155-2.294 2.937-2.294h1.666c.321 0 .467-.16.467-.394 0-1.008-.716-1.695-1.972-1.695-1.081 0-1.929.672-1.987 1.476h-1.111c.132-1.417 1.476-2.469 3.127-2.469 1.914 0 3.112 1.095 3.112 2.732V355h-1.169v-1.271c-.394.847-1.373 1.388-2.513 1.388Zm-1.359-2.235c0 .759.599 1.241 1.534 1.241 1.476 0 2.338-.92 2.338-2.439v-.19h-2.06c-1.096 0-1.812.526-1.812 1.388Zm7.171 2.118v-7.363h1.169v1.417c.395-1.023 1.3-1.534 2.44-1.534 1.666 0 2.747 1.183 2.747 2.98v4.5h-1.169v-4.31c0-1.256-.731-2.104-1.841-2.104-1.271 0-2.177 1.008-2.177 2.44V355h-1.169Zm8.96-9.716h1.169v2.353h2.265v1.037h-2.265v3.988c0 .819.468 1.301 1.183 1.301h1.082V355h-1.125c-1.418 0-2.309-.877-2.309-2.308v-4.018h-1.534v-1.037h1.534v-2.353Zm7.275 9.833c-1.694 0-2.819-.95-2.936-2.484h1.125c.102.95.745 1.461 1.811 1.461.935 0 1.549-.511 1.549-1.11 0-2.192-4.295-.219-4.295-3.404 0-1.242 1.052-2.06 2.615-2.06 1.607 0 2.703.891 2.79 2.25h-1.125c-.117-.935-1.037-1.257-1.694-1.257-.862 0-1.432.409-1.432 1.052 0 1.987 4.31.015 4.31 3.39 0 1.315-1.096 2.162-2.718 2.162Zm-93.008 31.119c3.358 0 5.658 2.346 5.658 5.474 0 3.151-2.507 5.474-5.842 5.474-3.818 0-6.072-3.082-6.072-7.498 0-5.888 2.691-8.993 6.348-8.993 3.105 0 5.313 1.863 5.704 4.416h-2.323c-.299-1.426-1.541-2.346-3.312-2.346-2.415 0-4.048 2.507-4.186 5.773.667-1.357 2.369-2.3 4.025-2.3Zm-3.542 5.451c0 1.978 1.403 3.381 3.381 3.381 2.001 0 3.381-1.403 3.381-3.381 0-1.955-1.38-3.335-3.381-3.335-1.978 0-3.381 1.38-3.381 3.335Z"/><path fill="#4CBE89" d="M811.268 417c.77-1.333 2.694-1.333 3.464 0l3.464 6c.77 1.333-.192 3-1.732 3h-6.928c-1.54 0-2.502-1.667-1.732-3l3.464-6Z"/><path fill="#2EAD72" d="M826.154 422.88v-1.023h2.849v-2.863h1.023v2.863h2.863v1.023h-2.863v2.849h-1.023v-2.849h-2.849Zm8.739-2.791c-.073-2.089 1.271-3.433 3.375-3.433 1.928 0 3.316 1.198 3.316 3.054 0 1.329-.818 2.454-2.381 3.228l-1.461.746c-.833.423-1.768 1.198-1.768 2.191h5.669V427h-6.882v-.891c0-1.826 1.432-2.951 2.484-3.477l1.563-.804c1.096-.555 1.49-1.256 1.49-2.148 0-1.168-.862-1.928-2.03-1.928-1.315 0-2.148.935-2.09 2.337h-1.285Zm11.561 7.028c-1.884 0-3.287-1.271-3.462-2.995h1.213c.146 1.198 1.008 1.87 2.235 1.87 1.505 0 2.484-.877 2.484-2.338s-.979-2.425-2.47-2.425c-1.11 0-1.928.453-2.235 1.198h-1.023l.789-5.654h5.494v1.125h-4.544l-.453 3.083c.497-.468 1.344-.833 2.133-.833 2.133 0 3.594 1.432 3.594 3.506 0 2.075-1.534 3.463-3.755 3.463Zm5.248-.117 7.421-10.227h1.096L852.797 427h-1.095Zm-.439-8.006c0-1.301.935-2.338 2.221-2.338 1.271 0 2.192 1.037 2.192 2.338 0 1.3-.921 2.337-2.192 2.337-1.286 0-2.221-1.037-2.221-2.337Zm.935 0c0 .832.497 1.475 1.286 1.475.774 0 1.271-.643 1.271-1.475 0-.848-.497-1.491-1.271-1.491-.789 0-1.286.643-1.286 1.491Zm4.077 5.785c0-1.3.935-2.337 2.22-2.337 1.271 0 2.192 1.037 2.192 2.337 0 1.301-.921 2.338-2.192 2.338-1.285 0-2.22-1.037-2.22-2.338Zm.935 0c0 .833.496 1.476 1.285 1.476.775 0 1.271-.643 1.271-1.476 0-.847-.496-1.49-1.271-1.49-.789 0-1.285.643-1.285 1.49Z"/><path fill="#EBEBFD" fill-opacity=".45" d="m868.995 427-2.703-7.363h1.213l2.089 5.902 2.104-5.902h1.213L870.222 427h-1.227Zm7.516.117c-1.695 0-2.82-.95-2.937-2.484h1.125c.103.95.746 1.461 1.812 1.461.935 0 1.549-.511 1.549-1.11 0-2.192-4.296-.219-4.296-3.404 0-1.242 1.052-2.06 2.616-2.06 1.607 0 2.702.891 2.79 2.25h-1.125c-.117-.935-1.037-1.257-1.695-1.257-.862 0-1.431.409-1.431 1.052 0 1.987 4.31.015 4.31 3.39 0 1.315-1.096 2.162-2.718 2.162Zm7.949 2.863v-10.343h1.169v1.212c.452-.803 1.417-1.329 2.469-1.329 2.264 0 3.535 1.651 3.535 3.798 0 2.148-1.285 3.799-3.579 3.799-1.023 0-1.987-.511-2.425-1.3v4.163h-1.169Zm1.066-6.662c0 1.666.965 2.747 2.455 2.747 1.475 0 2.44-1.081 2.44-2.747 0-1.665-.965-2.746-2.44-2.746-1.49 0-2.455 1.081-2.455 2.746Zm10.92-2.644c-1.49 0-1.929 1.344-1.929 3.083V427h-1.169v-7.363h1.169v1.49c.322-1.008.921-1.49 2.002-1.49h.935v1.037h-1.008Zm5.18 6.443c-2.177 0-3.638-1.739-3.638-3.843 0-2.162 1.344-3.754 3.506-3.754 2.148 0 3.433 1.49 3.433 3.448 0 .16-.014.409-.029.511h-5.756c.088 1.519 1.096 2.601 2.484 2.601 1.198 0 1.957-.526 2.191-1.447H905c-.248 1.505-1.548 2.484-3.374 2.484Zm-2.426-4.573h4.529c-.087-1.242-.92-2.031-2.235-2.031-1.242 0-2.075.731-2.294 2.031Zm9.231 4.456-2.703-7.363h1.212l2.09 5.902 2.103-5.902h1.213L909.658 427h-1.227Zm5.334 0v-7.363h1.169V427h-1.169Zm-.087-8.751v-1.637h1.344v1.637h-1.344Zm6.726 8.868c-2.177 0-3.74-1.593-3.74-3.799 0-2.22 1.563-3.798 3.74-3.798 2.192 0 3.755 1.578 3.755 3.798 0 2.206-1.563 3.799-3.755 3.799Zm-2.542-3.799c0 1.607 1.037 2.747 2.542 2.747 1.52 0 2.557-1.14 2.557-2.747s-1.037-2.746-2.557-2.746c-1.505 0-2.542 1.139-2.542 2.746Zm14.255-3.681V427h-1.168v-1.417c-.395 1.023-1.301 1.534-2.426 1.534-1.665 0-2.746-1.184-2.746-2.981v-4.499h1.168v4.31c0 1.256.731 2.103 1.841 2.103 1.257 0 2.163-1.008 2.163-2.44v-3.973h1.168Zm4.589 7.48c-1.695 0-2.82-.95-2.937-2.484h1.125c.103.95.745 1.461 1.812 1.461.935 0 1.549-.511 1.549-1.11 0-2.192-4.296-.219-4.296-3.404 0-1.242 1.052-2.06 2.616-2.06 1.607 0 2.702.891 2.79 2.25h-1.125c-.117-.935-1.037-1.257-1.695-1.257-.862 0-1.431.409-1.431 1.052 0 1.987 4.309.015 4.309 3.39 0 1.315-1.095 2.162-2.717 2.162Zm10.301-10.344V427h-1.242v-8.094c-.161.234-.511.351-.92.351h-.965v-1.125h.818c.658 0 1.009-.278 1.096-1.359h1.213ZM954.2 427v-2.557h-5.479v-1.125l5.274-6.545h1.461v6.545h1.592v1.125h-1.592V427H954.2Zm-4.15-3.682h4.164v-5.172l-4.164 5.172Zm15.065 3.799c-2.294 0-3.551-1.651-3.551-3.799 0-2.147 1.257-3.798 3.551-3.798 1.037 0 2.001.526 2.439 1.315v-4.223h1.169V427h-1.169v-1.213c-.438.804-1.402 1.33-2.439 1.33Zm-2.338-3.799c0 1.666.964 2.747 2.44 2.747 1.475 0 2.44-1.081 2.44-2.747 0-1.665-.965-2.746-2.44-2.746-1.476 0-2.44 1.081-2.44 2.746Zm10.379 3.799c-1.549 0-2.557-.877-2.557-2.221 0-1.402 1.154-2.294 2.937-2.294h1.665c.322 0 .468-.16.468-.394 0-1.008-.716-1.695-1.973-1.695-1.081 0-1.928.672-1.986 1.476h-1.111c.132-1.417 1.476-2.469 3.127-2.469 1.914 0 3.112 1.095 3.112 2.732V427h-1.169v-1.271c-.395.847-1.374 1.388-2.513 1.388Zm-1.359-2.235c0 .759.599 1.241 1.534 1.241 1.476 0 2.338-.92 2.338-2.439v-.19h-2.06c-1.096 0-1.812.526-1.812 1.388Zm8.022 5.098.95-2.863-2.762-7.48h1.213l2.089 5.844 2.104-5.844h1.213l-2.382 6.516-1.3 3.827h-1.125Zm8.407-2.863c-1.695 0-2.819-.95-2.936-2.484h1.125c.102.95.745 1.461 1.811 1.461.935 0 1.549-.511 1.549-1.11 0-2.192-4.295-.219-4.295-3.404 0-1.242 1.051-2.06 2.615-2.06 1.607 0 2.703.891 2.79 2.25h-1.125c-.117-.935-1.037-1.257-1.694-1.257-.862 0-1.432.409-1.432 1.052 0 1.987 4.31.015 4.31 3.39 0 1.315-1.096 2.162-2.718 2.162Z"/><rect width="272" height="131" x="1074.5" y="320.5" stroke="#fff" stroke-opacity=".1" rx="15.5"/><path fill="#FCFCFD" fill-opacity=".98" d="M1095.24 355v-10.227h3.67c1.93 0 3.11.964 3.11 2.63 0 .949-.66 1.709-1.36 2.001 1.05.351 1.83 1.184 1.83 2.616 0 1.84-1.24 2.98-3.35 2.98h-3.9Zm1.24-1.125h2.44c1.51 0 2.3-.657 2.3-1.87 0-1.227-.79-1.885-2.3-1.885h-2.44v3.755Zm0-4.865h2.39c1.24 0 1.91-.526 1.91-1.578s-.67-1.563-1.9-1.563h-2.4v3.141Zm7.76 5.99v-10.388h1.17V355h-1.17Zm6.64.117c-2.18 0-3.74-1.593-3.74-3.799 0-2.22 1.56-3.798 3.74-3.798 2.19 0 3.76 1.578 3.76 3.798 0 2.206-1.57 3.799-3.76 3.799Zm-2.54-3.799c0 1.607 1.04 2.747 2.54 2.747 1.52 0 2.56-1.14 2.56-2.747s-1.04-2.746-2.56-2.746c-1.5 0-2.54 1.139-2.54 2.746Zm11.07 3.799c-2.32 0-3.58-1.826-3.58-3.799 0-1.972 1.26-3.798 3.58-3.798 1.65 0 3.13.964 3.34 2.6h-1.15c-.15-.891-1.07-1.548-2.18-1.548-1.6 0-2.38 1.241-2.38 2.746s.79 2.747 2.38 2.747c1.11 0 1.92-.555 2.18-1.446h1.14c-.25 1.504-1.46 2.498-3.33 2.498Zm4.98-.117v-10.388h1.18v6.151l3.48-3.126h1.55l-3.17 2.878 3.44 4.485h-1.47l-2.85-3.696-.98.891V355h-1.18Zm10.27.117c-2.17 0-3.64-1.739-3.64-3.843 0-2.162 1.35-3.754 3.51-3.754 2.15 0 3.43 1.49 3.43 3.448 0 .16-.01.409-.03.511h-5.75c.09 1.519 1.09 2.601 2.48 2.601 1.2 0 1.96-.526 2.19-1.447h1.19c-.25 1.505-1.55 2.484-3.38 2.484Zm-2.42-4.573h4.53c-.09-1.242-.92-2.031-2.24-2.031-1.24 0-2.07.731-2.29 2.031Zm10.54 4.573c-2.3 0-3.55-1.651-3.55-3.799 0-2.147 1.25-3.798 3.55-3.798 1.04 0 2 .526 2.44 1.315v-4.223h1.17V355h-1.17v-1.213c-.44.804-1.4 1.33-2.44 1.33Zm-2.34-3.799c0 1.666.97 2.747 2.44 2.747 1.48 0 2.44-1.081 2.44-2.747 0-1.665-.96-2.746-2.44-2.746-1.47 0-2.44 1.081-2.44 2.746Zm11.82 3.682v-10.227h1.63l3.36 8.547 3.38-8.547h1.62V355h-1.21v-8.152l-3.25 8.152h-1.08l-3.24-8.152V355h-1.21Zm15.36.117c-2.18 0-3.64-1.739-3.64-3.843 0-2.162 1.35-3.754 3.51-3.754 2.15 0 3.43 1.49 3.43 3.448 0 .16-.01.409-.03.511h-5.75c.08 1.519 1.09 2.601 2.48 2.601 1.2 0 1.96-.526 2.19-1.447h1.19c-.25 1.505-1.55 2.484-3.38 2.484Zm-2.43-4.573h4.53c-.08-1.242-.92-2.031-2.23-2.031-1.24 0-2.08.731-2.3 2.031Zm10.59-1.87c-1.49 0-1.93 1.344-1.93 3.083V355h-1.17v-7.363h1.17v1.49c.32-1.008.92-1.49 2-1.49h.94v1.037h-1.01Zm5.12 6.443c-2.32 0-3.58-1.826-3.58-3.799 0-1.972 1.26-3.798 3.58-3.798 1.65 0 3.13.964 3.35 2.6h-1.16c-.14-.891-1.06-1.548-2.17-1.548-1.61 0-2.38 1.241-2.38 2.746s.78 2.747 2.38 2.747c1.11 0 1.91-.555 2.17-1.446h1.14c-.25 1.504-1.46 2.498-3.33 2.498Zm4.98-.117v-10.388h1.17v4.442c.39-1.023 1.3-1.534 2.44-1.534 1.66 0 2.75 1.183 2.75 2.98v4.5h-1.17v-4.31c0-1.256-.73-2.104-1.84-2.104-1.27 0-2.18 1.008-2.18 2.44V355h-1.17Zm10.68.117c-1.55 0-2.56-.877-2.56-2.221 0-1.402 1.16-2.294 2.94-2.294h1.67c.32 0 .46-.16.46-.394 0-1.008-.71-1.695-1.97-1.695-1.08 0-1.93.672-1.98 1.476H1194c.14-1.417 1.48-2.469 3.13-2.469 1.92 0 3.11 1.095 3.11 2.732V355h-1.17v-1.271c-.39.847-1.37 1.388-2.51 1.388Zm-1.36-2.235c0 .759.6 1.241 1.54 1.241 1.47 0 2.33-.92 2.33-2.439v-.19h-2.06c-1.09 0-1.81.526-1.81 1.388Zm7.17 2.118v-7.363h1.17v1.417c.4-1.023 1.3-1.534 2.44-1.534 1.67 0 2.75 1.183 2.75 2.98v4.5h-1.17v-4.31c0-1.256-.73-2.104-1.84-2.104-1.27 0-2.18 1.008-2.18 2.44V355h-1.17Zm8.96-9.716h1.17v2.353h2.27v1.037h-2.27v3.988c0 .819.47 1.301 1.19 1.301h1.08V355h-1.13c-1.41 0-2.31-.877-2.31-2.308v-4.018h-1.53v-1.037h1.53v-2.353Zm7.28 9.833c-1.7 0-2.82-.95-2.94-2.484h1.13c.1.95.74 1.461 1.81 1.461.93 0 1.55-.511 1.55-1.11 0-2.192-4.3-.219-4.3-3.404 0-1.242 1.05-2.06 2.62-2.06 1.6 0 2.7.891 2.79 2.25h-1.13c-.11-.935-1.03-1.257-1.69-1.257-.86 0-1.43.409-1.43 1.052 0 1.987 4.31.015 4.31 3.39 0 1.315-1.1 2.162-2.72 2.162ZM1103.2 397v-3.772h-8.49v-2.116l8.17-10.212h2.71v10.212h2.33v2.116h-2.33V397h-2.39Zm-6.03-5.888h6.03v-7.475l-6.03 7.475Zm17.82 6.072c-3.01 0-5.29-2.047-5.52-4.807h2.28c.23 1.725 1.45 2.691 3.24 2.691 2.17 0 3.55-1.288 3.55-3.381s-1.38-3.473-3.52-3.473c-1.61 0-2.74.621-3.22 1.702h-2.03l1.29-9.016h8.79v2.116h-6.99l-.65 4.347c.71-.644 1.91-1.173 3.18-1.173 3.28 0 5.58 2.3 5.58 5.497 0 3.266-2.48 5.497-5.98 5.497Z"/><path fill="#4CBE89" d="M1102.66 425c-.77 1.333-2.69 1.333-3.46 0l-3.47-6c-.77-1.333.19-3 1.73-3h6.93c1.54 0 2.5 1.667 1.73 3l-3.46 6Zm9.88-2.12v-1.023h5.34v1.023h-5.34Zm12 4.12v-2.557h-5.48v-1.125l5.27-6.545h1.46v6.545h1.6v1.125h-1.6V427h-1.25Zm-4.15-3.682h4.16v-5.172l-4.16 5.172Zm11.74 3.799c-2.47 0-3.47-1.695-3.47-4.821v-.819c0-3.126 1-4.821 3.47-4.821h.51c2.5 0 3.5 1.695 3.5 4.821v.819c0 3.126-1 4.821-3.5 4.821h-.51Zm-2.22-4.675c0 2.366.67 3.55 2.27 3.55h.45c1.59 0 2.26-1.184 2.26-3.55v-1.111c0-2.366-.67-3.55-2.26-3.55h-.45c-1.6 0-2.27 1.184-2.27 3.55v1.111Zm8.02 4.558 7.42-10.227h1.1L1139.03 427h-1.1Zm-.44-8.006c0-1.301.94-2.338 2.22-2.338 1.27 0 2.19 1.037 2.19 2.338 0 1.3-.92 2.337-2.19 2.337-1.28 0-2.22-1.037-2.22-2.337Zm.94 0c0 .832.49 1.475 1.28 1.475.78 0 1.27-.643 1.27-1.475 0-.848-.49-1.491-1.27-1.491-.79 0-1.28.643-1.28 1.491Zm4.07 5.785c0-1.3.94-2.337 2.22-2.337 1.27 0 2.2 1.037 2.2 2.337 0 1.301-.93 2.338-2.2 2.338-1.28 0-2.22-1.037-2.22-2.338Zm.94 0c0 .833.49 1.476 1.28 1.476.78 0 1.27-.643 1.27-1.476 0-.847-.49-1.49-1.27-1.49-.79 0-1.28.643-1.28 1.49Z"/><path fill="#EBEBFD" fill-opacity=".45" d="m1154.85 427-2.7-7.363h1.21l2.09 5.902 2.1-5.902h1.22l-2.69 7.363h-1.23Zm7.52.117c-1.7 0-2.82-.95-2.94-2.484h1.13c.1.95.74 1.461 1.81 1.461.93 0 1.55-.511 1.55-1.11 0-2.192-4.3-.219-4.3-3.404 0-1.242 1.05-2.06 2.62-2.06 1.6 0 2.7.891 2.79 2.25h-1.13c-.12-.935-1.04-1.257-1.69-1.257-.87 0-1.43.409-1.43 1.052 0 1.987 4.31.015 4.31 3.39 0 1.315-1.1 2.162-2.72 2.162Zm7.95 2.863v-10.343h1.16v1.212c.46-.803 1.42-1.329 2.47-1.329 2.27 0 3.54 1.651 3.54 3.798 0 2.148-1.29 3.799-3.58 3.799-1.02 0-1.99-.511-2.43-1.3v4.163h-1.16Zm1.06-6.662c0 1.666.97 2.747 2.46 2.747 1.47 0 2.44-1.081 2.44-2.747 0-1.665-.97-2.746-2.44-2.746-1.49 0-2.46 1.081-2.46 2.746Zm10.92-2.644c-1.49 0-1.93 1.344-1.93 3.083V427h-1.17v-7.363h1.17v1.49c.33-1.008.92-1.49 2.01-1.49h.93v1.037h-1.01Zm5.18 6.443c-2.17 0-3.64-1.739-3.64-3.843 0-2.162 1.35-3.754 3.51-3.754 2.15 0 3.43 1.49 3.43 3.448 0 .16-.01.409-.03.511H1185c.09 1.519 1.09 2.601 2.48 2.601 1.2 0 1.96-.526 2.19-1.447h1.19c-.25 1.505-1.55 2.484-3.38 2.484Zm-2.42-4.573h4.53c-.09-1.242-.92-2.031-2.24-2.031-1.24 0-2.07.731-2.29 2.031Zm9.23 4.456-2.71-7.363h1.22l2.09 5.902 2.1-5.902h1.21l-2.69 7.363h-1.22Zm5.33 0v-7.363h1.17V427h-1.17Zm-.09-8.751v-1.637h1.35v1.637h-1.35Zm6.73 8.868c-2.18 0-3.74-1.593-3.74-3.799 0-2.22 1.56-3.798 3.74-3.798 2.19 0 3.76 1.578 3.76 3.798 0 2.206-1.57 3.799-3.76 3.799Zm-2.54-3.799c0 1.607 1.04 2.747 2.54 2.747 1.52 0 2.56-1.14 2.56-2.747s-1.04-2.746-2.56-2.746c-1.5 0-2.54 1.139-2.54 2.746Zm14.25-3.681V427h-1.17v-1.417c-.39 1.023-1.3 1.534-2.42 1.534-1.67 0-2.75-1.184-2.75-2.981v-4.499h1.17v4.31c0 1.256.73 2.103 1.84 2.103 1.26 0 2.16-1.008 2.16-2.44v-3.973h1.17Zm4.59 7.48c-1.69 0-2.82-.95-2.93-2.484h1.12c.1.95.75 1.461 1.81 1.461.94 0 1.55-.511 1.55-1.11 0-2.192-4.29-.219-4.29-3.404 0-1.242 1.05-2.06 2.61-2.06 1.61 0 2.7.891 2.79 2.25h-1.12c-.12-.935-1.04-1.257-1.7-1.257-.86 0-1.43.409-1.43 1.052 0 1.987 4.31.015 4.31 3.39 0 1.315-1.1 2.162-2.72 2.162Zm10.3-10.344V427h-1.24v-8.094c-.16.234-.51.351-.92.351h-.96v-1.125h.81c.66 0 1.01-.278 1.1-1.359h1.21Zm7.2 10.227v-2.557h-5.48v-1.125l5.27-6.545h1.46v6.545h1.59v1.125h-1.59V427h-1.25Zm-4.15-3.682h4.16v-5.172l-4.16 5.172Zm15.06 3.799c-2.29 0-3.55-1.651-3.55-3.799 0-2.147 1.26-3.798 3.55-3.798 1.04 0 2 .526 2.44 1.315v-4.223h1.17V427h-1.17v-1.213c-.44.804-1.4 1.33-2.44 1.33Zm-2.34-3.799c0 1.666.97 2.747 2.44 2.747 1.48 0 2.44-1.081 2.44-2.747 0-1.665-.96-2.746-2.44-2.746-1.47 0-2.44 1.081-2.44 2.746Zm10.38 3.799c-1.55 0-2.55-.877-2.55-2.221 0-1.402 1.15-2.294 2.93-2.294h1.67c.32 0 .47-.16.47-.394 0-1.008-.72-1.695-1.98-1.695-1.08 0-1.93.672-1.98 1.476h-1.11c.13-1.417 1.47-2.469 3.12-2.469 1.92 0 3.11 1.095 3.11 2.732V427h-1.16v-1.271c-.4.847-1.38 1.388-2.52 1.388Zm-1.36-2.235c0 .759.6 1.241 1.54 1.241 1.47 0 2.34-.92 2.34-2.439v-.19h-2.06c-1.1 0-1.82.526-1.82 1.388Zm8.03 5.098.95-2.863-2.77-7.48h1.22l2.09 5.844 2.1-5.844h1.21l-2.38 6.516-1.3 3.827h-1.12Zm8.4-2.863c-1.69 0-2.82-.95-2.93-2.484h1.12c.1.95.75 1.461 1.81 1.461.94 0 1.55-.511 1.55-1.11 0-2.192-4.29-.219-4.29-3.404 0-1.242 1.05-2.06 2.61-2.06 1.61 0 2.7.891 2.79 2.25h-1.12c-.12-.935-1.04-1.257-1.7-1.257-.86 0-1.43.409-1.43 1.052 0 1.987 4.31.015 4.31 3.39 0 1.315-1.1 2.162-2.72 2.162Z"/><g clip-path="url(#g)"><path fill="#fff" d="M322.345 540.168c-3.341 0-5.526-2.017-5.673-5.105h2.669c.147 1.638 1.239 2.689 3.004 2.689 1.576 0 2.668-.63 2.668-1.933 0-3.151-7.899-.966-7.899-6.597 0-2.416 2.08-4.097 5.063-4.097 3.109 0 5.21 1.786 5.336 4.538h-2.647c-.126-1.282-1.134-2.143-2.689-2.143-1.45 0-2.353.672-2.353 1.702 0 3.256 8.005.819 8.005 6.555 0 2.731-2.248 4.391-5.484 4.391Zm8.441-13.951h2.584v3.194h2.941v2.164h-2.941v4.622c0 1.072.567 1.618 1.534 1.618h1.407V540h-1.701c-2.311 0-3.824-1.345-3.824-3.698v-4.727h-2.08v-2.164h2.08v-3.194Zm10.43 13.951c-2.08 0-3.509-1.345-3.509-3.172 0-2.059 1.576-3.341 3.971-3.341h1.954c.504 0 .756-.294.756-.714 0-1.03-.777-1.765-2.143-1.765-1.365 0-2.185.861-2.227 1.807h-2.332c.147-2.101 1.933-3.74 4.664-3.74 2.711 0 4.602 1.555 4.602 3.95V540h-2.564v-1.576c-.42 1.051-1.659 1.744-3.172 1.744Zm-1.009-3.277c0 .819.652 1.365 1.618 1.365 1.618 0 2.563-1.134 2.563-2.731v-.168h-2.374c-1.092 0-1.807.609-1.807 1.534Zm10.07-10.674h2.585v3.194h2.941v2.164h-2.941v4.622c0 1.072.567 1.618 1.533 1.618h1.408V540h-1.702c-2.311 0-3.824-1.345-3.824-3.698v-4.727h-2.08v-2.164h2.08v-3.194ZM357.64 540v-10.589h2.584V540h-2.584Zm-.084-12.249v-2.878h2.773v2.878h-2.773Zm8.973 12.417c-2.563 0-4.286-1.429-4.412-3.698h2.353c.105 1.009.903 1.639 2.059 1.639 1.008 0 1.66-.504 1.66-1.134 0-2.354-5.778-.105-5.778-4.581 0-1.849 1.618-3.151 3.782-3.151 2.5 0 4.202 1.366 4.307 3.425h-2.374c-.126-.988-1.03-1.492-1.87-1.492-.904 0-1.513.42-1.513 1.134 0 2.29 5.862-.231 5.862 4.56 0 1.995-1.618 3.298-4.076 3.298Zm6.995-13.951h2.584v3.194h2.942v2.164h-2.942v4.622c0 1.072.567 1.618 1.534 1.618h1.408V540h-1.702c-2.311 0-3.824-1.345-3.824-3.698v-4.727h-2.08v-2.164h2.08v-3.194ZM380.887 540v-10.589h2.584V540h-2.584Zm-.084-12.249v-2.878h2.773v2.878h-2.773Zm10.044 12.417c-3.32 0-5.379-2.437-5.379-5.463 0-3.025 2.059-5.462 5.379-5.462 2.647 0 4.832 1.597 5.063 4.034h-2.584c-.168-1.051-1.198-1.807-2.416-1.807-1.807 0-2.773 1.387-2.773 3.235 0 1.849.987 3.236 2.794 3.236 1.239 0 2.164-.693 2.437-1.744h2.584c-.315 2.311-2.395 3.971-5.105 3.971Zm10.664 0c-2.563 0-4.286-1.429-4.412-3.698h2.353c.105 1.009.904 1.639 2.059 1.639 1.009 0 1.66-.504 1.66-1.134 0-2.354-5.778-.105-5.778-4.581 0-1.849 1.618-3.151 3.782-3.151 2.5 0 4.202 1.366 4.307 3.425h-2.374c-.126-.988-1.029-1.492-1.87-1.492-.903 0-1.512.42-1.512 1.134 0 2.29 5.861-.231 5.861 4.56 0 1.995-1.617 3.298-4.076 3.298Z"/><rect width="124" height="28" x="1216" y="518" fill="#E0E0EE" fill-opacity=".05" rx="12"/><path fill="#FCFCFD" fill-opacity=".98" d="M1225.48 537v-10.227h1.25v9.102h5.12V537h-6.37Zm9.78.117c-1.55 0-2.56-.877-2.56-2.221 0-1.402 1.15-2.294 2.94-2.294h1.66c.32 0 .47-.16.47-.394 0-1.008-.72-1.695-1.97-1.695-1.08 0-1.93.672-1.99 1.476h-1.11c.13-1.417 1.48-2.469 3.13-2.469 1.91 0 3.11 1.095 3.11 2.732V537h-1.17v-1.271c-.39.847-1.37 1.388-2.51 1.388Zm-1.36-2.235c0 .759.6 1.241 1.53 1.241 1.48 0 2.34-.92 2.34-2.439v-.19h-2.06c-1.1 0-1.81.526-1.81 1.388Zm9.54 2.235c-1.7 0-2.82-.95-2.94-2.484h1.12c.11.95.75 1.461 1.82 1.461.93 0 1.54-.511 1.54-1.11 0-2.192-4.29-.219-4.29-3.404 0-1.242 1.05-2.06 2.61-2.06 1.61 0 2.71.891 2.8 2.25h-1.13c-.12-.935-1.04-1.257-1.69-1.257-.87 0-1.44.409-1.44 1.052 0 1.987 4.31.015 4.31 3.39 0 1.315-1.09 2.162-2.71 2.162Zm5.01-9.833h1.16v2.353h2.27v1.037h-2.27v3.988c0 .819.47 1.301 1.19 1.301h1.08V537h-1.13c-1.41 0-2.3-.877-2.3-2.308v-4.018h-1.54v-1.037h1.54v-2.353Zm10.77-.511V537h-1.25v-8.094c-.16.234-.51.351-.92.351h-.96v-1.125h.82c.65 0 1.01-.278 1.09-1.359h1.22Zm7.19 10.227v-2.557h-5.48v-1.125l5.27-6.545h1.47v6.545h1.59v1.125h-1.59V537h-1.26Zm-4.15-3.682h4.16v-5.172l-4.16 5.172Zm15.06 3.799c-2.29 0-3.55-1.651-3.55-3.799 0-2.147 1.26-3.798 3.55-3.798 1.04 0 2.01.526 2.44 1.315v-4.223h1.17V537h-1.17v-1.213c-.43.804-1.4 1.33-2.44 1.33Zm-2.33-3.799c0 1.666.96 2.747 2.44 2.747 1.47 0 2.44-1.081 2.44-2.747 0-1.665-.97-2.746-2.44-2.746-1.48 0-2.44 1.081-2.44 2.746Zm10.37 3.799c-1.54 0-2.55-.877-2.55-2.221 0-1.402 1.15-2.294 2.93-2.294h1.67c.32 0 .47-.16.47-.394 0-1.008-.72-1.695-1.97-1.695-1.09 0-1.93.672-1.99 1.476h-1.11c.13-1.417 1.47-2.469 3.12-2.469 1.92 0 3.12 1.095 3.12 2.732V537h-1.17v-1.271c-.4.847-1.38 1.388-2.52 1.388Zm-1.35-2.235c0 .759.6 1.241 1.53 1.241 1.48 0 2.34-.92 2.34-2.439v-.19h-2.06c-1.1 0-1.81.526-1.81 1.388Zm8.02 5.098.95-2.863-2.76-7.48h1.21l2.09 5.844 2.1-5.844h1.21l-2.38 6.516-1.3 3.827h-1.12Zm8.41-2.863c-1.7 0-2.82-.95-2.94-2.484h1.12c.11.95.75 1.461 1.82 1.461.93 0 1.54-.511 1.54-1.11 0-2.192-4.29-.219-4.29-3.404 0-1.242 1.05-2.06 2.61-2.06 1.61 0 2.71.891 2.79 2.25h-1.12c-.12-.935-1.04-1.257-1.7-1.257-.86 0-1.43.409-1.43 1.052 0 1.987 4.31.015 4.31 3.39 0 1.315-1.09 2.162-2.71 2.162Z"/><path stroke="#FCFCFD" stroke-linecap="round" stroke-linejoin="round" stroke-opacity=".98" stroke-width="2.1" d="m1317 529.5 5 5 5-5"/><rect width="143" height="28" x="316" y="562" fill="#E0E0EE" fill-opacity=".03" rx="14"/><rect width="6.222" height="6.222" x="325.889" y="572.889" fill="#90BEFF" stroke="#90BEFF" stroke-width="1.778" rx="3.111"/><path fill="#EBEBFD" fill-opacity=".45" d="M345.448 581v-9.102h-3.287v-1.125h7.787v1.125h-3.258V581h-1.242Zm7.451-6.326c-1.49 0-1.928 1.344-1.928 3.083V581h-1.169v-7.363h1.169v1.49c.321-1.008.92-1.49 2.001-1.49h.935v1.037h-1.008Zm4.288 6.443c-1.549 0-2.557-.877-2.557-2.221 0-1.402 1.155-2.294 2.937-2.294h1.665c.322 0 .468-.16.468-.394 0-1.008-.716-1.695-1.972-1.695-1.081 0-1.929.672-1.987 1.476h-1.111c.132-1.417 1.476-2.469 3.127-2.469 1.914 0 3.112 1.095 3.112 2.732V581H359.7v-1.271c-.394.847-1.373 1.388-2.513 1.388Zm-1.359-2.235c0 .759.599 1.241 1.534 1.241 1.476 0 2.338-.92 2.338-2.439v-.19h-2.06c-1.096 0-1.812.526-1.812 1.388Zm7.171 2.118v-7.363h1.169v1.417c.395-1.023 1.3-1.534 2.44-1.534 1.666 0 2.747 1.183 2.747 2.98v4.5h-1.169v-4.31c0-1.256-.731-2.104-1.841-2.104-1.271 0-2.177 1.008-2.177 2.44V581h-1.169Zm10.842.117c-1.695 0-2.82-.95-2.936-2.484h1.124c.103.95.746 1.461 1.812 1.461.935 0 1.549-.511 1.549-1.11 0-2.192-4.296-.219-4.296-3.404 0-1.242 1.052-2.06 2.616-2.06 1.607 0 2.702.891 2.79 2.25h-1.125c-.117-.935-1.037-1.257-1.695-1.257-.862 0-1.431.409-1.431 1.052 0 1.987 4.31.015 4.31 3.39 0 1.315-1.096 2.162-2.718 2.162Zm6.645 0c-1.549 0-2.557-.877-2.557-2.221 0-1.402 1.154-2.294 2.937-2.294h1.665c.322 0 .468-.16.468-.394 0-1.008-.716-1.695-1.972-1.695-1.082 0-1.929.672-1.987 1.476h-1.111c.132-1.417 1.476-2.469 3.127-2.469 1.914 0 3.112 1.095 3.112 2.732V581h-1.169v-1.271c-.395.847-1.373 1.388-2.513 1.388Zm-1.359-2.235c0 .759.599 1.241 1.534 1.241 1.476 0 2.338-.92 2.338-2.439v-.19h-2.06c-1.096 0-1.812.526-1.812 1.388Zm10.239 2.235c-2.323 0-3.579-1.826-3.579-3.799 0-1.972 1.256-3.798 3.579-3.798 1.651 0 3.127.964 3.346 2.6h-1.154c-.146-.891-1.067-1.548-2.177-1.548-1.607 0-2.381 1.241-2.381 2.746s.789 2.747 2.381 2.747c1.11 0 1.914-.555 2.177-1.446h1.139c-.248 1.504-1.461 2.498-3.331 2.498Zm5.564-9.833h1.169v2.353h2.264v1.037h-2.264v3.988c0 .819.467 1.301 1.183 1.301h1.081V581h-1.125c-1.417 0-2.308-.877-2.308-2.308v-4.018h-1.534v-1.037h1.534v-2.353Zm4.908 9.716v-7.363h1.169V581h-1.169Zm-.087-8.751v-1.637h1.344v1.637h-1.344Zm6.726 8.868c-2.177 0-3.74-1.593-3.74-3.799 0-2.22 1.563-3.798 3.74-3.798 2.192 0 3.755 1.578 3.755 3.798 0 2.206-1.563 3.799-3.755 3.799Zm-2.542-3.799c0 1.607 1.037 2.747 2.542 2.747 1.519 0 2.557-1.14 2.557-2.747s-1.038-2.746-2.557-2.746c-1.505 0-2.542 1.139-2.542 2.746Zm8.002 3.682v-7.363h1.169v1.417c.394-1.023 1.3-1.534 2.44-1.534 1.665 0 2.747 1.183 2.747 2.98v4.5h-1.169v-4.31c0-1.256-.731-2.104-1.841-2.104-1.271 0-2.177 1.008-2.177 2.44V581h-1.169Zm10.842.117c-1.695 0-2.82-.95-2.937-2.484h1.125c.103.95.745 1.461 1.812 1.461.935 0 1.549-.511 1.549-1.11 0-2.192-4.296-.219-4.296-3.404 0-1.242 1.052-2.06 2.615-2.06 1.608 0 2.703.891 2.791 2.25h-1.125c-.117-.935-1.037-1.257-1.695-1.257-.862 0-1.432.409-1.432 1.052 0 1.987 4.31.015 4.31 3.39 0 1.315-1.095 2.162-2.717 2.162Z"/><path stroke="#EBEBFD" stroke-linecap="round" stroke-linejoin="round" stroke-opacity=".45" stroke-width="1.333" d="m439 574 4 4 4-4"/><rect width="129" height="28" x="467" y="562" fill="#E0E0EE" fill-opacity=".03" rx="14"/><rect width="6.222" height="6.222" x="476.889" y="572.889" fill="#D4B2FF" stroke="#D4B2FF" stroke-width="1.778" rx="3.111"/><path fill="#EBEBFD" fill-opacity=".45" d="M494.242 581v-10.227h1.636l3.36 8.547 3.375-8.547h1.622V581h-1.213v-8.152L499.779 581h-1.081l-3.244-8.152V581h-1.212Zm15.365.117c-2.177 0-3.638-1.739-3.638-3.843 0-2.162 1.344-3.754 3.506-3.754 2.148 0 3.434 1.49 3.434 3.448 0 .16-.015.409-.029.511h-5.757c.088 1.519 1.096 2.601 2.484 2.601 1.198 0 1.958-.526 2.191-1.447h1.184c-.249 1.505-1.549 2.484-3.375 2.484Zm-2.425-4.573h4.529c-.088-1.242-.921-2.031-2.236-2.031-1.241 0-2.074.731-2.293 2.031Zm10.585-1.87c-1.49 0-1.928 1.344-1.928 3.083V581h-1.169v-7.363h1.169v1.49c.321-1.008.92-1.49 2.001-1.49h.935v1.037h-1.008Zm5.122 6.443c-2.323 0-3.58-1.826-3.58-3.799 0-1.972 1.257-3.798 3.58-3.798 1.651 0 3.126.964 3.345 2.6h-1.154c-.146-.891-1.066-1.548-2.177-1.548-1.607 0-2.381 1.241-2.381 2.746s.789 2.747 2.381 2.747c1.111 0 1.914-.555 2.177-1.446h1.14c-.249 1.504-1.461 2.498-3.331 2.498Zm4.978-.117v-10.388h1.169v4.442c.395-1.023 1.301-1.534 2.44-1.534 1.666 0 2.747 1.183 2.747 2.98v4.5h-1.169v-4.31c0-1.256-.731-2.104-1.841-2.104-1.271 0-2.177 1.008-2.177 2.44V581h-1.169Zm10.682.117c-1.549 0-2.557-.877-2.557-2.221 0-1.402 1.154-2.294 2.936-2.294h1.666c.321 0 .467-.16.467-.394 0-1.008-.715-1.695-1.972-1.695-1.081 0-1.928.672-1.987 1.476h-1.11c.131-1.417 1.475-2.469 3.126-2.469 1.914 0 3.112 1.095 3.112 2.732V581h-1.169v-1.271c-.394.847-1.373 1.388-2.512 1.388Zm-1.359-2.235c0 .759.599 1.241 1.534 1.241 1.475 0 2.337-.92 2.337-2.439v-.19h-2.06c-1.095 0-1.811.526-1.811 1.388Zm7.171 2.118v-7.363h1.169v1.417c.394-1.023 1.3-1.534 2.439-1.534 1.666 0 2.747 1.183 2.747 2.98v4.5h-1.169v-4.31c0-1.256-.73-2.104-1.841-2.104-1.271 0-2.176 1.008-2.176 2.44V581h-1.169Zm8.96-9.716h1.168v2.353h2.265v1.037h-2.265v3.988c0 .819.468 1.301 1.184 1.301h1.081V581h-1.125c-1.417 0-2.308-.877-2.308-2.308v-4.018h-1.534v-1.037h1.534v-2.353Zm7.275 9.833c-1.695 0-2.82-.95-2.937-2.484h1.125c.102.95.745 1.461 1.812 1.461.935 0 1.548-.511 1.548-1.11 0-2.192-4.295-.219-4.295-3.404 0-1.242 1.052-2.06 2.615-2.06 1.607 0 2.703.891 2.791 2.25h-1.125c-.117-.935-1.038-1.257-1.695-1.257-.862 0-1.432.409-1.432 1.052 0 1.987 4.31.015 4.31 3.39 0 1.315-1.096 2.162-2.717 2.162Z"/><path stroke="#EBEBFD" stroke-linecap="round" stroke-linejoin="round" stroke-opacity=".45" stroke-width="1.333" d="m576 574 4 4 4-4"/><rect width="152" height="28" x="604" y="562" fill="#E0E0EE" fill-opacity=".03" rx="12"/><path stroke="#EBEBFB" stroke-linecap="round" stroke-linejoin="round" stroke-opacity=".36" stroke-width="1.5" d="M615.333 574.667s1.337-1.822 2.423-2.908a6 6 0 1 1-1.522 5.908m-.901-3v-4m0 4h4"/><path fill="#FCFCFD" fill-opacity=".98" d="M641.61 581v-10.227h3.886c2.016 0 3.244 1.213 3.244 2.995 0 1.125-.629 1.929-1.593 2.381.804.439 1.286 1.272 1.359 2.309l.175 2.542h-1.212l-.176-2.469c-.058-.994-.701-1.695-1.665-1.695h-2.762V581h-1.256Zm1.256-5.289h2.616c1.446 0 1.987-.935 1.987-1.943s-.541-1.885-1.987-1.885h-2.616v3.828Zm10.856 5.406c-2.177 0-3.638-1.739-3.638-3.843 0-2.162 1.344-3.754 3.507-3.754 2.147 0 3.433 1.49 3.433 3.448 0 .16-.015.409-.029.511h-5.757c.088 1.519 1.096 2.601 2.484 2.601 1.198 0 1.958-.526 2.192-1.447h1.183c-.248 1.505-1.549 2.484-3.375 2.484Zm-2.425-4.573h4.529c-.088-1.242-.921-2.031-2.235-2.031-1.242 0-2.075.731-2.294 2.031Zm9.855 4.573c-1.695 0-2.82-.95-2.937-2.484h1.125c.103.95.745 1.461 1.812 1.461.935 0 1.549-.511 1.549-1.11 0-2.192-4.296-.219-4.296-3.404 0-1.242 1.052-2.06 2.615-2.06 1.608 0 2.703.891 2.791 2.25h-1.125c-.117-.935-1.037-1.257-1.695-1.257-.862 0-1.432.409-1.432 1.052 0 1.987 4.31.015 4.31 3.39 0 1.315-1.095 2.162-2.717 2.162Zm7.565 0c-2.177 0-3.638-1.739-3.638-3.843 0-2.162 1.345-3.754 3.507-3.754 2.147 0 3.433 1.49 3.433 3.448 0 .16-.014.409-.029.511h-5.756c.087 1.519 1.095 2.601 2.483 2.601 1.198 0 1.958-.526 2.192-1.447h1.183c-.248 1.505-1.548 2.484-3.375 2.484Zm-2.425-4.573h4.529c-.088-1.242-.92-2.031-2.235-2.031-1.242 0-2.075.731-2.294 2.031Zm7.987-5.26h1.169v2.353h2.265v1.037h-2.265v3.988c0 .819.468 1.301 1.184 1.301h1.081V581h-1.125c-1.417 0-2.309-.877-2.309-2.308v-4.018h-1.534v-1.037h1.534v-2.353Zm8.761 0h1.169v2.353h2.264v1.037h-2.264v3.988c0 .819.467 1.301 1.183 1.301h1.081V581h-1.125c-1.417 0-2.308-.877-2.308-2.308v-4.018h-1.534v-1.037h1.534v-2.353Zm8.051 9.833c-2.177 0-3.74-1.593-3.74-3.799 0-2.22 1.563-3.798 3.74-3.798 2.192 0 3.755 1.578 3.755 3.798 0 2.206-1.563 3.799-3.755 3.799Zm-2.542-3.799c0 1.607 1.037 2.747 2.542 2.747 1.52 0 2.557-1.14 2.557-2.747s-1.037-2.746-2.557-2.746c-1.505 0-2.542 1.139-2.542 2.746ZM700.193 581v-10.227h3.009c2.864 0 5.114 1.855 5.114 5.113 0 3.259-2.25 5.114-5.114 5.114h-3.009Zm1.256-1.125h1.739c1.987 0 3.828-1.169 3.828-3.989 0-2.819-1.841-3.988-3.828-3.988h-1.739v7.977Zm11.755 1.242c-2.177 0-3.638-1.739-3.638-3.843 0-2.162 1.344-3.754 3.506-3.754 2.148 0 3.433 1.49 3.433 3.448 0 .16-.014.409-.029.511h-5.756c.088 1.519 1.096 2.601 2.484 2.601 1.198 0 1.957-.526 2.191-1.447h1.184c-.249 1.505-1.549 2.484-3.375 2.484Zm-2.426-4.573h4.529c-.087-1.242-.92-2.031-2.235-2.031-1.242 0-2.075.731-2.294 2.031Zm8.017 4.456v-6.326h-1.534v-1.037h1.534v-.746c0-1.402.891-2.279 2.294-2.279h1.154v1.038h-1.11c-.702 0-1.169.467-1.169 1.256v.731h2.279v1.037h-2.279V581h-1.169Zm6.743.117c-1.549 0-2.557-.877-2.557-2.221 0-1.402 1.154-2.294 2.937-2.294h1.665c.322 0 .468-.16.468-.394 0-1.008-.716-1.695-1.973-1.695-1.081 0-1.928.672-1.987 1.476h-1.11c.131-1.417 1.476-2.469 3.127-2.469 1.913 0 3.111 1.095 3.111 2.732V581h-1.168v-1.271c-.395.847-1.374 1.388-2.513 1.388Zm-1.359-2.235c0 .759.599 1.241 1.534 1.241 1.476 0 2.338-.92 2.338-2.439v-.19h-2.06c-1.096 0-1.812.526-1.812 1.388Zm13.424-5.245V581h-1.169v-1.417c-.394 1.023-1.3 1.534-2.425 1.534-1.666 0-2.747-1.184-2.747-2.981v-4.499h1.169v4.31c0 1.256.731 2.103 1.841 2.103 1.256 0 2.162-1.008 2.162-2.44v-3.973h1.169Zm2.222 7.363v-10.388h1.169V581h-1.169Zm4.009-9.716h1.169v2.353h2.264v1.037h-2.264v3.988c0 .819.467 1.301 1.183 1.301h1.081V581h-1.125c-1.417 0-2.308-.877-2.308-2.308v-4.018H742.3v-1.037h1.534v-2.353Zm-423.681 47.823c-1.721 0-3.002-1.161-3.162-2.735h1.107c.134 1.094.921 1.708 2.041 1.708 1.374 0 2.268-.801 2.268-2.135 0-1.334-.894-2.214-2.254-2.214-1.014 0-1.761.413-2.041 1.094h-.934l.72-5.163h5.016v1.027h-4.149l-.413 2.815c.453-.427 1.227-.76 1.947-.76 1.948 0 3.282 1.307 3.282 3.201 0 1.894-1.401 3.162-3.428 3.162Zm7.939 0c-2.255 0-3.175-1.548-3.175-4.402v-.748c0-2.854.92-4.402 3.175-4.402h.467c2.281 0 3.188 1.548 3.188 4.402v.748c0 2.854-.907 4.402-3.188 4.402h-.467Zm-2.028-4.269c0 2.161.614 3.242 2.068 3.242h.413c1.455 0 2.068-1.081 2.068-3.242v-1.014c0-2.161-.613-3.242-2.068-3.242h-.413c-1.454 0-2.068 1.081-2.068 3.242v1.014Zm10.47 4.269c-2.255 0-3.175-1.548-3.175-4.402v-.748c0-2.854.92-4.402 3.175-4.402h.467c2.281 0 3.188 1.548 3.188 4.402v.748c0 2.854-.907 4.402-3.188 4.402h-.467Zm-2.028-4.269c0 2.161.614 3.242 2.068 3.242h.413c1.454 0 2.068-1.081 2.068-3.242v-1.014c0-2.161-.614-3.242-2.068-3.242h-.413c-1.454 0-2.068 1.081-2.068 3.242v1.014Zm-17.211 45.852c-.067-1.907 1.161-3.135 3.082-3.135 1.76 0 3.028 1.094 3.028 2.788 0 1.214-.747 2.241-2.175 2.948l-1.334.681c-.76.387-1.614 1.094-1.614 2.001h5.176V667h-6.283v-.814c0-1.667 1.307-2.694 2.268-3.175l1.427-.733c1.001-.507 1.361-1.148 1.361-1.961 0-1.068-.787-1.761-1.854-1.761-1.201 0-1.961.854-1.908 2.134h-1.174Zm10.797 6.417c-2.255 0-3.175-1.548-3.175-4.402v-.748c0-2.854.92-4.402 3.175-4.402h.467c2.281 0 3.188 1.548 3.188 4.402v.748c0 2.854-.907 4.402-3.188 4.402h-.467Zm-2.028-4.269c0 2.161.614 3.242 2.068 3.242h.413c1.455 0 2.068-1.081 2.068-3.242v-1.014c0-2.161-.613-3.242-2.068-3.242h-.413c-1.454 0-2.068 1.081-2.068 3.242v1.014Zm10.47 4.269c-2.255 0-3.175-1.548-3.175-4.402v-.748c0-2.854.92-4.402 3.175-4.402h.467c2.281 0 3.188 1.548 3.188 4.402v.748c0 2.854-.907 4.402-3.188 4.402h-.467Zm-2.028-4.269c0 2.161.614 3.242 2.068 3.242h.413c1.454 0 2.068-1.081 2.068-3.242v-1.014c0-2.161-.614-3.242-2.068-3.242h-.413c-1.454 0-2.068 1.081-2.068 3.242v1.014Zm-14.553 42.824V715h-1.134v-7.39c-.147.213-.467.32-.84.32h-.881v-1.027h.747c.601 0 .921-.254 1.001-1.241h1.107Zm5.139 9.445c-2.255 0-3.175-1.548-3.175-4.402v-.748c0-2.854.92-4.402 3.175-4.402h.467c2.281 0 3.188 1.548 3.188 4.402v.748c0 2.854-.907 4.402-3.188 4.402h-.467Zm-2.028-4.269c0 2.161.614 3.242 2.068 3.242h.413c1.455 0 2.068-1.081 2.068-3.242v-1.014c0-2.161-.613-3.242-2.068-3.242h-.413c-1.454 0-2.068 1.081-2.068 3.242v1.014Zm10.47 4.269c-2.255 0-3.175-1.548-3.175-4.402v-.748c0-2.854.92-4.402 3.175-4.402h.467c2.281 0 3.188 1.548 3.188 4.402v.748c0 2.854-.907 4.402-3.188 4.402h-.467Zm-2.028-4.269c0 2.161.614 3.242 2.068 3.242h.413c1.454 0 2.068-1.081 2.068-3.242v-1.014c0-2.161-.614-3.242-2.068-3.242h-.413c-1.454 0-2.068 1.081-2.068 3.242v1.014Zm-12.111 42.824V763h-1.134v-7.39c-.147.213-.467.32-.841.32h-.88v-1.027h.747c.6 0 .921-.254 1.001-1.241h1.107Zm5.139 9.445c-2.255 0-3.175-1.548-3.175-4.402v-.748c0-2.854.92-4.402 3.175-4.402h.467c2.281 0 3.188 1.548 3.188 4.402v.748c0 2.854-.907 4.402-3.188 4.402h-.467Zm-2.028-4.269c0 2.161.614 3.242 2.068 3.242h.413c1.454 0 2.068-1.081 2.068-3.242v-1.014c0-2.161-.614-3.242-2.068-3.242h-.413c-1.454 0-2.068 1.081-2.068 3.242v1.014Zm-1.972 52.269c-2.255 0-3.175-1.548-3.175-4.402v-.748c0-2.854.92-4.402 3.175-4.402h.467c2.281 0 3.188 1.548 3.188 4.402v.748c0 2.854-.907 4.402-3.188 4.402h-.467Zm-2.028-4.269c0 2.161.614 3.242 2.068 3.242h.413c1.454 0 2.068-1.081 2.068-3.242v-1.014c0-2.161-.614-3.242-2.068-3.242h-.413c-1.454 0-2.068 1.081-2.068 3.242v1.014Z"/><path stroke="#E0E0EE" stroke-linecap="round" stroke-opacity=".06" d="M357 614h983m-983 48h983m-983 48h983m-983 48h983m-983 48h983"/><path stroke="#90BEFF" stroke-linecap="round" stroke-width="3" d="m358 805 107.497-107.337a4 4 0 0 1 6.108.543l70.386 100.993c1.778 2.552 5.661 2.186 6.932-.653l68.597-153.232c1.311-2.928 5.36-3.2 7.051-.474l66.402 107.071c1.598 2.577 5.371 2.508 6.874-.126l65.383-114.619c1.485-2.604 5.202-2.709 6.832-.192l76.941 118.824a3.999 3.999 0 0 0 3.358 1.826h74.337c.428 0 .853.069 1.259.203l67.143 22.268a4.002 4.002 0 0 0 4.605-1.604l74.635-113.864a4.01 4.01 0 0 1 5.45-1.214l74.12 45.606c.25.154.51.28.79.376l71.27 24.521c1.37.474 2.9.161 3.98-.816l79-71.456c.2-.178.41-.336.64-.472L1387 614"/><path stroke="#D4B2FF" stroke-linecap="round" stroke-width="3" d="m358.5 804.501 106.85-129.552c1.736-2.104 5.022-1.892 6.473.417l70.102 111.566c1.726 2.746 5.832 2.404 7.08-.59l68.281-163.851c1.309-3.142 5.694-3.317 7.25-.29l66.289 129.003c1.513 2.944 5.743 2.881 7.168-.106l65.205-136.679c1.39-2.913 5.48-3.066 7.083-.264l76.752 134.198a4.003 4.003 0 0 0 3.473 2.014h74.404c.288 0 .576.031.858.093l67.552 14.851a4.001 4.001 0 0 0 4.209-1.722l74.811-114.703a4.007 4.007 0 0 1 5.46-1.217l74.1 45.828c.26.155.52.282.8.379l71.26 24.641c1.38.478 2.91.163 3.99-.821l78.58-71.428a4.005 4.005 0 0 1 1.65-.904l77.82-20.851"/></g><rect width="1071" height="423" x="292.5" y="494.5" stroke="#fff" stroke-opacity=".1" rx="23.5"/></g></g><defs><clipPath id="a"><path fill="#fff" d="M0 0h1392v820H0z"/></clipPath><clipPath id="b"><path fill="#fff" d="M0 0h1392v826H0z"/></clipPath><clipPath id="c"><rect width="40" height="40" x="24" y="24" fill="#fff" rx="4"/></clipPath><clipPath id="d"><rect width="457" height="362" x="292" y="112" fill="#fff" rx="20"/></clipPath><clipPath id="e"><path fill="#fff" d="M425 134h16v16h-16z"/></clipPath><clipPath id="f"><rect width="40" height="40" x="312" y="168" fill="#fff" rx="20"/></clipPath><clipPath id="g"><rect width="1072" height="424" x="292" y="494" fill="#fff" rx="24"/></clipPath></defs></svg>