<svg xmlns="http://www.w3.org/2000/svg" width="120" height="120" fill="none"><path fill="#000" d="M0 0h120v120H0z"/><g clip-path="url(#a)"><path fill="#fff" d="M85.671 77.875a34.789 34.789 0 0 1-3.44 6.187c-1.81 2.58-3.291 4.365-4.433 5.357-1.77 1.627-3.666 2.46-5.697 2.508-1.457 0-3.215-.415-5.262-1.256-2.053-.837-3.94-1.252-5.665-1.252-1.81 0-3.75.415-5.825 1.252-2.079.841-3.754 1.28-5.034 1.323-1.947.084-3.888-.774-5.825-2.575-1.237-1.079-2.784-2.927-4.636-5.547-1.988-2.797-3.623-6.04-4.903-9.738-1.371-3.994-2.058-7.861-2.058-11.605 0-4.29.926-7.989 2.783-11.089 1.459-2.49 3.4-4.454 5.829-5.896 2.429-1.442 5.053-2.177 7.88-2.224 1.547 0 3.575.479 6.095 1.42 2.514.942 4.127 1.42 4.835 1.42.529 0 2.322-.559 5.36-1.674 2.875-1.034 5.3-1.462 7.288-1.294 5.384.435 9.43 2.558 12.12 6.382-4.816 2.918-7.198 7.004-7.15 12.247.043 4.084 1.524 7.482 4.436 10.18a14.58 14.58 0 0 0 4.432 2.908 47.928 47.928 0 0 1-1.13 2.966ZM73.322 29.28c0 3.201-1.17 6.19-3.5 8.956-2.813 3.288-6.215 5.188-9.905 4.889a9.966 9.966 0 0 1-.074-1.213c0-3.073 1.338-6.361 3.713-9.05 1.186-1.362 2.695-2.493 4.524-3.396 1.825-.89 3.551-1.382 5.175-1.466.047.428.067.856.067 1.28Z"/></g><defs><clipPath id="a"><path fill="#fff" d="M32.893 28H86.8v64H32.893z"/></clipPath></defs></svg>