<svg xmlns="http://www.w3.org/2000/svg" width="384" height="384" fill="none"><g clip-path="url(#a)"><rect width="225.333" height="230" x="-162" y="77" fill="#E0E0EE" fill-opacity=".06" rx="20"/><path fill="#FCFCFD" fill-opacity=".98" d="M-133.869 166.168c-3.929 0-7.312-2.521-7.312-7.522 0-5 3.446-7.521 7.312-7.521 3.53 0 6.24 2.08 6.639 5.126h-2.92c-.21-1.617-1.765-2.731-3.74-2.731-2.563 0-4.475 1.786-4.475 5.126 0 3.341 1.912 5.106 4.475 5.106 2.017 0 3.572-1.114 3.824-2.71h2.773c-.294 3.046-2.983 5.126-6.576 5.126Zm13.415 0c-3.236 0-5.547-2.311-5.547-5.463 0-3.151 2.311-5.462 5.547-5.462 3.214 0 5.525 2.311 5.525 5.462 0 3.152-2.311 5.463-5.525 5.463Zm-2.942-5.463c0 1.912 1.177 3.236 2.942 3.236 1.743 0 2.92-1.324 2.92-3.236 0-1.911-1.177-3.235-2.92-3.235-1.765 0-2.942 1.324-2.942 3.235Zm10.438 5.295v-10.589h2.585v1.639c.567-1.156 1.785-1.807 3.298-1.807 2.374 0 3.929 1.723 3.929 4.202V166h-2.563v-6.009c0-1.45-.904-2.458-2.227-2.458-1.429 0-2.437 1.135-2.437 2.689V166h-2.585Zm12.311 0v-10.589h2.584v1.639c.567-1.156 1.786-1.807 3.299-1.807 2.374 0 3.929 1.723 3.929 4.202V166H-93.4v-6.009c0-1.45-.903-2.458-2.227-2.458-1.428 0-2.437 1.135-2.437 2.689V166h-2.584Zm17.08.168c-3.467 0-5.4-2.731-5.4-5.505 0-2.794 1.723-5.42 5.19-5.42 3.55 0 5.147 2.584 5.147 5.105 0 .357-.02.673-.042.883h-7.816c.19 1.702 1.282 2.794 2.92 2.794 1.324 0 2.186-.546 2.459-1.555h2.521c-.4 2.248-2.374 3.698-4.98 3.698Zm-2.858-6.639h5.21c-.104-1.345-1.029-2.353-2.562-2.353-1.45 0-2.374.756-2.648 2.353Zm14.614 6.639c-3.32 0-5.378-2.437-5.378-5.463 0-3.025 2.059-5.462 5.378-5.462 2.648 0 4.833 1.597 5.064 4.034h-2.585c-.168-1.051-1.197-1.807-2.416-1.807-1.806 0-2.773 1.387-2.773 3.235 0 1.849.987 3.236 2.794 3.236 1.24 0 2.164-.693 2.438-1.744h2.584c-.315 2.311-2.395 3.971-5.106 3.971Zm7.873-13.951h2.584v3.194h2.942v2.164h-2.942v4.622c0 1.072.568 1.618 1.534 1.618h1.408V166h-1.702c-2.311 0-3.824-1.345-3.824-3.698v-4.727h-2.08v-2.164h2.08v-3.194Zm12.83 18.069 1.513-4.307-3.866-10.568h2.626l2.437 7.269 2.437-7.269h2.648l-3.236 8.866-2.1 6.009h-2.46Zm13.914-4.118c-3.236 0-5.547-2.311-5.547-5.463 0-3.151 2.311-5.462 5.547-5.462 3.215 0 5.526 2.311 5.526 5.462 0 3.152-2.312 5.463-5.526 5.463Zm-2.941-5.463c0 1.912 1.176 3.236 2.94 3.236 1.745 0 2.921-1.324 2.921-3.236 0-1.911-1.176-3.235-2.92-3.235-1.765 0-2.941 1.324-2.941 3.235Zm20.123-5.294V166h-2.563v-1.639c-.588 1.156-1.786 1.807-3.299 1.807-2.395 0-3.95-1.723-3.95-4.202v-6.555h2.585v6.009c0 1.45.882 2.458 2.206 2.458 1.45 0 2.458-1.135 2.458-2.689v-5.778h2.563Zm7.5 2.164c-1.66 0-2.29 1.408-2.29 3.425v5h-2.585v-10.589h2.585v1.87c.525-1.345 1.344-1.87 2.71-1.87h1.24v2.164h-1.66Zm12.944 8.593c-1.303 0-2.48-.567-3.068-1.492V166H-5.22v-15.127h2.584v5.82c.589-.862 1.723-1.45 3.089-1.45 3.151 0 5 2.227 5 5.462 0 3.236-1.849 5.463-5.021 5.463Zm-3.236-5.463c0 1.954 1.135 3.236 2.858 3.236 1.702 0 2.836-1.282 2.836-3.236 0-1.953-1.134-3.235-2.836-3.235-1.723 0-2.858 1.282-2.858 3.235Zm13.332 5.463c-2.08 0-3.51-1.345-3.51-3.172 0-2.059 1.577-3.341 3.972-3.341h1.954c.504 0 .756-.294.756-.714 0-1.03-.777-1.765-2.143-1.765-1.366 0-2.185.861-2.227 1.807H6.998c.147-2.101 1.933-3.74 4.664-3.74 2.71 0 4.601 1.555 4.601 3.95V166H13.7v-1.576c-.42 1.051-1.66 1.744-3.172 1.744Zm-1.009-3.277c0 .819.651 1.365 1.618 1.365 1.618 0 2.563-1.134 2.563-2.731v-.168h-2.374c-1.093 0-1.807.609-1.807 1.534ZM18.745 166v-10.589h2.584v1.639c.567-1.156 1.786-1.807 3.299-1.807 2.374 0 3.928 1.723 3.928 4.202V166h-2.563v-6.009c0-1.45-.903-2.458-2.227-2.458-1.429 0-2.437 1.135-2.437 2.689V166h-2.584Zm12.31 0v-15.127h2.605v8.383l4.034-3.845h3.278l-4.307 4.139 4.664 6.45h-3.11l-3.319-4.727-1.24 1.197V166h-2.605Z"/><path fill="#EBEBFD" fill-opacity=".45" d="M-137.152 196.128c-2.512 0-4.112-1.504-4.256-3.792h1.344c.144 1.552 1.168 2.56 2.912 2.56 1.552 0 2.688-.592 2.688-1.952 0-2.88-6.56-1.296-6.56-5.296 0-1.776 1.552-2.976 3.792-2.976 2.24 0 3.792 1.296 3.952 3.312h-1.344c-.128-1.264-1.104-2.08-2.608-2.08s-2.416.672-2.416 1.744c0 2.864 6.592 1.088 6.592 5.296 0 2.032-1.744 3.184-4.096 3.184Zm9.529 0c-2.384 0-4.096-1.744-4.096-4.16 0-2.432 1.712-4.16 4.096-4.16 2.4 0 4.112 1.728 4.112 4.16 0 2.416-1.712 4.16-4.112 4.16Zm-2.784-4.16c0 1.76 1.136 3.008 2.784 3.008 1.664 0 2.8-1.248 2.8-3.008s-1.136-3.008-2.8-3.008c-1.648 0-2.784 1.248-2.784 3.008Zm13.414 7.296 1.04-3.136-3.024-8.192h1.328l2.288 6.4 2.304-6.4h1.328l-2.608 7.136-1.424 4.192h-1.232Zm10.183-3.136c-2.384 0-4.096-1.744-4.096-4.16 0-2.432 1.712-4.16 4.096-4.16 2.4 0 4.112 1.728 4.112 4.16 0 2.416-1.712 4.16-4.112 4.16Zm-2.784-4.16c0 1.76 1.136 3.008 2.784 3.008 1.664 0 2.8-1.248 2.8-3.008s-1.136-3.008-2.8-3.008c-1.648 0-2.784 1.248-2.784 3.008Zm15.611-4.032V196h-1.28v-1.552c-.432 1.12-1.424 1.68-2.656 1.68-1.824 0-3.008-1.296-3.008-3.264v-4.928h1.28v4.72c0 1.376.8 2.304 2.016 2.304 1.376 0 2.368-1.104 2.368-2.672v-4.352h1.28Zm9.637 8.192c-2.544 0-3.92-2-3.92-4.16s1.376-4.16 3.92-4.16c1.808 0 3.424 1.056 3.664 2.848h-1.264c-.16-.976-1.168-1.696-2.384-1.696-1.76 0-2.608 1.36-2.608 3.008s.864 3.008 2.608 3.008c1.216 0 2.096-.608 2.384-1.584h1.248c-.272 1.648-1.6 2.736-3.648 2.736Zm7.869 0c-1.696 0-2.8-.96-2.8-2.432 0-1.536 1.264-2.512 3.216-2.512h1.824c.352 0 .512-.176.512-.432 0-1.104-.784-1.856-2.16-1.856-1.184 0-2.112.736-2.176 1.616h-1.216c.144-1.552 1.616-2.704 3.424-2.704 2.096 0 3.408 1.2 3.408 2.992v5.2h-1.28v-1.392c-.432.928-1.504 1.52-2.752 1.52Zm-1.488-2.448c0 .832.656 1.36 1.68 1.36 1.616 0 2.56-1.008 2.56-2.672v-.208h-2.256c-1.2 0-1.984.576-1.984 1.52Zm7.853 2.32v-8.064h1.28v1.552c.432-1.12 1.424-1.68 2.672-1.68 1.824 0 3.008 1.296 3.008 3.264V196h-1.28v-4.72c0-1.376-.8-2.304-2.016-2.304-1.392 0-2.384 1.104-2.384 2.672V196h-1.28Zm13.125 3.264v-11.328h1.28v1.328c.496-.88 1.552-1.456 2.704-1.456 2.48 0 3.872 1.808 3.872 4.16 0 2.352-1.408 4.16-3.92 4.16-1.12 0-2.176-.56-2.656-1.424v4.56h-1.28Zm1.168-7.296c0 1.824 1.056 3.008 2.688 3.008 1.616 0 2.672-1.184 2.672-3.008s-1.056-3.008-2.672-3.008c-1.632 0-2.688 1.184-2.688 3.008Zm10.982 4.16c-1.696 0-2.8-.96-2.8-2.432 0-1.536 1.264-2.512 3.216-2.512h1.824c.352 0 .512-.176.512-.432 0-1.104-.784-1.856-2.16-1.856-1.184 0-2.112.736-2.176 1.616h-1.216c.144-1.552 1.616-2.704 3.424-2.704 2.096 0 3.408 1.2 3.408 2.992v5.2h-1.28v-1.392c-.432.928-1.504 1.52-2.752 1.52Zm-1.488-2.448c0 .832.656 1.36 1.68 1.36 1.616 0 2.56-1.008 2.56-2.672v-.208h-2.256c-1.2 0-1.984.576-1.984 1.52Zm8.785 5.584 1.04-3.136-3.024-8.192h1.328l2.288 6.4 2.304-6.4h1.328l-2.608 7.136-1.424 4.192h-1.232Zm13.917-3.136c-2.384 0-4.096-1.744-4.096-4.16 0-2.432 1.712-4.16 4.096-4.16 2.4 0 4.112 1.728 4.112 4.16 0 2.416-1.712 4.16-4.112 4.16Zm-2.784-4.16c0 1.76 1.136 3.008 2.784 3.008 1.664 0 2.8-1.248 2.8-3.008s-1.136-3.008-2.8-3.008c-1.648 0-2.784 1.248-2.784 3.008Zm15.612-4.032V196h-1.28v-1.552c-.432 1.12-1.424 1.68-2.656 1.68-1.824 0-3.008-1.296-3.008-3.264v-4.928h1.28v4.72c0 1.376.8 2.304 2.016 2.304 1.376 0 2.368-1.104 2.368-2.672v-4.352h1.28Zm3.089-2.576h1.28v2.576h2.48v1.136h-2.48v4.368c0 .896.512 1.424 1.296 1.424h1.184V196h-1.232c-1.552 0-2.528-.96-2.528-2.528v-4.4h-1.68v-1.136h1.68v-2.576ZM2.32 199.264l1.04-3.136-3.024-8.192h1.328l2.288 6.4 2.304-6.4h1.328l-2.608 7.136-1.424 4.192H2.32Zm10.182-3.136c-2.384 0-4.096-1.744-4.096-4.16 0-2.432 1.712-4.16 4.096-4.16 2.4 0 4.112 1.728 4.112 4.16 0 2.416-1.712 4.16-4.112 4.16Zm-2.784-4.16c0 1.76 1.136 3.008 2.784 3.008 1.664 0 2.8-1.248 2.8-3.008s-1.136-3.008-2.8-3.008c-1.648 0-2.784 1.248-2.784 3.008Zm15.612-4.032V196h-1.28v-1.552c-.432 1.12-1.424 1.68-2.656 1.68-1.824 0-3.008-1.296-3.008-3.264v-4.928h1.28v4.72c0 1.376.8 2.304 2.016 2.304 1.376 0 2.368-1.104 2.368-2.672v-4.352h1.28Zm5.825 1.136c-1.632 0-2.112 1.472-2.112 3.376V196h-1.28v-8.064h1.28v1.632c.352-1.104 1.008-1.632 2.192-1.632h1.024v1.136h-1.104ZM-140.784 216v-8.064h1.28v1.552c.32-.976 1.2-1.68 2.448-1.68 1.328 0 2.368.608 2.64 1.712.304-.96 1.392-1.712 2.608-1.712 1.744 0 2.816 1.168 2.816 3.12V216h-1.28v-4.736c0-1.376-.688-2.32-1.824-2.32-1.36 0-2.16.944-2.16 2.32V216h-1.28v-4.736c0-1.376-.688-2.32-1.808-2.32-1.344 0-2.16.944-2.16 2.32V216h-1.28Zm17.645.128c-2.384 0-4.096-1.744-4.096-4.16 0-2.432 1.712-4.16 4.096-4.16 2.4 0 4.112 1.728 4.112 4.16 0 2.416-1.712 4.16-4.112 4.16Zm-2.784-4.16c0 1.76 1.136 3.008 2.784 3.008 1.664 0 2.8-1.248 2.8-3.008s-1.136-3.008-2.8-3.008c-1.648 0-2.784 1.248-2.784 3.008Zm8.764 4.032v-8.064h1.28v1.552c.432-1.12 1.424-1.68 2.672-1.68 1.824 0 3.008 1.296 3.008 3.264V216h-1.28v-4.72c0-1.376-.8-2.304-2.016-2.304-1.392 0-2.384 1.104-2.384 2.672V216h-1.28Zm12.705.128c-2.384 0-3.984-1.904-3.984-4.208 0-2.368 1.472-4.112 3.84-4.112 2.352 0 3.76 1.632 3.76 3.776 0 .176-.016.448-.032.56h-6.304c.096 1.664 1.2 2.848 2.72 2.848 1.312 0 2.144-.576 2.4-1.584h1.296c-.272 1.648-1.696 2.72-3.696 2.72Zm-2.656-5.008h4.96c-.096-1.36-1.008-2.224-2.448-2.224-1.36 0-2.272.8-2.512 2.224Zm9.133 8.144 1.04-3.136-3.024-8.192h1.328l2.288 6.4 2.304-6.4h1.328l-2.608 7.136-1.424 4.192h-1.232Zm10.755-13.904h1.28v2.576h2.48v1.136h-2.48v4.368c0 .896.512 1.424 1.296 1.424h1.184V216h-1.232c-1.552 0-2.528-.96-2.528-2.528v-4.4h-1.68v-1.136h1.68v-2.576Zm8.818 10.768c-2.384 0-4.096-1.744-4.096-4.16 0-2.432 1.712-4.16 4.096-4.16 2.4 0 4.112 1.728 4.112 4.16 0 2.416-1.712 4.16-4.112 4.16Zm-2.784-4.16c0 1.76 1.136 3.008 2.784 3.008 1.664 0 2.8-1.248 2.8-3.008s-1.136-3.008-2.8-3.008c-1.648 0-2.784 1.248-2.784 3.008Zm13.414 7.296 1.04-3.136-3.024-8.192h1.328l2.288 6.4 2.304-6.4h1.328l-2.608 7.136-1.424 4.192h-1.232Zm10.182-3.136c-2.384 0-4.096-1.744-4.096-4.16 0-2.432 1.712-4.16 4.096-4.16 2.4 0 4.112 1.728 4.112 4.16 0 2.416-1.712 4.16-4.112 4.16Zm-2.784-4.16c0 1.76 1.136 3.008 2.784 3.008 1.664 0 2.8-1.248 2.8-3.008s-1.136-3.008-2.8-3.008c-1.648 0-2.784 1.248-2.784 3.008Zm15.612-4.032V216h-1.28v-1.552c-.432 1.12-1.424 1.68-2.656 1.68-1.824 0-3.008-1.296-3.008-3.264v-4.928h1.28v4.72c0 1.376.8 2.304 2.016 2.304 1.376 0 2.368-1.104 2.368-2.672v-4.352h1.28Zm5.825 1.136c-1.632 0-2.112 1.472-2.112 3.376V216h-1.28v-8.064h1.28v1.632c.352-1.104 1.008-1.632 2.192-1.632h1.024v1.136h-1.104Zm9.92 7.056c-1.12 0-2.177-.576-2.673-1.456V216h-1.28v-11.376h1.28v4.624c.497-.864 1.537-1.44 2.689-1.44 2.512 0 3.887 1.808 3.887 4.16 0 2.352-1.375 4.16-3.904 4.16Zm-2.785-4.16c0 1.824 1.056 3.008 2.688 3.008 1.616 0 2.672-1.184 2.672-3.008s-1.056-3.008-2.672-3.008c-1.631 0-2.688 1.184-2.688 3.008Zm10.983 4.16c-1.696 0-2.8-.96-2.8-2.432 0-1.536 1.264-2.512 3.216-2.512h1.824c.352 0 .512-.176.512-.432 0-1.104-.784-1.856-2.16-1.856-1.184 0-2.112.736-2.176 1.616h-1.216c.144-1.552 1.616-2.704 3.424-2.704 2.096 0 3.408 1.2 3.408 2.992v5.2h-1.28v-1.392c-.432.928-1.504 1.52-2.752 1.52Zm-1.488-2.448c0 .832.656 1.36 1.68 1.36 1.616 0 2.56-1.008 2.56-2.672v-.208h-2.256c-1.2 0-1.984.576-1.984 1.52Zm7.853 2.32v-8.064h1.28v1.552c.432-1.12 1.424-1.68 2.672-1.68 1.824 0 3.008 1.296 3.008 3.264V216h-1.28v-4.72c0-1.376-.8-2.304-2.016-2.304-1.392 0-2.384 1.104-2.384 2.672V216h-1.28Zm9.281 0v-11.376h1.296v6.736l3.808-3.424h1.696l-3.472 3.152L1.93 216H.313l-3.12-4.048-1.072.976V216h-1.296Zm8.042-1.488h1.456V216H2.867v-1.488Z"/><rect width="185.333" height="44" x="-142" y="243" fill="#E0E0EE" fill-opacity=".06" rx="20"/><path fill="#FCFCFD" fill-opacity=".98" d="M-94.807 271.128c-2.8 0-5.392-1.872-5.392-5.728 0-3.872 2.608-5.728 5.392-5.728 2.448 0 4.432 1.52 4.736 3.616h-1.424c-.208-1.376-1.6-2.384-3.312-2.384-2.336 0-3.984 1.584-3.984 4.496 0 2.912 1.648 4.496 3.984 4.496 1.744 0 3.152-1.008 3.328-2.384h1.392c-.24 2.096-2.224 3.616-4.72 3.616Zm10.077 0c-2.384 0-4.096-1.744-4.096-4.16 0-2.432 1.712-4.16 4.096-4.16 2.4 0 4.112 1.728 4.112 4.16 0 2.416-1.712 4.16-4.112 4.16Zm-2.784-4.16c0 1.76 1.136 3.008 2.784 3.008 1.664 0 2.8-1.248 2.8-3.008s-1.136-3.008-2.8-3.008c-1.648 0-2.784 1.248-2.784 3.008ZM-78.75 271v-8.064h1.28v1.552c.432-1.12 1.424-1.68 2.672-1.68 1.824 0 3.008 1.296 3.008 3.264V271h-1.28v-4.72c0-1.376-.8-2.304-2.016-2.304-1.392 0-2.384 1.104-2.384 2.672V271h-1.28Zm9.28 0v-8.064h1.28v1.552c.433-1.12 1.425-1.68 2.673-1.68 1.824 0 3.008 1.296 3.008 3.264V271h-1.28v-4.72c0-1.376-.8-2.304-2.016-2.304-1.392 0-2.384 1.104-2.384 2.672V271h-1.28Zm12.706.128c-2.384 0-3.984-1.904-3.984-4.208 0-2.368 1.472-4.112 3.84-4.112 2.352 0 3.76 1.632 3.76 3.776 0 .176-.016.448-.032.56h-6.304c.096 1.664 1.2 2.848 2.72 2.848 1.312 0 2.144-.576 2.4-1.584h1.296c-.272 1.648-1.696 2.72-3.696 2.72Zm-2.656-5.008h4.96c-.096-1.36-1.008-2.224-2.448-2.224-1.36 0-2.272.8-2.512 2.224Zm11.56 5.008c-2.543 0-3.92-2-3.92-4.16s1.377-4.16 3.92-4.16c1.809 0 3.425 1.056 3.665 2.848h-1.264c-.16-.976-1.168-1.696-2.384-1.696-1.76 0-2.608 1.36-2.608 3.008s.864 3.008 2.608 3.008c1.216 0 2.096-.608 2.384-1.584h1.248c-.272 1.648-1.6 2.736-3.648 2.736Zm6.094-10.768h1.28v2.576h2.48v1.136h-2.48v4.368c0 .896.512 1.424 1.296 1.424h1.184V271h-1.232c-1.552 0-2.528-.96-2.528-2.528v-4.4h-1.68v-1.136h1.68v-2.576Zm13.17 10.768c-1.12 0-2.175-.576-2.671-1.456V271h-1.28v-11.376h1.28v4.624c.496-.864 1.536-1.44 2.688-1.44 2.512 0 3.888 1.808 3.888 4.16 0 2.352-1.376 4.16-3.904 4.16Zm-2.783-4.16c0 1.824 1.056 3.008 2.688 3.008 1.616 0 2.672-1.184 2.672-3.008s-1.056-3.008-2.672-3.008c-1.632 0-2.688 1.184-2.688 3.008Zm10.982 4.16c-1.696 0-2.8-.96-2.8-2.432 0-1.536 1.264-2.512 3.216-2.512h1.824c.352 0 .512-.176.512-.432 0-1.104-.784-1.856-2.16-1.856-1.184 0-2.112.736-2.176 1.616h-1.216c.144-1.552 1.616-2.704 3.424-2.704 2.096 0 3.408 1.2 3.408 2.992v5.2h-1.28v-1.392c-.432.928-1.504 1.52-2.752 1.52Zm-1.488-2.448c0 .832.656 1.36 1.68 1.36 1.616 0 2.56-1.008 2.56-2.672v-.208H-19.9c-1.2 0-1.984.576-1.984 1.52Zm7.853 2.32v-8.064h1.28v1.552c.432-1.12 1.424-1.68 2.672-1.68 1.824 0 3.008 1.296 3.008 3.264V271h-1.28v-4.72c0-1.376-.8-2.304-2.016-2.304-1.392 0-2.384 1.104-2.384 2.672V271h-1.28Zm9.282 0v-11.376h1.296v6.736l3.808-3.424H2.05l-3.472 3.152L2.354 271H.738l-3.12-4.048-1.072.976V271H-4.75Z"/><rect width="225.333" height="230" x="79.334" y="77" fill="#E0E0EE" fill-opacity=".06" rx="20"/><path stroke="#EBEBFB" stroke-linecap="round" stroke-linejoin="round" stroke-opacity=".36" stroke-width="2" d="M102.333 117c2.336-2.477 5.508-4 9-4 3.493 0 6.665 1.523 9 4m-4.5-12.5a4.5 4.5 0 1 1-9 0 4.5 4.5 0 0 1 9 0Z"/><path fill="#FCFCFD" fill-opacity=".98" d="m104.901 166-5.378-14.707h2.794l3.929 11.282 3.929-11.282h2.794L107.59 166h-2.689Zm12.815.168c-3.467 0-5.4-2.731-5.4-5.505 0-2.794 1.723-5.42 5.19-5.42 3.551 0 5.147 2.584 5.147 5.105 0 .357-.021.673-.042.883h-7.815c.189 1.702 1.281 2.794 2.92 2.794 1.324 0 2.185-.546 2.458-1.555h2.521c-.399 2.248-2.374 3.698-4.979 3.698Zm-2.857-6.639h5.21c-.105-1.345-1.029-2.353-2.563-2.353-1.45 0-2.374.756-2.647 2.353Zm14.719-1.954c-1.66 0-2.291 1.408-2.291 3.425v5h-2.584v-10.589h2.584v1.87c.526-1.345 1.345-1.87 2.711-1.87h1.239v2.164h-1.659Zm3.209 8.425v-10.589h2.584V166h-2.584Zm-.084-12.249v-2.878h2.773v2.878h-2.773ZM139.071 166v-8.425h-2.08v-2.164h2.08v-.988c0-2.143 1.491-3.55 3.781-3.55h1.891v2.185h-1.596c-.904 0-1.492.567-1.492 1.492v.861h3.088v2.164h-3.088V166h-2.584Zm8.457 4.286 1.513-4.307-3.866-10.568h2.626l2.438 7.269 2.437-7.269h2.647l-3.236 8.866-2.101 6.009h-2.458ZM161.04 166v-10.589h2.584V166h-2.584Zm-.084-12.249v-2.878h2.773v2.878h-2.773Zm9.729 12.417c-3.194 0-5.042-2.227-5.042-5.463 0-3.235 1.848-5.462 5-5.462 1.366 0 2.5.588 3.109 1.45v-5.82h2.564V166h-2.564v-1.324c-.609.925-1.785 1.492-3.067 1.492Zm-2.479-5.463c0 1.954 1.134 3.236 2.836 3.236 1.744 0 2.878-1.282 2.878-3.236 0-1.953-1.134-3.235-2.878-3.235-1.702 0-2.836 1.282-2.836 3.235Zm15.474 5.463c-3.467 0-5.4-2.731-5.4-5.505 0-2.794 1.723-5.42 5.19-5.42 3.551 0 5.147 2.584 5.147 5.105 0 .357-.021.673-.042.883h-7.815c.189 1.702 1.281 2.794 2.92 2.794 1.324 0 2.185-.546 2.458-1.555h2.521c-.399 2.248-2.374 3.698-4.979 3.698Zm-2.857-6.639h5.21c-.105-1.345-1.029-2.353-2.563-2.353-1.45 0-2.374.756-2.647 2.353Zm9.844 6.471v-10.589h2.584v1.639c.568-1.156 1.786-1.807 3.299-1.807 2.374 0 3.929 1.723 3.929 4.202V166h-2.563v-6.009c0-1.45-.904-2.458-2.227-2.458-1.429 0-2.438 1.135-2.438 2.689V166h-2.584Zm13.155-13.783h2.584v3.194h2.942v2.164h-2.942v4.622c0 1.072.568 1.618 1.534 1.618h1.408V166h-1.702c-2.311 0-3.824-1.345-3.824-3.698v-4.727h-2.08v-2.164h2.08v-3.194ZM211.185 166v-10.589h2.584V166h-2.584Zm-.084-12.249v-2.878h2.773v2.878h-2.773Zm6.283-1.534h2.584v3.194h2.942v2.164h-2.942v4.622c0 1.072.568 1.618 1.534 1.618h1.408V166h-1.702c-2.311 0-3.824-1.345-3.824-3.698v-4.727h-2.08v-2.164h2.08v-3.194Zm8.604 18.069 1.512-4.307-3.866-10.568h2.627l2.437 7.269 2.437-7.269h2.647l-3.235 8.866-2.101 6.009h-2.458Z"/><path fill="#EBEBFD" fill-opacity=".45" d="M104.181 196.128c-2.512 0-4.112-1.504-4.255-3.792h1.343c.144 1.552 1.168 2.56 2.912 2.56 1.552 0 2.688-.592 2.688-1.952 0-2.88-6.56-1.296-6.56-5.296 0-1.776 1.552-2.976 3.792-2.976 2.24 0 3.792 1.296 3.952 3.312h-1.344c-.128-1.264-1.104-2.08-2.608-2.08s-2.416.672-2.416 1.744c0 2.864 6.592 1.088 6.592 5.296 0 2.032-1.744 3.184-4.096 3.184Zm9.529 0c-2.384 0-4.096-1.744-4.096-4.16 0-2.432 1.712-4.16 4.096-4.16 2.4 0 4.112 1.728 4.112 4.16 0 2.416-1.712 4.16-4.112 4.16Zm-2.784-4.16c0 1.76 1.136 3.008 2.784 3.008 1.664 0 2.8-1.248 2.8-3.008s-1.136-3.008-2.8-3.008c-1.648 0-2.784 1.248-2.784 3.008Zm13.415 7.296 1.04-3.136-3.024-8.192h1.328l2.288 6.4 2.304-6.4h1.328l-2.608 7.136-1.424 4.192h-1.232Zm10.182-3.136c-2.384 0-4.096-1.744-4.096-4.16 0-2.432 1.712-4.16 4.096-4.16 2.4 0 4.112 1.728 4.112 4.16 0 2.416-1.712 4.16-4.112 4.16Zm-2.784-4.16c0 1.76 1.136 3.008 2.784 3.008 1.664 0 2.8-1.248 2.8-3.008s-1.136-3.008-2.8-3.008c-1.648 0-2.784 1.248-2.784 3.008Zm15.612-4.032V196h-1.28v-1.552c-.432 1.12-1.424 1.68-2.656 1.68-1.824 0-3.008-1.296-3.008-3.264v-4.928h1.28v4.72c0 1.376.8 2.304 2.016 2.304 1.376 0 2.368-1.104 2.368-2.672v-4.352h1.28Zm9.637 8.192c-2.544 0-3.92-2-3.92-4.16s1.376-4.16 3.92-4.16c1.808 0 3.424 1.056 3.664 2.848h-1.264c-.16-.976-1.168-1.696-2.384-1.696-1.76 0-2.608 1.36-2.608 3.008s.864 3.008 2.608 3.008c1.216 0 2.096-.608 2.384-1.584h1.248c-.272 1.648-1.6 2.736-3.648 2.736Zm7.868 0c-1.696 0-2.8-.96-2.8-2.432 0-1.536 1.264-2.512 3.216-2.512h1.824c.352 0 .512-.176.512-.432 0-1.104-.784-1.856-2.16-1.856-1.184 0-2.112.736-2.176 1.616h-1.216c.144-1.552 1.616-2.704 3.424-2.704 2.096 0 3.408 1.2 3.408 2.992v5.2h-1.28v-1.392c-.432.928-1.504 1.52-2.752 1.52Zm-1.488-2.448c0 .832.656 1.36 1.68 1.36 1.616 0 2.56-1.008 2.56-2.672v-.208h-2.256c-1.2 0-1.984.576-1.984 1.52Zm7.853 2.32v-8.064h1.28v1.552c.432-1.12 1.424-1.68 2.672-1.68 1.824 0 3.008 1.296 3.008 3.264V196h-1.28v-4.72c0-1.376-.8-2.304-2.016-2.304-1.392 0-2.384 1.104-2.384 2.672V196h-1.28Zm13.125 3.264v-11.328h1.28v1.328c.496-.88 1.552-1.456 2.704-1.456 2.48 0 3.872 1.808 3.872 4.16 0 2.352-1.408 4.16-3.92 4.16-1.12 0-2.176-.56-2.656-1.424v4.56h-1.28Zm1.168-7.296c0 1.824 1.056 3.008 2.688 3.008 1.616 0 2.672-1.184 2.672-3.008s-1.056-3.008-2.672-3.008c-1.632 0-2.688 1.184-2.688 3.008Zm10.983 4.16c-1.696 0-2.8-.96-2.8-2.432 0-1.536 1.264-2.512 3.216-2.512h1.824c.352 0 .512-.176.512-.432 0-1.104-.784-1.856-2.16-1.856-1.184 0-2.112.736-2.176 1.616h-1.216c.144-1.552 1.616-2.704 3.424-2.704 2.096 0 3.408 1.2 3.408 2.992v5.2h-1.28v-1.392c-.432.928-1.504 1.52-2.752 1.52Zm-1.488-2.448c0 .832.656 1.36 1.68 1.36 1.616 0 2.56-1.008 2.56-2.672v-.208h-2.256c-1.2 0-1.984.576-1.984 1.52Zm8.785 5.584 1.04-3.136-3.024-8.192h1.328l2.288 6.4 2.304-6.4h1.328l-2.608 7.136-1.424 4.192h-1.232Zm13.916-3.136c-2.384 0-4.096-1.744-4.096-4.16 0-2.432 1.712-4.16 4.096-4.16 2.4 0 4.112 1.728 4.112 4.16 0 2.416-1.712 4.16-4.112 4.16Zm-2.784-4.16c0 1.76 1.136 3.008 2.784 3.008 1.664 0 2.8-1.248 2.8-3.008s-1.136-3.008-2.8-3.008c-1.648 0-2.784 1.248-2.784 3.008Zm15.612-4.032V196h-1.28v-1.552c-.432 1.12-1.424 1.68-2.656 1.68-1.824 0-3.008-1.296-3.008-3.264v-4.928h1.28v4.72c0 1.376.8 2.304 2.016 2.304 1.376 0 2.368-1.104 2.368-2.672v-4.352h1.28Zm3.089-2.576h1.28v2.576h2.48v1.136h-2.48v4.368c0 .896.512 1.424 1.296 1.424h1.184V196h-1.232c-1.552 0-2.528-.96-2.528-2.528v-4.4h-1.68v-1.136h1.68v-2.576Zm10.026 13.904 1.04-3.136-3.024-8.192h1.328l2.288 6.4 2.304-6.4h1.328l-2.608 7.136-1.424 4.192h-1.232Zm10.182-3.136c-2.384 0-4.096-1.744-4.096-4.16 0-2.432 1.712-4.16 4.096-4.16 2.4 0 4.112 1.728 4.112 4.16 0 2.416-1.712 4.16-4.112 4.16Zm-2.784-4.16c0 1.76 1.136 3.008 2.784 3.008 1.664 0 2.8-1.248 2.8-3.008s-1.136-3.008-2.8-3.008c-1.648 0-2.784 1.248-2.784 3.008Zm15.612-4.032V196h-1.28v-1.552c-.432 1.12-1.424 1.68-2.656 1.68-1.824 0-3.008-1.296-3.008-3.264v-4.928h1.28v4.72c0 1.376.8 2.304 2.016 2.304 1.376 0 2.368-1.104 2.368-2.672v-4.352h1.28Zm5.825 1.136c-1.632 0-2.112 1.472-2.112 3.376V196h-1.28v-8.064h1.28v1.632c.352-1.104 1.008-1.632 2.192-1.632h1.024v1.136h-1.104ZM100.549 216v-8.064h1.28v1.552c.32-.976 1.2-1.68 2.448-1.68 1.328 0 2.368.608 2.64 1.712.304-.96 1.392-1.712 2.608-1.712 1.744 0 2.816 1.168 2.816 3.12V216h-1.28v-4.736c0-1.376-.688-2.32-1.824-2.32-1.36 0-2.16.944-2.16 2.32V216h-1.28v-4.736c0-1.376-.688-2.32-1.808-2.32-1.344 0-2.16.944-2.16 2.32V216h-1.28Zm17.646.128c-2.384 0-4.096-1.744-4.096-4.16 0-2.432 1.712-4.16 4.096-4.16 2.4 0 4.112 1.728 4.112 4.16 0 2.416-1.712 4.16-4.112 4.16Zm-2.784-4.16c0 1.76 1.136 3.008 2.784 3.008 1.664 0 2.8-1.248 2.8-3.008s-1.136-3.008-2.8-3.008c-1.648 0-2.784 1.248-2.784 3.008Zm8.763 4.032v-8.064h1.28v1.552c.432-1.12 1.424-1.68 2.672-1.68 1.824 0 3.008 1.296 3.008 3.264V216h-1.28v-4.72c0-1.376-.8-2.304-2.016-2.304-1.392 0-2.384 1.104-2.384 2.672V216h-1.28Zm12.706.128c-2.384 0-3.984-1.904-3.984-4.208 0-2.368 1.472-4.112 3.84-4.112 2.352 0 3.76 1.632 3.76 3.776 0 .176-.016.448-.032.56h-6.304c.096 1.664 1.2 2.848 2.72 2.848 1.312 0 2.144-.576 2.4-1.584h1.296c-.272 1.648-1.696 2.72-3.696 2.72Zm-2.656-5.008h4.96c-.096-1.36-1.008-2.224-2.448-2.224-1.36 0-2.272.8-2.512 2.224Zm9.132 8.144 1.04-3.136-3.024-8.192h1.328l2.288 6.4 2.304-6.4h1.328l-2.608 7.136-1.424 4.192h-1.232Zm10.756-13.904h1.28v2.576h2.48v1.136h-2.48v4.368c0 .896.512 1.424 1.296 1.424h1.184V216h-1.232c-1.552 0-2.528-.96-2.528-2.528v-4.4h-1.68v-1.136h1.68v-2.576Zm8.817 10.768c-2.384 0-4.096-1.744-4.096-4.16 0-2.432 1.712-4.16 4.096-4.16 2.4 0 4.112 1.728 4.112 4.16 0 2.416-1.712 4.16-4.112 4.16Zm-2.784-4.16c0 1.76 1.136 3.008 2.784 3.008 1.664 0 2.8-1.248 2.8-3.008s-1.136-3.008-2.8-3.008c-1.648 0-2.784 1.248-2.784 3.008Zm13.414 7.296 1.04-3.136-3.024-8.192h1.328l2.288 6.4 2.304-6.4h1.328l-2.608 7.136-1.424 4.192h-1.232Zm10.183-3.136c-2.384 0-4.096-1.744-4.096-4.16 0-2.432 1.712-4.16 4.096-4.16 2.4 0 4.112 1.728 4.112 4.16 0 2.416-1.712 4.16-4.112 4.16Zm-2.784-4.16c0 1.76 1.136 3.008 2.784 3.008 1.664 0 2.8-1.248 2.8-3.008s-1.136-3.008-2.8-3.008c-1.648 0-2.784 1.248-2.784 3.008Zm15.611-4.032V216h-1.28v-1.552c-.432 1.12-1.424 1.68-2.656 1.68-1.824 0-3.008-1.296-3.008-3.264v-4.928h1.28v4.72c0 1.376.8 2.304 2.016 2.304 1.376 0 2.368-1.104 2.368-2.672v-4.352h1.28Zm5.826 1.136c-1.632 0-2.112 1.472-2.112 3.376V216h-1.28v-8.064h1.28v1.632c.352-1.104 1.008-1.632 2.192-1.632h1.024v1.136h-1.104Zm9.919 7.056c-1.12 0-2.176-.576-2.672-1.456V216h-1.28v-11.376h1.28v4.624c.496-.864 1.536-1.44 2.688-1.44 2.512 0 3.888 1.808 3.888 4.16 0 2.352-1.376 4.16-3.904 4.16Zm-2.784-4.16c0 1.824 1.056 3.008 2.688 3.008 1.616 0 2.672-1.184 2.672-3.008s-1.056-3.008-2.672-3.008c-1.632 0-2.688 1.184-2.688 3.008Zm10.982 4.16c-1.696 0-2.8-.96-2.8-2.432 0-1.536 1.264-2.512 3.216-2.512h1.824c.352 0 .512-.176.512-.432 0-1.104-.784-1.856-2.16-1.856-1.184 0-2.112.736-2.176 1.616h-1.216c.144-1.552 1.616-2.704 3.424-2.704 2.096 0 3.408 1.2 3.408 2.992v5.2h-1.28v-1.392c-.432.928-1.504 1.52-2.752 1.52Zm-1.488-2.448c0 .832.656 1.36 1.68 1.36 1.616 0 2.56-1.008 2.56-2.672v-.208h-2.256c-1.2 0-1.984.576-1.984 1.52Zm7.854 2.32v-8.064h1.28v1.552c.432-1.12 1.424-1.68 2.672-1.68 1.824 0 3.008 1.296 3.008 3.264V216h-1.28v-4.72c0-1.376-.8-2.304-2.016-2.304-1.392 0-2.384 1.104-2.384 2.672V216h-1.28Zm9.281 0v-11.376h1.296v6.736l3.808-3.424h1.696l-3.472 3.152 3.776 4.912h-1.616l-3.12-4.048-1.072.976V216h-1.296Zm8.041-1.488h1.456V216H244.2v-1.488Z"/><rect width="185.333" height="44" x="99.334" y="243" fill="#E0E0EE" fill-opacity=".06" rx="20"/><path fill="#FCFCFD" fill-opacity=".98" d="M161.863 271.128c-2.528 0-4.224-1.52-4.224-3.968v-7.36h1.344v7.424c0 1.648 1.152 2.672 2.88 2.672 1.744 0 2.896-1.024 2.896-2.672V259.8h1.344v7.36c0 2.448-1.696 3.968-4.24 3.968Zm6.556 3.136v-11.328h1.28v1.328c.496-.88 1.552-1.456 2.704-1.456 2.48 0 3.872 1.808 3.872 4.16 0 2.352-1.408 4.16-3.92 4.16-1.12 0-2.176-.56-2.656-1.424v4.56h-1.28Zm1.168-7.296c0 1.824 1.056 3.008 2.688 3.008 1.616 0 2.672-1.184 2.672-3.008s-1.056-3.008-2.672-3.008c-1.632 0-2.688 1.184-2.688 3.008Zm8.567 4.032v-11.376h1.28V271h-1.28Zm7.27.128c-2.384 0-4.096-1.744-4.096-4.16 0-2.432 1.712-4.16 4.096-4.16 2.4 0 4.112 1.728 4.112 4.16 0 2.416-1.712 4.16-4.112 4.16Zm-2.784-4.16c0 1.76 1.136 3.008 2.784 3.008 1.664 0 2.8-1.248 2.8-3.008s-1.136-3.008-2.8-3.008c-1.648 0-2.784 1.248-2.784 3.008Zm11.18 4.16c-1.696 0-2.8-.96-2.8-2.432 0-1.536 1.264-2.512 3.216-2.512h1.824c.352 0 .512-.176.512-.432 0-1.104-.784-1.856-2.161-1.856-1.183 0-2.112.736-2.175 1.616h-1.216c.144-1.552 1.616-2.704 3.424-2.704 2.096 0 3.408 1.2 3.408 2.992v5.2h-1.28v-1.392c-.432.928-1.504 1.52-2.752 1.52Zm-1.488-2.448c0 .832.656 1.36 1.68 1.36 1.616 0 2.56-1.008 2.56-2.672v-.208h-2.256c-1.2 0-1.984.576-1.984 1.52Zm11.197 2.448c-2.512 0-3.888-1.808-3.888-4.16 0-2.352 1.376-4.16 3.888-4.16 1.136 0 2.192.576 2.672 1.44v-4.624h1.28V271h-1.28v-1.328c-.48.88-1.536 1.456-2.672 1.456Zm-2.56-4.16c0 1.824 1.056 3.008 2.672 3.008s2.672-1.184 2.672-3.008-1.056-3.008-2.672-3.008-2.672 1.184-2.672 3.008ZM213.907 271v-11.2h1.376V271h-1.376Zm4.094 0v-11.2h3.296c3.136 0 5.6 2.032 5.6 5.6 0 3.568-2.464 5.6-5.6 5.6h-3.296Zm1.376-1.232h1.904c2.176 0 4.192-1.28 4.192-4.368s-2.016-4.368-4.192-4.368h-1.904v8.736Z"/><rect width="225.333" height="230" x="320.667" y="77" fill="#E0E0EE" fill-opacity=".06" rx="20"/><path stroke="#EBEBFB" stroke-linecap="round" stroke-linejoin="round" stroke-opacity=".36" stroke-width="2" d="M362.667 108v-2.8c0-1.12 0-1.68-.218-2.108a2.003 2.003 0 0 0-.875-.874c-.427-.218-.987-.218-2.107-.218h-13.6c-1.121 0-1.681 0-2.108.218a2.003 2.003 0 0 0-.875.874c-.217.428-.217.988-.217 2.108v3.6c0 1.12 0 1.68.217 2.108.192.376.498.682.875.874.427.218.987.218 2.108.218h5.8m1-5h.005m4.995 0h.005m-10.005 0h.005m12.245 7v-1.75a1.75 1.75 0 0 0-3.5 0V114m-3.5-7a.25.25 0 1 1-.5 0 .25.25 0 0 1 .5 0Zm5 0a.25.25 0 1 1-.5 0 .25.25 0 0 1 .5 0Zm-10 0a.25.25 0 1 1-.5 0 .25.25 0 0 1 .5 0Zm8.35 11h3.8c.56 0 .84 0 1.053-.109a1 1 0 0 0 .438-.437c.109-.214.109-.494.109-1.054v-.8c0-.56 0-.84-.109-1.054a1 1 0 0 0-.438-.437c-.213-.109-.493-.109-1.053-.109h-3.8c-.561 0-.841 0-1.054.109a1 1 0 0 0-.438.437c-.108.214-.108.494-.108 1.054v.8c0 .56 0 .84.108 1.054a1 1 0 0 0 .438.437c.213.109.493.109 1.054.109Z"/><path fill="#FCFCFD" fill-opacity=".98" d="M342.2 156v-14.707h9.77v2.395h-7.017v3.572h5.63v2.395h-5.63v3.929h7.248V156H342.2Zm11.833 0v-10.589h2.585v1.639c.567-1.156 1.786-1.807 3.298-1.807 2.374 0 3.929 1.723 3.929 4.202V156h-2.563v-6.009c0-1.45-.904-2.458-2.227-2.458-1.429 0-2.437 1.135-2.437 2.689V156h-2.585Zm15.378.168c-2.08 0-3.508-1.345-3.508-3.172 0-2.059 1.576-3.341 3.971-3.341h1.954c.504 0 .756-.294.756-.714 0-1.03-.777-1.765-2.143-1.765-1.366 0-2.185.861-2.227 1.807h-2.332c.147-2.101 1.933-3.74 4.664-3.74 2.71 0 4.601 1.555 4.601 3.95V156h-2.563v-1.576c-.42 1.051-1.66 1.744-3.173 1.744Zm-1.008-3.277c0 .819.651 1.365 1.618 1.365 1.618 0 2.563-1.134 2.563-2.731v-.168h-2.374c-1.093 0-1.807.609-1.807 1.534Zm14.877 3.277c-1.302 0-2.479-.567-3.067-1.492V156h-2.584v-15.127h2.584v5.82c.588-.862 1.723-1.45 3.088-1.45 3.152 0 5.001 2.227 5.001 5.462 0 3.236-1.849 5.463-5.022 5.463Zm-3.235-5.463c0 1.954 1.134 3.236 2.857 3.236 1.702 0 2.837-1.282 2.837-3.236 0-1.953-1.135-3.235-2.837-3.235-1.723 0-2.857 1.282-2.857 3.235ZM390.309 156v-15.127h2.584V156h-2.584Zm9.96.168c-3.467 0-5.4-2.731-5.4-5.505 0-2.794 1.723-5.42 5.19-5.42 3.55 0 5.147 2.584 5.147 5.105 0 .357-.021.673-.042.883h-7.816c.189 1.702 1.282 2.794 2.921 2.794 1.323 0 2.185-.546 2.458-1.555h2.521c-.399 2.248-2.374 3.698-4.979 3.698Zm-2.858-6.639h5.211c-.105-1.345-1.03-2.353-2.563-2.353-1.45 0-2.374.756-2.648 2.353Zm14.105-3.131c-.063-3.256 1.975-5.273 5.189-5.273 3.047 0 5.148 1.807 5.148 4.559 0 1.975-1.177 3.551-3.509 4.706l-2.248 1.135c-.861.441-1.87 1.155-1.87 2.059h7.606V156h-10.316l-.021-2.038c-.021-2.374 1.975-3.929 3.382-4.622l2.354-1.177c1.218-.588 1.827-1.428 1.827-2.5 0-1.366-.924-2.248-2.353-2.248-1.554 0-2.458 1.198-2.395 2.983h-2.794ZM424.312 156v-14.707h9.769v2.395h-7.017v3.74h5.631v2.395h-5.631V156h-2.752Zm15.744-11.156-1.975 5.378h3.95l-1.975-5.378ZM433.081 156l5.672-14.707h2.606L447.031 156h-2.878l-1.261-3.425h-5.672L435.959 156h-2.878Z"/><path fill="#EBEBFD" fill-opacity=".45" d="M345.515 186.128c-2.512 0-4.112-1.504-4.256-3.792h1.344c.144 1.552 1.168 2.56 2.912 2.56 1.552 0 2.688-.592 2.688-1.952 0-2.88-6.56-1.296-6.56-5.296 0-1.776 1.552-2.976 3.792-2.976 2.24 0 3.792 1.296 3.952 3.312h-1.344c-.128-1.264-1.104-2.08-2.608-2.08s-2.416.672-2.416 1.744c0 2.864 6.592 1.088 6.592 5.296 0 2.032-1.744 3.184-4.096 3.184Zm9.529 0c-2.384 0-4.096-1.744-4.096-4.16 0-2.432 1.712-4.16 4.096-4.16 2.4 0 4.112 1.728 4.112 4.16 0 2.416-1.712 4.16-4.112 4.16Zm-2.784-4.16c0 1.76 1.136 3.008 2.784 3.008 1.664 0 2.8-1.248 2.8-3.008s-1.136-3.008-2.8-3.008c-1.648 0-2.784 1.248-2.784 3.008Zm16.143 4.16c-2.384 0-4.096-1.744-4.096-4.16 0-2.432 1.712-4.16 4.096-4.16 2.4 0 4.112 1.728 4.112 4.16 0 2.416-1.712 4.16-4.112 4.16Zm-2.784-4.16c0 1.76 1.136 3.008 2.784 3.008 1.664 0 2.8-1.248 2.8-3.008s-1.136-3.008-2.8-3.008c-1.648 0-2.784 1.248-2.784 3.008Zm8.764 4.032v-8.064h1.28v1.552c.432-1.12 1.424-1.68 2.672-1.68 1.824 0 3.008 1.296 3.008 3.264V186h-1.28v-4.72c0-1.376-.8-2.304-2.016-2.304-1.392 0-2.384 1.104-2.384 2.672V186h-1.28Zm9.281 0v-11.376h1.28V186h-1.28Zm4.822 3.264 1.04-3.136-3.024-8.192h1.328l2.288 6.4 2.304-6.4h1.328l-2.608 7.136-1.424 4.192h-1.232Zm11.188 0 1.04-3.136-3.024-8.192h1.328l2.288 6.4 2.304-6.4h1.328l-2.608 7.136-1.424 4.192h-1.232Zm10.182-3.136c-2.384 0-4.096-1.744-4.096-4.16 0-2.432 1.712-4.16 4.096-4.16 2.4 0 4.112 1.728 4.112 4.16 0 2.416-1.712 4.16-4.112 4.16Zm-2.784-4.16c0 1.76 1.136 3.008 2.784 3.008 1.664 0 2.8-1.248 2.8-3.008s-1.136-3.008-2.8-3.008c-1.648 0-2.784 1.248-2.784 3.008Zm15.612-4.032V186h-1.28v-1.552c-.432 1.12-1.424 1.68-2.656 1.68-1.824 0-3.008-1.296-3.008-3.264v-4.928h1.28v4.72c0 1.376.8 2.304 2.016 2.304 1.376 0 2.368-1.104 2.368-2.672v-4.352h1.28Zm9.637 8.192c-2.544 0-3.92-2-3.92-4.16s1.376-4.16 3.92-4.16c1.808 0 3.424 1.056 3.664 2.848h-1.264c-.16-.976-1.168-1.696-2.384-1.696-1.76 0-2.608 1.36-2.608 3.008s.864 3.008 2.608 3.008c1.216 0 2.096-.608 2.384-1.584h1.248c-.272 1.648-1.6 2.736-3.648 2.736Zm7.868 0c-1.696 0-2.8-.96-2.8-2.432 0-1.536 1.264-2.512 3.216-2.512h1.824c.352 0 .512-.176.512-.432 0-1.104-.784-1.856-2.16-1.856-1.184 0-2.112.736-2.176 1.616h-1.216c.144-1.552 1.616-2.704 3.424-2.704 2.096 0 3.408 1.2 3.408 2.992v5.2h-1.28v-1.392c-.432.928-1.504 1.52-2.752 1.52Zm-1.488-2.448c0 .832.656 1.36 1.68 1.36 1.616 0 2.56-1.008 2.56-2.672v-.208h-2.256c-1.2 0-1.984.576-1.984 1.52Zm7.853 2.32v-8.064h1.28v1.552c.432-1.12 1.424-1.68 2.672-1.68 1.824 0 3.008 1.296 3.008 3.264V186h-1.28v-4.72c0-1.376-.8-2.304-2.016-2.304-1.392 0-2.384 1.104-2.384 2.672V186h-1.28Zm13.637 3.264v-1.104h3.728c1.04 0 1.776-.784 1.776-1.856v-1.424c-.368.752-1.456 1.248-2.672 1.248-2.512 0-3.888-1.808-3.888-4.16 0-2.352 1.376-4.16 3.888-4.16 1.088 0 2.176.544 2.672 1.312v-1.184h1.28v8.416c0 1.712-1.232 2.912-2.976 2.912h-3.808Zm.272-7.296c0 1.824 1.056 3.008 2.672 3.008s2.672-1.184 2.672-3.008-1.056-3.008-2.672-3.008-2.672 1.184-2.672 3.008Zm12.375 4.16c-2.384 0-3.984-1.904-3.984-4.208 0-2.368 1.472-4.112 3.84-4.112 2.352 0 3.76 1.632 3.76 3.776 0 .176-.016.448-.032.56h-6.304c.096 1.664 1.2 2.848 2.72 2.848 1.312 0 2.144-.576 2.4-1.584h1.296c-.272 1.648-1.696 2.72-3.696 2.72Zm-2.656-5.008h4.96c-.096-1.36-1.008-2.224-2.448-2.224-1.36 0-2.272.8-2.512 2.224Zm8.747-5.76h1.28v2.576h2.48v1.136h-2.48v4.368c0 .896.512 1.424 1.296 1.424h1.184V186h-1.232c-1.552 0-2.528-.96-2.528-2.528v-4.4h-1.68v-1.136h1.68v-2.576Zm-134.63 30.768c-1.696 0-2.8-.96-2.8-2.432 0-1.536 1.264-2.512 3.216-2.512h1.824c.352 0 .512-.176.512-.432 0-1.104-.784-1.856-2.16-1.856-1.184 0-2.112.736-2.176 1.616h-1.216c.144-1.552 1.616-2.704 3.424-2.704 2.096 0 3.408 1.2 3.408 2.992v5.2h-1.28v-1.392c-.432.928-1.504 1.52-2.752 1.52Zm-1.488-2.448c0 .832.656 1.36 1.68 1.36 1.616 0 2.56-1.008 2.56-2.672v-.208h-2.256c-1.2 0-1.984.576-1.984 1.52Zm11.213 2.448c-2.544 0-3.92-2-3.92-4.16s1.376-4.16 3.92-4.16c1.808 0 3.424 1.056 3.664 2.848h-1.264c-.16-.976-1.168-1.696-2.384-1.696-1.76 0-2.608 1.36-2.608 3.008s.864 3.008 2.608 3.008c1.216 0 2.096-.608 2.384-1.584h1.248c-.272 1.648-1.6 2.736-3.648 2.736Zm8.812 0c-2.544 0-3.92-2-3.92-4.16s1.376-4.16 3.92-4.16c1.808 0 3.424 1.056 3.664 2.848h-1.264c-.16-.976-1.168-1.696-2.384-1.696-1.76 0-2.608 1.36-2.608 3.008s.864 3.008 2.608 3.008c1.216 0 2.096-.608 2.384-1.584h1.248c-.272 1.648-1.6 2.736-3.648 2.736Zm8.877 0c-2.384 0-3.984-1.904-3.984-4.208 0-2.368 1.472-4.112 3.84-4.112 2.352 0 3.76 1.632 3.76 3.776 0 .176-.016.448-.032.56h-6.304c.096 1.664 1.2 2.848 2.72 2.848 1.312 0 2.144-.576 2.4-1.584h1.296c-.272 1.648-1.696 2.72-3.696 2.72Zm-2.656-5.008h4.96c-.096-1.36-1.008-2.224-2.448-2.224-1.36 0-2.272.8-2.512 2.224Zm10.793 5.008c-1.856 0-3.088-1.04-3.216-2.72h1.232c.112 1.04.816 1.6 1.984 1.6 1.024 0 1.696-.56 1.696-1.216 0-2.4-4.704-.24-4.704-3.728 0-1.36 1.152-2.256 2.864-2.256 1.76 0 2.96.976 3.056 2.464h-1.232c-.128-1.024-1.136-1.376-1.856-1.376-.944 0-1.568.448-1.568 1.152 0 2.176 4.72.016 4.72 3.712 0 1.44-1.2 2.368-2.976 2.368Zm7.453 0c-1.856 0-3.088-1.04-3.216-2.72h1.232c.112 1.04.816 1.6 1.984 1.6 1.024 0 1.696-.56 1.696-1.216 0-2.4-4.704-.24-4.704-3.728 0-1.36 1.152-2.256 2.864-2.256 1.76 0 2.96.976 3.056 2.464h-1.232c-.128-1.024-1.136-1.376-1.856-1.376-.944 0-1.568.448-1.568 1.152 0 2.176 4.72.016 4.72 3.712 0 1.44-1.2 2.368-2.976 2.368Zm8.285 0c-2.384 0-3.984-1.904-3.984-4.208 0-2.368 1.472-4.112 3.84-4.112 2.352 0 3.76 1.632 3.76 3.776 0 .176-.016.448-.032.56h-6.304c.096 1.664 1.2 2.848 2.72 2.848 1.312 0 2.144-.576 2.4-1.584h1.296c-.272 1.648-1.696 2.72-3.696 2.72Zm-2.656-5.008h4.96c-.096-1.36-1.008-2.224-2.448-2.224-1.36 0-2.272.8-2.512 2.224Zm10.793 5.008c-1.856 0-3.088-1.04-3.216-2.72h1.232c.112 1.04.816 1.6 1.984 1.6 1.024 0 1.696-.56 1.696-1.216 0-2.4-4.704-.24-4.704-3.728 0-1.36 1.152-2.256 2.864-2.256 1.76 0 2.96.976 3.056 2.464h-1.232c-.128-1.024-1.136-1.376-1.856-1.376-.944 0-1.568.448-1.568 1.152 0 2.176 4.72.016 4.72 3.712 0 1.44-1.2 2.368-2.976 2.368Zm9.079-10.768h1.28v2.576h2.48v1.136h-2.48v4.368c0 .896.512 1.424 1.296 1.424h1.184V206h-1.232c-1.552 0-2.528-.96-2.528-2.528v-4.4h-1.68v-1.136h1.68v-2.576Zm8.818 10.768c-2.384 0-4.096-1.744-4.096-4.16 0-2.432 1.712-4.16 4.096-4.16 2.4 0 4.112 1.728 4.112 4.16 0 2.416-1.712 4.16-4.112 4.16Zm-2.784-4.16c0 1.76 1.136 3.008 2.784 3.008 1.664 0 2.8-1.248 2.8-3.008s-1.136-3.008-2.8-3.008c-1.648 0-2.784 1.248-2.784 3.008Zm13.414 7.296 1.04-3.136-3.024-8.192h1.328l2.288 6.4 2.304-6.4h1.328l-2.608 7.136-1.424 4.192h-1.232Zm10.182-3.136c-2.384 0-4.096-1.744-4.096-4.16 0-2.432 1.712-4.16 4.096-4.16 2.4 0 4.112 1.728 4.112 4.16 0 2.416-1.712 4.16-4.112 4.16Zm-2.784-4.16c0 1.76 1.136 3.008 2.784 3.008 1.664 0 2.8-1.248 2.8-3.008s-1.136-3.008-2.8-3.008c-1.648 0-2.784 1.248-2.784 3.008Zm15.612-4.032V206h-1.28v-1.552c-.432 1.12-1.424 1.68-2.656 1.68-1.824 0-3.008-1.296-3.008-3.264v-4.928h1.28v4.72c0 1.376.8 2.304 2.016 2.304 1.376 0 2.368-1.104 2.368-2.672v-4.352h1.28Zm5.825 1.136c-1.632 0-2.112 1.472-2.112 3.376V206h-1.28v-8.064h1.28v1.632c.352-1.104 1.008-1.632 2.192-1.632h1.024v1.136h-1.104Zm-116.788 27.056c-1.696 0-2.8-.96-2.8-2.432 0-1.536 1.264-2.512 3.216-2.512h1.824c.352 0 .512-.176.512-.432 0-1.104-.784-1.856-2.16-1.856-1.184 0-2.112.736-2.176 1.616h-1.216c.144-1.552 1.616-2.704 3.424-2.704 2.096 0 3.408 1.2 3.408 2.992v5.2h-1.28v-1.392c-.432.928-1.504 1.52-2.752 1.52Zm-1.488-2.448c0 .832.656 1.36 1.68 1.36 1.616 0 2.56-1.008 2.56-2.672v-.208h-2.256c-1.2 0-1.984.576-1.984 1.52Zm11.213 2.448c-2.544 0-3.92-2-3.92-4.16s1.376-4.16 3.92-4.16c1.808 0 3.424 1.056 3.664 2.848h-1.264c-.16-.976-1.168-1.696-2.384-1.696-1.76 0-2.608 1.36-2.608 3.008s.864 3.008 2.608 3.008c1.216 0 2.096-.608 2.384-1.584h1.248c-.272 1.648-1.6 2.736-3.648 2.736Zm8.812 0c-2.544 0-3.92-2-3.92-4.16s1.376-4.16 3.92-4.16c1.808 0 3.424 1.056 3.664 2.848h-1.264c-.16-.976-1.168-1.696-2.384-1.696-1.76 0-2.608 1.36-2.608 3.008s.864 3.008 2.608 3.008c1.216 0 2.096-.608 2.384-1.584h1.248c-.272 1.648-1.6 2.736-3.648 2.736Zm8.989 0c-2.384 0-4.096-1.744-4.096-4.16 0-2.432 1.712-4.16 4.096-4.16 2.4 0 4.112 1.728 4.112 4.16 0 2.416-1.712 4.16-4.112 4.16Zm-2.784-4.16c0 1.76 1.136 3.008 2.784 3.008 1.664 0 2.8-1.248 2.8-3.008s-1.136-3.008-2.8-3.008c-1.648 0-2.784 1.248-2.784 3.008Zm15.611-4.032V226h-1.28v-1.552c-.432 1.12-1.424 1.68-2.656 1.68-1.824 0-3.008-1.296-3.008-3.264v-4.928h1.28v4.72c0 1.376.8 2.304 2.016 2.304 1.376 0 2.368-1.104 2.368-2.672v-4.352h1.28Zm2.434 8.064v-8.064h1.28v1.552c.432-1.12 1.424-1.68 2.672-1.68 1.824 0 3.008 1.296 3.008 3.264V226h-1.28v-4.72c0-1.376-.8-2.304-2.016-2.304-1.392 0-2.384 1.104-2.384 2.672V226h-1.28Zm9.812-10.64h1.28v2.576h2.48v1.136h-2.48v4.368c0 .896.512 1.424 1.296 1.424h1.184V226h-1.232c-1.552 0-2.528-.96-2.528-2.528v-4.4h-1.68v-1.136h1.68v-2.576Zm5.151 9.152h1.456V226h-1.456v-1.488Z"/><rect width="185.333" height="44" x="340.667" y="243" fill="#E0E0EE" fill-opacity=".06" rx="20"/></g><defs><clipPath id="a"><rect width="384" height="384" fill="#fff" rx="16"/></clipPath></defs></svg>