<svg xmlns="http://www.w3.org/2000/svg" width="120" height="120" fill="none"><path fill="#F60" d="M0 0h120v120H0z"/><path fill="#F60" d="M84.15 87.99c1.1-.196 2.2-.128 3.106-.906 3.62.582 7.308-.323 10.155-2.328 1.487-1.228 2.847-2.588 3.943-4.138.968-1.36 1.746-2.588 2.201-4.139.386-.905.646-1.873.905-2.91 1.037-4.72.518-9.96-1.037-14.421a15.419 15.419 0 0 0-.969-2.392c-1.942-3.943-4.525-8.213-8.536-10.737-2.265-1.424-4.334-3.556-5.625-5.821-.71-.646-1.36-1.424-2.265-1.62.26.387.518.778.582 1.292l-.064.064c-.968 0-1.682-.455-2.328-1.1l.71-.646c-.26-.128-.583-.196-.906-.26-2.714-.322-4.98.97-7.435 1.551l-.064.127c1.487.646 1.81 2.329 2.652 3.43.195-.26.582-.064.905-.064.454 0 .841.323 1.291.259 0-.387-.195-.646-.259-.969.26-.127.582 0 .841 0 .778.455 2.07-.063 2.524.969-.905.064-1.746.26-2.587.455.063.323.386.582.386.968a6.853 6.853 0 0 0-2.264-.582l-.064.128c1.037 1.164 2.392 1.873 3.879 2.328 2.07.455 3.88-.518 5.821-.195 4.852 2.2 9.054 7.308 10.864 12.16.064.26.196.455.26.71 1.487 4.397 1.81 9.832.259 14.42-.778 1.942-1.683 3.752-3.106 5.303-.519.646-1.165 1.228-1.81 1.746-2.07 1.62-4.525 2.265-7.181 1.55-.195-.126-.518-.126-.455-.454.064-.386.196-.778.26-1.164.454-2.201.645-4.525.518-6.853v-.323a26.102 26.102 0 0 0-2.07-9.314c-.777-1.683-1.746-3.493-2.91-5.107-1.423-1.942-3.17-3.62-5.434-4.461-1.36-.387-3.106-.455-4.139.71-.777.645-1.036 1.55-.968 2.523a8.896 8.896 0 0 1-3.943 1.292c-.323 0-.71.127-1.1.127-.323 0-.71 0-1.037-.064-1.747-.195-3.493-1.164-4.785-2.2 0-.71-.063-1.36-.063-2.134-.778-.386-1.36-1.164-1.424-2.005l.064-.064c.455.127.841.323 1.228.582-.196-1.037-.387-2.133-.905-3.038a32.797 32.797 0 0 1-1.424-.582c-.518-.323-.84-.968-.968-1.55.455.454 1.291.322 1.682.777-.645-1.873-.645-4.075-1.682-5.757-.519-1.292-1.942-1.874-2.847-2.783-.387-.455-.518-1.1-1.164-1.165-.519-.127-.582-.777-.71-1.164.323.064.646.26.905.323-.777-2.07-1.487-4.398-3.62-5.757l-.386.259a17.51 17.51 0 0 1-2.524.196c.386-.519 1.037-.778 1.55-1.037-.582-.455-1.1-.582-1.81-.646-.454.455-1.227.646-1.746.777l-.063-.063c0-.519-.128-1.1.582-1.228-.71-.323-1.874-.196-2.588 0-.195.518-.778 1.037-.778 1.619-.386.455-.709 1.037-1.164 1.36 0-1.037.455-2.006.646-2.91-.582.258-1.228.581-1.81.84a26.507 26.507 0 0 0-3.038-1.55c-.063-.064-.323-.064-.259.063.905.646.518 1.81.646 2.715l-.582-.454c-.26-.71-1.037-1.165-1.165-1.942-.905.195-1.487.454-2.392.777l-.127.064c.646 0 1.164.518 1.487 1.037-.969.064-1.81-.323-2.778-.455-.064-.064-.196-.195-.323-.195-.455.195-.905.518-1.292.84-.969.906-1.874 1.943-2.328 3.17.322.064.71.064.968.26-.518.323-.968.841-1.487 1.164-.195.71-.127 1.487-.195 2.265-.387.582-.905 1.1-1.164 1.81-.842 2.715-1.037 5.757-.97 8.859-.258.259-.645.454-.904.645v2.784h.063c.128-.582.842-.905 1.228-1.292h.128c-.064.646-.128 1.228-.196 1.874l-.777.646c-.778.709-.128 1.746-.196 2.587.064.26.064.582.26.646.063-.323.386-.582.581-.905.323-.064.646-.323.969-.387-.196.71-.387 1.36-.71 2.006-.127.064-.259.195-.386.323-.127.127-.26.323-.26.518a65.41 65.41 0 0 0 2.652 9.441c-.778 1.292-1.164 2.779-1.81 4.075-.064.196-.196.387-.26.582-.645 1.55-.84 3.36-1.618 4.853-.323-.196-.646-.387-1.037-.519-1.487-.518-3.17-.195-4.27.969-.969-.196-1.942 0-2.652.518-.518.387-.968.905-1.164 1.424-.195.386-.259.84-.195 1.291-.582.387-.905 1.1-1.165 1.746-.259 1.488.26 2.975 1.101 4.139l67.915-.187Z"/><path fill="#F60" d="M75.096 57.464c0 .323-.26.778-.064 1.037.323-.386.841-.323 1.291-.518 1.228-.128 2.393.259 3.493.518-.26-.455-.455-.968-.778-1.36-.645-.195-1.55.26-1.682-.645-.387-.323-.969-.064-1.36-.064-.318.255-.641.646-.9 1.032Zm-36.604.324.842-.778c.063 0 .127 0 .195.064l-.063 1.487c.386.387.905.518 1.423.518.064-.386.323-.709.518-1.036.128-.26.064-.71.323-.905l.064.063c.127.455.064.969.323 1.36 0 .196.064.518.064.71.582 0 1.164-.128 1.619-.323 0-.519.127-.905.259-1.424.127-.195-.128-.455.195-.455.196.387.519.842.71 1.292.777-.778 1.1-1.874 1.291-2.91-.259-.324-.582-.324-.841-.519-2.328-.778-5.303-.905-7.504.26-.195.85 0 1.886.582 2.596ZM16.89 83.268c-.064 1.037 0 2.005.063 3.037.196.323.646.71 1.037.778l.064-.71c.127-.968-.323-2.005.195-2.778.387.127.778.323 1.1.519.128-.906-.063-1.942-.904-2.456l-1.555 1.61Zm3.366-1.423c-.518 1.62-.905 3.557-.26 5.24.387-.26.778-.455 1.101-.842-.064-1.291-.259-2.651.519-3.688.645.195 1.1.841 1.36 1.487.454-.582.582-1.36.454-2.133 0-.582-.646-.455-.968-.71.127-.518.063-1.1.645-1.36l-1.619.196c-.523.519-.977 1.1-1.232 1.81Zm3.36 4.655c.064.128 0 .324.128.388.195-1.165 1.1-1.874 1.619-2.911.259-.323.259-.841.645-1.1.519 0 .905.386 1.424.454.195.127-.064.26-.064.387-.127.905-.455 1.682-.386 2.651h.063c.71-.778 1.228-1.55 1.746-2.456l.064-.777c.128-.905-.905-1.551-1.55-1.874l.582-.778-.842-.259c-.969.064-1.81.519-2.456 1.228-.777 1.492-.91 3.238-.973 5.048Zm3.689-8.079c.323.064.582-.195.905 0 1.228.455 2.587.905 3.492 2.006l1.1 2.847.583-1.747-.387-.968c-.322-.71-1.164-.646-1.746-.646-.26-.26 0-.582.127-.841.26-.969-.905-.905-1.36-1.292 0-.582-.709-.386-1.1-.455l-.127-.195c-.064-.128-.26-.128-.387 0 0-.064-.063-.064-.063-.128l-.323.064c-.455.382-.714.837-.714 1.355Zm.773-3.108c.064.196.128.323.26.455.581-.195 1.163-.582 1.873-.323.905.778 1.874 1.62 2.974 2.07l.387-.064c.259.063.518.063.71.386.127.387-.26.582-.324.905.582.455.387 1.228.778 1.81l.969-1.291c-.26-.582 0-1.551-.905-1.62a.843.843 0 0 1-.519-.777c-.582-.518-1.291-.778-1.873-1.291-.455-.387-.778-.97-1.36-1.101-.387-.26-.905-.323-1.36-.455-.96-.19-1.028.91-1.61 1.296Zm1.295-2.65.196.26c.645-.064 1.291-.323 1.941-.323.455.259 1.037.259 1.488.518.386.518.777 1.1 1.291 1.423 1.1.128 1.746 1.36 2.07 2.202v-.455c.195-.582 0-1.292-.26-1.81-.26-.26-.646-.455-.969-.71-.063-.195 0-.259.064-.454-.455-.455-1.037-.71-1.55-1.037-.71-1.037-2.133-.778-3.234-1.037l-1.037 1.423Zm0-9.96c.127.455.26.969.323 1.424.386-.842 1.164-1.228 1.81-1.942-.387-.26-.841-.387-1.292-.455-.327.264-.777.518-.841.973Zm2.458 4.462.582-.646c.582-.646 1.1-1.36 1.228-2.133-.455-.26-1.037-.064-1.423.064-.128.904-.387 1.746-.387 2.715Zm.454 1.878c.969.063 1.874.259 2.588-.26l.777-2.455c-.259 0-.518-.128-.709-.064-.523 1.16-1.56 2.26-2.656 2.779Zm.259-8.668c.582.905 1.619 1.874 2.651 2.201-.127-1.164-1.1-1.942-1.619-2.91v-.323c-.386-.387-.841-.646-1.291-.842-.069.646.127 1.292.259 1.874Zm3.298 8.795c.71.128 1.487 0 2.133-.195.968-.26 1.487-1.291 1.81-2.133h-1.228l-1.292 1.292c-.455.259-.973.714-1.423 1.037Zm-.132-10.022c.196 1.036.646 2.005 1.291 2.91l.196-2.005-1.487-.905Zm4.466 5.302c.063-.71-.196-1.487-.26-2.133-.386-.259-.968-.259-1.423-.518 0 1.032.841 1.942 1.683 2.651Zm-1.235 6.92c.842-.258 1.683-.581 2.456-1.036.519-.71 1.292-1.36 1.36-2.201-.646.195-1.164 0-1.746.259-.323.646-.583 1.36-1.228 1.81-.128.455-.646.778-.842 1.169Zm1.299 1.68 1.036 1.36c.519.195 1.228.127 1.683-.196l-.387-1.228c-.65.26-1.555.132-2.333.063Zm1.745-9.637.387 1.81c.969-.778 1.164-1.874 1.1-3.106-.518.586-.84.973-1.487 1.296Zm2.652 3.17c0 .26.063.518.259.71 1.037.386 1.164 1.682 2.133 2.132.646.26 1.36-.063 1.942-.323-.455-.454-.905-.777-1.292-1.291-.26-.127-.582-.323-.582-.646l-2.46-.582Zm.842 6.403c.455.518 1.1.777 1.746.968-.127-.127.064 0 .064-.063l-.841-1.81c-.387 0-.842.063-1.228.063.127.26.195.582.259.842Zm1.421-8.34c-.387-.905-.519-1.941-.646-2.91-.386.518-.841.778-1.228 1.291-.132.969 1.292 1.228 1.874 1.62Zm1.678-.973c.518.645 1.55.386 2.132.259-.259-.519-1.228-.778-1.36-1.292a9.683 9.683 0 0 0-.581-2.715c-.45 1.16-1.033 2.52-.191 3.748Zm.842 2.909c1.36.969 2.716 2.133 4.594 1.746.127-.063.387-.063.387-.259l-1.747-.969-.646-.968h-.322c-.646.26-1.487.323-2.265.45Zm.062 10.997h.064c.841-.646 1.81-.841 2.715-1.164.26.063.064.386.323.518.582-.26 1.291-.196 1.874-.387.709 0 1.291.064 1.873.323.455.582 1.36.519 1.942.969l-.064-.969c-1.291-1.487-3.233-1.619-5.043-1.55l-.064-.196a3.36 3.36 0 0 0-1.36.26c-.581 0-1.164.322-1.682.518-.187.514-.382 1.16-.578 1.678Zm1.102-16.685c.519.71 1.292 1.228 2.201 1.037-.454-.455-.968-.905-1.036-1.55.127-1.228-1.165-1.292-1.874-1.943.26.837.191 1.742.71 2.456Zm-.19 19.078h.127c.71-.455 1.746-.128 2.456-.582.386-.196.386.323.71.518.645.387.777 1.619 1.682 1.36 1.1.582.841 1.942.905 2.974l1.037-.646c-.064-.518.195-1.164-.128-1.619-.259-.582-.968-.646-1.291-1.1.386-.71-.519-1.037-.71-1.551l.064-.064 1.423.196c.519.323.646.841.842 1.36 1.1.195 1.423 1.487 1.81 2.264.259-.582.323-1.164.582-1.682 0-.455-.582-.455-.905-.646-.064-.71-.387-1.36-1.037-1.746-1.228-.323-2.328-1.037-3.752-1.037l-1.164.323c-.646.127-1.292-.064-1.747.386-.65.064-.713.837-.904 1.292Zm.773-5.563.26.127c.581-.26 1.1-.582 1.682-.778.905-.259 1.619.778 2.392.127.26-.195.518.064.778.26.322.582 1.1.582 1.682.71-.259-.779-.646-1.81-1.619-1.943-.386-.195-.841-.127-1.228-.386-1.036-1.164-1.746.968-2.846.455-.519.39-1.037.845-1.101 1.428Z"/><path fill="#F60" d="M51.425 81.008c.455.386.905.969 1.55.905.842.386.519 1.487.97 2.07l.518-.456h-.064l.064-.063v.063c.127-.386-.064-1.1-.26-1.619-.323-.195-.709 0-.968-.195-.064-.455-.323-.646-.646-.905-.195-.196-.518.063-.778.063l-.386.137ZM53.11 64.45c.454.778 1.29 1.228 2.005 1.746.582.26 1.291.323 1.942.196-.582-.455-1.1-1.037-1.62-1.619-.195-.26-.258-.582-.518-.841-.582.132-1.36.132-1.81.518Zm.708-4.852c.646.777 1.62.454 2.456.518v-.064l-1.36-1.164c-.318.064-.705.387-1.096.71ZM28.793 46.795l.778 2.456c0-1.36.645-2.524.518-3.943l.582-.841-1.228.386c-.327.582-.586 1.165-.65 1.942Zm.58-4.269 1.1-.646v-1.619c-.454.26-.709.71-1.036 1.1l-.064 1.165Z"/><path fill="#F60" d="M51.425 45.05c-.26.323-.646.455-.969.518.582-1.037.842-2.524.387-3.688.323-.127.646-.127.905-.323l.778-.646c.968-.709.582-1.942.968-2.91-.518-.778-.645-1.683-1.36-2.328h.064c-.582-.71-1.55-.646-2.328-.97-1.037-.322-1.81.324-2.524.842-.323.064-.127.455-.455.455-.195.518-.455 1.037-.582 1.619-1.36-.196-2.779-.064-3.88.71-.581-.387-1.29-.52-1.941-.71-.519-.064-1.037.063-1.423-.196-.519-.582-.646-1.619-1.488-1.81-.322-.127-.386-.454-.386-.777-.582-.064-1.1-.387-1.683-.519-.841-.386-1.55.26-2.2.646-.26.127-.583.196-.906.323-.518.778-.969 1.55-1.291 2.392.063.71.386 1.291.777 1.874.323.905 1.292 1.55 2.133 1.941a8.243 8.243 0 0 0 0 4.334l-.063.064c-.128 0-.26 0-.387-.063.196 1.291.778 2.455 1.81 3.428.323.128.26.519.455.842.063.127.127.386.063.518-2.133-.063-4.01.455-5.689 1.424-.455.195-.259.84-.259 1.227 1.164-.777 2.456-1.36 3.943-1.619.582-.063 1.291-.195 1.873 0l.064 1.165c-1.619.841-3.36 1.36-4.784 2.715 0 .386-.064.905.064 1.291l1.228-1.037c1.164-.905 2.455-1.682 3.815-2.2.387.454.778.904 1.228 1.163a10.677 10.677 0 0 1 2.651-1.164c.519-.323 1.292 0 1.62-.646l.258-1.227c-.063 0-.063-.064-.127-.064-.646-.387-1.037-1.037-1.037-1.746a1.328 1.328 0 0 1-.71.195c-.195-.064-.386-.127-.518-.323 0-.259-.127-.71.128-.905.905-.518 2.005-.582 3.17-.518.84.127 2.005.064 2.328 1.037-.064.259 0 .582-.323.777-.323.196-.646 0-.905-.127-.196.646-.582 1.424-1.36 1.62l.127.777c.064.323.128.905.71.841 1.291.323 2.456.969 3.556 1.683.387-.387.71-.842.969-1.228 2.005.646 3.752 2.2 5.434 3.556l.064-1.164c-1.55-1.423-3.36-2.392-5.175-3.17.063-.386.127-.71.195-1.1 2.133.127 4.202.777 6.017 1.81v-.97c-1.874-1.036-3.943-1.682-6.144-1.682-.064-.127-.127-.323-.064-.454 1.1-.196 1.874-1.292 2.133-2.265.582-.646 1.36-1.36 1.164-2.265 0-.064.064-.127.064-.26-.182-.263-.118-.522-.182-.713Z"/><path fill="#F60" d="m53.3 48.474 1.1-.323.128-.645c.323-.905-.323-1.62-.71-2.329l-.518 3.297Zm2.783 4.333c.518.582 1.037 1.55 2.006 1.228-.064-.386-.26-.71-.455-1.1-.26-.26-.323-1.101-.842-.842-.386-.26-.454-.646-.709-.969 0 .583.064 1.165 0 1.683Zm.197 4.012c.195.26.258.646.454.905.387.26.905.196 1.36.196.386-.064.646.322 1.037.063-.455-.323-.778-.841-1.228-1.228-.46-.454-1.042-.068-1.624.064Zm.708 6.271c.905.582 2.133 1.1 3.361.905.127-.064.387-.064.387-.196-.778-.259-1.62-1.037-2.392-1.228-.455-.709-1.037.196-1.62.128.069.2.264.327.264.39Zm2.845 12.029.196.454c.195 1.424 1.1 2.715.582 4.27.386.26.518.778.777 1.165h.064c.323-1.164.064-2.392-.064-3.556.191-1.17-.91-1.815-1.555-2.333Zm.261-13.902c.71.519 1.81.582 2.651.323-.518-.26-1.1-.582-1.487-.969l-1.164.646Zm3.36 4.138c-.064.582.323 1.037.71 1.36.127-.323.386-.646.386-1.037a2.518 2.518 0 0 0-.969-1.487c-.064.386-.19.714-.127 1.164Zm.002 6.207c-.064.646.582.71.904 1.1.26.324-.195.52-.195.778.518.646.841 1.424.841 2.329.196-.842.519-1.62.646-2.456-.064-.582-1.037-.455-.841-1.164.259-.71-.064-1.36-.26-1.942-.063-.127-.195-.26-.259-.26-.254.52-.836.906-.836 1.615Zm1.876-3.233.71 1.36c.322-.064.518-.323.777-.583.196-.582-.323-.968-.455-1.423-.127-.323 0-.778-.259-1.037-.195-.127-.386-.26-.582-.26l-.191 1.943Zm.905-3.619c.582.322 1.165.84 1.487 1.423.455 1.36 1.228 2.651 1.81 4.011.196.905.387 1.746.646 2.715.064.26.064.71.455.646.127-1.037.323-2.006.323-3.106-.323-.455-.778-.646-1.228-.905v-.064c.064-.26.26-.519.518-.455.128-.127.519-.259.323-.518-.71-.71-.645-1.942-1.81-2.133-.386-.196-.518-.582-.518-.969-.519-.45-1.36-.645-2.006-.645Zm.646 7.37c.71.647.455 1.551.387 2.393-.127.518.518.195.777.518.387.646.196 1.551 0 2.201.387-.582.778-1.037 1.101-1.682 0-.26.26-.323.26-.646.126-.387-.324-.196-.52-.26-.195-.063-.322-.127-.259-.386.323-.71 0-1.487-.127-2.201-.195-.582.064-1.291-.195-1.81-.455.71-1.747.837-1.424 1.874Zm1.291-9.636c1.228 1.228 2.069 2.456 3.429 3.62 0-.518-.064-1.036-.064-1.55-.195-.387-.518-.646-.841-.905-1.037-.064-1.487-1.36-2.524-1.165Zm3.17 6.467c0 .128.063.26.127.323.519.841 1.037 1.746 1.423 2.715-.127-1.037.583-2.265-.322-3.038-.128-.323-.519-.195-.778-.195l-.45.195Zm3.234 9.896c.387.196.841-.127 1.228-.323.323-.063.646.128.905.26.127.195 0 .386.064.645.841.26 1.619.519 2.328 1.037l.26-.26c.063-.581-.387-1.036-.842-1.359-.26-.195-.71-.064-.905-.323.127-.195.127-.518.127-.777-.454 0-.71-.128-1.1-.323-.26-.064-.455-.26-.646 0-.705.454-.773 1.1-1.419 1.423Zm.968-17.073c.323-.063.71-.195.968-.455.906-.84 2.202-.259 3.298-.259-.196-.386-.519-.71-.778-1.037-.387-.127-.71-.322-1.164-.322-.905-.519-1.551.386-2.265.84-.123.328-.25.842-.06 1.233Zm-.001 2.779.064-.063c.127.127 0 .386.196.386.322-.195.709-.386 1.036-.646.906 0 1.488-.905 2.329-.905 1.487.26 2.974.583 4.27 1.292-.064-.905-.841-1.683-1.619-2.07-.455-.127-.778.064-1.1.324-.905.582-.455-.842-1.1-.842-.842.26-1.683.519-2.588.455-.519.196-.906.71-1.551.646 0 .518-.064 1.037.063 1.423Zm.653 3.044c.26.323.778.259 1.164.323l1.165-.455c0-.196-.323-.26-.26-.519.323-.386.778-.127 1.164-.259.582-.064 1.165-.646 1.747-.26v.26c-.196.455.127.71.454.841.646.128 1.292.71 1.942.455-.063-.582-.195-1.1-.323-1.619-.582-.063-.968-.582-1.487-.777-.259.195-.518.386-.84.323-1.038-.26-2.33-.906-3.362-.26-.386.455-1.037.323-1.55.519-.01.586.054 1.037.186 1.428Zm.449 8.081c-.064.26-.323.582.127.71.841 0 2.005-.387 2.651.259.26.195.128.518.128.777l1.164.969c.127-.582.323-1.1.323-1.683-.064-.454-.323-.841-.71-1.164-.777 0-1.164-.905-2.005-.778-.387-.127-.778.26-1.228.26-.191.2-.255.459-.45.65Zm.323-6.404c.196.387.387.969.71 1.037.777-.323 1.941-.582 2.846-.196.323.064.323.387.26.582.454.26 1.037.519 1.487.778l-.128-.841c0-.905-1.164-.969-1.227-1.81a4.95 4.95 0 0 0-2.911-.127c-.323.259-.778.259-1.164.323.063.063.127.127.127.254Zm.26 4.399c.519-.128.842-.71 1.424-.778.841 0 1.619.387 2.2 1.1.324.196.26.778.71.778-.127-.645.064-1.291.064-1.942-.582-.968-2.006-.195-2.524-1.36l-1.037.064c-.71.196-.518 1.037-.646 1.62-.059.131-.254.327-.19.518Zm4.98 5.952c.455.84 1.36 1.487 1.423 2.455.196-.259.387-.582.519-.84 0-.26-.323-.26-.455-.52-.127-.322.064-.645.127-.968-.195-.519-.582-.969-1.1-1.292l-.514 1.165Zm1.682-2.138.968 1.36c.387-.646.387-1.62.26-2.456-.064-.127-.26-.386-.519-.26-.386.324-.45.906-.71 1.356ZM79.88 40.26c.324.196.71.323 1.101.387.26-.127.646-.26 1.037-.196.519.323 1.1-.063 1.683-.063-.518-.519-1.1-.778-1.683-1.1-.777.2-1.36.781-2.137.972Zm5.304 1.233c.709.064 1.228.71 1.746 1.228.582.064 1.1.518 1.423.969l-.259-.71c-.195-.71-.582-1.291-1.1-1.874-.578.128-1.228.128-1.81.387Z"/><path fill="#fff" d="m34.482 35.54.386.064c1.037.518 2.78.777 2.847 2.328-1.1.455-2.133.969-2.974 1.874-.646-.646-2.005-.323-2.201-1.487.26-1.096.65-2.456 1.942-2.779Zm.972 6.922c1.228-.127 2.456.064 3.688-.064.323.128.646.387.778.71-.064 1.487-.519 2.847-.582 4.398-.582.259-1.1.709-1.228 1.291-.518.127-.969.455-1.423.646-.196-.455-.196-1.164.195-1.55.519-.779 1.874-.583 1.81-1.747.323-.582 0-1.292 0-1.874-.127-.455-.26.127-.518.127-.455.064-.905.128-1.292-.063-.26-.323-.646-.519-.71-.969-.386-.195-.84-.518-1.036-.905h.318Zm1.55 8.859c.582.064 1.164-.195 1.683.128-.127.195-.387.259-.646.323l-.905.454c-.327-.127-.132-.71-.132-.905Zm2.33-11.384c.582-.196 1.228-.582 1.81-.387-.454.455-.777 1.037-1.164 1.551l-1.874-.064c.255-.454.774-.84 1.228-1.1Zm5.498-.45c.778-.127.71.842 1.424.905.127.196.323.323.259.582-.387.196-1.037.064-1.487.196-.582-.323-.196-1.423-1.164-1.36-.064-.063-.196-.259 0-.323.254-.068.64 0 .968 0Zm-.52 3.684c.323-.455.841-.518 1.36-.582l3.492.064c.128.127-.127.259-.127.454-.195.196-.518.26-.71.455-.454 0-.454.582-.777.778-.518.518-1.228.259-1.81.195-.196-.127-.455-.323-.518-.582l-.196.196c.196.777.127 1.619.323 2.392l.841.582c0 1.228 1.487.905 2.133 1.619-.127.455-.455.841-.778 1.228a4.074 4.074 0 0 0-1.746-1.037c-.063-.71-.841-1.164-1.291-1.55-.128-1.36-.128-2.716-.387-4.012l.191-.2Zm1.293 8.346h1.619l-.196.841-1.619-.709c-.063-.068.068-.132.196-.132Zm2.909-15.394 1.228-.387c.71.323 1.36.71 2.005 1.165.519.904.387 2.2.196 3.233-.387.386-1.164 0-1.487.646h-.064c-.455-1.292-1.746-2.392-2.91-2.974.19-.646.386-1.292 1.032-1.683Z"/><path fill="#F60" d="M76.906 87.924h7.245c1.1-.196 2.2-.127 3.038-.905 3.62.582 7.308-.323 10.155-2.328a23.657 23.657 0 0 0 3.942-4.139c.969-1.36 1.747-2.587 2.201-4.138.387-.905.646-1.874.905-2.91 1.037-4.721.519-9.96-1.036-14.421a15.616 15.616 0 0 0-.969-2.392c-1.942-3.943-4.525-8.214-8.536-10.738-2.265-1.423-4.334-3.556-5.626-5.82-.709-.647-1.36-1.424-2.264-1.62.259.387.518.778.582 1.292l-.064.064c-.969 0-1.683-.455-2.328-1.101l.71-.646c-.26-.127-.583-.195-.906-.259-2.715-.323-4.98.969-7.435 1.55l-.064.128c1.487.646 1.81 2.329 2.651 3.43.196-.26.582-.065.905-.128.455 0 .842.323 1.292.259 0-.387-.196-.646-.26-.969.26-.127.583 0 .842 0 .778.455 2.07-.063 2.524.969-.905.064-1.746.26-2.588.455.064.323.387.582.387.968a6.851 6.851 0 0 0-2.265-.582l-.064.128c1.037 1.164 2.392 1.873 3.816 2.328 2.07.455 3.88-.518 5.821-.196 4.852 2.202 9.054 7.309 10.864 12.161.064.26.196.455.26.71 1.487 4.397 1.81 9.832.259 14.42-.778 1.942-1.683 3.752-3.106 5.303-.519.646-1.165 1.228-1.81 1.746-2.07 1.62-4.525 2.265-7.181 1.55-.127-.127-.519-.127-.455-.386.064-.386.196-.777.26-1.164.454-2.201.645-4.525.518-6.853v-.323a26.103 26.103 0 0 0-2.07-9.314c-.777-1.682-1.746-3.492-2.91-5.107-1.423-1.942-3.17-3.62-5.434-4.461-1.36-.387-3.106-.455-4.139.71-.777.645-1.036 1.55-.968 2.523a8.896 8.896 0 0 1-3.943 1.292c-.323 0-.71.127-1.1.127-.324 0-.71 0-1.038-.063-1.746-.196-3.492-1.165-4.784-2.202 0-.71-.063-1.36-.063-2.133-.778-.386-1.36-1.164-1.424-2.005l.064-.064c.455.128.841.323 1.228.582-.196-1.037-.387-2.133-.905-3.037a32.803 32.803 0 0 1-1.424-.583c-.518-.322-.841-.968-.968-1.55.455.454 1.291.323 1.682.777-.645-1.873-.645-4.074-1.682-5.757-.519-1.292-1.942-1.874-2.847-2.783-.387-.455-.519-1.1-1.164-1.164-.519-.128-.583-.778-.71-1.165.323.064.646.26.905.323-.778-2.069-1.487-4.397-3.62-5.757l-.386.26c-.842.126-1.683.195-2.524.195.386-.519 1.037-.778 1.55-1.037-.582-.455-1.1-.582-1.81-.71-.454.455-1.227.646-1.746.778l-.063-.064c0-.518-.128-1.1.582-1.228-.71-.323-1.874-.195-2.588 0-.195.519-.778 1.037-.778 1.62-.386.454-.71 1.036-1.164 1.36 0-1.038.455-2.006.646-2.911-.582.259-1.228.582-1.81.841a26.509 26.509 0 0 0-3.038-1.55c-.063-.064-.323-.064-.26.063.906.646.52 1.81.647 2.715l-.582-.455c-.26-.71-1.037-1.164-1.165-1.942-.905.196-1.487.455-2.392.778l-.127.064c.646 0 1.164.518 1.487 1.036-.969.064-1.81-.322-2.779-.386-.063-.064-.195-.196-.322-.196-.455.196-.905.519-1.292.842-.905.905-1.874 1.942-2.328 3.17.322.063.709.063.968.259-.518.322-.968.84-1.487 1.164-.195.71-.127 1.487-.195 2.264-.387.583-.905 1.101-1.165 1.81-.84 2.715-1.037 5.758-.905 8.86-.259.259-.645.454-.905.645v2.783h.064c.127-.582.841-.905 1.228-1.291h.127c-.063.646-.127 1.228-.195 1.873l-.778.646c-.778.71-.127 1.747-.195 2.588.063.26.063.582.259.646.064-.323.386-.582.582-.905.323-.064.646-.323.969-.387-.196.646-.387 1.36-.71 2.006-.127.063-.26.195-.386.323-.128.127-.26.322-.26.518.582 3.233 1.551 6.403 2.652 9.441-.778 1.291-1.165 2.779-1.81 4.075-.064.195-.196.386-.26.582-.645 1.55-.84 3.36-1.619 4.852-.322-.195-.645-.386-1.036-.518-1.488-.519-3.17-.196-4.27.968-.97-.195-1.942 0-2.652.519-.518.386-.969.905-1.164 1.487-.128.386-.26.841-.196 1.291-.582.455-.968 1.101-1.164 1.747-.26 1.487.26 2.974 1.1 4.138l60.74-.259Z"/><path fill="#fff" d="M103.423 59.015a15.416 15.416 0 0 0-.969-2.392c-1.942-3.943-4.525-8.213-8.536-10.737-2.265-1.423-4.334-3.556-5.625-5.821-.71-.646-1.36-1.423-2.265-1.619.26.387.518.778.582 1.291l-.064.064c-.968 0-1.682-.455-2.328-1.1l.71-.646c-.26-.127-.583-.196-.906-.26-2.714-.322-4.98.97-7.435 1.551l-.064.128c1.487.646 1.81 2.328 2.652 3.429.195-.26.582-.064.905-.128.454 0 .841.323 1.291.26 0-.387-.195-.646-.259-.97.26-.126.582 0 .841 0 .778.456 2.07-.063 2.524.97-.905.063-1.746.259-2.587.454.063.323.386.583.386.969a6.85 6.85 0 0 0-2.264-.582l-.064.127c1.037 1.164 2.392 1.874 3.815 2.329 2.07.454 3.88-.519 5.821-.196 4.853 2.201 9.055 7.308 10.865 12.16.063.26.195.455.259.71 1.487 4.398 1.81 9.832.259 14.42-.777 1.943-1.683 3.753-3.106 5.303-.518.646-1.164 1.228-1.81 1.747-2.07 1.619-4.525 2.264-7.18 1.55-.128-.127-.52-.127-.455-.386.063-.387.195-.778.259-1.164.455-2.201.646-4.525.518-6.854V73.3a26.103 26.103 0 0 0-2.069-9.313c-.778-1.683-1.746-3.493-2.91-5.107-1.424-1.942-3.17-3.62-5.435-4.462-1.36-.386-3.106-.454-4.138.71-.778.646-1.037 1.55-.969 2.524a8.896 8.896 0 0 1-3.943 1.291c-.323 0-.71.128-1.1.128-.323 0-.71 0-1.037-.064-1.746-.196-3.493-1.164-4.784-2.201 0-.71-.064-1.36-.064-2.133-.778-.386-1.36-1.164-1.423-2.005l.063-.064c.455.127.842.323 1.228.582-.195-1.037-.386-2.133-.905-3.038a32.849 32.849 0 0 1-1.423-.582c-.519-.323-.842-.969-.969-1.55.455.454 1.292.322 1.683.777-.646-1.874-.646-4.075-1.683-5.757-.518-1.292-1.942-1.874-2.847-2.784-.386-.454-.518-1.1-1.164-1.164-.518-.127-.582-.778-.71-1.164.323.064.646.26.906.323-.778-2.07-1.487-4.398-3.62-5.758l-.387.26c-.841.127-1.683.195-2.524.195.387-.518 1.037-.777 1.55-1.037-.581-.454-1.1-.582-1.81-.71-.454.456-1.227.647-1.745.779l-.064-.064c0-.519-.127-1.1.582-1.228-.71-.323-1.874-.195-2.588 0-.195.518-.777 1.037-.777 1.619-.387.455-.71 1.037-1.164 1.36 0-1.037.454-2.006.645-2.91-.582.259-1.228.581-1.81.84a26.507 26.507 0 0 0-3.037-1.55c-.064-.064-.323-.064-.26.063.905.646.519 1.81.646 2.716l-.582-.455c-.26-.71-1.037-1.165-1.164-1.942-.905.195-1.487.455-2.392.777l-.128.064c.646 0 1.164.519 1.487 1.037-.968.064-1.81-.323-2.778-.386-.064-.064-.196-.196-.323-.196-.455.196-.905.518-1.292.841-.905.905-1.873 1.942-2.328 3.17.323.064.71.064.969.26-.519.322-.969.84-1.488 1.163-.195.71-.127 1.487-.195 2.265-.387.582-.905 1.1-1.164 1.81-.841 2.715-1.037 5.758-.905 8.86-.26.258-.646.454-.905.645v2.783h.063c.128-.582.842-.905 1.228-1.292h.128c-.064.646-.128 1.228-.196 1.874l-.777.646c-.778.71-.128 1.746-.196 2.588.064.259.064.582.26.645.063-.323.386-.582.581-.905.323-.063.646-.323.969-.386-.196.646-.387 1.36-.71 2.005-.127.064-.259.196-.386.323s-.26.323-.26.519c.583 3.233 1.552 6.403 2.652 9.44-.778 1.292-1.164 2.78-1.81 4.075-.064.196-.196.387-.26.582-.645 1.551-.84 3.361-1.618 4.853-.323-.196-.646-.387-1.037-.519-1.487-.518-3.17-.195-4.27.97-.969-.197-1.942 0-2.652.517-.518.387-.968.906-1.164 1.488-.127.386-.259.84-.195 1.291-.582.455-.969 1.1-1.165 1.747-.259 1.487.26 2.974 1.101 4.138h24.057a7.146 7.146 0 0 1-.905-1.487c-.518-.778-.127-1.874-.195-2.779.518-.968.968-2.005 1.55-2.974.128-.196.26-.387.323-.582l1.1-.455c.583 0 1.101-.455 1.62-.26.777.779.777-.777 1.487-.84 1.683-.196 3.36-.064 4.334 1.36 0 .195.323.195.259.386-.196.064-.455-.064-.646-.064-1.037-.26-2.264-.905-3.233-.323-.064.26-.064.519-.127.71-.064.259-.128.518-.128.777.646.196 1.228.646 1.746 1.165.323-.646 1.037-.97 1.683-1.165.582.128 1.164.128 1.62.519.84.778.454 2.133.322 3.17.778.454 1.619.709 2.392 1.1-.386.323-.841.455-1.291.646l-1.292-.26c-.127-.127-.387-.127-.455-.322-.455.454-.968 1.1-1.228 1.682h18.628c-.26-.582-.519-.968-.842-1.487-.386-.841-.259-1.941-.259-2.778l1.746-2.652c.969 0 2.006-.386 3.038-.195l.127-.064c.455-.323.583-.969 1.228-.905 1.165-.323 2.006.196 2.847.71 0 .063-.063.127-.063.195-.387.582-1.037-.064-1.551.127-.196.196.064.455.127.71.196.26-.195.195-.323.26a.89.89 0 0 1-.841-.26c-.064-.064 0-.127-.127-.196-.26.387-.582.778-.71 1.228.323.323.71.582.905.969.323.455-.26.778-.323 1.164-.063.064-.195.064-.195 0-.26-.195-.519-.582-.842-.455-.259 1.228.064 2.392-.063 3.62.518.128 1.164 0 1.746 0l.26-2.524c.258-1.682 1.227-3.038 2.391-4.334 1.228-.84 2.07.842 2.974 1.424.128 0 .128.195.196.259 0 .26-.323.387-.518.455-.583.195-.969-.455-1.36-.778-.323.387-.519.841-.905 1.164l.127.064c.455.455.905.905.969 1.55-.064.52-.323 1.101-.841 1.36-.387-.645-.646-1.291-.905-1.941l-.064.063c-.778.196-.969 1.037-1.1 1.747.063.645-.455.905-.323 1.619h9.7c1.1-.196 2.2-.128 3.038-.905 3.62.582 7.308-.323 10.154-2.329a23.657 23.657 0 0 0 3.943-4.138c.969-1.36 1.747-2.588 2.201-4.139.387-.905.646-1.873.905-2.91 1.169-5.098.587-10.337-.9-14.803Z"/><path fill="#fff" d="M41.016 84.173c.518-.322 1.36-.454 1.487-1.227-.196-.196-.387-.387-.646-.455l-.582.195a6.63 6.63 0 0 1 .323-1.037l1.81-.582c-.26.842-.323 1.81-.455 2.779.195 1.36.386 2.847 1.1 4.011h-1.941c-.192-1.223-1.488-2.128-1.096-3.684Zm4.139-1.614h.127l1.292 1.164.195-.064a44.329 44.329 0 0 0-.195 4.202H45.15c-.26-1.36-.777-2.778-.71-4.202.26-.327.456-.778.715-1.1Zm2.911 1.292c.26-.323.386-.905.905-.969.387 0 .71.064.969.323.454.582 0 1.36-.196 1.942-.196.905-.518 1.874-.841 2.715h-1.36l.523-4.011Zm20.626-.387c.323.387.387.905.841 1.228.387-.518.519-1.36.323-2.07l-.386-.386a13.266 13.266 0 0 1 1.55-.259c-.195.71-.645 1.36-.582 2.201 0 1.228.196 2.456.323 3.752h-1.487c-.518-1.164-1.1-2.328-1.037-3.752.132-.264.26-.518.455-.714Z"/><path fill="#F60" d="M75.16 57.337c0 .323-.26.777-.064 1.037.323-.387.842-.323 1.292-.519 1.228-.127 2.392.26 3.493.519-.26-.455-.455-.969-.778-1.36-.646-.196-1.55.26-1.683-.646-.386-.323-.968-.064-1.36-.064-.381.319-.704.642-.9 1.033Zm-36.603.387.841-.778c.064 0 .127 0 .196.064l-.064 1.487c.387.386.905.518 1.423.518.064-.387.323-.71.519-1.037.127-.26.064-.71.323-.905l.063.064c.064.455.064.968.323 1.36 0 .195.064.518.064.709a4.22 4.22 0 0 0 1.619-.323c0-.518.127-.905.26-1.423.127-.196-.128-.455.195-.455.195.386.518.841.71 1.291.777-.777 1.1-1.873 1.29-2.91-.259-.323-.581-.323-.84-.519-2.329-.777-5.303-.904-7.504.26-.196.85 0 1.819.582 2.596ZM16.89 83.205c-.064 1.037 0 2.005.063 3.038.196.322.646.709 1.037.777l.064-.71c.195-.968-.323-2.005.195-2.778.387.127.778.323 1.1.519.197-.906-.063-1.942-.904-2.456l-1.555 1.61Zm3.366-1.489c-.518 1.62-.905 3.557-.26 5.24.387-.26.778-.455 1.101-.842-.064-1.291-.259-2.651.519-3.688.645.195 1.1.841 1.36 1.487.454-.582.582-1.36.454-2.133 0-.582-.646-.455-.968-.71.127-.518.063-1.1.645-1.36l-1.619.197c-.523.582-.977 1.164-1.232 1.81Zm3.36 4.722c.064.127 0 .323.128.386.195-1.164 1.1-1.873 1.619-2.91.259-.323.259-.841.645-1.1.519 0 .905.386 1.424.454.195.127-.064.26-.128.387-.127.905-.454 1.682-.386 2.651h.064c.709-.778 1.227-1.55 1.746-2.456l.063-.777c.128-.905-.904-1.551-1.55-1.874l.582-.778-.841-.259c-.97.064-1.81.518-2.456 1.228-.714 1.492-.846 3.174-.91 5.048Zm3.689-8.085c.323.063.582-.196.905 0 1.228.454 2.587.904 3.492 2.005l1.1 2.847.583-1.746-.387-.97c-.322-.709-1.164-.645-1.746-.645-.26-.26 0-.582.064-.841.259-.969-.905-.905-1.36-1.292 0-.582-.71-.386-1.1-.454l-.128-.196c-.064-.127-.26-.127-.386 0 0-.064-.064-.064-.064-.127l-.323.063c-.327.323-.65.773-.65 1.356Zm.773-3.102c.064.196.128.323.26.455.581-.195 1.227-.582 1.873-.323.905.778 1.874 1.62 2.974 2.07l.387-.064c.259.064.518.064.645.386.128.387-.259.582-.322.905.582.455.386 1.228.777 1.81l.969-1.291c-.26-.582 0-1.55-.905-1.62a.843.843 0 0 1-.518-.777c-.583-.518-1.292-.777-1.874-1.291-.455-.387-.778-.969-1.36-1.1-.455-.26-.905-.324-1.36-.456-.832-.254-.964.842-1.546 1.296Zm1.295-2.716.196.26c.709-.065 1.291-.324 1.941-.324.455.26 1.037.26 1.488.519.386.518.777 1.1 1.291 1.423 1.1.196 1.683 1.36 2.07 2.201v-.386c.195-.582 0-1.292-.26-1.81-.26-.26-.646-.455-.969-.71-.063-.195 0-.259.064-.455-.455-.454-1.037-.709-1.55-1.036-.71-1.037-2.133-.778-3.234-1.037l-1.037 1.355Zm0-9.959c.127.455.26.968.323 1.423.386-.841 1.1-1.228 1.81-1.942-.387-.259-.841-.386-1.292-.455-.259.26-.714.583-.841.974Zm2.458 4.461.582-.646c.582-.645 1.1-1.36 1.228-2.133-.455-.259-1.037-.063-1.423.064-.128.905-.387 1.81-.387 2.715Zm.454 1.938c.969.064 1.874.26 2.588-.259l.777-2.456c-.259 0-.518-.127-.709-.064-.523 1.101-1.492 2.197-2.656 2.78Zm.259-8.663c.583.905 1.62 1.874 2.652 2.201-.128-1.164-1.1-1.942-1.62-2.91v-.323c-.386-.387-.84-.646-1.29-.842 0 .646.127 1.292.258 1.874Zm3.359 8.796c.71.127 1.487 0 2.133-.196.969-.26 1.487-1.291 1.81-2.133h-1.228l-1.291 1.292c-.519.26-.969.65-1.424 1.037Zm-.193-10.024c.196 1.037.646 2.006 1.291 2.911l.128-2.005-1.419-.906Zm4.466 5.303c.063-.71-.196-1.487-.26-2.133-.386-.259-.968-.259-1.423-.518.064 1.032.905 1.937 1.683 2.651Zm-1.235 6.853c.842-.259 1.683-.582 2.456-1.036.519-.71 1.292-1.36 1.36-2.202-.646.196-1.164 0-1.746.26-.323.645-.583 1.36-1.228 1.81-.128.523-.582.846-.842 1.168Zm1.363 1.682 1.037 1.36c.518.195 1.227.127 1.682-.196l-.386-1.228c-.714.26-1.556.191-2.333.064Zm1.681-9.637.387 1.81c.969-.777 1.164-1.873 1.1-3.106-.518.65-.84 1.037-1.487 1.296Zm2.652 3.171c0 .259.063.518.259.709 1.037.387 1.164 1.683 2.133 2.133.646.26 1.36-.064 1.942-.323-.387-.455-.905-.778-1.292-1.292-.26-.127-.582-.322-.582-.645l-2.46-.582Zm.842 6.467c.455.518 1.1.777 1.746.968-.127-.127.064 0 .064-.063l-.841-1.81c-.387 0-.842.127-1.228.063.127.26.195.519.259.842Zm1.486-8.41c-.386-.905-.518-1.942-.646-2.91-.386.518-.84.777-1.227 1.291-.196.973 1.227 1.232 1.873 1.62Zm1.613-.905c.518.646 1.55.455 2.132.26-.259-.52-1.228-.778-1.36-1.292a9.684 9.684 0 0 0-.581-2.715c-.45 1.096-1.033 2.52-.191 3.747Zm.904 2.848c1.36.969 2.715 2.133 4.594 1.746.127-.063.386-.063.386-.259l-1.746-.968-.646-.97h-.323c-.71.255-1.487.387-2.265.451Zm0 11.06h.128c.841-.646 1.81-.842 2.715-1.164.259.063.063.386.323.518.582-.26 1.291-.196 1.873-.386.71 0 1.292.063 1.874.322.455.582 1.36.519 1.942.969l-.128-.969c-1.291-1.487-3.233-1.619-5.043-1.55l-.064-.196a3.36 3.36 0 0 0-1.36.26c-.581 0-1.164.322-1.682.518-.187.514-.382 1.16-.578 1.678Zm1.102-16.686c.519.71 1.292 1.228 2.201 1.037-.454-.455-.968-.905-1.036-1.551.127-1.228-1.165-1.292-1.874-1.942.26.773.26 1.678.71 2.456Zm-.126 19.077h.196c.709-.454 1.746-.127 2.455-.582.387-.195.455.323.71.519.645.386.777 1.619 1.682 1.36 1.1.581.842 1.941.905 2.974l1.037-.646c-.063-.519.196-1.164-.127-1.62-.26-.581-.969-.645-1.292-1.1.387-.71-.518-1.037-.71-1.55l.065-.064 1.423.195c.518.323.646.842.841 1.36 1.1.196 1.424 1.487 1.81 2.265.26-.582.323-1.164.582-1.683 0-.455-.582-.454-.905-.646-.063-.709-.386-1.36-1.037-1.746-1.227-.323-2.328-1.037-3.751-1.037l-1.164.323c-.646.127-1.292-.064-1.747.387-.782-.005-.782.773-.973 1.291Zm.709-5.625.26.128c.581-.26 1.1-.582 1.682-.778.905-.259 1.619.778 2.392.128.26-.196.518.063.778.259.322.582 1.1.582 1.682.71-.259-.778-.646-1.81-1.619-1.943-.386-.195-.841-.127-1.228-.386-1.036-1.164-1.746.968-2.846.455-.519.454-1.037.845-1.101 1.427Z"/><path fill="#F60" d="M51.425 80.94c.455.387.905.97 1.55.906.842.386.519 1.487.97 2.069l.518-.455h-.064l.064-.064v.064c.127-.386-.064-1.1-.26-1.619-.323-.195-.645 0-.968-.195-.064-.455-.323-.646-.646-.906-.195-.195-.518.064-.778.064l-.386.137Zm1.685-16.553c.454.778 1.29 1.228 2.005 1.746.582.26 1.291.323 1.942.196-.582-.455-1.1-1.037-1.62-1.619-.195-.26-.258-.582-.518-.841-.582.063-1.291.063-1.81.518Zm.773-4.917c.646.778 1.619.455 2.456.519v-.064l-1.36-1.164c-.382.127-.769.45-1.096.71ZM28.855 46.665l.777 2.456c0-1.36.646-2.524.519-3.943l.582-.842-1.228.387c-.391.587-.65 1.232-.65 1.942Zm.518-4.203 1.1-.646v-1.62c-.454.26-.709.71-1.036 1.101l-.064 1.165Z"/><path fill="#F60" d="M51.426 44.918c-.26.323-.646.455-.969.518.582-1.036.842-2.524.387-3.688.323-.127.646-.195.905-.323l.777-.645c.97-.71.582-1.942.97-2.911-.52-.778-.647-1.683-1.36-2.328h.063c-.582-.71-1.55-.646-2.328-.969-1.037-.323-1.81.323-2.524.841-.323.064-.128.455-.455.455-.196.518-.455 1.037-.582 1.619-1.36-.196-2.779-.064-3.88.71-.581-.455-1.29-.519-1.941-.71-.519-.127-1.037.064-1.424-.196-.518-.582-.645-1.618-1.487-1.81-.323-.127-.386-.454-.386-.777-.582-.127-1.1-.387-1.683-.519-.841-.386-1.55.26-2.201.646-.26.127-.582.196-.905.323-.518.778-.969 1.55-1.291 2.392.127.71.386 1.292.777 1.874.323.905 1.292 1.55 2.133 1.942a8.242 8.242 0 0 0 0 4.334l-.064.063c-.127 0-.259 0-.386-.063.195 1.291.777 2.455 1.81 3.429.323.127.259.518.386.84.064.128.128.387.064.52-2.133-.064-4.011.454-5.69 1.423-.454.195-.258.841-.258 1.228 1.227-.778 2.455-1.36 3.942-1.62.582-.063 1.292-.195 1.874 0l.064 1.165c-1.62.841-3.361 1.36-4.784 2.715 0 .386-.064.905.063 1.291l1.228-1.036c1.164-.906 2.456-1.683 3.816-2.202.386.455.777.905 1.227 1.165a10.678 10.678 0 0 1 2.652-1.165c.518-.322 1.291 0 1.619-.645l.259-1.228c-.064 0-.064-.064-.127-.064-.646-.386-1.037-1.037-1.037-1.746a1.33 1.33 0 0 1-.71.195c-.195-.063-.454-.127-.518-.322 0-.26-.127-.646.127-.906.905-.518 2.006-.582 3.17-.518.841.127 2.005.064 2.328 1.037-.063.26 0 .582-.322.778-.323.195-.646 0-.906-.128-.195.646-.582 1.424-1.36 1.62l.064.777c.064.323.128.905.71.841 1.291.323 2.456.969 3.556 1.683.387-.387.71-.842.969-1.228 2.005.71 3.752 2.201 5.434 3.556l.064-1.164c-1.55-1.423-3.297-2.392-5.175-3.17.063-.386.127-.71.195-1.1 2.133.127 4.202.777 6.017 1.81v-.969c-1.874-1.037-3.943-1.683-6.144-1.683-.064-.127-.128-.322-.064-.454 1.1-.196 1.874-1.292 2.133-2.265.582-.646 1.36-1.36 1.164-2.265 0-.063.064-.195.064-.259-.05-.26.014-.518-.05-.714Z"/><path fill="#F60" d="m53.3 48.411 1.1-.323.128-.645c.323-.905-.323-1.62-.71-2.329l-.518 3.297Zm2.847 4.333c.518.582 1.036 1.55 2.005 1.228-.064-.386-.26-.71-.455-1.1-.259-.26-.323-1.101-.841-.842-.387-.259-.455-.646-.71-.968-.063.518 0 1.164 0 1.682Zm.193 3.943c.196.259.26.645.456.905.386.259.905.195 1.36.195.386-.063.645.323 1.036.064-.455-.323-.777-.841-1.228-1.228-.523-.387-1.105-.064-1.623.064Zm.71 6.34c.969.582 2.133 1.1 3.36.905.128-.064.387-.064.387-.196-.777-.259-1.619-1.037-2.392-1.228-.455-.709-1.037.196-1.619.128.005.132.2.264.264.39Zm2.783 11.964.196.455c.195 1.423 1.1 2.715.582 4.27.386.26.518.778.777 1.165h.064c.323-1.165.064-2.393-.064-3.557.191-1.105-.91-1.75-1.555-2.333Zm.261-13.906c.71.519 1.81.582 2.651.323-.518-.26-1.1-.582-1.487-.968l-1.164.645Zm3.36 4.205c-.064.583.323 1.037.71 1.36.127-.323.386-.645.386-1.036a2.518 2.518 0 0 0-.969-1.488c-.064.323-.19.71-.127 1.165Zm.065 6.145c-.127.645.582.71.905 1.1.26.323-.196.519-.196.778.519.646.842 1.423.842 2.328.195-.841.518-1.619.646-2.455-.064-.583-1.037-.455-.842-1.165.26-.709-.063-1.36-.259-1.942-.064-.063-.195-.259-.26-.259-.318.578-.9.969-.836 1.615Zm1.813-3.234.71 1.36c.322-.064.518-.323.777-.582.196-.582-.323-.905-.455-1.424-.127-.323 0-.777-.259-1.037-.195-.127-.386-.259-.582-.259l-.191 1.942Zm.905-3.556c.582.323 1.228.841 1.487 1.423.455 1.36 1.228 2.652 1.81 4.011.196.906.387 1.747.646 2.716.127.259.064.709.455.709.127-1.037.323-2.006.323-3.106-.323-.455-.778-.646-1.228-.905v-.196c.064-.259.26-.518.518-.454.128-.128.519-.26.323-.519-.71-.71-.645-1.942-1.81-2.133-.386-.195-.518-.582-.518-.968-.519-.45-1.296-.578-2.006-.578Zm.711 7.308c.71.646.455 1.551.386 2.392-.127.519.519.196.778.519.455.645.196 1.55 0 2.2.387-.581.778-1.036 1.1-1.682 0-.259.26-.323.26-.646.127-.386-.323-.195-.519-.259-.195-.064-.323-.127-.259-.386.323-.71 0-1.487-.127-2.201-.196-.582.063-1.292-.196-1.81-.455.773-1.746.9-1.423 1.873Zm1.226-9.636c1.228 1.228 2.069 2.456 3.429 3.62 0-.519-.064-1.037-.064-1.55-.195-.387-.518-.647-.841-.906-.969-.068-1.487-1.36-2.524-1.164Zm3.17 6.467c0 .127.063.259.127.323.519.841 1.037 1.746 1.423 2.715-.127-1.037.583-2.265-.322-3.038-.128-.323-.519-.196-.778-.196l-.45.196Zm3.299 9.959c.386.195.84-.128 1.228-.323.322-.064.645.127.904.259.128.195 0 .455.064.646.841.259 1.62.518 2.329 1.037l.259-.26c.063-.582-.387-1.037-.842-1.36-.259-.195-.709-.063-.905-.322.128-.196.128-.519.128-.778-.455 0-.71-.127-1.1-.323-.26-.064-.456-.259-.647 0-.768.387-.768 1.1-1.418 1.424Zm.903-17.076c.323-.127.71-.196.968-.455.906-.841 2.202-.26 3.298-.26-.196-.386-.519-.709-.778-1.036-.387-.127-.71-.323-1.164-.323-.905-.518-1.551.387-2.265.841-.123.264-.25.846-.06 1.233Zm.068 2.783.064-.064c.127.127 0 .386.195.455.323-.196.71-.455 1.037-.646.905 0 1.487-.905 2.329-.905 1.487.259 2.974.582 4.27 1.291-.064-.905-.841-1.682-1.62-2.069-.454-.127-.777.064-1.1.323-.905.582-.454-.841-1.1-.841-.841.259-1.683.518-2.588.454-.518.196-.905.71-1.55.646-.069.387-.132.9.063 1.355Zm.583 3.038c.26.323.778.26 1.164.323l1.165-.455c0-.196-.323-.26-.26-.518.323-.387.778-.128 1.165-.26.582-.063 1.164-.645 1.746-.259v.26c-.196.454.127.709.455.84.645.128 1.291.71 1.941.455-.063-.582-.195-1.1-.322-1.619-.583-.063-.969-.582-1.488-.777-.259.195-.518.386-.84.323-1.038-.26-2.33-.905-3.362-.26-.386.455-1.036.323-1.55.519.054.523.054.978.186 1.428Zm.45 8.022c-.064.26-.323.582.127.71.841 0 2.005-.455 2.651.259.26.195.128.518.128.778l1.164.968c.127-.582.323-1.1.323-1.682-.064-.455-.323-.842-.71-1.165-.777 0-1.164-.905-2.005-.777-.387-.064-.778.259-1.228.259a2.26 2.26 0 0 1-.45.65Zm.323-6.403c.196.386.387.969.71 1.037.777-.323 2.005-.582 2.846-.196.323.064.323.387.26.582.454.26 1.037.519 1.487.778l-.128-.841c0-.905-1.164-.969-1.227-1.81a5.584 5.584 0 0 0-2.911-.196c-.323.26-.778.26-1.164.323.063.191.127.26.127.323Zm.26 4.397c.518-.128.84-.71 1.423-.778.841 0 1.619.387 2.201 1.1.323.196.26.778.71.778-.128-.645.063-1.291.063-1.942-.582-.968-2.005-.195-2.524-1.36l-1.037.064c-.71.196-.518 1.037-.645 1.62-.06.195-.192.322-.192.518Zm4.98 5.949c.387.841 1.36 1.487 1.423 2.456a6.05 6.05 0 0 0 .519-.842c0-.259-.323-.259-.455-.518-.127-.323.064-.646.127-.969-.195-.518-.582-.968-1.1-1.291l-.514 1.164Zm1.682-2.133.968 1.36c.387-.646.387-1.62.26-2.456-.064-.128-.26-.387-.519-.26-.386.319-.386.9-.71 1.356ZM79.88 40.133c.324.195.71.323 1.101.386.26-.127.646-.259 1.037-.195.519.323 1.1-.064 1.683-.064-.518-.518-1.1-.777-1.683-1.1-.777.259-1.36.777-2.137.973Zm5.371 1.293c.71.063 1.228.71 1.746 1.227.582.064 1.1.519 1.424.97l-.26-.71c-.195-.71-.645-1.292-1.1-1.874-.646.064-1.296.127-1.81.387Z"/><path fill="#fff" d="m34.482 35.477.386.064c1.037.518 2.78.777 2.847 2.328-1.1.455-2.133.969-2.974 1.874-.646-.646-1.942-.323-2.201-1.487.26-1.096.65-2.52 1.942-2.779Zm1.037 6.853c1.227-.127 2.455.064 3.688-.063.323.127.645.386.777.709-.063 1.487-.518 2.847-.582 4.398-.582.259-1.1.71-1.228 1.291-.518.127-.968.455-1.423.646-.196-.455-.196-1.164.196-1.55.518-.778 1.873-.583 1.81-1.747.322-.582 0-1.292 0-1.874-.128-.455-.26.128-.519.128-.455.063-.905.127-1.291-.128-.26-.323-.646-.518-.71-.968-.387-.196-.841-.519-1.037-.905l.319.063Zm1.485 8.864c.582.064 1.164-.196 1.683.127-.127.196-.387.26-.646.323l-.905.387c-.327-.064-.132-.578-.132-.837Zm2.392-11.32c.582-.196 1.228-.582 1.81-.387-.455.455-.778 1.037-1.164 1.551l-1.874-.064c.26-.454.773-.84 1.228-1.1Zm5.436-.454c.778-.128.71.841 1.424.905.127.195.322.323.259.582-.387.196-1.037.064-1.487.196-.582-.323-.196-1.424-1.164-1.36-.064-.064-.128-.26 0-.323.254-.064.64-.064.968 0Zm-.52 3.624c.323-.455.841-.519 1.36-.583l3.492.064c.128.127-.127.26-.127.455-.195.195-.518.26-.71.455-.454 0-.454.582-.777.777-.518.519-1.228.26-1.81.196-.196-.127-.455-.323-.518-.582l-.196.195c.196.778.127 1.62.323 2.392l.841.583c0 1.227 1.487.904 2.133 1.618-.127.455-.455.842-.778 1.228a4.075 4.075 0 0 0-1.746-1.036c-.063-.71-.841-1.165-1.291-1.551-.128-1.36-.128-2.715-.387-4.011l.191-.2Zm1.292 8.409h1.619l-.196.841-1.619-.71c-.064-.131.132-.131.196-.131Zm2.974-15.395 1.228-.386c.71.323 1.36.71 2.006 1.164.518.905.454 2.201.195 3.233-.386.387-1.164 0-1.487.646h-.064c-.454-1.291-1.746-2.392-2.91-2.974.127-.65.386-1.296 1.032-1.683Z"/></svg>