<svg xmlns="http://www.w3.org/2000/svg" width="48" height="48" fill="none"><rect width="48" height="48" fill="#111" rx="8"/><path fill="#fff" fill-rule="evenodd" d="M14.651 19.694c.367-.456.614-1.069.548-1.694-.534.026-1.185.352-1.562.808-.339.391-.638 1.03-.56 1.63.6.05 1.197-.301 1.576-.744h-.002Zm.54.861c-.87-.053-1.61.493-2.025.493-.416 0-1.051-.467-1.74-.454-.896.013-1.727.518-2.181 1.324-.935 1.61-.248 4.002.661 5.315.443.65.975 1.364 1.675 1.338.662-.026.923-.428 1.729-.428.805 0 1.038.428 1.74.417.725-.015 1.181-.652 1.623-1.301.506-.741.713-1.456.726-1.494-.013-.015-1.402-.547-1.415-2.144-.014-1.338 1.091-1.975 1.143-2.013-.624-.924-1.597-1.027-1.935-1.053Zm6.534 3.336h1.736c1.317 0 2.066-.709 2.066-1.938 0-1.23-.749-1.933-2.06-1.933h-1.742v3.871Zm2.14-5.148c1.892 0 3.21 1.305 3.21 3.203 0 1.905-1.345 3.215-3.256 3.215h-2.095v3.33h-1.513v-9.748h3.654Zm8.177 7.1v-.547l-1.682.108c-.946.06-1.438.41-1.438 1.026 0 .594.512.98 1.316.98 1.026 0 1.804-.656 1.804-1.568Zm-4.594.628c0-1.25.953-1.966 2.709-2.074l1.884-.115v-.54c0-.791-.52-1.223-1.445-1.223-.762 0-1.317.391-1.433.992H27.8c.042-1.262 1.23-2.18 2.838-2.18 1.729 0 2.857.905 2.857 2.31v4.85h-1.399v-1.17h-.033c-.398.763-1.277 1.243-2.228 1.243-1.405 0-2.386-.837-2.386-2.093Zm7.333 4.628V29.93c.095.013.325.026.446.026.669 0 1.047-.283 1.277-1.012l.135-.432-2.56-7.093h1.58l1.784 5.755h.034l1.783-5.755h1.54l-2.653 7.45c-.608 1.71-1.304 2.27-2.777 2.27-.115 0-.486-.014-.588-.041v.001Z" clip-rule="evenodd"/></svg>