<?xml version="1.0" encoding="UTF-8"?>
<svg width="40px" height="40px" viewBox="0 0 40 40" version="1.1" xmlns="http://www.w3.org/2000/svg" xmlns:xlink="http://www.w3.org/1999/xlink">
    <title>Group 8</title>
    <desc>Created with Sketch.</desc>
    <defs>
        <polygon id="path-1" points="0.000153046364 0.338379747 39.6574359 0.338379747 39.6574359 39.4936709 0.000153046364 39.4936709"></polygon>
    </defs>
    <g id="Page-1" stroke="none" stroke-width="1" fill="none" fill-rule="evenodd">
        <g id="API-Reference" transform="translate(-577.000000, -7501.000000)">
            <g id="Group-8" transform="translate(577.000000, 7501.000000)">
                <path d="M20,28 C21.1042821,28 22,28.8954397 22,30.0005039 C22,31.1050642 21.1042821,32 20,32 C18.8957179,32 18,31.1050642 18,30.0005039 C18,28.8954397 18.8957179,28 20,28" id="Fill-1" fill="#FFFFFF"></path>
                <g id="Group-5">
                    <mask id="mask-2" fill="white">
                        <use xlink:href="#path-1"></use>
                    </mask>
                    <g id="Clip-4"></g>
                    <path d="M19.8237436,36.4052152 C10.6001538,36.4026835 3.12476923,29.0178734 3.1278452,19.911038 C3.13092308,10.8036962 10.6104103,3.42344304 19.834,3.42648008 C29.0555385,3.42951899 36.5293846,10.8107848 36.5293846,19.9161013 C36.5186154,29.0198987 29.0442564,36.3966076 19.8237436,36.4052152 M0.000152246989,19.9206582 C0.00271794872,30.7333165 8.88271795,39.4963544 19.834,39.4938239 C30.7832308,39.4907848 39.6575897,30.7262278 39.6575897,19.9161013 C39.6432308,9.10698734 30.7709231,0.349518987 19.8237436,0.338379747 C8.87246154,0.340911392 -0.00292307692,9.10850633 0.000152246989,19.9206582 Z" id="Fill-3" fill="#FFFFFF" mask="url(#mask-2)"></path>
                </g>
                <path d="M19.5,22.4600337 C20.3286879,22.4600337 21,21.7581613 21,20.8928955 L21,11.5681666 C21.000491,10.7029008 20.3296715,10.0005147 19.5009832,10 C18.6727867,9.99948703 18.0004918,10.7003318 18,11.5655975 L18,20.8928955 C18,21.7581613 18.6713113,22.4600337 19.5,22.4600337 L19.5,32" id="Fill-6" fill="#FFFFFF"></path>
            </g>
        </g>
    </g>
</svg>