<svg width="256" height="256" viewBox="0 0 256 256" fill="none" xmlns="http://www.w3.org/2000/svg">
<path d="M100.75 91.3661C100.154 91.8959 99.5737 92.4436 99.0086 93.0086C98.1298 93.8875 97.2928 94.8043 96.5 95.756C95.028 94.8305 93.4772 94.0283 91.8632 93.3597C88.1021 91.8018 84.071 91 80 91C75.929 91 71.8979 91.8018 68.1368 93.3597C64.3757 94.9176 60.9583 97.2011 58.0797 100.08C55.2011 102.958 52.9176 106.376 51.3597 110.137C49.8018 113.898 49 117.929 49 122C49 126.071 49.8018 130.102 51.3597 133.863C52.9176 137.624 55.2011 141.042 58.0797 143.92C60.9583 146.799 64.3757 149.082 68.1368 150.64C71.8979 152.198 75.929 153 80 153C82.3617 153 84.71 152.73 87 152.199V158.332C84.6987 158.775 82.3549 159 80 159C75.1411 159 70.3298 158.043 65.8407 156.184C61.3517 154.324 57.2728 151.599 53.837 148.163C50.4013 144.727 47.6759 140.648 45.8165 136.159C43.957 131.67 43 126.859 43 122C43 117.141 43.957 112.33 45.8165 107.841C47.6759 103.352 50.4013 99.2728 53.8371 95.837C57.2728 92.4013 61.3517 89.6759 65.8407 87.8165C70.3298 85.957 75.1411 85 80 85C84.8589 85 89.6702 85.957 94.1593 87.8165C96.4761 88.7761 98.6837 89.9665 100.75 91.3661Z" fill="#4642FF"/>
<path d="M87.75 114.194C88.1645 112.057 88.7492 109.953 89.5 107.902C88.5604 107.269 87.5575 106.73 86.5056 106.294C84.4431 105.44 82.2325 105 80 105C77.7675 105 75.5569 105.44 73.4944 106.294C71.4318 107.148 69.5578 108.401 67.9792 109.979C66.4006 111.558 65.1484 113.432 64.294 115.494C63.4397 117.557 63 119.768 63 122C63 124.232 63.4397 126.443 64.2941 128.506C65.1484 130.568 66.4006 132.442 67.9792 134.021C69.5578 135.599 71.4318 136.852 73.4944 137.706C75.5569 138.56 77.7675 139 80 139C82.2325 139 84.4431 138.56 86.5056 137.706C86.6717 137.637 86.8365 137.566 87 137.492V130.485C86.1597 131.179 85.2195 131.744 84.2095 132.163C82.8749 132.715 81.4445 133 80 133C78.5555 133 77.1251 132.715 75.7905 132.163C74.4559 131.61 73.2433 130.8 72.2218 129.778C71.2004 128.757 70.3901 127.544 69.8373 126.21C69.2845 124.875 69 123.445 69 122C69 120.555 69.2845 119.125 69.8373 117.79C70.3901 116.456 71.2004 115.243 72.2218 114.222C73.2433 113.2 74.4559 112.39 75.7905 111.837C77.1251 111.285 78.5555 111 80 111C81.4445 111 82.8749 111.285 84.2095 111.837C85.5318 112.385 86.7345 113.186 87.75 114.194Z" fill="#4642FF"/>
<path d="M148.75 91.3661C148.154 91.8959 147.574 92.4436 147.009 93.0086C146.13 93.8875 145.293 94.8043 144.5 95.756C143.028 94.8305 141.477 94.0283 139.863 93.3597C136.102 91.8018 132.071 91 128 91C123.929 91 119.898 91.8018 116.137 93.3597C112.376 94.9176 108.958 97.2011 106.08 100.08C103.201 102.958 100.918 106.376 99.3597 110.137C97.8018 113.898 97 117.929 97 122V164.744C104.979 163.363 110.969 156.572 111 148.498V121.5H111.007C111.068 119.438 111.504 117.403 112.294 115.494C113.148 113.432 114.401 111.558 115.979 109.979C117.558 108.401 119.432 107.148 121.494 106.294C123.557 105.44 125.768 105 128 105C130.232 105 132.443 105.44 134.506 106.294C135.557 106.73 136.56 107.269 137.5 107.902C136.749 109.953 136.165 112.057 135.75 114.194C134.734 113.186 133.532 112.385 132.21 111.837C130.875 111.285 129.445 111 128 111C126.555 111 125.125 111.285 123.79 111.837C122.456 112.39 121.243 113.2 120.222 114.222C119.2 115.243 118.39 116.456 117.837 117.79C117.285 119.125 117 120.555 117 122C117 123.445 117.285 124.875 117.837 126.21C118.39 127.544 119.2 128.757 120.222 129.778C121.243 130.8 122.456 131.61 123.79 132.163C125.125 132.715 126.555 133 128 133C129.445 133 130.875 132.715 132.21 132.163C133.22 131.744 134.16 131.179 135 130.485V137.492C134.836 137.566 134.672 137.637 134.506 137.706C132.443 138.56 130.232 139 128 139C125.768 139 123.557 138.56 121.494 137.706C119.86 137.029 118.344 136.102 117 134.961V148.509L117 148.514C116.997 149.331 116.95 150.137 116.861 150.93C120.414 152.297 124.189 153 128 153C130.362 153 132.71 152.73 135 152.199V158.332C132.699 158.775 130.355 159 128 159C123.691 159 119.42 158.248 115.378 156.781C111.988 165.136 103.66 171 94 171H91V121.5H91.0034C91.0667 116.811 92.0208 112.176 93.8165 107.841C95.6759 103.352 98.4013 99.2728 101.837 95.837C105.273 92.4013 109.352 89.6759 113.841 87.8165C118.33 85.957 123.141 85 128 85C132.859 85 137.67 85.957 142.159 87.8165C144.476 88.7761 146.684 89.9665 148.75 91.3661Z" fill="#4642FF"/>
<path fill-rule="evenodd" clip-rule="evenodd" d="M176 85C171.141 85 166.33 85.957 161.841 87.8165C157.352 89.6759 153.273 92.4013 149.837 95.837C146.401 99.2728 143.676 103.352 141.816 107.841C140.021 112.176 139.067 116.811 139.003 121.5H139V171H142C151.66 171 159.988 165.136 163.378 156.781C167.42 158.248 171.691 159 176 159C180.859 159 185.67 158.043 190.159 156.184C194.648 154.324 198.727 151.599 202.163 148.163C205.599 144.727 208.324 140.648 210.184 136.159C212.043 131.67 213 126.859 213 122C213 117.141 212.043 112.33 210.184 107.841C208.324 103.352 205.599 99.2728 202.163 95.8371C198.727 92.4013 194.648 89.6759 190.159 87.8165C185.67 85.957 180.859 85 176 85ZM164.861 150.93C168.414 152.297 172.189 153 176 153C180.071 153 184.102 152.198 187.863 150.64C191.624 149.082 195.042 146.799 197.92 143.92C200.799 141.042 203.082 137.624 204.64 133.863C206.198 130.102 207 126.071 207 122C207 117.929 206.198 113.898 204.64 110.137C203.082 106.376 200.799 102.958 197.92 100.08C195.042 97.2011 191.624 94.9176 187.863 93.3597C184.102 91.8018 180.071 91 176 91C171.929 91 167.898 91.8018 164.137 93.3597C160.376 94.9176 156.958 97.2011 154.08 100.08C151.201 102.958 148.918 106.376 147.36 110.137C145.802 113.898 145 117.929 145 122V164.744C152.979 163.363 158.969 156.572 159 148.498V121.5H159.007C159.068 119.438 159.504 117.403 160.294 115.494C161.148 113.432 162.401 111.558 163.979 109.979C165.558 108.401 167.432 107.148 169.494 106.294C171.557 105.44 173.768 105 176 105C178.232 105 180.443 105.44 182.506 106.294C184.568 107.148 186.442 108.401 188.021 109.979C189.599 111.558 190.852 113.432 191.706 115.494C192.56 117.557 193 119.768 193 122C193 124.232 192.56 126.443 191.706 128.506C190.852 130.568 189.599 132.442 188.021 134.021C186.442 135.599 184.568 136.852 182.506 137.706C180.443 138.56 178.232 139 176 139C173.768 139 171.557 138.56 169.494 137.706C167.86 137.029 166.344 136.102 165 134.961V148.509L165 148.514C164.997 149.331 164.95 150.137 164.861 150.93ZM165 122C165 123.445 165.285 124.875 165.837 126.21C166.39 127.544 167.2 128.757 168.222 129.778C169.243 130.8 170.456 131.61 171.79 132.163C173.125 132.715 174.555 133 176 133C177.445 133 178.875 132.715 180.21 132.163C181.544 131.61 182.757 130.8 183.778 129.778C184.8 128.757 185.61 127.544 186.163 126.21C186.715 124.875 187 123.445 187 122C187 120.555 186.715 119.125 186.163 117.79C185.61 116.456 184.8 115.243 183.778 114.222C182.757 113.2 181.544 112.39 180.21 111.837C178.875 111.285 177.445 111 176 111C174.555 111 173.125 111.285 171.79 111.837C170.456 112.39 169.243 113.2 168.222 114.222C167.2 115.243 166.39 116.456 165.837 117.79C165.285 119.125 165 120.555 165 122Z" fill="#4642FF"/>
</svg>
