<svg xmlns="http://www.w3.org/2000/svg" width="517" height="162" fill="none"><rect width="180" height="56" fill="#E0E0EE" fill-opacity=".03" rx="20"/><path fill="#fff" d="M17.242 33V22.773h1.256V33h-1.256Zm3.578 0v-7.363h1.169v1.417c.394-1.023 1.3-1.534 2.44-1.534 1.665 0 2.746 1.183 2.746 2.98V33h-1.169v-4.31c0-1.256-.73-2.104-1.84-2.104-1.271 0-2.177 1.008-2.177 2.44V33h-1.17Zm11.528.117c-2.293 0-3.55-1.651-3.55-3.799 0-2.147 1.257-3.798 3.55-3.798 1.038 0 2.002.526 2.44 1.315v-4.223h1.169V33h-1.169v-1.213c-.438.804-1.402 1.33-2.44 1.33Zm-2.337-3.799c0 1.666.964 2.747 2.44 2.747 1.475 0 2.44-1.081 2.44-2.747 0-1.665-.965-2.746-2.44-2.746-1.476 0-2.44 1.08-2.44 2.746ZM38.184 33v-7.363h1.168V33h-1.168Zm-.088-8.751v-1.637h1.344v1.637h-1.344ZM43.478 33l-2.703-7.363h1.213l2.09 5.902 2.103-5.902h1.213L44.706 33h-1.228Zm5.335 0v-7.363h1.169V33h-1.17Zm-.088-8.751v-1.637h1.344v1.637h-1.344Zm6.551 8.868c-2.293 0-3.55-1.651-3.55-3.799 0-2.147 1.257-3.798 3.55-3.798 1.038 0 2.002.526 2.44 1.315v-4.223h1.169V33h-1.169v-1.213c-.438.804-1.402 1.33-2.44 1.33Zm-2.337-3.799c0 1.666.964 2.747 2.44 2.747 1.475 0 2.44-1.081 2.44-2.747 0-1.665-.965-2.746-2.44-2.746-1.476 0-2.44 1.08-2.44 2.746Zm14.426-3.681V33h-1.17v-1.417c-.394 1.023-1.3 1.534-2.424 1.534-1.666 0-2.747-1.183-2.747-2.98v-4.5h1.169v4.31c0 1.256.73 2.103 1.84 2.103 1.257 0 2.163-1.008 2.163-2.44v-3.973h1.169Zm4.428 7.48c-1.549 0-2.557-.877-2.557-2.22 0-1.403 1.154-2.295 2.936-2.295h1.666c.321 0 .468-.16.468-.394 0-1.008-.716-1.695-1.973-1.695-1.08 0-1.928.672-1.987 1.476h-1.11c.131-1.417 1.475-2.47 3.126-2.47 1.914 0 3.112 1.096 3.112 2.733V33h-1.169v-1.271c-.394.847-1.373 1.388-2.512 1.388Zm-1.36-2.235c0 .76.6 1.241 1.535 1.241 1.476 0 2.337-.92 2.337-2.44v-.19h-2.06c-1.095 0-1.811.527-1.811 1.389ZM77.606 33V22.612h1.169V33h-1.17Z"/><rect width="24" height="24" x="140" y="16" fill="#E0E0EE" fill-opacity=".06" rx="12"/><rect width="23" height="23" x="140.5" y="16.5" stroke="#E6E6FA" stroke-opacity=".17" rx="11.5"/><rect width="180" height="56" y="68" fill="#E0E0EE" fill-opacity=".03" rx="20"/><path fill="#fff" d="M17.242 101V90.773h3.667c1.928 0 3.112.964 3.112 2.63 0 .95-.658 1.71-1.359 2.001 1.052.351 1.826 1.184 1.826 2.616 0 1.84-1.241 2.98-3.345 2.98h-3.901Zm1.242-1.125h2.44c1.504 0 2.293-.657 2.293-1.87 0-1.227-.789-1.885-2.293-1.885h-2.44v3.755Zm0-4.865h2.381c1.242 0 1.914-.526 1.914-1.578s-.672-1.563-1.9-1.563h-2.395v3.14Zm14.01-1.373V101h-1.168v-1.417c-.395 1.023-1.3 1.534-2.425 1.534-1.666 0-2.747-1.184-2.747-2.98v-4.5h1.169v4.31c0 1.256.73 2.103 1.84 2.103 1.257 0 2.163-1.008 2.163-2.44v-3.973h1.169Zm4.59 7.48c-1.695 0-2.82-.95-2.937-2.484h1.125c.102.95.745 1.461 1.811 1.461.935 0 1.549-.511 1.549-1.11 0-2.192-4.295-.22-4.295-3.404 0-1.242 1.052-2.06 2.615-2.06 1.607 0 2.703.89 2.79 2.25h-1.125c-.116-.935-1.037-1.257-1.694-1.257-.862 0-1.432.41-1.432 1.052 0 1.987 4.31.015 4.31 3.39 0 1.315-1.096 2.162-2.718 2.162Zm4.438-.117v-7.363h1.169V101h-1.169Zm-.087-8.751v-1.637h1.344v1.637h-1.345ZM44.931 101v-7.363H46.1v1.417c.394-1.023 1.3-1.534 2.44-1.534 1.665 0 2.747 1.183 2.747 2.98v4.5h-1.17v-4.31c0-1.256-.73-2.104-1.84-2.104-1.271 0-2.177 1.008-2.177 2.44V101h-1.169Zm11.602.117c-2.177 0-3.638-1.739-3.638-3.843 0-2.162 1.344-3.754 3.506-3.754 2.148 0 3.434 1.49 3.434 3.448 0 .16-.015.409-.03.511H54.05c.088 1.52 1.096 2.601 2.484 2.601 1.198 0 1.957-.526 2.191-1.447h1.183c-.248 1.505-1.548 2.484-3.374 2.484Zm-2.426-4.573h4.53c-.088-1.242-.921-2.03-2.236-2.03-1.242 0-2.075.73-2.294 2.03Zm9.856 4.573c-1.695 0-2.82-.95-2.937-2.484h1.125c.102.95.745 1.461 1.812 1.461.934 0 1.548-.511 1.548-1.11 0-2.192-4.295-.22-4.295-3.404 0-1.242 1.052-2.06 2.615-2.06 1.607 0 2.703.89 2.79 2.25h-1.124c-.117-.935-1.038-1.257-1.695-1.257-.862 0-1.432.41-1.432 1.052 0 1.987 4.31.015 4.31 3.39 0 1.315-1.096 2.162-2.717 2.162Zm6.805 0c-1.695 0-2.82-.95-2.937-2.484h1.126c.102.95.745 1.461 1.811 1.461.935 0 1.549-.511 1.549-1.11 0-2.192-4.296-.22-4.296-3.404 0-1.242 1.052-2.06 2.616-2.06 1.607 0 2.703.89 2.79 2.25h-1.125c-.117-.935-1.037-1.257-1.695-1.257-.862 0-1.431.41-1.431 1.052 0 1.987 4.31.015 4.31 3.39 0 1.315-1.096 2.162-2.718 2.162Z"/><rect width="23" height="23" x="140.5" y="84.5" fill="#4642FF" rx="11.5"/><rect width="23" height="23" x="140.5" y="84.5" stroke="#4642FF" rx="11.5"/><rect width="6" height="6" x="149" y="93" fill="#fff" rx="3"/><path fill="#E0E0EE" fill-opacity=".06" d="M188 61a1 1 0 0 0 0 2v-2Zm32.707 1.707a1 1 0 0 0 0-1.414l-6.364-6.364a1 1 0 1 0-1.414 1.414L218.586 62l-5.657 5.657a1 1 0 1 0 1.414 1.414l6.364-6.364ZM188 62v1h32v-2h-32v1Z"/><rect width="287" height="56" x="230" fill="#E0E0EE" fill-opacity=".03" rx="16"/><rect width="40" height="40" x="238" y="8" fill="#E0E0EE" fill-opacity=".03" rx="8"/><path stroke="#FCFCFD" stroke-linecap="round" stroke-linejoin="round" stroke-opacity=".98" stroke-width="2" d="M256 32h4m-5.2 6h6.4c1.68 0 2.52 0 3.162-.327a3.004 3.004 0 0 0 1.311-1.311C266 35.72 266 34.88 266 33.2V22.8c0-1.68 0-2.52-.327-3.162a3.004 3.004 0 0 0-1.311-1.311C263.72 18 262.88 18 261.2 18h-6.4c-1.68 0-2.52 0-3.162.327a3.004 3.004 0 0 0-1.311 1.311C250 20.28 250 21.12 250 22.8v10.4c0 1.68 0 2.52.327 3.162a3.004 3.004 0 0 0 1.311 1.311c.642.327 1.482.327 3.162.327Zm6.2-13a3 3 0 1 1-6 0 3 3 0 0 1 6 0Z"/><path fill="#fff" d="M291.242 33V22.773h1.256V33h-1.256Zm6.56.117c-2.294 0-3.55-1.651-3.55-3.799 0-2.147 1.256-3.798 3.55-3.798 1.037 0 2.002.526 2.44 1.315v-4.223h1.169V33h-1.169v-1.213c-.438.804-1.403 1.33-2.44 1.33Zm-2.338-3.799c0 1.666.965 2.747 2.44 2.747 1.476 0 2.44-1.081 2.44-2.747 0-1.665-.964-2.746-2.44-2.746-1.475 0-2.44 1.08-2.44 2.746Zm11.3 3.799c-2.177 0-3.638-1.739-3.638-3.843 0-2.162 1.344-3.754 3.506-3.754 2.148 0 3.434 1.49 3.434 3.448 0 .16-.015.409-.03.511h-5.756c.088 1.52 1.096 2.6 2.484 2.6 1.198 0 1.958-.525 2.191-1.446h1.184c-.249 1.505-1.549 2.484-3.375 2.484Zm-2.425-4.573h4.529c-.088-1.242-.921-2.03-2.236-2.03-1.242 0-2.074.73-2.293 2.03ZM311.827 33v-7.363h1.169v1.417c.394-1.023 1.3-1.534 2.44-1.534 1.665 0 2.746 1.183 2.746 2.98V33h-1.169v-4.31c0-1.256-.73-2.104-1.84-2.104-1.271 0-2.177 1.008-2.177 2.44V33h-1.169Zm8.96-9.716h1.168v2.353h2.265v1.037h-2.265v3.988c0 .819.468 1.3 1.184 1.3h1.081V33h-1.125c-1.417 0-2.308-.877-2.308-2.308v-4.018h-1.534v-1.037h1.534v-2.353ZM325.695 33v-7.363h1.169V33h-1.169Zm-.088-8.751v-1.637h1.344v1.637h-1.344Zm4.097-.965h1.169v2.353h2.264v1.037h-2.264v3.988c0 .819.467 1.3 1.183 1.3h1.081V33h-1.125c-1.417 0-2.308-.877-2.308-2.308v-4.018h-1.534v-1.037h1.534v-2.353Zm5.887 12.696.95-2.863-2.761-7.48h1.212l2.09 5.844 2.103-5.844h1.213l-2.381 6.516-1.301 3.827h-1.125Zm9.611-2.98V22.773h3.009c2.864 0 5.114 1.855 5.114 5.114 0 3.258-2.25 5.113-5.114 5.113h-3.009Zm1.256-1.125h1.739c1.987 0 3.828-1.169 3.828-3.988 0-2.82-1.841-3.989-3.828-3.989h-1.739v7.977Zm11.857 1.242c-2.177 0-3.74-1.593-3.74-3.799 0-2.22 1.563-3.798 3.74-3.798 2.191 0 3.755 1.578 3.755 3.798 0 2.206-1.564 3.799-3.755 3.799Zm-2.542-3.799c0 1.607 1.037 2.747 2.542 2.747 1.519 0 2.557-1.14 2.557-2.747s-1.038-2.746-2.557-2.746c-1.505 0-2.542 1.14-2.542 2.746Zm11.07 3.799c-2.323 0-3.579-1.826-3.579-3.799 0-1.972 1.256-3.798 3.579-3.798 1.651 0 3.127.964 3.346 2.6h-1.154c-.146-.891-1.067-1.548-2.177-1.548-1.607 0-2.382 1.241-2.382 2.746s.789 2.747 2.382 2.747c1.11 0 1.914-.555 2.177-1.446h1.139c-.248 1.504-1.461 2.498-3.331 2.498Zm11.232-7.48V33h-1.169v-1.417c-.394 1.023-1.3 1.534-2.425 1.534-1.665 0-2.747-1.183-2.747-2.98v-4.5h1.169v4.31c0 1.256.731 2.103 1.841 2.103 1.257 0 2.162-1.008 2.162-2.44v-3.973h1.169ZM380.297 33v-7.363h1.169v1.417c.292-.891 1.096-1.534 2.235-1.534 1.213 0 2.162.555 2.411 1.563.277-.877 1.271-1.563 2.381-1.563 1.593 0 2.572 1.066 2.572 2.849V33h-1.169v-4.325c0-1.256-.628-2.118-1.666-2.118-1.242 0-1.972.862-1.972 2.118V33h-1.169v-4.325c0-1.256-.628-2.118-1.651-2.118-1.227 0-1.972.862-1.972 2.118V33h-1.169Zm16.01.117c-2.177 0-3.638-1.739-3.638-3.843 0-2.162 1.344-3.754 3.507-3.754 2.147 0 3.433 1.49 3.433 3.448 0 .16-.015.409-.029.511h-5.757c.088 1.52 1.096 2.6 2.484 2.6 1.198 0 1.958-.525 2.192-1.446h1.183c-.248 1.505-1.549 2.484-3.375 2.484Zm-2.425-4.573h4.529c-.088-1.242-.92-2.03-2.235-2.03-1.242 0-2.075.73-2.294 2.03ZM401.37 33v-7.363h1.169v1.417c.394-1.023 1.3-1.534 2.44-1.534 1.665 0 2.747 1.183 2.747 2.98V33h-1.169v-4.31c0-1.256-.731-2.104-1.841-2.104-1.271 0-2.177 1.008-2.177 2.44V33h-1.169Zm8.96-9.716h1.169v2.353h2.264v1.037h-2.264v3.988c0 .819.467 1.3 1.183 1.3h1.081V33h-1.125c-1.417 0-2.308-.877-2.308-2.308v-4.018h-1.534v-1.037h1.534v-2.353Z"/><rect width="287" height="56" x="230" y="64" fill="#E0E0EE" fill-opacity=".03" rx="16"/><rect width="40" height="40" x="238" y="72" fill="#E0E0EE" fill-opacity=".03" rx="8"/><path stroke="#FCFCFD" stroke-linecap="round" stroke-linejoin="round" stroke-opacity=".98" stroke-width="2" d="M260 91h-6m2 4h-2m8-8h-8m12-.2v10.4c0 1.68 0 2.52-.327 3.162a3.009 3.009 0 0 1-1.311 1.311c-.642.327-1.482.327-3.162.327h-6.4c-1.68 0-2.52 0-3.162-.327a3.009 3.009 0 0 1-1.311-1.311C250 99.72 250 98.88 250 97.2V86.8c0-1.68 0-2.52.327-3.162a3.004 3.004 0 0 1 1.311-1.311C252.28 82 253.12 82 254.8 82h6.4c1.68 0 2.52 0 3.162.327a3.004 3.004 0 0 1 1.311 1.311c.327.642.327 1.482.327 3.162Z"/><path fill="#fff" d="M295.011 97.117c-2.308 0-3.857-1.388-3.857-3.623v-6.721h1.227v6.779c0 1.505 1.052 2.44 2.63 2.44 1.593 0 2.645-.935 2.645-2.44v-6.779h1.227v6.72c0 2.236-1.549 3.624-3.872 3.624Zm6.261-.117V86.773h3.667c1.929 0 3.112.964 3.112 2.63 0 .95-.657 1.71-1.359 2.001 1.052.351 1.827 1.184 1.827 2.616 0 1.84-1.242 2.98-3.346 2.98h-3.901Zm1.242-1.125h2.44c1.505 0 2.293-.657 2.293-1.87 0-1.227-.788-1.885-2.293-1.885h-2.44v3.755Zm0-4.865h2.381c1.242 0 1.914-.526 1.914-1.578s-.672-1.563-1.899-1.563h-2.396v3.14Zm12.33 6.107c-2.878 0-5.011-2.22-5.011-5.23 0-3.01 2.133-5.23 5.011-5.23 2.893 0 5.026 2.22 5.026 5.23 0 3.01-2.133 5.23-5.026 5.23Zm-3.725-5.23c0 2.352 1.592 4.105 3.725 4.105 2.148 0 3.74-1.753 3.74-4.106 0-2.352-1.592-4.105-3.74-4.105-2.133 0-3.725 1.753-3.725 4.105ZM325.284 97V86.773h3.01c2.864 0 5.113 1.856 5.113 5.114 0 3.257-2.249 5.113-5.113 5.113h-3.01Zm1.257-1.125h1.738c1.987 0 3.828-1.169 3.828-3.989s-1.841-3.988-3.828-3.988h-1.738v7.977Zm11.856 1.242c-2.176 0-3.74-1.593-3.74-3.799 0-2.22 1.564-3.798 3.74-3.798 2.192 0 3.755 1.578 3.755 3.798 0 2.206-1.563 3.799-3.755 3.799Zm-2.542-3.799c0 1.607 1.038 2.747 2.542 2.747 1.52 0 2.557-1.14 2.557-2.747s-1.037-2.746-2.557-2.746c-1.504 0-2.542 1.14-2.542 2.746Zm11.071 3.799c-2.323 0-3.58-1.826-3.58-3.799 0-1.972 1.257-3.798 3.58-3.798 1.651 0 3.126.964 3.345 2.6h-1.154c-.146-.891-1.066-1.548-2.177-1.548-1.607 0-2.381 1.241-2.381 2.746s.789 2.747 2.381 2.747c1.111 0 1.914-.555 2.177-1.446h1.14c-.249 1.504-1.461 2.498-3.331 2.498Zm11.232-7.48V97h-1.169v-1.417c-.395 1.023-1.3 1.534-2.425 1.534-1.666 0-2.747-1.184-2.747-2.98v-4.5h1.169v4.31c0 1.256.73 2.103 1.841 2.103 1.256 0 2.162-1.008 2.162-2.44v-3.973h1.169ZM360.379 97v-7.363h1.169v1.417c.292-.892 1.096-1.534 2.236-1.534 1.212 0 2.162.555 2.41 1.563.278-.877 1.271-1.563 2.382-1.563 1.592 0 2.571 1.066 2.571 2.849V97h-1.169v-4.325c0-1.256-.628-2.118-1.665-2.118-1.242 0-1.973.862-1.973 2.118V97h-1.168v-4.325c0-1.256-.629-2.118-1.651-2.118-1.228 0-1.973.862-1.973 2.118V97h-1.169Zm16.011.117c-2.177 0-3.638-1.739-3.638-3.843 0-2.162 1.344-3.754 3.506-3.754 2.148 0 3.433 1.49 3.433 3.448 0 .16-.014.409-.029.511h-5.756c.088 1.52 1.096 2.6 2.484 2.6 1.198 0 1.957-.525 2.191-1.446h1.184c-.249 1.505-1.549 2.484-3.375 2.484Zm-2.426-4.573h4.529c-.087-1.242-.92-2.03-2.235-2.03-1.242 0-2.074.73-2.294 2.03ZM381.453 97v-7.363h1.168v1.417c.395-1.023 1.301-1.534 2.44-1.534 1.666 0 2.747 1.183 2.747 2.98V97h-1.169v-4.31c0-1.256-.73-2.104-1.841-2.104-1.271 0-2.177 1.008-2.177 2.44V97h-1.168Zm8.959-9.716h1.169v2.353h2.265v1.037h-2.265v3.988c0 .819.468 1.3 1.184 1.3h1.081V97h-1.125c-1.417 0-2.309-.877-2.309-2.308v-4.018h-1.534v-1.037h1.534v-2.353Z"/><rect width="287" height="56" x="230" y="128" fill="#E0E0EE" fill-opacity=".03" rx="16"/><rect width="40" height="40" x="238" y="136" fill="#E0E0EE" fill-opacity=".03" rx="8"/><path stroke="#FCFCFD" stroke-linecap="round" stroke-linejoin="round" stroke-opacity=".98" stroke-width="2" d="M260 155h-6m2 4h-2m8-8h-8m12-.2v10.4c0 1.68 0 2.52-.327 3.162a3.009 3.009 0 0 1-1.311 1.311c-.642.327-1.482.327-3.162.327h-6.4c-1.68 0-2.52 0-3.162-.327a3.009 3.009 0 0 1-1.311-1.311C250 163.72 250 162.88 250 161.2v-10.4c0-1.68 0-2.52.327-3.162a3.009 3.009 0 0 1 1.311-1.311c.642-.327 1.482-.327 3.162-.327h6.4c1.68 0 2.52 0 3.162.327a3.009 3.009 0 0 1 1.311 1.311c.327.642.327 1.482.327 3.162Z"/><path fill="#fff" d="M294.427 161.117c-2.294 0-3.755-1.373-3.886-3.463h1.227c.131 1.417 1.066 2.338 2.659 2.338 1.417 0 2.454-.541 2.454-1.783 0-2.629-5.99-1.183-5.99-4.835 0-1.622 1.417-2.718 3.463-2.718 2.045 0 3.462 1.184 3.608 3.024h-1.227c-.117-1.154-1.008-1.899-2.381-1.899-1.374 0-2.206.614-2.206 1.593 0 2.615 6.019.993 6.019 4.835 0 1.856-1.592 2.908-3.74 2.908Zm8.701 0c-2.177 0-3.74-1.593-3.74-3.799 0-2.22 1.563-3.798 3.74-3.798 2.191 0 3.755 1.578 3.755 3.798 0 2.206-1.564 3.799-3.755 3.799Zm-2.542-3.799c0 1.607 1.037 2.747 2.542 2.747 1.519 0 2.557-1.14 2.557-2.747s-1.038-2.746-2.557-2.746c-1.505 0-2.542 1.139-2.542 2.746Zm14.255-3.681V161h-1.169v-1.417c-.394 1.023-1.3 1.534-2.425 1.534-1.665 0-2.747-1.184-2.747-2.981v-4.499h1.169v4.31c0 1.256.731 2.103 1.841 2.103 1.257 0 2.162-1.008 2.162-2.44v-3.973h1.169Zm5.319 1.037c-1.49 0-1.928 1.344-1.928 3.083V161h-1.169v-7.363h1.169v1.49c.321-1.008.92-1.49 2.001-1.49h.935v1.037h-1.008Zm5.122 6.443c-2.323 0-3.58-1.826-3.58-3.799 0-1.972 1.257-3.798 3.58-3.798 1.651 0 3.126.964 3.345 2.6h-1.154c-.146-.891-1.066-1.548-2.177-1.548-1.607 0-2.381 1.241-2.381 2.746s.789 2.747 2.381 2.747c1.111 0 1.914-.555 2.177-1.446h1.14c-.249 1.504-1.461 2.498-3.331 2.498Zm8.105 0c-2.177 0-3.638-1.739-3.638-3.843 0-2.162 1.344-3.754 3.507-3.754 2.147 0 3.433 1.49 3.433 3.448 0 .16-.015.409-.029.511h-5.757c.088 1.519 1.096 2.601 2.484 2.601 1.198 0 1.958-.526 2.192-1.447h1.183c-.248 1.505-1.549 2.484-3.375 2.484Zm-2.425-4.573h4.529c-.088-1.242-.92-2.031-2.235-2.031-1.242 0-2.075.731-2.294 2.031Zm14.227 4.573c-2.177 0-3.74-1.593-3.74-3.799 0-2.22 1.563-3.798 3.74-3.798 2.191 0 3.755 1.578 3.755 3.798 0 2.206-1.564 3.799-3.755 3.799Zm-2.542-3.799c0 1.607 1.037 2.747 2.542 2.747 1.519 0 2.557-1.14 2.557-2.747s-1.038-2.746-2.557-2.746c-1.505 0-2.542 1.139-2.542 2.746Zm8.502 3.682v-6.326h-1.534v-1.037h1.534v-.746c0-1.402.891-2.279 2.294-2.279h1.154v1.038h-1.111c-.701 0-1.168.467-1.168 1.256v.731h2.279v1.037h-2.279V161h-1.169Zm7.921 0v-10.227h6.399v1.125h-5.143v3.375h4.193v1.125h-4.193V161h-1.256Zm13.541-7.363V161h-1.169v-1.417c-.395 1.023-1.3 1.534-2.425 1.534-1.666 0-2.747-1.184-2.747-2.981v-4.499h1.169v4.31c0 1.256.73 2.103 1.841 2.103 1.256 0 2.162-1.008 2.162-2.44v-3.973h1.169Zm2.222 7.363v-7.363h1.168v1.417c.395-1.023 1.301-1.534 2.44-1.534 1.666 0 2.747 1.183 2.747 2.98v4.5h-1.169v-4.31c0-1.256-.73-2.104-1.841-2.104-1.271 0-2.177 1.008-2.177 2.44V161h-1.168Zm11.528.117c-2.294 0-3.55-1.651-3.55-3.799 0-2.147 1.256-3.798 3.55-3.798 1.037 0 2.002.526 2.44 1.315v-4.223h1.169V161h-1.169v-1.213c-.438.804-1.403 1.33-2.44 1.33Zm-2.338-3.799c0 1.666.965 2.747 2.44 2.747 1.476 0 2.44-1.081 2.44-2.747 0-1.665-.964-2.746-2.44-2.746-1.475 0-2.44 1.081-2.44 2.746Zm10.54 3.799c-1.695 0-2.82-.95-2.937-2.484h1.125c.103.95.745 1.461 1.812 1.461.935 0 1.549-.511 1.549-1.11 0-2.192-4.296-.219-4.296-3.404 0-1.242 1.052-2.06 2.615-2.06 1.608 0 2.703.891 2.791 2.25h-1.125c-.117-.935-1.037-1.257-1.695-1.257-.862 0-1.432.409-1.432 1.052 0 1.987 4.31.015 4.31 3.39 0 1.315-1.095 2.162-2.717 2.162Z"/><path fill="url(#a)" d="M0 0h287v152H0z" transform="translate(230 56)"/><defs><linearGradient id="a" x1="143.5" x2="143.5" y1="46.716" y2="126.338" gradientUnits="userSpaceOnUse"><stop stop-color="#141414" stop-opacity="0"/><stop offset="1" stop-color="#141414"/></linearGradient></defs></svg>