<svg xmlns="http://www.w3.org/2000/svg" width="82" height="40" fill="none"><g fill="#fff" clip-path="url(#a)"><path d="M16.997 10a6.984 6.984 0 0 1 5.498 2.67 19.008 19.008 0 0 1 5.008-9.035A16.93 16.93 0 0 0 16.997 0C7.607 0 0 7.612 0 17c0 9.387 7.607 17 16.997 17 1.74 0 3.418-.263 5-.748V21.897A6.996 6.996 0 0 1 10 17a6.997 6.997 0 0 1 6.997-6.999ZM29.5 29.63c1.218 1.098 2.718 2.023 4.215 2.735A16.938 16.938 0 0 0 40.997 34c1.74 0 3.418-.263 4.998-.748V21.897A6.998 6.998 0 0 1 33.998 17H29.5v12.631Z"/><path d="M51.5 3.635a19.008 19.008 0 0 0-5.008 9.035A6.98 6.98 0 0 0 40.998 10a7 7 0 0 0-7 7H24c0-9.387 7.605-17 16.995-17 3.963 0 7.61 1.357 10.503 3.635h.002Z"/><path fill-rule="evenodd" d="M24 40V16.75h10V30c0 5.523-4.477 10-10 10Z" clip-rule="evenodd"/><path d="M65 0c-9.39 0-17 7.612-17 17 0 9.387 7.61 17 17 17s17-7.61 17-17S74.388 0 65 0Zm0 24c-3.867 0-7-3.133-7-7s3.133-7 7-7a7 7 0 1 1 0 14Z"/><path d="M48 17h10v13.055C58 35.545 53.542 40 48.055 40H48V17Z"/></g><defs><clipPath id="a"><path fill="#fff" d="M0 0h82v40H0z"/></clipPath></defs></svg>