<svg xmlns="http://www.w3.org/2000/svg" width="672" height="683" fill="none"><g clip-path="url(#a)"><rect width="672" height="892" x="193" y="70" fill="#28282B" rx="24"/><rect width="670" height="890" x="194" y="71" stroke="#E0E0EE" stroke-opacity=".06" stroke-width="2" rx="23"/><path fill="#FCFCFD" fill-opacity=".98" d="M218.4 113V99.574h5.371c2.819 0 4.468 1.726 4.468 4.162s-1.649 4.162-4.468 4.162h-2.839V113H218.4Zm2.532-7.231h2.723c1.497 0 2.11-.959 2.11-2.033 0-1.074-.613-2.033-2.11-2.033h-2.723v4.066Zm11.408 7.384c-1.899 0-3.203-1.227-3.203-2.896 0-1.879 1.439-3.049 3.625-3.049h1.784c.46 0 .69-.269.69-.652 0-.94-.709-1.612-1.956-1.612-1.247 0-1.995.787-2.033 1.65h-2.129c.134-1.918 1.764-3.414 4.258-3.414 2.474 0 4.2 1.419 4.2 3.606V113h-2.34v-1.439c-.383.959-1.515 1.592-2.896 1.592Zm-.921-2.992c0 .748.595 1.247 1.477 1.247 1.477 0 2.34-1.036 2.34-2.493v-.154h-2.167c-.997 0-1.65.556-1.65 1.4Zm9.349 6.752 1.381-3.932-3.529-9.648h2.397l2.225 6.637 2.225-6.637h2.417l-2.954 8.094-1.918 5.486h-2.244Zm12.702-3.76c-2.954 0-5.063-2.109-5.063-4.986s2.109-4.987 5.063-4.987c2.935 0 5.045 2.11 5.045 4.987 0 2.877-2.11 4.986-5.045 4.986Zm-2.685-4.986c0 1.745 1.074 2.953 2.685 2.953 1.592 0 2.666-1.208 2.666-2.953 0-1.746-1.074-2.954-2.666-2.954-1.611 0-2.685 1.208-2.685 2.954Zm18.371-4.834V113h-2.34v-1.496c-.537 1.055-1.63 1.649-3.011 1.649-2.187 0-3.606-1.572-3.606-3.836v-5.984h2.359v5.486c0 1.323.806 2.244 2.014 2.244 1.323 0 2.244-1.036 2.244-2.455v-5.275h2.34Zm3.317-2.915h2.359v2.915h2.685v1.976h-2.685v4.219c0 .979.518 1.477 1.4 1.477h1.285V113h-1.553c-2.11 0-3.491-1.228-3.491-3.376v-4.315h-1.899v-1.976h1.899v-2.915ZM283.601 113V99.574h5.179c2.474 0 4.219 1.228 4.219 3.452 0 1.266-.825 2.225-1.649 2.647 1.285.48 2.301 1.554 2.301 3.357 0 2.493-1.86 3.97-4.68 3.97h-5.37Zm2.493-2.206h2.628c1.707 0 2.493-.652 2.493-1.899 0-1.227-.786-1.918-2.493-1.918h-2.628v3.817Zm0-5.965h2.513c1.342 0 2.014-.575 2.014-1.611s-.672-1.611-2.052-1.611h-2.475v3.222Zm13.789.48c-1.515 0-2.09 1.285-2.09 3.126V113h-2.359v-9.667h2.359v1.707c.479-1.227 1.227-1.707 2.474-1.707h1.132v1.976h-1.516Zm6.928 7.844c-3.164 0-4.929-2.493-4.929-5.025 0-2.551 1.573-4.948 4.738-4.948 3.241 0 4.699 2.359 4.699 4.661 0 .326-.019.613-.039.805h-7.135c.173 1.554 1.17 2.551 2.666 2.551 1.209 0 1.995-.499 2.244-1.419h2.302c-.364 2.052-2.167 3.375-4.546 3.375Zm-2.608-6.06h4.757c-.096-1.228-.94-2.149-2.34-2.149-1.324 0-2.168.691-2.417 2.149Zm11.787 6.06c-1.898 0-3.203-1.227-3.203-2.896 0-1.879 1.439-3.049 3.625-3.049h1.784c.46 0 .691-.269.691-.652 0-.94-.71-1.612-1.957-1.612s-1.995.787-2.033 1.65h-2.129c.134-1.918 1.765-3.414 4.258-3.414 2.474 0 4.201 1.419 4.201 3.606V113h-2.34v-1.439c-.384.959-1.516 1.592-2.897 1.592Zm-.92-2.992c0 .748.594 1.247 1.477 1.247 1.476 0 2.34-1.036 2.34-2.493v-.154h-2.168c-.997 0-1.649.556-1.649 1.4Zm8.422 2.839V99.19h2.378v7.653l3.683-3.51h2.992l-3.932 3.779 4.258 5.888h-2.839l-3.03-4.316-1.132 1.094V113h-2.378Zm13.9.153c-2.916 0-4.604-2.033-4.604-4.986 0-2.954 1.688-4.987 4.565-4.987 1.247 0 2.283.537 2.839 1.323V99.19h2.34V113h-2.34v-1.208c-.556.844-1.631 1.361-2.8 1.361Zm-2.264-4.986c0 1.783 1.036 2.953 2.59 2.953 1.592 0 2.627-1.17 2.627-2.953 0-1.784-1.035-2.954-2.627-2.954-1.554 0-2.59 1.17-2.59 2.954Zm14.261 4.986c-2.954 0-5.064-2.109-5.064-4.986s2.11-4.987 5.064-4.987c2.934 0 5.044 2.11 5.044 4.987 0 2.877-2.11 4.986-5.044 4.986Zm-2.685-4.986c0 1.745 1.074 2.953 2.685 2.953 1.592 0 2.666-1.208 2.666-2.953 0-1.746-1.074-2.954-2.666-2.954-1.611 0-2.685 1.208-2.685 2.954ZM358.156 113l-3.088-9.667h2.359l1.784 6.464 1.898-6.464h2.168l1.879 6.464 1.784-6.464h2.359L366.211 113h-2.09l-1.938-6.502-1.937 6.502h-2.09Zm12.555 0v-9.667h2.36v1.496c.517-1.055 1.63-1.649 3.011-1.649 2.167 0 3.586 1.573 3.586 3.836V113h-2.34v-5.485c0-1.324-.824-2.245-2.033-2.245-1.304 0-2.224 1.036-2.224 2.455V113h-2.36Zm19.443.153c-2.609 0-4.431-1.476-4.431-3.97 0-1.918 1.189-2.877 2.532-3.567-.729-.921-1.304-1.842-1.304-2.781 0-2.033 1.438-3.414 3.586-3.414 2.129 0 3.549 1.361 3.549 3.337 0 1.937-1.247 2.877-2.609 3.567l2.225 2.455.959-1.17c.825-1.17 1.611-1.381 2.666-1.381v2.187c-.825 0-1.438.595-1.822 1.151l-.46.69 2.493 2.743h-2.57l-1.151-1.266c-1.035.978-2.263 1.419-3.663 1.419Zm-2.167-3.951c0 1.17.805 1.88 2.186 1.88.71 0 1.534-.23 2.282-.844l-2.8-3.05c-.94.48-1.668 1.036-1.668 2.014Zm1.035-6.444c0 .633.537 1.4 1.055 2.014 1.093-.518 1.976-1.074 1.976-2.091 0-.863-.614-1.458-1.516-1.458-.901 0-1.515.614-1.515 1.535Zm20.195 10.395c-3.586 0-6.674-2.301-6.674-6.866 0-4.565 3.145-6.866 6.674-6.866 3.223 0 5.697 1.898 6.061 4.679h-2.666c-.191-1.476-1.611-2.493-3.414-2.493-2.34 0-4.085 1.63-4.085 4.68s1.745 4.661 4.085 4.661c1.842 0 3.261-1.017 3.491-2.474h2.532c-.269 2.781-2.724 4.679-6.004 4.679Zm12.247 0c-2.954 0-5.064-2.109-5.064-4.986s2.11-4.987 5.064-4.987c2.934 0 5.044 2.11 5.044 4.987 0 2.877-2.11 4.986-5.044 4.986Zm-2.685-4.986c0 1.745 1.074 2.953 2.685 2.953 1.592 0 2.666-1.208 2.666-2.953 0-1.746-1.074-2.954-2.666-2.954-1.611 0-2.685 1.208-2.685 2.954Zm12.904 4.986c-2.34 0-3.912-1.304-4.028-3.375h2.149c.096.92.824 1.496 1.879 1.496.921 0 1.515-.461 1.515-1.036 0-2.148-5.274-.096-5.274-4.181 0-1.688 1.477-2.877 3.452-2.877 2.283 0 3.836 1.247 3.932 3.126h-2.167c-.115-.901-.94-1.362-1.707-1.362-.825 0-1.381.384-1.381 1.036 0 2.091 5.351-.211 5.351 4.162 0 1.822-1.477 3.011-3.721 3.011Zm6.386-12.735h2.359v2.915h2.685v1.976h-2.685v4.219c0 .979.518 1.477 1.4 1.477h1.285V113h-1.553c-2.11 0-3.491-1.228-3.491-3.376v-4.315h-1.899v-1.976h1.899v-2.915Zm10.097 12.735c-2.34 0-3.913-1.304-4.028-3.375h2.148c.096.92.825 1.496 1.88 1.496.921 0 1.515-.461 1.515-1.036 0-2.148-5.274-.096-5.274-4.181 0-1.688 1.477-2.877 3.452-2.877 2.283 0 3.836 1.247 3.932 3.126h-2.167c-.115-.901-.94-1.362-1.707-1.362-.825 0-1.381.384-1.381 1.036 0 2.091 5.351-.211 5.351 4.162 0 1.822-1.477 3.011-3.721 3.011Z"/><rect width="624" height="108" x="217" y="134" fill="#E0E0EE" fill-opacity=".03" rx="20"/><g clip-path="url(#b)"><rect width="24" height="24" x="241" y="158" fill="#000" rx="12"/><path fill="#EF3B39" d="M251.036 168.004s-.652.119-.787.936c-.134.821-.433 2.877-.433 2.877s.1.617.61.617h1.78l.184-1.27-1.086-.015s-.234-.065-.199-.268c.034-.2.234-1.289.234-1.289s0-.219.318-.219 1.07.015 1.07.015l.235-1.388h-1.926v.004Zm-3.429.084-1.607 4.35h1.189l.234-.618h.852v.618h1.189v-4.35h-1.857Zm.668 2.443h-.426l.426-.936v.936Zm5.938.215v1.692h.702l.602-1.692-.334 1.692h1.07l.856-4.434h-1.508l-.686 1.657v-1.657h-1.404l-.871 4.434h1.189l.384-1.692Zm5.185.319h-1.189l.119-.453h1.169l.185-.951h-1.205l.1-.384h1.204l.219-1.273h-2.394l-.801 4.434h2.374l.219-1.373Z"/></g><path fill="#FCFCFD" fill-opacity=".98" d="M270.242 175v-10.227h1.432l5.259 8.328v-8.328h1.257V175h-1.432l-5.26-8.298V175h-1.256Zm13.325.117c-2.177 0-3.638-1.739-3.638-3.843 0-2.162 1.344-3.754 3.506-3.754 2.148 0 3.433 1.49 3.433 3.448 0 .16-.014.409-.029.511h-5.756c.088 1.519 1.096 2.601 2.484 2.601 1.198 0 1.957-.526 2.191-1.447h1.184c-.249 1.505-1.549 2.484-3.375 2.484Zm-2.426-4.573h4.529c-.087-1.242-.92-2.031-2.235-2.031-1.242 0-2.074.731-2.294 2.031Zm7.988-5.26h1.169v2.353h2.264v1.037h-2.264v3.988c0 .819.467 1.301 1.183 1.301h1.081V175h-1.125c-1.417 0-2.308-.877-2.308-2.308v-4.018h-1.534v-1.037h1.534v-2.353Zm11.672 1.023-1.855 4.821h3.696l-1.841-4.821ZM296.17 175l4.062-10.227h1.139L305.433 175h-1.301l-1.052-2.761h-4.558L297.456 175h-1.286Zm10.565 0v-7.363h1.169v1.417c.292-.891 1.096-1.534 2.235-1.534 1.213 0 2.163.555 2.411 1.563.278-.877 1.271-1.563 2.381-1.563 1.593 0 2.572 1.066 2.572 2.849V175h-1.169v-4.325c0-1.256-.628-2.118-1.666-2.118-1.241 0-1.972.862-1.972 2.118V175h-1.169v-4.325c0-1.256-.628-2.118-1.651-2.118-1.227 0-1.972.862-1.972 2.118V175h-1.169Zm16.113.117c-2.177 0-3.74-1.593-3.74-3.799 0-2.22 1.563-3.798 3.74-3.798 2.191 0 3.754 1.578 3.754 3.798 0 2.206-1.563 3.799-3.754 3.799Zm-2.542-3.799c0 1.607 1.037 2.747 2.542 2.747 1.519 0 2.556-1.14 2.556-2.747s-1.037-2.746-2.556-2.746c-1.505 0-2.542 1.139-2.542 2.746Zm14.255-3.681V175h-1.169v-1.417c-.394 1.023-1.3 1.534-2.425 1.534-1.666 0-2.747-1.184-2.747-2.981v-4.499h1.169v4.31c0 1.256.73 2.103 1.841 2.103 1.256 0 2.162-1.008 2.162-2.44v-3.973h1.169Zm2.222 7.363v-7.363h1.169v1.417c.394-1.023 1.3-1.534 2.439-1.534 1.666 0 2.747 1.183 2.747 2.98v4.5h-1.169v-4.31c0-1.256-.73-2.104-1.841-2.104-1.271 0-2.176 1.008-2.176 2.44V175h-1.169Zm8.96-9.716h1.168v2.353h2.265v1.037h-2.265v3.988c0 .819.468 1.301 1.184 1.301h1.081V175h-1.125c-1.417 0-2.308-.877-2.308-2.308v-4.018h-1.534v-1.037h1.534v-2.353Zm8.76 0h1.169v2.353h2.264v1.037h-2.264v3.988c0 .819.467 1.301 1.183 1.301h1.081V175h-1.125c-1.417 0-2.308-.877-2.308-2.308v-4.018h-1.534v-1.037h1.534v-2.353Zm8.051 9.833c-2.177 0-3.74-1.593-3.74-3.799 0-2.22 1.563-3.798 3.74-3.798 2.192 0 3.755 1.578 3.755 3.798 0 2.206-1.563 3.799-3.755 3.799Zm-2.542-3.799c0 1.607 1.038 2.747 2.542 2.747 1.52 0 2.557-1.14 2.557-2.747s-1.037-2.746-2.557-2.746c-1.504 0-2.542 1.139-2.542 2.746ZM373.844 175v-4.281l-3.623-5.946h1.417l2.835 4.748 2.819-4.748h1.417l-3.623 5.946V175h-1.242Zm8.029.117c-2.177 0-3.741-1.593-3.741-3.799 0-2.22 1.564-3.798 3.741-3.798 2.191 0 3.754 1.578 3.754 3.798 0 2.206-1.563 3.799-3.754 3.799Zm-2.543-3.799c0 1.607 1.038 2.747 2.543 2.747 1.519 0 2.556-1.14 2.556-2.747s-1.037-2.746-2.556-2.746c-1.505 0-2.543 1.139-2.543 2.746Zm14.256-3.681V175h-1.169v-1.417c-.394 1.023-1.3 1.534-2.425 1.534-1.666 0-2.747-1.184-2.747-2.981v-4.499h1.169v4.31c0 1.256.73 2.103 1.841 2.103 1.256 0 2.162-1.008 2.162-2.44v-3.973h1.169Z"/><path fill="#4CBE89" d="M255.476 207.882c-.294 2.584-2.164 4.286-5 4.286h-.988c-3.193 0-5-1.744-5.526-4.895h-1.911v-1.828h1.743v-1.681h-1.743v-1.828h1.911c.547-3.109 2.375-4.811 5.526-4.811h.988c2.773 0 4.643 1.639 4.958 4.139h-2.815c-.232-1.051-1.072-1.744-2.249-1.744h-.756c-1.597 0-2.563.861-2.899 2.416h4.349v1.828h-4.496v1.681h4.496v1.828h-4.37c.336 1.597 1.302 2.479 2.92 2.479h.756c1.24 0 2.101-.735 2.312-1.87h2.794Zm8.857 4.118v-3.109h-7.521v-2.417l7.29-9.181h3.026v9.181h1.87v2.417h-1.87V212h-2.795Zm-4.748-5.526h4.769v-5.861l-4.769 5.861ZM272.047 212c.021-2.584.441-4.664 2.122-7.354l3.13-4.958h-7.753v-2.395h10.821v2.185l-3.845 6.093c-1.366 2.185-1.681 4.013-1.702 6.429h-2.773Zm14.834.168c-3.088 0-5.483-1.723-5.483-4.475 0-1.723 1.05-3.004 2.479-3.614-1.051-.63-1.849-1.702-1.849-3.004 0-2.311 1.996-3.95 4.853-3.95 2.858 0 4.854 1.639 4.854 3.95 0 1.302-.799 2.374-1.912 3.004 1.492.61 2.521 1.891 2.521 3.614 0 2.752-2.395 4.475-5.463 4.475Zm-2.773-4.538c0 1.345 1.093 2.143 2.773 2.143 1.66 0 2.732-.798 2.732-2.143 0-1.324-1.072-2.164-2.732-2.164-1.68 0-2.773.84-2.773 2.164Zm.504-6.45c0 1.113.883 1.807 2.269 1.807 1.366 0 2.248-.694 2.248-1.807 0-1.114-.882-1.807-2.248-1.807-1.386 0-2.269.693-2.269 1.807Zm8.506 11.997c.63 0 1.05-.505 1.05-1.24v-2.647h2.626v2.878c0 1.87-1.218 3.152-3.025 3.152h-1.051v-2.143h.4Zm9.659-15.884V212h-2.774v-10.82c-.252.378-1.113.567-1.744.567h-1.134v-2.395h1.029c1.156 0 1.807-.462 1.996-2.059h2.627Zm7.424 14.875c-2.837 0-5.001-1.933-5.169-4.496h2.626c.189 1.324 1.114 2.08 2.543 2.08 1.68 0 2.773-1.009 2.773-2.647 0-1.618-1.093-2.711-2.752-2.711-1.24 0-2.101.463-2.543 1.303h-2.374l1.198-8.404h8.257v2.395h-6.198l-.504 3.32c.567-.505 1.491-.925 2.689-.925 2.899 0 5.021 2.164 5.021 5.022 0 2.962-2.374 5.063-5.567 5.063Z"/><path fill="#EBEBFD" fill-opacity=".45" d="M218.067 273v-10.227h3.944c1.885 0 3.214.935 3.214 2.63 0 .964-.628 1.695-1.256 2.016.979.365 1.753 1.183 1.753 2.557 0 1.899-1.417 3.024-3.565 3.024h-4.09Zm1.899-1.68h2.001c1.301 0 1.9-.497 1.9-1.447 0-.935-.599-1.461-1.9-1.461h-2.001v2.908Zm0-4.544h1.914c1.022 0 1.534-.438 1.534-1.227 0-.789-.512-1.227-1.563-1.227h-1.885v2.454Zm10.503.365c-1.154 0-1.592.979-1.592 2.382V273h-1.797v-7.363h1.797v1.3c.365-.935.935-1.3 1.885-1.3h.862v1.504h-1.155Zm5.278 5.976c-2.411 0-3.755-1.899-3.755-3.828 0-1.943 1.198-3.769 3.609-3.769 2.469 0 3.579 1.797 3.579 3.55 0 .248-.015.467-.029.614h-5.435c.131 1.183.891 1.943 2.031 1.943.92 0 1.519-.38 1.709-1.081h1.753c-.277 1.563-1.651 2.571-3.462 2.571Zm-1.987-4.617h3.623c-.073-.935-.716-1.636-1.782-1.636-1.009 0-1.651.526-1.841 1.636Zm8.979 4.617c-1.447 0-2.44-.935-2.44-2.206 0-1.432 1.095-2.323 2.761-2.323h1.359c.35 0 .526-.205.526-.497 0-.716-.541-1.227-1.491-1.227-.949 0-1.519.599-1.548 1.256h-1.622c.102-1.461 1.344-2.6 3.244-2.6 1.884 0 3.199 1.081 3.199 2.746V273h-1.782v-1.096c-.292.731-1.154 1.213-2.206 1.213Zm-.702-2.279c0 .57.453.949 1.125.949 1.125 0 1.783-.789 1.783-1.899v-.117h-1.651c-.76 0-1.257.424-1.257 1.067Zm6.416 2.162v-10.519h1.811v5.829l2.805-2.673h2.28l-2.995 2.878 3.243 4.485h-2.162l-2.309-3.287-.862.833V273h-1.811Zm10.588.117c-2.221 0-3.507-1.549-3.507-3.799s1.286-3.798 3.477-3.798c.95 0 1.739.409 2.163 1.008v-4.047h1.782V273h-1.782v-.92c-.424.642-1.242 1.037-2.133 1.037Zm-1.724-3.799c0 1.359.788 2.25 1.972 2.25 1.213 0 2.001-.891 2.001-2.25 0-1.358-.788-2.25-2.001-2.25-1.184 0-1.972.892-1.972 2.25Zm10.862 3.799c-2.25 0-3.857-1.607-3.857-3.799 0-2.191 1.607-3.798 3.857-3.798 2.236 0 3.843 1.607 3.843 3.798 0 2.192-1.607 3.799-3.843 3.799Zm-2.045-3.799c0 1.33.818 2.25 2.045 2.25 1.213 0 2.031-.92 2.031-2.25 0-1.329-.818-2.25-2.031-2.25-1.227 0-2.045.921-2.045 2.25Zm8.723 3.682-2.352-7.363h1.797l1.359 4.923 1.446-4.923h1.651l1.432 4.923 1.359-4.923h1.797L280.993 273h-1.592l-1.476-4.953L276.45 273h-1.593Zm9.564 0v-7.363h1.797v1.139c.395-.803 1.242-1.256 2.294-1.256 1.651 0 2.732 1.198 2.732 2.922V273h-1.782v-4.178c0-1.009-.629-1.71-1.549-1.71-.993 0-1.695.789-1.695 1.87V273h-1.797Z"/><g clip-path="url(#c)"><path fill="#E0E0EE" fill-opacity=".03" d="M217 302c0-8.837 7.163-16 16-16h592c8.837 0 16 7.163 16 16v176c0 8.837-7.163 16-16 16H233c-8.837 0-16-7.163-16-16V302Z"/><mask id="d" fill="#fff"><path d="M217 286h498v52H217v-52Z"/></mask><path fill="#E0E0EE" fill-opacity=".05" d="M715 338v-1H217v2h498v-1Z" mask="url(#d)"/><path fill="#FCFCFD" fill-opacity=".98" d="M244.448 317v-9.102h-3.287v-1.125h7.787v1.125h-3.258V317h-1.242Zm7.597.117c-2.177 0-3.74-1.593-3.74-3.799 0-2.22 1.563-3.798 3.74-3.798 2.191 0 3.755 1.578 3.755 3.798 0 2.206-1.564 3.799-3.755 3.799Zm-2.542-3.799c0 1.607 1.037 2.747 2.542 2.747 1.519 0 2.557-1.14 2.557-2.747s-1.038-2.746-2.557-2.746c-1.505 0-2.542 1.139-2.542 2.746Zm8.458-6.034h1.169v2.353h2.265v1.037h-2.265v3.988c0 .819.468 1.301 1.184 1.301h1.081V317h-1.125c-1.417 0-2.309-.877-2.309-2.308v-4.018h-1.534v-1.037h1.534v-2.353Zm7.115 9.833c-1.549 0-2.557-.877-2.557-2.221 0-1.402 1.154-2.294 2.937-2.294h1.665c.322 0 .468-.16.468-.394 0-1.008-.716-1.695-1.973-1.695-1.081 0-1.928.672-1.987 1.476h-1.11c.132-1.417 1.476-2.469 3.127-2.469 1.913 0 3.112 1.095 3.112 2.732V317h-1.169v-1.271c-.395.847-1.374 1.388-2.513 1.388Zm-1.359-2.235c0 .759.599 1.241 1.534 1.241 1.476 0 2.338-.92 2.338-2.439v-.19h-2.06c-1.096 0-1.812.526-1.812 1.388Zm7.171 2.118v-10.388h1.169V317h-1.169Zm7.051 0v-10.227h6.4v1.125h-5.143v3.258h4.193v1.125h-4.193v3.594h5.303V317h-6.56Zm10.336.117c-1.549 0-2.557-.877-2.557-2.221 0-1.402 1.154-2.294 2.937-2.294h1.665c.322 0 .468-.16.468-.394 0-1.008-.716-1.695-1.973-1.695-1.081 0-1.928.672-1.987 1.476h-1.11c.132-1.417 1.476-2.469 3.127-2.469 1.914 0 3.112 1.095 3.112 2.732V317h-1.169v-1.271c-.395.847-1.374 1.388-2.513 1.388Zm-1.359-2.235c0 .759.599 1.241 1.534 1.241 1.476 0 2.338-.92 2.338-2.439v-.19h-2.06c-1.096 0-1.812.526-1.812 1.388Zm10.268-4.208c-1.49 0-1.928 1.344-1.928 3.083V317h-1.169v-7.363h1.169v1.49c.321-1.008.92-1.49 2.002-1.49h.935v1.037h-1.009Zm2.325 6.326v-7.363h1.169v1.417c.394-1.023 1.3-1.534 2.439-1.534 1.666 0 2.747 1.183 2.747 2.98v4.5h-1.169v-4.31c0-1.256-.73-2.104-1.84-2.104-1.272 0-2.177 1.008-2.177 2.44V317h-1.169Zm11.601.117c-2.177 0-3.638-1.739-3.638-3.843 0-2.162 1.345-3.754 3.507-3.754 2.147 0 3.433 1.49 3.433 3.448 0 .16-.014.409-.029.511h-5.756c.087 1.519 1.095 2.601 2.483 2.601 1.198 0 1.958-.526 2.192-1.447h1.183c-.248 1.505-1.548 2.484-3.375 2.484Zm-2.425-4.573h4.529c-.088-1.242-.92-2.031-2.235-2.031-1.242 0-2.075.731-2.294 2.031Zm10.542 4.573c-2.294 0-3.55-1.651-3.55-3.799 0-2.147 1.256-3.798 3.55-3.798 1.037 0 2.001.526 2.44 1.315v-4.223h1.169V317h-1.169v-1.213c-.439.804-1.403 1.33-2.44 1.33Zm-2.338-3.799c0 1.666.965 2.747 2.44 2.747 1.476 0 2.44-1.081 2.44-2.747 0-1.665-.964-2.746-2.44-2.746-1.475 0-2.44 1.081-2.44 2.746ZM328.703 317v-10.227h6.4v1.125h-5.143v3.375h4.193v1.125h-4.193V317h-1.257Zm10.457.117c-2.177 0-3.638-1.739-3.638-3.843 0-2.162 1.345-3.754 3.507-3.754 2.148 0 3.433 1.49 3.433 3.448 0 .16-.014.409-.029.511h-5.756c.087 1.519 1.095 2.601 2.483 2.601 1.198 0 1.958-.526 2.192-1.447h1.183c-.248 1.505-1.548 2.484-3.375 2.484Zm-2.425-4.573h4.529c-.087-1.242-.92-2.031-2.235-2.031-1.242 0-2.075.731-2.294 2.031Zm10.615 4.573c-2.177 0-3.638-1.739-3.638-3.843 0-2.162 1.344-3.754 3.506-3.754 2.148 0 3.434 1.49 3.434 3.448 0 .16-.015.409-.029.511h-5.757c.088 1.519 1.096 2.601 2.484 2.601 1.198 0 1.958-.526 2.191-1.447h1.184c-.249 1.505-1.549 2.484-3.375 2.484Zm-2.425-4.573h4.529c-.088-1.242-.921-2.031-2.236-2.031-1.241 0-2.074.731-2.293 2.031Zm9.855 4.573c-1.695 0-2.82-.95-2.937-2.484h1.125c.102.95.745 1.461 1.812 1.461.935 0 1.548-.511 1.548-1.11 0-2.192-4.295-.219-4.295-3.404 0-1.242 1.052-2.06 2.615-2.06 1.607 0 2.703.891 2.791 2.25h-1.125c-.117-.935-1.037-1.257-1.695-1.257-.862 0-1.432.409-1.432 1.052 0 1.987 4.31.015 4.31 3.39 0 1.315-1.095 2.162-2.717 2.162Z"/><mask id="e" fill="#fff"><path d="M217 338h498v52H217v-52Z"/></mask><path fill="#E0E0EE" fill-opacity=".05" d="M715 390v-1H217v2h498v-1Z" mask="url(#e)"/><path fill="#FCFCFD" fill-opacity=".98" d="M244.448 369v-9.102h-3.287v-1.125h7.787v1.125h-3.258V369h-1.242Zm7.597.117c-2.177 0-3.74-1.593-3.74-3.799 0-2.22 1.563-3.798 3.74-3.798 2.191 0 3.755 1.578 3.755 3.798 0 2.206-1.564 3.799-3.755 3.799Zm-2.542-3.799c0 1.607 1.037 2.747 2.542 2.747 1.519 0 2.557-1.14 2.557-2.747s-1.038-2.746-2.557-2.746c-1.505 0-2.542 1.139-2.542 2.746Zm8.458-6.034h1.169v2.353h2.265v1.037h-2.265v3.988c0 .819.468 1.301 1.184 1.301h1.081V369h-1.125c-1.417 0-2.309-.877-2.309-2.308v-4.018h-1.534v-1.037h1.534v-2.353Zm7.115 9.833c-1.549 0-2.557-.877-2.557-2.221 0-1.402 1.154-2.294 2.937-2.294h1.665c.322 0 .468-.16.468-.394 0-1.008-.716-1.695-1.973-1.695-1.081 0-1.928.672-1.987 1.476h-1.11c.132-1.417 1.476-2.469 3.127-2.469 1.913 0 3.112 1.095 3.112 2.732V369h-1.169v-1.271c-.395.847-1.374 1.388-2.513 1.388Zm-1.359-2.235c0 .759.599 1.241 1.534 1.241 1.476 0 2.338-.92 2.338-2.439v-.19h-2.06c-1.096 0-1.812.526-1.812 1.388Zm7.171 2.118v-10.388h1.169V369h-1.169Zm8.772 0v-9.102h-3.287v-1.125h7.787v1.125h-3.258V369h-1.242Zm7.452-6.326c-1.491 0-1.929 1.344-1.929 3.083V369h-1.169v-7.363h1.169v1.49c.321-1.008.92-1.49 2.002-1.49h.935v1.037h-1.008Zm4.287 6.443c-1.548 0-2.556-.877-2.556-2.221 0-1.402 1.154-2.294 2.936-2.294h1.666c.321 0 .467-.16.467-.394 0-1.008-.715-1.695-1.972-1.695-1.081 0-1.928.672-1.987 1.476h-1.11c.131-1.417 1.475-2.469 3.126-2.469 1.914 0 3.112 1.095 3.112 2.732V369h-1.169v-1.271c-.394.847-1.373 1.388-2.513 1.388Zm-1.358-2.235c0 .759.599 1.241 1.534 1.241 1.475 0 2.337-.92 2.337-2.439v-.19h-2.06c-1.095 0-1.811.526-1.811 1.388Zm7.171 2.118v-7.363h1.169v1.417c.394-1.023 1.3-1.534 2.439-1.534 1.666 0 2.747 1.183 2.747 2.98v4.5h-1.169v-4.31c0-1.256-.73-2.104-1.841-2.104-1.271 0-2.176 1.008-2.176 2.44V369h-1.169Zm10.842.117c-1.695 0-2.82-.95-2.937-2.484h1.125c.102.95.745 1.461 1.812 1.461.935 0 1.548-.511 1.548-1.11 0-2.192-4.295-.219-4.295-3.404 0-1.242 1.052-2.06 2.615-2.06 1.607 0 2.703.891 2.791 2.25h-1.125c-.117-.935-1.038-1.257-1.695-1.257-.862 0-1.432.409-1.432 1.052 0 1.987 4.31.015 4.31 3.39 0 1.315-1.096 2.162-2.717 2.162Zm6.644 0c-1.548 0-2.556-.877-2.556-2.221 0-1.402 1.154-2.294 2.936-2.294h1.666c.321 0 .467-.16.467-.394 0-1.008-.716-1.695-1.972-1.695-1.081 0-1.929.672-1.987 1.476h-1.11c.131-1.417 1.475-2.469 3.126-2.469 1.914 0 3.112 1.095 3.112 2.732V369h-1.169v-1.271c-.394.847-1.373 1.388-2.513 1.388Zm-1.358-2.235c0 .759.599 1.241 1.534 1.241 1.475 0 2.337-.92 2.337-2.439v-.19h-2.06c-1.095 0-1.811.526-1.811 1.388Zm10.239 2.235c-2.323 0-3.58-1.826-3.58-3.799 0-1.972 1.257-3.798 3.58-3.798 1.651 0 3.126.964 3.345 2.6h-1.154c-.146-.891-1.066-1.548-2.177-1.548-1.607 0-2.381 1.241-2.381 2.746s.789 2.747 2.381 2.747c1.111 0 1.914-.555 2.177-1.446h1.14c-.248 1.504-1.461 2.498-3.331 2.498Zm5.563-9.833h1.169v2.353h2.265v1.037h-2.265v3.988c0 .819.468 1.301 1.184 1.301h1.081V369h-1.125c-1.417 0-2.309-.877-2.309-2.308v-4.018h-1.534v-1.037h1.534v-2.353Zm4.909 9.716v-7.363h1.168V369h-1.168Zm-.088-8.751v-1.637h1.344v1.637h-1.344Zm6.726 8.868c-2.177 0-3.74-1.593-3.74-3.799 0-2.22 1.563-3.798 3.74-3.798 2.192 0 3.755 1.578 3.755 3.798 0 2.206-1.563 3.799-3.755 3.799Zm-2.542-3.799c0 1.607 1.038 2.747 2.542 2.747 1.52 0 2.557-1.14 2.557-2.747s-1.037-2.746-2.557-2.746c-1.504 0-2.542 1.139-2.542 2.746ZM346.15 369v-7.363h1.168v1.417c.395-1.023 1.301-1.534 2.44-1.534 1.666 0 2.747 1.183 2.747 2.98v4.5h-1.169v-4.31c0-1.256-.73-2.104-1.841-2.104-1.271 0-2.177 1.008-2.177 2.44V369h-1.168Zm16.484.117c-2.557 0-4.923-1.709-4.923-5.231 0-3.535 2.381-5.23 4.923-5.23 2.236 0 4.047 1.388 4.325 3.302h-1.301c-.189-1.256-1.461-2.177-3.024-2.177-2.133 0-3.638 1.446-3.638 4.105 0 2.66 1.505 4.106 3.638 4.106 1.593 0 2.878-.921 3.039-2.177h1.271c-.219 1.914-2.031 3.302-4.31 3.302Zm9.202 0c-2.177 0-3.741-1.593-3.741-3.799 0-2.22 1.564-3.798 3.741-3.798 2.191 0 3.754 1.578 3.754 3.798 0 2.206-1.563 3.799-3.754 3.799Zm-2.543-3.799c0 1.607 1.038 2.747 2.543 2.747 1.519 0 2.556-1.14 2.556-2.747s-1.037-2.746-2.556-2.746c-1.505 0-2.543 1.139-2.543 2.746Zm10.369 3.799c-1.694 0-2.819-.95-2.936-2.484h1.125c.102.95.745 1.461 1.811 1.461.936 0 1.549-.511 1.549-1.11 0-2.192-4.295-.219-4.295-3.404 0-1.242 1.052-2.06 2.615-2.06 1.607 0 2.703.891 2.791 2.25h-1.125c-.117-.935-1.038-1.257-1.695-1.257-.862 0-1.432.409-1.432 1.052 0 1.987 4.31.015 4.31 3.39 0 1.315-1.096 2.162-2.718 2.162Zm5.01-9.833h1.169v2.353h2.264v1.037h-2.264v3.988c0 .819.467 1.301 1.183 1.301h1.081V369h-1.125c-1.417 0-2.308-.877-2.308-2.308v-4.018h-1.534v-1.037h1.534v-2.353Zm7.275 9.833c-1.695 0-2.82-.95-2.937-2.484h1.125c.102.95.745 1.461 1.812 1.461.935 0 1.549-.511 1.549-1.11 0-2.192-4.296-.219-4.296-3.404 0-1.242 1.052-2.06 2.615-2.06 1.607 0 2.703.891 2.791 2.25h-1.125c-.117-.935-1.037-1.257-1.695-1.257-.862 0-1.432.409-1.432 1.052 0 1.987 4.31.015 4.31 3.39 0 1.315-1.095 2.162-2.717 2.162Z"/><mask id="f" fill="#fff"><path d="M217 390h498v52H217v-52Z"/></mask><path fill="#E0E0EE" fill-opacity=".05" d="M715 442v-1H217v2h498v-1Z" mask="url(#f)"/><path fill="#FCFCFD" fill-opacity=".98" d="M242.242 421v-10.227h1.432l5.259 8.328v-8.328h1.257V421h-1.432l-5.26-8.298V421h-1.256Zm13.325.117c-2.177 0-3.638-1.739-3.638-3.843 0-2.162 1.344-3.754 3.506-3.754 2.148 0 3.433 1.49 3.433 3.448 0 .16-.014.409-.029.511h-5.756c.088 1.519 1.096 2.601 2.484 2.601 1.198 0 1.957-.526 2.191-1.447h1.184c-.249 1.505-1.549 2.484-3.375 2.484Zm-2.426-4.573h4.529c-.087-1.242-.92-2.031-2.235-2.031-1.242 0-2.074.731-2.294 2.031Zm7.988-5.26h1.169v2.353h2.264v1.037h-2.264v3.988c0 .819.467 1.301 1.183 1.301h1.081V421h-1.125c-1.417 0-2.308-.877-2.308-2.308v-4.018h-1.534v-1.037h1.534v-2.353Zm8.76 0h1.169v2.353h2.264v1.037h-2.264v3.988c0 .819.467 1.301 1.183 1.301h1.081V421h-1.125c-1.417 0-2.308-.877-2.308-2.308v-4.018h-1.534v-1.037h1.534v-2.353Zm8.052 9.833c-2.177 0-3.741-1.593-3.741-3.799 0-2.22 1.564-3.798 3.741-3.798 2.191 0 3.754 1.578 3.754 3.798 0 2.206-1.563 3.799-3.754 3.799Zm-2.543-3.799c0 1.607 1.038 2.747 2.543 2.747 1.519 0 2.556-1.14 2.556-2.747s-1.037-2.746-2.556-2.746c-1.505 0-2.543 1.139-2.543 2.746ZM287.042 421v-10.227h1.636l3.361 8.547 3.375-8.547h1.621V421h-1.212v-8.152L292.579 421h-1.081l-3.243-8.152V421h-1.213Zm15.365.117c-2.177 0-3.638-1.739-3.638-3.843 0-2.162 1.344-3.754 3.507-3.754 2.147 0 3.433 1.49 3.433 3.448 0 .16-.015.409-.029.511h-5.757c.088 1.519 1.096 2.601 2.484 2.601 1.198 0 1.958-.526 2.192-1.447h1.183c-.248 1.505-1.549 2.484-3.375 2.484Zm-2.425-4.573h4.529c-.088-1.242-.921-2.031-2.235-2.031-1.242 0-2.075.731-2.294 2.031Zm10.585-1.87c-1.49 0-1.928 1.344-1.928 3.083V421h-1.169v-7.363h1.169v1.49c.321-1.008.92-1.49 2.002-1.49h.935v1.037h-1.009Zm5.122 6.443c-2.323 0-3.58-1.826-3.58-3.799 0-1.972 1.257-3.798 3.58-3.798 1.651 0 3.126.964 3.346 2.6h-1.155c-.146-.891-1.066-1.548-2.177-1.548-1.607 0-2.381 1.241-2.381 2.746s.789 2.747 2.381 2.747c1.111 0 1.914-.555 2.177-1.446h1.14c-.248 1.504-1.461 2.498-3.331 2.498Zm4.979-.117v-10.388h1.168v4.442c.395-1.023 1.301-1.534 2.44-1.534 1.666 0 2.747 1.183 2.747 2.98v4.5h-1.169v-4.31c0-1.256-.73-2.104-1.841-2.104-1.271 0-2.177 1.008-2.177 2.44V421h-1.168Zm10.681.117c-1.549 0-2.557-.877-2.557-2.221 0-1.402 1.154-2.294 2.937-2.294h1.665c.322 0 .468-.16.468-.394 0-1.008-.716-1.695-1.973-1.695-1.081 0-1.928.672-1.987 1.476h-1.11c.131-1.417 1.476-2.469 3.126-2.469 1.914 0 3.112 1.095 3.112 2.732V421h-1.168v-1.271c-.395.847-1.374 1.388-2.513 1.388Zm-1.359-2.235c0 .759.599 1.241 1.534 1.241 1.476 0 2.338-.92 2.338-2.439v-.19h-2.06c-1.096 0-1.812.526-1.812 1.388Zm7.171 2.118v-7.363h1.169v1.417c.394-1.023 1.3-1.534 2.44-1.534 1.665 0 2.746 1.183 2.746 2.98v4.5h-1.168v-4.31c0-1.256-.731-2.104-1.841-2.104-1.271 0-2.177 1.008-2.177 2.44V421h-1.169Zm8.96-9.716h1.169v2.353h2.264v1.037h-2.264v3.988c0 .819.467 1.301 1.183 1.301h1.081V421h-1.125c-1.417 0-2.308-.877-2.308-2.308v-4.018h-1.534v-1.037h1.534v-2.353Zm7.275 9.833c-1.695 0-2.82-.95-2.937-2.484h1.125c.102.95.745 1.461 1.812 1.461.935 0 1.549-.511 1.549-1.11 0-2.192-4.296-.219-4.296-3.404 0-1.242 1.052-2.06 2.615-2.06 1.607 0 2.703.891 2.791 2.25h-1.125c-.117-.935-1.037-1.257-1.695-1.257-.862 0-1.432.409-1.432 1.052 0 1.987 4.31.015 4.31 3.39 0 1.315-1.095 2.162-2.717 2.162Z"/><path fill="#E0E0EE" fill-opacity=".03" d="M217 442h498v52H217z"/><path fill="#FCFCFD" fill-opacity=".98" d="M242.067 473v-10.227h4.09c2.148 0 3.404 1.315 3.404 3.17 0 1.856-1.256 3.171-3.404 3.171h-2.162V473h-1.928Zm1.928-5.508h2.075c1.139 0 1.607-.73 1.607-1.549 0-.818-.468-1.548-1.607-1.548h-2.075v3.097Zm8.69 5.625c-1.446 0-2.44-.935-2.44-2.206 0-1.432 1.096-2.323 2.761-2.323h1.359c.351 0 .526-.205.526-.497 0-.716-.54-1.227-1.49-1.227s-1.52.599-1.549 1.256h-1.621c.102-1.461 1.344-2.6 3.243-2.6 1.885 0 3.2 1.081 3.2 2.746V473h-1.783v-1.096c-.292.731-1.154 1.213-2.206 1.213Zm-.701-2.279c0 .57.453.949 1.125.949 1.125 0 1.782-.789 1.782-1.899v-.117h-1.651c-.76 0-1.256.424-1.256 1.067Zm11.295-7.422h1.782v2.221h2.06v1.504h-2.06v3.215c0 .745.409 1.125 1.081 1.125h.979V473h-1.183c-1.607 0-2.659-.935-2.659-2.571v-7.013Zm-4.88 9.584v-7.363h1.797v1.3c.365-.935.935-1.3 1.885-1.3h.599v1.504h-.891c-1.155 0-1.593.979-1.593 2.382V473h-1.797Zm9.987 0v-7.363h1.797v1.139c.395-.803 1.242-1.256 2.294-1.256 1.651 0 2.732 1.198 2.732 2.922V473h-1.782v-4.178c0-1.009-.628-1.71-1.549-1.71-.993 0-1.695.789-1.695 1.87V473h-1.797Zm11.877.117c-2.41 0-3.754-1.899-3.754-3.828 0-1.943 1.198-3.769 3.608-3.769 2.469 0 3.58 1.797 3.58 3.55 0 .248-.015.467-.029.614h-5.435c.131 1.183.891 1.943 2.03 1.943.921 0 1.52-.38 1.71-1.081h1.753c-.278 1.563-1.651 2.571-3.463 2.571Zm-1.986-4.617h3.623c-.073-.935-.716-1.636-1.783-1.636-1.008 0-1.651.526-1.84 1.636Zm10.235-1.359c-1.154 0-1.593.979-1.593 2.382V473h-1.797v-7.363h1.797v1.3c.366-.935.935-1.3 1.885-1.3h.862v1.504h-1.154Zm5.232 5.859v-10.227h4.178c2.133 0 3.404 1.3 3.404 3.156 0 1.052-.54 1.768-1.373 2.206.687.438 1.14 1.198 1.213 2.133l.248 2.732H299.5l-.248-2.513c-.059-.774-.599-1.329-1.374-1.329h-2.206V473h-1.928Zm1.928-5.508h2.162c1.14 0 1.608-.745 1.608-1.563s-.468-1.534-1.608-1.534h-2.162v3.097Zm10.544 5.625c-2.41 0-3.755-1.899-3.755-3.828 0-1.943 1.198-3.769 3.609-3.769 2.469 0 3.58 1.797 3.58 3.55 0 .248-.015.467-.03.614h-5.435c.132 1.183.892 1.943 2.031 1.943.921 0 1.52-.38 1.71-1.081h1.753c-.278 1.563-1.651 2.571-3.463 2.571Zm-1.987-4.617h3.624c-.074-.935-.716-1.636-1.783-1.636-1.008 0-1.651.526-1.841 1.636Zm10.163 4.617c-2.309 0-3.741-1.695-3.741-3.799s1.432-3.798 3.741-3.798c1.84 0 3.36 1.11 3.521 2.805h-1.798c-.116-.731-.832-1.257-1.68-1.257-1.256 0-1.928.965-1.928 2.25 0 1.286.686 2.25 1.943 2.25.862 0 1.505-.482 1.695-1.212h1.797c-.219 1.607-1.666 2.761-3.55 2.761Zm8.161 0c-2.411 0-3.755-1.899-3.755-3.828 0-1.943 1.198-3.769 3.608-3.769 2.47 0 3.58 1.797 3.58 3.55 0 .248-.015.467-.029.614h-5.435c.131 1.183.891 1.943 2.031 1.943.92 0 1.519-.38 1.709-1.081h1.753c-.277 1.563-1.651 2.571-3.462 2.571Zm-1.987-4.617h3.623c-.073-.935-.716-1.636-1.783-1.636-1.008 0-1.65.526-1.84 1.636Zm6.845 4.5v-7.363h1.797V473h-1.797Zm-.058-8.518v-2.001h1.929v2.001h-1.929Zm5.611 8.518-2.688-7.363h1.826l1.695 5.084 1.695-5.084h1.841L334.644 473h-1.68Zm7.352.117c-1.446 0-2.439-.935-2.439-2.206 0-1.432 1.095-2.323 2.761-2.323h1.359c.35 0 .526-.205.526-.497 0-.716-.541-1.227-1.491-1.227-.949 0-1.519.599-1.548 1.256h-1.622c.102-1.461 1.344-2.6 3.243-2.6 1.885 0 3.2 1.081 3.2 2.746V473h-1.782v-1.096c-.293.731-1.155 1.213-2.207 1.213Zm-.701-2.279c0 .57.453.949 1.125.949 1.125 0 1.783-.789 1.783-1.899v-.117h-1.651c-.76 0-1.257.424-1.257 1.067Zm10.346 2.279c-.906 0-1.724-.395-2.133-1.037v.92h-1.797v-10.519h1.797v4.047c.409-.599 1.198-1.008 2.147-1.008 2.192 0 3.477 1.548 3.477 3.798s-1.285 3.799-3.491 3.799Zm-2.25-3.799c0 1.359.789 2.25 1.987 2.25 1.183 0 1.972-.891 1.972-2.25 0-1.358-.789-2.25-1.972-2.25-1.198 0-1.987.892-1.987 2.25Zm7.137 3.682v-10.519h1.797V473h-1.797Zm6.926.117c-2.411 0-3.755-1.899-3.755-3.828 0-1.943 1.198-3.769 3.609-3.769 2.469 0 3.579 1.797 3.579 3.55 0 .248-.014.467-.029.614h-5.435c.132 1.183.892 1.943 2.031 1.943.921 0 1.52-.38 1.71-1.081h1.753c-.278 1.563-1.651 2.571-3.463 2.571Zm-1.987-4.617h3.623c-.073-.935-.715-1.636-1.782-1.636-1.008 0-1.651.526-1.841 1.636Z"/></g><path fill="#EBEBFD" fill-opacity=".45" d="M222.654 525.117c-2.732 0-5.084-1.753-5.084-5.231 0-3.477 2.396-5.23 5.084-5.23 2.455 0 4.339 1.447 4.617 3.565h-2.031c-.146-1.125-1.227-1.899-2.601-1.899-1.782 0-3.111 1.242-3.111 3.564 0 2.323 1.329 3.551 3.111 3.551 1.403 0 2.484-.775 2.659-1.885h1.929c-.205 2.118-2.075 3.565-4.573 3.565Zm9.328 0c-2.249 0-3.857-1.607-3.857-3.799 0-2.191 1.608-3.798 3.857-3.798 2.236 0 3.843 1.607 3.843 3.798 0 2.192-1.607 3.799-3.843 3.799Zm-2.045-3.799c0 1.33.818 2.25 2.045 2.25 1.213 0 2.031-.92 2.031-2.25 0-1.329-.818-2.25-2.031-2.25-1.227 0-2.045.921-2.045 2.25Zm9.83 3.799c-1.782 0-2.98-.994-3.068-2.571h1.636c.073.701.628 1.139 1.432 1.139.701 0 1.154-.351 1.154-.789 0-1.636-4.018-.073-4.018-3.185 0-1.286 1.125-2.191 2.63-2.191 1.739 0 2.922.949 2.995 2.381h-1.651c-.087-.687-.716-1.037-1.3-1.037-.628 0-1.052.292-1.052.789 0 1.592 4.076-.161 4.076 3.17 0 1.388-1.125 2.294-2.834 2.294Zm4.864-9.701h1.797v2.221h2.046v1.504h-2.046v3.215c0 .745.395 1.125 1.067 1.125h.979V525h-1.184c-1.607 0-2.659-.935-2.659-2.571v-3.288h-1.446v-1.504h1.446v-2.221Zm13.137 9.701c-2.98 0-5.172-2.221-5.172-5.231 0-3.009 2.192-5.23 5.172-5.23 2.952 0 5.158 2.221 5.158 5.23 0 3.01-2.206 5.231-5.158 5.231Zm-3.229-5.231c0 2.046 1.345 3.551 3.215 3.551 1.87 0 3.228-1.505 3.228-3.551 0-2.045-1.358-3.564-3.228-3.564s-3.215 1.519-3.215 3.564ZM266.204 525l-2.688-7.363h1.826l1.695 5.084 1.695-5.084h1.841L267.884 525h-1.68Zm8.522.117c-2.411 0-3.755-1.899-3.755-3.828 0-1.943 1.198-3.769 3.609-3.769 2.469 0 3.579 1.797 3.579 3.55 0 .248-.015.467-.029.614h-5.435c.131 1.183.891 1.943 2.031 1.943.92 0 1.519-.38 1.709-1.081h1.753c-.277 1.563-1.651 2.571-3.462 2.571Zm-1.987-4.617h3.623c-.073-.935-.716-1.636-1.782-1.636-1.008 0-1.651.526-1.841 1.636Zm10.235-1.359c-1.154 0-1.592.979-1.592 2.382V525h-1.797v-7.363h1.797v1.3c.365-.935.935-1.3 1.884-1.3h.862v1.504h-1.154Zm4.175 5.859-2.688-7.363h1.826l1.695 5.084 1.695-5.084h1.841L288.829 525h-1.68Zm5.433 0v-7.363h1.797V525h-1.797Zm-.058-8.518v-2.001h1.928v2.001h-1.928Zm6.984 8.635c-2.41 0-3.754-1.899-3.754-3.828 0-1.943 1.198-3.769 3.608-3.769 2.469 0 3.58 1.797 3.58 3.55 0 .248-.015.467-.029.614h-5.435c.131 1.183.891 1.943 2.03 1.943.921 0 1.52-.38 1.71-1.081h1.753c-.278 1.563-1.651 2.571-3.463 2.571Zm-1.986-4.617h3.623c-.073-.935-.716-1.636-1.783-1.636-1.008 0-1.651.526-1.84 1.636Zm8.339 4.5-2.353-7.363h1.797l1.359 4.923 1.447-4.923h1.651l1.431 4.923 1.359-4.923h1.797L311.997 525h-1.593l-1.475-4.953-1.476 4.953h-1.592Z"/><g clip-path="url(#g)"><path fill="#E0E0EE" fill-opacity=".03" d="M217 554c0-8.837 7.163-16 16-16h592c8.837 0 16 7.163 16 16v384c0 8.837-7.163 16-16 16H233c-8.837 0-16-7.163-16-16V554Z"/><mask id="h" fill="#fff"><path d="M217 538h498v52H217v-52Z"/></mask><path fill="#E0E0EE" fill-opacity=".05" d="M715 590v-1H217v2h498v-1Z" mask="url(#h)"/><rect width="24" height="24" x="241" y="552" fill="#E0E0EE" fill-opacity=".03" rx="12"/><g clip-path="url(#i)"><path stroke="#FCFCFD" stroke-linecap="round" stroke-linejoin="round" stroke-opacity=".98" stroke-width="1.333" d="M251.734 558.667a4.668 4.668 0 0 1 6.599 6.599m-2.666.734a4.668 4.668 0 1 1-9.335-.001 4.668 4.668 0 0 1 9.335.001Z"/></g><path fill="#FCFCFD" fill-opacity=".98" d="M281.427 569.117c-2.294 0-3.755-1.373-3.886-3.463h1.227c.131 1.417 1.066 2.338 2.659 2.338 1.417 0 2.454-.541 2.454-1.783 0-2.629-5.99-1.183-5.99-4.835 0-1.622 1.417-2.718 3.463-2.718 2.045 0 3.462 1.184 3.608 3.024h-1.227c-.117-1.154-1.008-1.899-2.381-1.899-1.374 0-2.206.614-2.206 1.593 0 2.615 6.019.993 6.019 4.835 0 1.856-1.592 2.908-3.74 2.908Zm5.472-.117v-7.363h1.169V569h-1.169Zm-.087-8.751v-1.637h1.344v1.637h-1.344Zm3.497 8.751v-7.363h1.169v1.417c.394-1.023 1.3-1.534 2.44-1.534 1.665 0 2.746 1.183 2.746 2.98v4.5h-1.168v-4.31c0-1.256-.731-2.104-1.841-2.104-1.271 0-2.177 1.008-2.177 2.44V569h-1.169Zm8.943 2.98v-1.008h3.404c.949 0 1.621-.716 1.621-1.694v-1.301c-.336.687-1.329 1.14-2.439 1.14-2.294 0-3.551-1.651-3.551-3.799 0-2.147 1.257-3.798 3.551-3.798.993 0 1.987.496 2.439 1.198v-1.081h1.169v7.684c0 1.564-1.125 2.659-2.717 2.659h-3.477Zm.248-6.662c0 1.666.964 2.747 2.44 2.747 1.475 0 2.44-1.081 2.44-2.747 0-1.665-.965-2.746-2.44-2.746-1.476 0-2.44 1.081-2.44 2.746Zm8.173 3.682v-10.388h1.169V569h-1.169Zm6.536.117c-2.177 0-3.638-1.739-3.638-3.843 0-2.162 1.345-3.754 3.507-3.754 2.147 0 3.433 1.49 3.433 3.448 0 .16-.014.409-.029.511h-5.756c.087 1.519 1.095 2.601 2.483 2.601 1.198 0 1.958-.526 2.192-1.447h1.183c-.248 1.505-1.548 2.484-3.375 2.484Zm-2.425-4.573h4.529c-.088-1.242-.92-2.031-2.235-2.031-1.242 0-2.075.731-2.294 2.031Zm11.34-5.26h1.169v2.353h2.265v1.037h-2.265v3.988c0 .819.468 1.301 1.184 1.301h1.081V569h-1.125c-1.417 0-2.309-.877-2.309-2.308v-4.018h-1.534v-1.037h1.534v-2.353Zm8.006 3.39c-1.49 0-1.929 1.344-1.929 3.083V569h-1.168v-7.363h1.168v1.49c.322-1.008.921-1.49 2.002-1.49h.935v1.037h-1.008Zm4.288 6.443c-1.549 0-2.557-.877-2.557-2.221 0-1.402 1.154-2.294 2.937-2.294h1.665c.322 0 .468-.16.468-.394 0-1.008-.716-1.695-1.973-1.695-1.081 0-1.928.672-1.987 1.476h-1.11c.132-1.417 1.476-2.469 3.127-2.469 1.914 0 3.112 1.095 3.112 2.732V569h-1.169v-1.271c-.395.847-1.374 1.388-2.513 1.388Zm-1.359-2.235c0 .759.599 1.241 1.534 1.241 1.476 0 2.338-.92 2.338-2.439v-.19h-2.06c-1.096 0-1.812.526-1.812 1.388ZM341.23 569v-7.363h1.169v1.417c.394-1.023 1.3-1.534 2.44-1.534 1.665 0 2.746 1.183 2.746 2.98v4.5h-1.168v-4.31c0-1.256-.731-2.104-1.841-2.104-1.271 0-2.177 1.008-2.177 2.44V569h-1.169Zm10.842.117c-1.695 0-2.82-.95-2.937-2.484h1.125c.103.95.745 1.461 1.812 1.461.935 0 1.549-.511 1.549-1.11 0-2.192-4.296-.219-4.296-3.404 0-1.242 1.052-2.06 2.615-2.06 1.607 0 2.703.891 2.791 2.25h-1.125c-.117-.935-1.037-1.257-1.695-1.257-.862 0-1.432.409-1.432 1.052 0 1.987 4.31.015 4.31 3.39 0 1.315-1.095 2.162-2.717 2.162Zm6.645 0c-1.549 0-2.557-.877-2.557-2.221 0-1.402 1.154-2.294 2.937-2.294h1.665c.322 0 .468-.16.468-.394 0-1.008-.716-1.695-1.973-1.695-1.081 0-1.928.672-1.987 1.476h-1.11c.132-1.417 1.476-2.469 3.127-2.469 1.914 0 3.112 1.095 3.112 2.732V569h-1.169v-1.271c-.395.847-1.374 1.388-2.513 1.388Zm-1.359-2.235c0 .759.599 1.241 1.534 1.241 1.476 0 2.338-.92 2.338-2.439v-.19h-2.06c-1.096 0-1.812.526-1.812 1.388Zm10.239 2.235c-2.323 0-3.579-1.826-3.579-3.799 0-1.972 1.256-3.798 3.579-3.798 1.651 0 3.127.964 3.346 2.6h-1.154c-.146-.891-1.067-1.548-2.177-1.548-1.607 0-2.382 1.241-2.382 2.746s.789 2.747 2.382 2.747c1.11 0 1.914-.555 2.177-1.446h1.139c-.248 1.504-1.461 2.498-3.331 2.498Zm5.564-9.833h1.169v2.353h2.264v1.037h-2.264v3.988c0 .819.467 1.301 1.183 1.301h1.081V569h-1.125c-1.417 0-2.308-.877-2.308-2.308v-4.018h-1.534v-1.037h1.534v-2.353Zm4.908 9.716v-7.363h1.169V569h-1.169Zm-.088-8.751v-1.637h1.344v1.637h-1.344Zm6.727 8.868c-2.177 0-3.74-1.593-3.74-3.799 0-2.22 1.563-3.798 3.74-3.798 2.191 0 3.755 1.578 3.755 3.798 0 2.206-1.564 3.799-3.755 3.799Zm-2.542-3.799c0 1.607 1.037 2.747 2.542 2.747 1.519 0 2.557-1.14 2.557-2.747s-1.038-2.746-2.557-2.746c-1.505 0-2.542 1.139-2.542 2.746Zm8.002 3.682v-7.363h1.169v1.417c.394-1.023 1.3-1.534 2.44-1.534 1.665 0 2.746 1.183 2.746 2.98v4.5h-1.169v-4.31c0-1.256-.73-2.104-1.84-2.104-1.271 0-2.177 1.008-2.177 2.44V569h-1.169Zm10.842.117c-1.695 0-2.82-.95-2.937-2.484h1.125c.102.95.745 1.461 1.812 1.461.935 0 1.548-.511 1.548-1.11 0-2.192-4.295-.219-4.295-3.404 0-1.242 1.052-2.06 2.615-2.06 1.607 0 2.703.891 2.791 2.25h-1.125c-.117-.935-1.038-1.257-1.695-1.257-.862 0-1.432.409-1.432 1.052 0 1.987 4.31.015 4.31 3.39 0 1.315-1.096 2.162-2.717 2.162Z"/><mask id="j" fill="#fff"><path d="M217 590h498v52H217v-52Z"/></mask><path fill="#E0E0EE" fill-opacity=".05" d="M715 642v-1H217v2h498v-1Z" mask="url(#j)"/><rect width="24" height="24" x="241" y="604" fill="#E0E0EE" fill-opacity=".03" rx="12"/><path stroke="#FCFCFD" stroke-linecap="round" stroke-linejoin="round" stroke-opacity=".98" stroke-width="1.333" d="M259 618.667V622m0 0h-3.333m3.333 0-4-4m-8-8 4 4m4.667-4H259m0 0v3.333m0-3.333-12 12"/><path fill="#FCFCFD" fill-opacity=".98" d="M278.242 621v-10.227h1.636l3.36 8.547 3.375-8.547h1.622V621h-1.213v-8.152L283.779 621h-1.081l-3.244-8.152V621h-1.212Zm18.491-7.363V621h-1.168v-1.417c-.395 1.023-1.301 1.534-2.426 1.534-1.665 0-2.746-1.184-2.746-2.981v-4.499h1.168v4.31c0 1.256.731 2.103 1.841 2.103 1.257 0 2.163-1.008 2.163-2.44v-3.973h1.168Zm2.222 7.363v-10.388h1.169V621h-1.169Zm4.009-9.716h1.169v2.353h2.265v1.037h-2.265v3.988c0 .819.468 1.301 1.183 1.301h1.082V621h-1.125c-1.418 0-2.309-.877-2.309-2.308v-4.018h-1.534v-1.037h1.534v-2.353Zm4.909 9.716v-7.363h1.168V621h-1.168Zm-.088-8.751v-1.637h1.344v1.637h-1.344Zm7.349-.965h1.169v2.353h2.265v1.037h-2.265v3.988c0 .819.468 1.301 1.184 1.301h1.081V621h-1.125c-1.417 0-2.309-.877-2.309-2.308v-4.018H313.6v-1.037h1.534v-2.353Zm8.006 3.39c-1.49 0-1.928 1.344-1.928 3.083V621h-1.169v-7.363h1.169v1.49c.321-1.008.92-1.49 2.001-1.49h.935v1.037h-1.008Zm4.288 6.443c-1.549 0-2.557-.877-2.557-2.221 0-1.402 1.154-2.294 2.937-2.294h1.665c.322 0 .468-.16.468-.394 0-1.008-.716-1.695-1.972-1.695-1.082 0-1.929.672-1.987 1.476h-1.111c.132-1.417 1.476-2.469 3.127-2.469 1.914 0 3.112 1.095 3.112 2.732V621h-1.169v-1.271c-.395.847-1.373 1.388-2.513 1.388Zm-1.359-2.235c0 .759.599 1.241 1.534 1.241 1.476 0 2.338-.92 2.338-2.439v-.19h-2.06c-1.096 0-1.812.526-1.812 1.388ZM333.24 621v-7.363h1.169v1.417c.395-1.023 1.3-1.534 2.44-1.534 1.665 0 2.747 1.183 2.747 2.98v4.5h-1.169v-4.31c0-1.256-.731-2.104-1.841-2.104-1.271 0-2.177 1.008-2.177 2.44V621h-1.169Zm10.842.117c-1.695 0-2.82-.95-2.937-2.484h1.125c.103.95.746 1.461 1.812 1.461.935 0 1.549-.511 1.549-1.11 0-2.192-4.296-.219-4.296-3.404 0-1.242 1.052-2.06 2.616-2.06 1.607 0 2.702.891 2.79 2.25h-1.125c-.117-.935-1.037-1.257-1.695-1.257-.862 0-1.431.409-1.431 1.052 0 1.987 4.31.015 4.31 3.39 0 1.315-1.096 2.162-2.718 2.162Zm6.645 0c-1.549 0-2.557-.877-2.557-2.221 0-1.402 1.154-2.294 2.937-2.294h1.665c.322 0 .468-.16.468-.394 0-1.008-.716-1.695-1.972-1.695-1.082 0-1.929.672-1.987 1.476h-1.111c.132-1.417 1.476-2.469 3.127-2.469 1.914 0 3.112 1.095 3.112 2.732V621h-1.169v-1.271c-.395.847-1.373 1.388-2.513 1.388Zm-1.359-2.235c0 .759.599 1.241 1.534 1.241 1.476 0 2.338-.92 2.338-2.439v-.19h-2.06c-1.096 0-1.812.526-1.812 1.388Zm10.239 2.235c-2.323 0-3.579-1.826-3.579-3.799 0-1.972 1.256-3.798 3.579-3.798 1.651 0 3.127.964 3.346 2.6h-1.154c-.146-.891-1.067-1.548-2.177-1.548-1.607 0-2.381 1.241-2.381 2.746s.788 2.747 2.381 2.747c1.11 0 1.914-.555 2.177-1.446h1.139c-.248 1.504-1.461 2.498-3.331 2.498Zm5.564-9.833h1.169v2.353h2.264v1.037h-2.264v3.988c0 .819.467 1.301 1.183 1.301h1.081V621h-1.125c-1.417 0-2.308-.877-2.308-2.308v-4.018h-1.534v-1.037h1.534v-2.353Zm4.908 9.716v-7.363h1.169V621h-1.169Zm-.087-8.751v-1.637h1.344v1.637h-1.344Zm6.726 8.868c-2.177 0-3.74-1.593-3.74-3.799 0-2.22 1.563-3.798 3.74-3.798 2.191 0 3.755 1.578 3.755 3.798 0 2.206-1.564 3.799-3.755 3.799Zm-2.542-3.799c0 1.607 1.037 2.747 2.542 2.747 1.519 0 2.557-1.14 2.557-2.747s-1.038-2.746-2.557-2.746c-1.505 0-2.542 1.139-2.542 2.746Zm8.002 3.682v-7.363h1.169v1.417c.394-1.023 1.3-1.534 2.44-1.534 1.665 0 2.746 1.183 2.746 2.98v4.5h-1.168v-4.31c0-1.256-.731-2.104-1.841-2.104-1.271 0-2.177 1.008-2.177 2.44V621h-1.169Zm10.842.117c-1.695 0-2.82-.95-2.937-2.484h1.125c.102.95.745 1.461 1.812 1.461.935 0 1.548-.511 1.548-1.11 0-2.192-4.295-.219-4.295-3.404 0-1.242 1.052-2.06 2.615-2.06 1.607 0 2.703.891 2.791 2.25h-1.125c-.117-.935-1.037-1.257-1.695-1.257-.862 0-1.432.409-1.432 1.052 0 1.987 4.31.015 4.31 3.39 0 1.315-1.095 2.162-2.717 2.162Z"/><mask id="k" fill="#fff"><path d="M217 642h498v52H217v-52Z"/></mask><path fill="#E0E0EE" fill-opacity=".05" d="M715 694v-1H217v2h498v-1Z" mask="url(#k)"/><rect width="24" height="24" x="241" y="656" fill="#E0E0EE" fill-opacity=".03" rx="12"/><path stroke="#FCFCFD" stroke-linecap="round" stroke-linejoin="round" stroke-opacity=".98" stroke-width="1.333" d="M247 666h9a3 3 0 1 1 0 6h-3m-6-6 2.667-2.667M247 666l2.667 2.667"/><path fill="#FCFCFD" fill-opacity=".98" d="M278.242 673v-10.227h3.886c2.016 0 3.244 1.213 3.244 2.995 0 1.125-.629 1.929-1.593 2.381.804.439 1.286 1.272 1.359 2.309l.175 2.542H284.1l-.175-2.469c-.058-.994-.701-1.695-1.665-1.695h-2.762V673h-1.256Zm1.256-5.289h2.616c1.446 0 1.986-.935 1.986-1.943s-.54-1.885-1.986-1.885h-2.616v3.828Zm10.856 5.406c-2.177 0-3.638-1.739-3.638-3.843 0-2.162 1.344-3.754 3.506-3.754 2.148 0 3.434 1.49 3.434 3.448 0 .16-.015.409-.029.511h-5.757c.088 1.519 1.096 2.601 2.484 2.601 1.198 0 1.958-.526 2.191-1.447h1.184c-.249 1.505-1.549 2.484-3.375 2.484Zm-2.425-4.573h4.529c-.088-1.242-.921-2.031-2.236-2.031-1.241 0-2.074.731-2.293 2.031Zm8.016 4.456v-6.326h-1.534v-1.037h1.534v-.746c0-1.402.891-2.279 2.294-2.279h1.154v1.038h-1.11c-.701 0-1.169.467-1.169 1.256v.731h2.279v1.037h-2.279V673h-1.169Zm10.933-7.363V673h-1.169v-1.417c-.395 1.023-1.3 1.534-2.425 1.534-1.666 0-2.747-1.184-2.747-2.981v-4.499h1.169v4.31c0 1.256.73 2.103 1.841 2.103 1.256 0 2.162-1.008 2.162-2.44v-3.973h1.169ZM309.1 673v-7.363h1.168v1.417c.395-1.023 1.301-1.534 2.44-1.534 1.666 0 2.747 1.183 2.747 2.98v4.5h-1.169v-4.31c0-1.256-.73-2.104-1.841-2.104-1.271 0-2.177 1.008-2.177 2.44V673H309.1Zm11.528.117c-2.294 0-3.55-1.651-3.55-3.799 0-2.147 1.256-3.798 3.55-3.798 1.037 0 2.002.526 2.44 1.315v-4.223h1.169V673h-1.169v-1.213c-.438.804-1.403 1.33-2.44 1.33Zm-2.338-3.799c0 1.666.965 2.747 2.44 2.747 1.476 0 2.44-1.081 2.44-2.747 0-1.665-.964-2.746-2.44-2.746-1.475 0-2.44 1.081-2.44 2.746Zm10.54 3.799c-1.695 0-2.82-.95-2.937-2.484h1.125c.103.95.745 1.461 1.812 1.461.935 0 1.549-.511 1.549-1.11 0-2.192-4.296-.219-4.296-3.404 0-1.242 1.052-2.06 2.616-2.06 1.607 0 2.702.891 2.79 2.25h-1.125c-.117-.935-1.037-1.257-1.695-1.257-.862 0-1.431.409-1.431 1.052 0 1.987 4.309.015 4.309 3.39 0 1.315-1.095 2.162-2.717 2.162Z"/></g><g filter="url(#l)"><rect width="304" height="172" x="40" y="290" fill="#28282B" rx="16" shape-rendering="crispEdges"/><path fill="#fff" d="M57.066 321v-10.227h6.794v1.666h-4.88v2.483h3.916v1.666H58.98v2.732h5.04V321h-6.953Zm9.336 0h-1.899l2.66-3.842-2.47-3.521h1.972l1.476 2.118 1.461-2.118h1.958l-2.455 3.521 2.66 3.842H69.85l-1.724-2.454L66.402 321Zm6.255 2.98v-10.343h1.797v.92c.439-.628 1.228-1.037 2.206-1.037 2.119 0 3.42 1.548 3.42 3.798s-1.389 3.799-3.551 3.799c-.891 0-1.68-.351-2.075-.921v3.784h-1.797Zm1.68-6.662c0 1.359.79 2.25 1.987 2.25 1.184 0 1.973-.891 1.973-2.25 0-1.358-.79-2.25-1.973-2.25-1.198 0-1.987.892-1.987 2.25Zm10.556 3.799c-2.25 0-3.857-1.607-3.857-3.799 0-2.191 1.607-3.798 3.857-3.798 2.236 0 3.843 1.607 3.843 3.798 0 2.192-1.607 3.799-3.843 3.799Zm-2.045-3.799c0 1.33.818 2.25 2.045 2.25 1.213 0 2.031-.92 2.031-2.25 0-1.329-.818-2.25-2.03-2.25-1.228 0-2.046.921-2.046 2.25Zm12.138-5.902h1.783v2.221h2.06v1.504h-2.06v3.215c0 .745.409 1.125 1.08 1.125h.98V321h-1.184c-1.607 0-2.659-.935-2.659-2.571v-7.013ZM90.106 321v-7.363h1.797v1.3c.366-.935.935-1.3 1.885-1.3h.6v1.504h-.892c-1.154 0-1.593.979-1.593 2.382V321h-1.797Zm13.628-9.584h1.797v2.221h2.046v1.504h-2.046v3.215c0 .745.395 1.125 1.067 1.125h.979V321h-1.184c-1.607 0-2.659-.935-2.659-2.571v-3.288h-1.446v-1.504h1.446v-2.221Zm8.51 3.725c-1.155 0-1.593.979-1.593 2.382V321h-1.797v-7.363h1.797v1.3c.365-.935.935-1.3 1.885-1.3h.862v1.504h-1.154Zm4.151 5.976c-1.447 0-2.44-.935-2.44-2.206 0-1.432 1.095-2.323 2.761-2.323h1.359c.35 0 .526-.205.526-.497 0-.716-.541-1.227-1.491-1.227-.949 0-1.519.599-1.548 1.256h-1.622c.102-1.461 1.344-2.6 3.243-2.6 1.885 0 3.2 1.081 3.2 2.746V321h-1.782v-1.096c-.293.731-1.155 1.213-2.206 1.213Zm-.702-2.279c0 .57.453.949 1.125.949 1.125 0 1.783-.789 1.783-1.899v-.117h-1.651c-.76 0-1.257.424-1.257 1.067Zm6.416 2.162v-7.363h1.797v1.139c.394-.803 1.242-1.256 2.293-1.256 1.651 0 2.733 1.198 2.733 2.922V321h-1.783v-4.178c0-1.009-.628-1.71-1.549-1.71-.993 0-1.694.789-1.694 1.87V321h-1.797Zm11.132.117c-1.783 0-2.981-.994-3.069-2.571h1.637c.073.701.628 1.139 1.432 1.139.701 0 1.154-.351 1.154-.789 0-1.636-4.018-.073-4.018-3.185 0-1.286 1.125-2.191 2.63-2.191 1.738 0 2.922.949 2.995 2.381h-1.651c-.088-.687-.716-1.037-1.3-1.037-.629 0-1.052.292-1.052.789 0 1.592 4.076-.161 4.076 3.17 0 1.388-1.125 2.294-2.834 2.294Zm6.367 0c-1.446 0-2.44-.935-2.44-2.206 0-1.432 1.096-2.323 2.761-2.323h1.359c.351 0 .526-.205.526-.497 0-.716-.541-1.227-1.49-1.227-.95 0-1.52.599-1.549 1.256h-1.622c.103-1.461 1.345-2.6 3.244-2.6 1.885 0 3.199 1.081 3.199 2.746V321h-1.782v-1.096c-.292.731-1.154 1.213-2.206 1.213Zm-.701-2.279c0 .57.453.949 1.125.949 1.125 0 1.782-.789 1.782-1.899v-.117h-1.651c-.76 0-1.256.424-1.256 1.067Zm9.731 2.279c-2.308 0-3.74-1.695-3.74-3.799s1.432-3.798 3.74-3.798c1.841 0 3.361 1.11 3.521 2.805h-1.797c-.116-.731-.832-1.257-1.68-1.257-1.256 0-1.928.965-1.928 2.25 0 1.286.686 2.25 1.943 2.25.862 0 1.505-.482 1.695-1.212h1.797c-.219 1.607-1.666 2.761-3.551 2.761Zm5.475-9.701h1.797v2.221h2.045v1.504h-2.045v3.215c0 .745.394 1.125 1.067 1.125h.978V321h-1.183c-1.607 0-2.659-.935-2.659-2.571v-3.288h-1.446v-1.504h1.446v-2.221Zm5.12 9.584v-7.363h1.797V321h-1.797Zm-.059-8.518v-2.001h1.929v2.001h-1.929Zm7.087 8.635c-2.25 0-3.857-1.607-3.857-3.799 0-2.191 1.607-3.798 3.857-3.798 2.236 0 3.843 1.607 3.843 3.798 0 2.192-1.607 3.799-3.843 3.799Zm-2.045-3.799c0 1.33.818 2.25 2.045 2.25 1.213 0 2.031-.92 2.031-2.25 0-1.329-.818-2.25-2.031-2.25-1.227 0-2.045.921-2.045 2.25Zm7.258 3.682v-7.363h1.797v1.139c.395-.803 1.242-1.256 2.294-1.256 1.651 0 2.732 1.198 2.732 2.922V321h-1.782v-4.178c0-1.009-.628-1.71-1.549-1.71-.993 0-1.695.789-1.695 1.87V321h-1.797Zm11.132.117c-1.782 0-2.98-.994-3.068-2.571h1.637c.073.701.628 1.139 1.431 1.139.702 0 1.155-.351 1.155-.789 0-1.636-4.018-.073-4.018-3.185 0-1.286 1.125-2.191 2.63-2.191 1.738 0 2.922.949 2.995 2.381h-1.651c-.088-.687-.716-1.037-1.301-1.037-.628 0-1.051.292-1.051.789 0 1.592 4.076-.161 4.076 3.17 0 1.388-1.125 2.294-2.835 2.294Zm3.416.701c.439 0 .731-.35.731-.862v-1.841h1.826v2.002c0 1.3-.847 2.191-2.104 2.191h-.73v-1.49h.277Zm6.997-.818v-7.363h1.797v1.154c.35-.745 1.095-1.271 2.118-1.271 1.169 0 1.972.496 2.308 1.402.336-.759 1.271-1.402 2.44-1.402 1.593 0 2.615 1.154 2.615 2.717V321H202.5v-4.222c0-1.038-.54-1.724-1.402-1.724-.95 0-1.549.686-1.549 1.724V321h-1.782v-4.222c0-1.038-.541-1.724-1.403-1.724-.964 0-1.548.686-1.548 1.724V321h-1.797Zm16.314.117c-2.411 0-3.755-1.899-3.755-3.828 0-1.943 1.198-3.769 3.609-3.769 2.469 0 3.579 1.797 3.579 3.55 0 .248-.015.467-.029.614h-5.435c.131 1.183.891 1.943 2.031 1.943.92 0 1.519-.38 1.709-1.081h1.753c-.277 1.563-1.651 2.571-3.462 2.571Zm-1.987-4.617h3.623c-.073-.935-.716-1.636-1.782-1.636-1.008 0-1.651.526-1.841 1.636Zm10.235-1.359c-1.154 0-1.592.979-1.592 2.382V321h-1.797v-7.363h1.797v1.3c.365-.935.935-1.3 1.884-1.3h.862v1.504h-1.154Zm5.277 5.976c-2.308 0-3.74-1.695-3.74-3.799s1.432-3.798 3.74-3.798c1.841 0 3.361 1.11 3.521 2.805h-1.797c-.116-.731-.832-1.257-1.68-1.257-1.256 0-1.928.965-1.928 2.25 0 1.286.686 2.25 1.943 2.25.862 0 1.505-.482 1.695-1.212h1.797c-.22 1.607-1.666 2.761-3.551 2.761Zm4.845-.117v-10.519h1.797v4.295c.395-.803 1.242-1.256 2.294-1.256 1.651 0 2.732 1.198 2.732 2.922V321h-1.783v-4.178c0-1.009-.628-1.71-1.548-1.71-.994 0-1.695.789-1.695 1.87V321h-1.797Zm10.694.117c-1.447 0-2.44-.935-2.44-2.206 0-1.432 1.095-2.323 2.761-2.323h1.359c.35 0 .526-.205.526-.497 0-.716-.541-1.227-1.491-1.227-.949 0-1.519.599-1.548 1.256h-1.622c.102-1.461 1.344-2.6 3.244-2.6 1.884 0 3.199 1.081 3.199 2.746V321h-1.782v-1.096c-.292.731-1.154 1.213-2.206 1.213Zm-.702-2.279c0 .57.453.949 1.125.949 1.125 0 1.783-.789 1.783-1.899v-.117h-1.651c-.76 0-1.257.424-1.257 1.067Zm6.416 2.162v-7.363h1.797v1.139c.394-.803 1.242-1.256 2.294-1.256 1.65 0 2.732 1.198 2.732 2.922V321h-1.783v-4.178c0-1.009-.628-1.71-1.548-1.71-.994 0-1.695.789-1.695 1.87V321h-1.797Zm9.147-9.584h1.797v2.221h2.046v1.504h-2.046v3.215c0 .745.395 1.125 1.067 1.125h.979V321h-1.184c-1.607 0-2.659-.935-2.659-2.571v-3.288h-1.446v-1.504h1.446v-2.221Zm7.692 9.701c-1.783 0-2.981-.994-3.068-2.571h1.636c.073.701.628 1.139 1.432 1.139.701 0 1.154-.351 1.154-.789 0-1.636-4.018-.073-4.018-3.185 0-1.286 1.125-2.191 2.63-2.191 1.738 0 2.922.949 2.995 2.381h-1.651c-.088-.687-.716-1.037-1.3-1.037-.629 0-1.052.292-1.052.789 0 1.592 4.076-.161 4.076 3.17 0 1.388-1.125 2.294-2.834 2.294Zm3.416.701c.438 0 .73-.35.73-.862v-1.841h1.827v2.002c0 1.3-.848 2.191-2.104 2.191h-.731v-1.49h.278Zm6.996 2.162v-10.343h1.797v.92c.438-.628 1.227-1.037 2.206-1.037 2.118 0 3.419 1.548 3.419 3.798s-1.388 3.799-3.551 3.799c-.891 0-1.68-.351-2.074-.921v3.784h-1.797Zm1.68-6.662c0 1.359.789 2.25 1.987 2.25 1.183 0 1.972-.891 1.972-2.25 0-1.358-.789-2.25-1.972-2.25-1.198 0-1.987.892-1.987 2.25Zm9.27 3.799c-1.446 0-2.44-.935-2.44-2.206 0-1.432 1.096-2.323 2.762-2.323h1.358c.351 0 .526-.205.526-.497 0-.716-.54-1.227-1.49-1.227s-1.519.599-1.549 1.256h-1.621c.102-1.461 1.344-2.6 3.243-2.6 1.885 0 3.2 1.081 3.2 2.746V321h-1.783v-1.096c-.292.731-1.154 1.213-2.206 1.213Zm-.701-2.279c0 .57.453.949 1.125.949 1.125 0 1.782-.789 1.782-1.899v-.117h-1.651c-.759 0-1.256.424-1.256 1.067Zm7.121 5.142 1.052-2.995-2.688-7.348h1.826l1.695 5.055 1.694-5.055h1.841l-2.25 6.165-1.461 4.178h-1.709Zm9.676-2.863c-2.25 0-3.857-1.607-3.857-3.799 0-2.191 1.607-3.798 3.857-3.798 2.235 0 3.842 1.607 3.842 3.798 0 2.192-1.607 3.799-3.842 3.799Zm-2.046-3.799c0 1.33.818 2.25 2.046 2.25 1.212 0 2.03-.92 2.03-2.25 0-1.329-.818-2.25-2.03-2.25-1.228 0-2.046.921-2.046 2.25Zm13.994-3.681V321h-1.782v-1.14c-.41.804-1.242 1.257-2.294 1.257-1.666 0-2.747-1.198-2.747-2.922v-4.558h1.797v4.178c0 1.008.614 1.709 1.534 1.709 1.008 0 1.71-.789 1.71-1.87v-4.017h1.782Zm2.527-2.221h1.797v2.221h2.045v1.504h-2.045v3.215c0 .745.394 1.125 1.066 1.125h.979V321h-1.183c-1.607 0-2.659-.935-2.659-2.571v-3.288h-1.447v-1.504h1.447v-2.221Zm7.691 9.701c-1.783 0-2.981-.994-3.068-2.571h1.636c.073.701.628 1.139 1.432 1.139.701 0 1.154-.351 1.154-.789 0-1.636-4.018-.073-4.018-3.185 0-1.286 1.125-2.191 2.63-2.191 1.739 0 2.922.949 2.995 2.381h-1.651c-.087-.687-.716-1.037-1.3-1.037-.628 0-1.052.292-1.052.789 0 1.592 4.076-.161 4.076 3.17 0 1.388-1.125 2.294-2.834 2.294Z"/><rect width="272" height="48" x="56" y="342" fill="#E0E0EE" fill-opacity=".06" rx="16"/><path stroke="#fff" stroke-linecap="round" stroke-linejoin="round" stroke-width="2" d="M89 364H71m13-8v4m-8-4v4m-.2 16h8.4c1.68 0 2.52 0 3.162-.327a3.004 3.004 0 0 0 1.311-1.311C89 373.72 89 372.88 89 371.2v-8.4c0-1.68 0-2.52-.327-3.162a3.004 3.004 0 0 0-1.311-1.311C86.72 358 85.88 358 84.2 358h-8.4c-1.68 0-2.52 0-3.162.327a3.004 3.004 0 0 0-1.311 1.311C71 360.28 71 361.12 71 362.8v8.4c0 1.68 0 2.52.327 3.162a3.004 3.004 0 0 0 1.311 1.311c.642.327 1.482.327 3.162.327Z"/><path fill="#FCFCFD" fill-opacity=".98" d="M125.776 372v-9.968h-3.6V360.8h8.528v1.232h-3.568V372h-1.36Zm6.331 0v-11.376h1.28v4.864c.432-1.12 1.424-1.68 2.672-1.68 1.824 0 3.008 1.296 3.008 3.264V372h-1.28v-4.72c0-1.376-.8-2.304-2.016-2.304-1.392 0-2.384 1.104-2.384 2.672V372h-1.28Zm9.281 0v-8.064h1.28V372h-1.28Zm-.096-9.584v-1.792h1.472v1.792h-1.472Zm6.422 9.712c-1.856 0-3.088-1.04-3.216-2.72h1.232c.112 1.04.816 1.6 1.984 1.6 1.024 0 1.696-.56 1.696-1.216 0-2.4-4.704-.24-4.704-3.728 0-1.36 1.152-2.256 2.864-2.256 1.76 0 2.96.976 3.056 2.464h-1.232c-.128-1.024-1.136-1.376-1.856-1.376-.944 0-1.568.448-1.568 1.152 0 2.176 4.72.016 4.72 3.712 0 1.44-1.2 2.368-2.976 2.368Zm9.512 3.136 1.04-3.136-3.024-8.192h1.328l2.288 6.4 2.304-6.4h1.328l-2.608 7.136-1.424 4.192h-1.232Zm10.07-3.136c-2.384 0-3.984-1.904-3.984-4.208 0-2.368 1.472-4.112 3.84-4.112 2.352 0 3.76 1.632 3.76 3.776 0 .176-.016.448-.032.56h-6.304c.096 1.664 1.2 2.848 2.72 2.848 1.312 0 2.144-.576 2.4-1.584h1.296c-.272 1.648-1.696 2.72-3.696 2.72Zm-2.656-5.008h4.96c-.096-1.36-1.008-2.224-2.448-2.224-1.36 0-2.272.8-2.512 2.224Zm10.617 5.008c-1.696 0-2.8-.96-2.8-2.432 0-1.536 1.264-2.512 3.216-2.512h1.824c.352 0 .512-.176.512-.432 0-1.104-.784-1.856-2.16-1.856-1.184 0-2.112.736-2.176 1.616h-1.216c.144-1.552 1.616-2.704 3.424-2.704 2.096 0 3.408 1.2 3.408 2.992v5.2h-1.28v-1.392c-.432.928-1.504 1.52-2.752 1.52Zm-1.488-2.448c0 .832.656 1.36 1.68 1.36 1.616 0 2.56-1.008 2.56-2.672v-.208h-2.256c-1.2 0-1.984.576-1.984 1.52Zm11.245-4.608c-1.632 0-2.112 1.472-2.112 3.376V372h-1.28v-8.064h1.28v1.632c.352-1.104 1.008-1.632 2.192-1.632h1.024v1.136h-1.104Z"/><path stroke="#fff" stroke-linecap="round" stroke-linejoin="round" stroke-width="2" d="m298 363 6 6 6-6"/><rect width="272" height="48" x="56" y="398" fill="#E0E0EE" fill-opacity=".06" rx="16"/><rect width="42" height="20" x="68" y="412" fill="#E0E0EE" fill-opacity=".06" rx="4"/><path fill="#fff" d="M81.107 427.106c-2.327 0-4.482-1.556-4.482-4.761 0-3.219 2.168-4.761 4.482-4.761 2.035 0 3.684 1.263 3.937 3.005H83.86c-.173-1.143-1.33-1.981-2.753-1.981-1.942 0-3.311 1.316-3.311 3.737 0 2.421 1.37 3.737 3.311 3.737 1.45 0 2.62-.838 2.767-1.981h1.157c-.2 1.742-1.849 3.005-3.924 3.005Zm8.47 0c-2.089 0-3.419-1.25-3.538-3.152h1.117c.12 1.29.97 2.128 2.42 2.128 1.29 0 2.235-.492 2.235-1.622 0-2.394-5.453-1.078-5.453-4.403 0-1.476 1.29-2.473 3.152-2.473s3.152 1.077 3.285 2.753h-1.117c-.107-1.051-.918-1.729-2.168-1.729s-2.009.558-2.009 1.449c0 2.381 5.48.905 5.48 4.403 0 1.689-1.45 2.646-3.405 2.646Zm7.37-.106-3.512-9.31h1.157l2.926 7.993 2.953-7.993h1.157L98.104 427h-1.157Z"/><path fill="#FCFCFD" fill-opacity=".98" d="M123.36 428v-11.2h3.296c3.136 0 5.6 2.032 5.6 5.6 0 3.568-2.464 5.6-5.6 5.6h-3.296Zm1.376-1.232h1.904c2.176 0 4.192-1.28 4.192-4.368s-2.016-4.368-4.192-4.368h-1.904v8.736Zm12.985 1.36c-2.384 0-4.096-1.744-4.096-4.16 0-2.432 1.712-4.16 4.096-4.16 2.4 0 4.112 1.728 4.112 4.16 0 2.416-1.712 4.16-4.112 4.16Zm-2.784-4.16c0 1.76 1.136 3.008 2.784 3.008 1.664 0 2.8-1.248 2.8-3.008s-1.136-3.008-2.8-3.008c-1.648 0-2.784 1.248-2.784 3.008ZM145.223 428l-2.448-8.064h1.28l1.776 6.4 1.984-6.4h1.248l1.968 6.4 1.76-6.4h1.296L151.639 428h-1.232l-1.984-6.416-1.968 6.416h-1.232Zm10.462 0v-8.064h1.28v1.552c.432-1.12 1.424-1.68 2.672-1.68 1.824 0 3.008 1.296 3.008 3.264V428h-1.28v-4.72c0-1.376-.8-2.304-2.016-2.304-1.392 0-2.384 1.104-2.384 2.672V428h-1.28Zm9.281 0v-11.376h1.28V428h-1.28Zm7.27.128c-2.384 0-4.096-1.744-4.096-4.16 0-2.432 1.712-4.16 4.096-4.16 2.4 0 4.112 1.728 4.112 4.16 0 2.416-1.712 4.16-4.112 4.16Zm-2.784-4.16c0 1.76 1.136 3.008 2.784 3.008 1.664 0 2.8-1.248 2.8-3.008s-1.136-3.008-2.8-3.008c-1.648 0-2.784 1.248-2.784 3.008Zm11.18 4.16c-1.696 0-2.8-.96-2.8-2.432 0-1.536 1.264-2.512 3.216-2.512h1.824c.352 0 .512-.176.512-.432 0-1.104-.784-1.856-2.16-1.856-1.184 0-2.112.736-2.176 1.616h-1.216c.144-1.552 1.616-2.704 3.424-2.704 2.096 0 3.408 1.2 3.408 2.992v5.2h-1.28v-1.392c-.432.928-1.504 1.52-2.752 1.52Zm-1.488-2.448c0 .832.656 1.36 1.68 1.36 1.616 0 2.56-1.008 2.56-2.672v-.208h-2.256c-1.2 0-1.984.576-1.984 1.52Zm11.197 2.448c-2.512 0-3.888-1.808-3.888-4.16 0-2.352 1.376-4.16 3.888-4.16 1.136 0 2.192.576 2.672 1.44v-4.624h1.28V428h-1.28v-1.328c-.48.88-1.536 1.456-2.672 1.456Zm-2.56-4.16c0 1.824 1.056 3.008 2.672 3.008s2.672-1.184 2.672-3.008-1.056-3.008-2.672-3.008-2.672 1.184-2.672 3.008Z"/><path stroke="#fff" stroke-linecap="round" stroke-linejoin="round" stroke-width="2" d="M313 425v1.2c0 1.68 0 2.52-.327 3.162a3.009 3.009 0 0 1-1.311 1.311c-.642.327-1.482.327-3.162.327h-8.4c-1.68 0-2.52 0-3.162-.327a3.009 3.009 0 0 1-1.311-1.311C295 428.72 295 427.88 295 426.2V425m14-5-5 5m0 0-5-5m5 5v-12"/></g></g><defs><clipPath id="a"><path fill="#fff" d="M0 0h672v683H0z"/></clipPath><clipPath id="b"><rect width="24" height="24" x="241" y="158" fill="#fff" rx="12"/></clipPath><clipPath id="c"><path fill="#fff" d="M217 302c0-8.837 7.163-16 16-16h592c8.837 0 16 7.163 16 16v176c0 8.837-7.163 16-16 16H233c-8.837 0-16-7.163-16-16V302Z"/></clipPath><clipPath id="g"><path fill="#fff" d="M217 554c0-8.837 7.163-16 16-16h592c8.837 0 16 7.163 16 16v384c0 8.837-7.163 16-16 16H233c-8.837 0-16-7.163-16-16V554Z"/></clipPath><clipPath id="i"><path fill="#fff" d="M245 556h16v16h-16z"/></clipPath><filter id="l" width="360" height="228" x="12" y="267" color-interpolation-filters="sRGB" filterUnits="userSpaceOnUse"><feFlood flood-opacity="0" result="BackgroundImageFix"/><feColorMatrix in="SourceAlpha" result="hardAlpha" values="0 0 0 0 0 0 0 0 0 0 0 0 0 0 0 0 0 0 127 0"/><feMorphology in="SourceAlpha" radius="6" result="effect1_dropShadow_2483_67000"/><feOffset dy="8"/><feGaussianBlur stdDeviation="5"/><feComposite in2="hardAlpha" operator="out"/><feColorMatrix values="0 0 0 0 0 0 0 0 0 0 0 0 0 0 0 0 0 0 0.1 0"/><feBlend in2="BackgroundImageFix" result="effect1_dropShadow_2483_67000"/><feColorMatrix in="SourceAlpha" result="hardAlpha" values="0 0 0 0 0 0 0 0 0 0 0 0 0 0 0 0 0 0 127 0"/><feMorphology in="SourceAlpha" radius="5" result="effect2_dropShadow_2483_67000"/><feOffset dy="5"/><feGaussianBlur stdDeviation="16.5"/><feComposite in2="hardAlpha" operator="out"/><feColorMatrix values="0 0 0 0 0 0 0 0 0 0 0 0 0 0 0 0 0 0 0.1 0"/><feBlend in2="effect1_dropShadow_2483_67000" result="effect2_dropShadow_2483_67000"/><feBlend in="SourceGraphic" in2="effect2_dropShadow_2483_67000" result="shape"/></filter></defs></svg>