<svg xmlns="http://www.w3.org/2000/svg" width="48" height="48" fill="none"><rect width="48" height="48" fill="#000" rx="8"/><g clip-path="url(#a)"><path fill="#F79410" d="M38.247 29.58v-.349h-.091l-.105.24-.105-.24h-.091v.35h.064v-.264l.099.228h.067l.098-.228v.264h.064Zm-.577 0v-.289h.116v-.059h-.297v.06h.116v.289h.064Z"/><path fill="#FF5F00" d="M27.902 31.08h-7.877V16.925h7.877V31.08Z"/><path fill="#EB001B" d="M20.525 24.003a8.988 8.988 0 0 1 3.438-7.078 9.002 9.002 0 0 0-14.564 7.078 9.002 9.002 0 0 0 14.564 7.077 8.987 8.987 0 0 1-3.438-7.077Z"/><path fill="#F79E1B" d="M38.528 24.003a9.002 9.002 0 0 1-14.565 7.077 8.986 8.986 0 0 0 3.439-7.077 8.986 8.986 0 0 0-3.439-7.078 9.002 9.002 0 0 1 14.565 7.078"/></g><defs><clipPath id="a"><path fill="#fff" d="M9.398 15h29.126v18H9.398z"/></clipPath></defs></svg>