<svg xmlns="http://www.w3.org/2000/svg" width="337" height="74" fill="none"><g clip-path="url(#a)"><path fill="#fff" d="M33.998 27a6.984 6.984 0 0 1 5.497 2.67 19.008 19.008 0 0 1 5.008-9.035A16.93 16.93 0 0 0 33.997 17C24.608 17 17 24.613 17 34c0 9.388 7.608 17 16.998 17 1.74 0 3.417-.263 5-.748V38.897A6.996 6.996 0 0 1 27 34a6.997 6.997 0 0 1 6.998-6.999ZM46.5 46.63c1.218 1.097 2.718 2.023 4.215 2.735A16.938 16.938 0 0 0 57.997 51c1.74 0 3.418-.263 4.998-.748V38.897A6.998 6.998 0 0 1 50.998 34H46.5v12.631Z" opacity=".6"/><path fill="url(#b)" d="M68.502 20.635a19.008 19.008 0 0 0-5.007 9.035A6.98 6.98 0 0 0 58 27a7 7 0 0 0-7 7h-9.998c0-9.387 7.605-17 16.995-17 3.963 0 7.61 1.358 10.503 3.635h.002Z"/><path fill="#fff" fill-rule="evenodd" d="M41.002 57V33.75h10V47c0 5.523-4.477 10-10 10Z" clip-rule="evenodd"/><path fill="url(#c)" d="M82 17c-9.39 0-17 7.613-17 17 0 9.388 7.61 17 17 17s17-7.61 17-17-7.612-17-17-17Zm0 24c-3.868 0-7-3.133-7-7s3.132-7 7-7a7 7 0 1 1 0 14Z"/><path fill="#fff" d="M65 34h10v13.055C75 52.545 70.543 57 65.055 57H65V34Z"/></g><path fill="#fff" d="M123.519 41.154c-3.913 0-6.79-2.916-6.79-6.867s2.877-6.866 6.79-6.866c3.874 0 6.77 2.915 6.77 6.866 0 3.951-2.896 6.867-6.77 6.867Zm-4.239-6.867c0 2.685 1.764 4.66 4.219 4.66s4.239-1.975 4.239-4.66-1.784-4.68-4.239-4.68-4.219 1.995-4.219 4.68ZM132.099 41v-9.667h2.359v1.496c.518-1.055 1.63-1.65 3.011-1.65 2.167 0 3.587 1.574 3.587 3.837V41h-2.34v-5.485c0-1.324-.825-2.245-2.033-2.245-1.305 0-2.225 1.036-2.225 2.455V41h-2.359Zm11.238 0V27.19h2.359V41h-2.359Zm4.739 0v-9.667h2.359V41h-2.359Zm-.077-11.182V27.19h2.532v2.628h-2.532ZM152.815 41v-9.667h2.359v1.496c.518-1.055 1.63-1.65 3.011-1.65 2.167 0 3.587 1.574 3.587 3.837V41h-2.34v-5.485c0-1.324-.825-2.245-2.033-2.245-1.305 0-2.225 1.036-2.225 2.455V41h-2.359Zm15.592.154c-3.165 0-4.93-2.494-4.93-5.026 0-2.55 1.573-4.948 4.738-4.948 3.241 0 4.699 2.359 4.699 4.66 0 .327-.019.614-.038.806h-7.135c.172 1.554 1.17 2.551 2.666 2.551 1.208 0 1.994-.499 2.244-1.42h2.301c-.364 2.053-2.167 3.377-4.545 3.377Zm-2.609-6.061h4.757c-.096-1.228-.94-2.149-2.34-2.149-1.324 0-2.167.69-2.417 2.149ZM179.192 41V27.574h5.37c2.82 0 4.469 1.726 4.469 4.162s-1.649 4.162-4.469 4.162h-2.838V41h-2.532Zm2.532-7.23h2.723c1.496 0 2.11-.96 2.11-2.034 0-1.074-.614-2.033-2.11-2.033h-2.723v4.066Zm11.408 7.384c-1.899 0-3.203-1.228-3.203-2.897 0-1.88 1.438-3.05 3.625-3.05h1.784c.46 0 .69-.268.69-.651 0-.94-.71-1.612-1.956-1.612-1.247 0-1.995.787-2.033 1.65h-2.129c.134-1.918 1.764-3.414 4.258-3.414 2.474 0 4.2 1.42 4.2 3.606V41h-2.34v-1.438c-.383.959-1.515 1.592-2.896 1.592Zm-.921-2.993c0 .748.595 1.247 1.477 1.247 1.477 0 2.34-1.036 2.34-2.493v-.154h-2.167c-.998 0-1.65.556-1.65 1.4Zm9.349 6.752 1.381-3.932-3.529-9.648h2.397l2.225 6.637 2.225-6.637h2.417l-2.954 8.094-1.918 5.486h-2.244ZM210.074 41v-9.667h2.359v1.516c.46-.979 1.438-1.67 2.781-1.67 1.534 0 2.589.653 3.03 1.842.441-.997 1.669-1.841 3.203-1.841 2.091 0 3.434 1.515 3.434 3.567V41h-2.36v-5.543c0-1.362-.709-2.263-1.841-2.263-1.247 0-2.033.901-2.033 2.263V41h-2.34v-5.543c0-1.362-.71-2.263-1.841-2.263-1.266 0-2.033.901-2.033 2.263V41h-2.359Zm21.417.154c-3.165 0-4.929-2.494-4.929-5.026 0-2.55 1.572-4.948 4.737-4.948 3.242 0 4.699 2.359 4.699 4.66 0 .327-.019.614-.038.806h-7.135c.173 1.554 1.17 2.551 2.666 2.551 1.208 0 1.995-.499 2.244-1.42h2.302c-.365 2.053-2.168 3.377-4.546 3.377Zm-2.609-6.061h4.757c-.096-1.228-.94-2.149-2.34-2.149-1.323 0-2.167.69-2.417 2.149ZM237.87 41v-9.667h2.359v1.496c.518-1.055 1.63-1.65 3.011-1.65 2.167 0 3.587 1.574 3.587 3.837V41h-2.34v-5.485c0-1.324-.825-2.245-2.033-2.245-1.305 0-2.225 1.036-2.225 2.455V41h-2.359Zm12.009-12.582h2.359v2.915h2.685v1.976h-2.685v4.22c0 .978.518 1.476 1.4 1.476h1.285V41h-1.554c-2.109 0-3.49-1.227-3.49-3.376V33.31h-1.899v-1.976h1.899v-2.915ZM261.007 41V27.574h5.37c2.82 0 4.469 1.726 4.469 4.162s-1.649 4.162-4.469 4.162h-2.839V41h-2.531Zm2.531-7.23h2.724c1.496 0 2.11-.96 2.11-2.034 0-1.074-.614-2.033-2.11-2.033h-2.724v4.066Zm8.871 7.23V27.19h2.359V41h-2.359Zm7.539.154c-1.899 0-3.203-1.228-3.203-2.897 0-1.88 1.438-3.05 3.625-3.05h1.783c.461 0 .691-.268.691-.651 0-.94-.71-1.612-1.956-1.612-1.247 0-1.995.787-2.034 1.65h-2.129c.135-1.918 1.765-3.414 4.258-3.414 2.475 0 4.201 1.42 4.201 3.606V41h-2.34v-1.438c-.384.959-1.515 1.592-2.896 1.592Zm-.921-2.993c0 .748.595 1.247 1.477 1.247 1.477 0 2.34-1.036 2.34-2.493v-.154h-2.167c-.998 0-1.65.556-1.65 1.4Zm9.193-9.743h2.359v2.915h2.685v1.976h-2.685v4.22c0 .978.518 1.476 1.4 1.476h1.285V41h-1.553c-2.11 0-3.491-1.227-3.491-3.376V33.31h-1.899v-1.976h1.899v-2.915ZM295.939 41v-7.691h-1.899v-1.976h1.899v-.901c0-1.956 1.361-3.242 3.452-3.242h1.726v1.995h-1.457c-.825 0-1.362.518-1.362 1.362v.786h2.819v1.976h-2.819V41h-2.359Zm10.739.154c-2.954 0-5.063-2.11-5.063-4.987 0-2.877 2.109-4.987 5.063-4.987 2.935 0 5.045 2.11 5.045 4.987 0 2.877-2.11 4.986-5.045 4.986Zm-2.685-4.987c0 1.745 1.074 2.953 2.685 2.953 1.592 0 2.666-1.208 2.666-2.953 0-1.746-1.074-2.954-2.666-2.954-1.611 0-2.685 1.208-2.685 2.954Zm13.979-2.858c-1.515 0-2.091 1.285-2.091 3.126V41h-2.359v-9.667h2.359v1.707c.48-1.227 1.228-1.707 2.474-1.707h1.132v1.976h-1.515Zm2.93 7.691v-9.667h2.359v1.516c.46-.979 1.438-1.67 2.781-1.67 1.534 0 2.589.653 3.03 1.842.442-.997 1.669-1.841 3.204-1.841 2.09 0 3.433 1.515 3.433 3.567V41h-2.359v-5.543c0-1.362-.71-2.263-1.842-2.263-1.246 0-2.033.901-2.033 2.263V41h-2.34v-5.543c0-1.362-.709-2.263-1.841-2.263-1.266 0-2.033.901-2.033 2.263V41h-2.359Z"/><defs><linearGradient id="b" x1="54.752" x2="54.752" y1="34" y2="17" gradientUnits="userSpaceOnUse"><stop offset=".1" stop-color="#fff"/><stop offset="1" stop-color="#fff" stop-opacity=".75"/></linearGradient><linearGradient id="c" x1="82" x2="82" y1="17.205" y2="50.712" gradientUnits="userSpaceOnUse"><stop offset=".5" stop-color="#fff"/><stop offset="1" stop-color="#fff" stop-opacity=".6"/></linearGradient><clipPath id="a"><path fill="#fff" d="M17 17h82v40H17z"/></clipPath></defs></svg>