<svg xmlns="http://www.w3.org/2000/svg" width="228" height="28" fill="none"><g clip-path="url(#a)"><path fill="#fff" d="M11.898 7c1.561 0 2.953.731 3.848 1.869a13.306 13.306 0 0 1 3.506-6.324A11.852 11.852 0 0 0 11.898 0C5.325 0 0 5.329 0 11.9c0 6.571 5.325 11.9 11.898 11.9 1.218 0 2.393-.184 3.5-.523v-7.949A4.897 4.897 0 0 1 7 11.9C7 9.193 9.193 7 11.898 7Zm8.758 13.74c.853.77 1.902 1.417 2.95 1.915a11.855 11.855 0 0 0 5.098 1.145 11.9 11.9 0 0 0 3.499-.523v-7.949a4.899 4.899 0 0 1-8.398-3.428h-3.149v8.84Z" opacity=".6"/><path fill="url(#b)" d="M36.055 2.545a13.306 13.306 0 0 0-3.506 6.324A4.885 4.885 0 0 0 28.703 7a4.9 4.9 0 0 0-4.9 4.9h-6.998C16.805 5.329 22.128 0 28.7 0c2.774 0 5.327.95 7.352 2.545h.002Z"/><path fill="#fff" fill-rule="evenodd" d="M16.805 28V11.725h7V21a7 7 0 0 1-7 7Z" clip-rule="evenodd"/><path fill="url(#c)" d="M45.502 0c-6.573 0-11.9 5.329-11.9 11.9 0 6.571 5.327 11.9 11.9 11.9s11.9-5.327 11.9-11.9S52.072 0 45.502 0Zm0 16.8a4.899 4.899 0 0 1-4.9-4.9 4.9 4.9 0 1 1 4.9 4.9Z"/><path fill="#fff" d="M33.602 11.9h7v9.138A6.965 6.965 0 0 1 33.64 28h-.038V11.9Z"/></g><path fill="#fff" d="M66.968 9.749c1.14-.042 2.064.29 2.774.997.714.706 1.07 1.59 1.07 2.652 0 .907-.265 1.705-.796 2.394-.703.914-1.696 1.371-2.98 1.371-1.286 0-2.28-.436-2.984-1.307-.556-.69-.833-1.507-.833-2.453 0-1.061.36-1.945 1.08-2.652.725-.71 1.614-1.044 2.67-1.002Zm.063.337c-.654 0-1.15.335-1.492 1.002-.278.549-.416 1.336-.416 2.363 0 1.22.214 2.122.643 2.705.299.408.717.612 1.255.612.362 0 .664-.088.907-.264.31-.225.55-.583.722-1.076.173-.495.259-1.14.259-1.935 0-.946-.088-1.652-.264-2.12-.176-.47-.4-.803-.675-.996a1.573 1.573 0 0 0-.939-.29Zm6.861-.237 3.528 4.435V11.21c0-.43-.061-.72-.184-.87-.17-.204-.452-.303-.85-.296V9.85h2.363v.195c-.302.039-.506.09-.612.153a.608.608 0 0 0-.242.3c-.056.138-.085.375-.085.713v5.953h-.179l-4.836-5.953v4.545c0 .412.093.69.28.834.19.144.406.216.648.216h.17V17h-2.537v-.195c.393-.004.668-.084.822-.243.155-.158.232-.427.232-.807V10.71l-.153-.19c-.15-.19-.284-.315-.4-.374-.116-.06-.283-.094-.501-.1V9.85h2.536Zm11.934 4.64L85.557 17h-6.35v-.195h.238a.988.988 0 0 0 .501-.11.48.48 0 0 0 .211-.254c.039-.084.058-.306.058-.664v-4.704c0-.366-.02-.595-.058-.686a.513.513 0 0 0-.237-.237c-.116-.07-.275-.106-.475-.106h-.237V9.85h3.813v.195h-.312a.99.99 0 0 0-.5.111.504.504 0 0 0-.217.253c-.038.085-.058.306-.058.665v4.556c0 .366.021.6.064.701a.422.422 0 0 0 .247.222c.088.031.3.047.638.047h.596c.38 0 .696-.067.95-.2a1.75 1.75 0 0 0 .653-.633c.187-.288.363-.714.528-1.276h.216Zm4.34 2.316V17h-3.739v-.195h.237a.988.988 0 0 0 .501-.11.48.48 0 0 0 .211-.254c.039-.084.058-.306.058-.664v-4.704c0-.366-.019-.595-.058-.686a.514.514 0 0 0-.237-.237c-.116-.07-.274-.106-.474-.106h-.238V9.85h3.739v.195h-.237a.99.99 0 0 0-.501.111.505.505 0 0 0-.216.253c-.04.085-.059.306-.059.665v4.704c0 .365.02.594.058.685a.578.578 0 0 0 .238.243c.12.067.28.1.48.1h.237Zm2.943-6.956 3.528 4.435V11.21c0-.43-.062-.72-.185-.87-.169-.204-.452-.303-.85-.296V9.85h2.363v.195c-.302.039-.506.09-.611.153a.608.608 0 0 0-.243.3c-.056.138-.084.375-.084.713v5.953h-.18l-4.835-5.953v4.545c0 .412.093.69.28.834.19.144.405.216.648.216h.169V17h-2.537v-.195c.394-.004.668-.084.823-.243.154-.158.232-.427.232-.807V10.71l-.153-.19c-.151-.19-.285-.315-.401-.374-.116-.06-.283-.094-.5-.1V9.85h2.536Zm8.057.412v2.91h.143c.453 0 .782-.142.986-.427.204-.284.334-.704.39-1.26h.201v3.744h-.201c-.042-.408-.132-.742-.269-1.002-.133-.26-.29-.434-.469-.522-.179-.091-.44-.137-.781-.137v2.014c0 .394.016.635.048.723.035.088.098.16.19.216.091.056.239.085.443.085h.427c.668 0 1.202-.155 1.603-.465.404-.309.694-.78.87-1.413h.195L104.621 17H98.44v-.195h.237a.988.988 0 0 0 .501-.11.48.48 0 0 0 .211-.254c.039-.084.058-.306.058-.664v-4.704c0-.324-.008-.522-.026-.596a.505.505 0 0 0-.195-.285c-.134-.098-.317-.148-.549-.148h-.237V9.85h5.985v2.115h-.2c-.102-.517-.246-.888-.432-1.113-.183-.225-.443-.39-.781-.496-.197-.063-.566-.095-1.107-.095h-.739Zm9.878 3.501v1.983c0 .387.022.631.068.733a.54.54 0 0 0 .253.237c.123.06.347.09.67.09V17h-3.633v-.195c.33 0 .553-.03.669-.09a.534.534 0 0 0 .248-.242c.049-.099.074-.341.074-.728v-4.64c0-.387-.025-.63-.074-.728a.504.504 0 0 0-.248-.243c-.119-.06-.342-.09-.669-.09V9.85h3.116c1.027 0 1.763.183 2.21.549.446.365.669.822.669 1.37 0 .465-.144.862-.432 1.192-.288.331-.686.556-1.192.675-.341.085-.917.127-1.729.127Zm0-3.502v3.09c.116.008.203.011.263.011.429 0 .76-.126.992-.38.232-.256.348-.652.348-1.186 0-.53-.116-.92-.348-1.165-.232-.246-.579-.37-1.039-.37h-.216Zm8.179 4.704h-2.526l-.301.697c-.098.232-.148.423-.148.574 0 .2.081.348.243.443.095.057.329.099.701.127V17h-2.378v-.195a1.07 1.07 0 0 0 .633-.317c.165-.175.369-.536.612-1.08l2.557-5.706h.1l2.579 5.864c.246.555.448.905.607 1.049.119.109.288.172.506.19V17h-3.46v-.195h.143c.278 0 .473-.039.585-.116a.28.28 0 0 0 .116-.243.648.648 0 0 0-.031-.195 4.838 4.838 0 0 0-.159-.395l-.379-.892Zm-.18-.39-1.065-2.463-1.097 2.463h2.162Zm11.169-4.725v.195c-.235.032-.416.1-.543.206-.175.148-.453.55-.833 1.208l-1.55 2.589v1.73c0 .369.019.599.058.69a.55.55 0 0 0 .227.238.91.91 0 0 0 .458.1h.401V17h-4.013v-.195h.374c.211 0 .378-.037.501-.11a.504.504 0 0 0 .217-.254c.038-.084.058-.306.058-.664v-1.435l-1.683-3.064c-.334-.604-.569-.96-.706-1.065-.137-.109-.32-.165-.549-.169V9.85h3.428v.195h-.153c-.207 0-.353.03-.438.09-.08.06-.121.123-.121.19 0 .126.141.445.422.954l1.292 2.368 1.287-2.157c.32-.527.48-.877.48-1.05 0-.094-.046-.173-.138-.236-.119-.088-.339-.141-.659-.159V9.85h2.183Zm5.274 4.715 1.941-4.715h2.91v.195h-.232c-.21 0-.379.037-.506.111a.516.516 0 0 0-.211.248c-.038.084-.058.304-.058.66v4.714c0 .365.02.594.058.685a.54.54 0 0 0 .238.243.98.98 0 0 0 .479.1h.232V17h-3.733v-.195h.232c.211 0 .38-.037.506-.11a.514.514 0 0 0 .211-.254c.039-.084.058-.306.058-.664v-5.3L134.869 17h-.127l-2.784-6.476v5.036c0 .352.009.568.026.649a.77.77 0 0 0 .296.432c.154.11.395.164.722.164V17h-2.447v-.195h.074c.158.003.306-.021.443-.074a.73.73 0 0 0 .311-.221c.071-.092.125-.22.164-.385.007-.04.01-.218.01-.538v-4.525c0-.362-.019-.587-.058-.675a.512.512 0 0 0-.237-.237.946.946 0 0 0-.48-.106h-.227V9.85h2.922l2.009 4.715Zm7.994-4.303v2.91h.143c.453 0 .782-.142.986-.427.204-.284.334-.704.39-1.26h.201v3.744h-.201c-.042-.408-.132-.742-.269-1.002-.133-.26-.29-.434-.469-.522-.179-.091-.44-.137-.781-.137v2.014c0 .394.016.635.048.723.035.088.098.16.19.216.091.056.239.085.443.085h.427c.668 0 1.202-.155 1.603-.465.404-.309.694-.78.87-1.413h.195L146.935 17h-6.181v-.195h.237a.995.995 0 0 0 .501-.11.477.477 0 0 0 .211-.254c.039-.084.058-.306.058-.664v-4.704c0-.324-.008-.522-.026-.596a.503.503 0 0 0-.195-.285c-.134-.098-.317-.148-.549-.148h-.237V9.85h5.985v2.115h-.2c-.102-.517-.246-.888-.432-1.113-.183-.225-.443-.39-.781-.496-.197-.063-.566-.095-1.107-.095h-.739Zm6.951-.412 3.528 4.435V11.21c0-.43-.062-.72-.185-.87-.169-.204-.452-.303-.849-.296V9.85h2.363v.195c-.303.039-.507.09-.612.153a.609.609 0 0 0-.243.3c-.056.138-.084.375-.084.713v5.953h-.179l-4.836-5.953v4.545c0 .412.093.69.279.834.19.144.407.216.649.216h.169V17h-2.537v-.195c.394-.004.668-.084.823-.243.155-.158.232-.427.232-.807V10.71l-.153-.19c-.151-.19-.285-.315-.401-.374-.116-.06-.283-.094-.501-.1V9.85h2.537Zm11.928 0v1.936h-.189c-.113-.447-.238-.767-.375-.96a1.431 1.431 0 0 0-.564-.47c-.134-.063-.368-.095-.702-.095h-.532v5.517c0 .365.019.594.058.685a.576.576 0 0 0 .237.243c.12.067.281.1.485.1h.238V17h-3.744v-.195h.237a.99.99 0 0 0 .501-.11.507.507 0 0 0 .216-.254c.039-.084.058-.306.058-.664V10.26h-.517c-.481 0-.831.102-1.049.305-.306.285-.499.691-.58 1.219h-.201V9.849h6.423Zm6.007 3.913v1.983c0 .387.023.631.068.733.05.098.134.177.253.237.124.06.347.09.67.09V17h-3.633v-.195c.33 0 .554-.03.67-.09a.532.532 0 0 0 .247-.242c.05-.099.074-.341.074-.728v-4.64c0-.387-.024-.63-.074-.728a.502.502 0 0 0-.247-.243c-.12-.06-.343-.09-.67-.09V9.85h3.116c1.027 0 1.764.183 2.21.549.446.365.67.822.67 1.37 0 .465-.144.862-.433 1.192-.288.331-.685.556-1.192.675-.341.085-.917.127-1.729.127Zm0-3.502v3.09c.116.008.204.011.263.011.429 0 .76-.126.992-.38.232-.256.348-.652.348-1.186 0-.53-.116-.92-.348-1.165-.232-.246-.578-.37-1.039-.37h-.216Zm10.505 4.23-.269 2.51h-6.35v-.195h.238a.99.99 0 0 0 .501-.11.486.486 0 0 0 .211-.254c.038-.084.058-.306.058-.664v-4.704c0-.366-.02-.595-.058-.686a.515.515 0 0 0-.238-.237c-.116-.07-.274-.106-.474-.106h-.238V9.85h3.813v.195h-.311c-.208 0-.375.037-.501.111a.502.502 0 0 0-.216.253c-.039.085-.058.306-.058.665v4.556c0 .366.021.6.063.701a.422.422 0 0 0 .248.222c.088.031.3.047.638.047h.596c.38 0 .696-.067.949-.2a1.76 1.76 0 0 0 .654-.633c.186-.288.362-.714.527-1.276h.217Zm4.877.474h-2.526l-.3.697c-.099.232-.148.423-.148.574 0 .2.081.348.243.443.095.057.329.099.701.127V17h-2.378v-.195c.256-.039.467-.144.633-.317.165-.175.369-.536.611-1.08l2.558-5.706h.1l2.579 5.864c.246.555.448.905.606 1.049.12.109.289.172.507.19V17h-3.46v-.195h.143c.277 0 .472-.039.585-.116a.283.283 0 0 0 .116-.243.65.65 0 0 0-.032-.195 4.62 4.62 0 0 0-.158-.395l-.38-.892Zm-.179-.39-1.065-2.463-1.097 2.463h2.162Zm10.304-4.725v1.936h-.189c-.113-.447-.238-.767-.375-.96a1.431 1.431 0 0 0-.564-.47c-.134-.063-.367-.095-.701-.095h-.533v5.517c0 .365.019.594.058.685a.576.576 0 0 0 .237.243c.12.067.281.1.485.1h.238V17h-3.744v-.195h.237a.99.99 0 0 0 .501-.11.507.507 0 0 0 .216-.254c.039-.084.058-.306.058-.664V10.26h-.517c-.481 0-.831.102-1.049.305-.306.285-.499.691-.58 1.219h-.201V9.849h6.423Zm3.36.412v2.937h.205c.317 0 .575-.048.775-.143.201-.095.37-.254.507-.48.14-.224.232-.528.274-.912h.185v3.591h-.185c-.067-.678-.25-1.124-.549-1.339a1.652 1.652 0 0 0-1.007-.327h-.205v2.189c0 .365.019.594.058.685a.576.576 0 0 0 .237.243c.119.067.279.1.48.1h.237V17h-3.739v-.195h.238a.99.99 0 0 0 .501-.11.48.48 0 0 0 .21-.254c.039-.084.058-.306.058-.664v-4.704c0-.366-.019-.595-.058-.686a.508.508 0 0 0-.237-.237c-.116-.07-.274-.106-.474-.106h-.238V9.85h6.033v2.052h-.216c-.049-.482-.176-.839-.38-1.07-.2-.233-.492-.396-.875-.491-.211-.053-.601-.08-1.171-.08h-.664Zm7.804-.512c1.139-.042 2.064.29 2.774.997.714.706 1.071 1.59 1.071 2.652 0 .907-.266 1.705-.797 2.394-.703.914-1.696 1.371-2.979 1.371-1.287 0-2.282-.436-2.985-1.307-.555-.69-.833-1.507-.833-2.453 0-1.061.36-1.945 1.081-2.652.724-.71 1.614-1.044 2.668-1.002Zm.064.337c-.654 0-1.152.335-1.493 1.002-.278.549-.416 1.336-.416 2.363 0 1.22.214 2.122.643 2.705.299.408.717.612 1.255.612.362 0 .664-.088.907-.264.309-.225.55-.583.723-1.076.172-.495.258-1.14.258-1.935 0-.946-.088-1.652-.264-2.12-.176-.47-.401-.803-.675-.996a1.57 1.57 0 0 0-.938-.29Zm7.04 3.655v2.004c0 .387.022.631.068.733a.54.54 0 0 0 .253.237c.12.06.343.09.67.09V17h-3.66v-.195c.331 0 .554-.03.67-.09a.534.534 0 0 0 .248-.242c.049-.099.074-.341.074-.728v-4.64c0-.387-.025-.63-.074-.728a.504.504 0 0 0-.248-.243c-.12-.06-.343-.09-.67-.09V9.85h3.323c.864 0 1.497.06 1.898.18.401.119.728.34.981.664.253.32.38.696.38 1.129 0 .527-.19.963-.57 1.307-.243.218-.582.382-1.018.49l1.719 2.421c.225.313.385.508.48.586a.893.893 0 0 0 .501.179V17h-2.252l-2.304-3.259h-.469Zm0-3.507v3.133h.3c.489 0 .854-.044 1.097-.132a1.1 1.1 0 0 0 .57-.485c.14-.236.211-.542.211-.918 0-.545-.129-.947-.385-1.208-.254-.26-.663-.39-1.229-.39h-.564Zm10.082 4.33 1.941-4.715h2.911v.195h-.232c-.211 0-.38.037-.506.111a.516.516 0 0 0-.211.248c-.039.084-.058.304-.058.66v4.714c0 .365.019.594.058.685a.537.537 0 0 0 .237.243c.12.067.28.1.48.1h.232V17h-3.734v-.195h.232c.211 0 .38-.037.507-.11a.514.514 0 0 0 .211-.254c.038-.084.058-.306.058-.664v-5.3L221.606 17h-.126l-2.785-6.476v5.036c0 .352.009.568.027.649.046.176.144.32.295.432.155.11.396.164.723.164V17h-2.447v-.195h.074a1.16 1.16 0 0 0 .443-.074.736.736 0 0 0 .311-.221c.07-.092.124-.22.163-.385a6.41 6.41 0 0 0 .011-.538v-4.525c0-.362-.02-.587-.058-.675a.515.515 0 0 0-.238-.237.942.942 0 0 0-.479-.106h-.227V9.85h2.921l2.009 4.715Z"/><defs><linearGradient id="b" x1="26.43" x2="26.43" y1="11.9" y2="0" gradientUnits="userSpaceOnUse"><stop offset=".1" stop-color="#fff"/><stop offset="1" stop-color="#fff" stop-opacity=".75"/></linearGradient><linearGradient id="c" x1="45.502" x2="45.502" y1=".143" y2="23.599" gradientUnits="userSpaceOnUse"><stop offset=".5" stop-color="#fff"/><stop offset="1" stop-color="#fff" stop-opacity=".6"/></linearGradient><clipPath id="a"><path fill="#fff" d="M0 0h57.4v28H0z"/></clipPath></defs></svg>