<svg xmlns="http://www.w3.org/2000/svg" width="464" height="297" fill="none"><g clip-path="url(#a)"><path fill="#4642FF" d="M135.99 108c8.92 0 16.87 4.18 21.99 10.68 3.25-13.89 10.32-26.33 20.03-36.14C166.43 73.43 151.84 68 135.99 68 98.43 68 68 98.45 68 136s30.43 68 67.99 68c6.96 0 13.67-1.05 20-2.99v-45.42a27.91 27.91 0 0 1-20 8.41c-15.47 0-27.99-12.53-27.99-28s12.53-28 27.99-28Zm50.009 78.52c4.87 4.39 10.87 8.09 16.86 10.94 8.83 4.19 18.7 6.54 29.13 6.54 6.96 0 13.67-1.05 19.99-2.99v-45.42c-5.08 5.19-12.16 8.41-19.99 8.41-15.47 0-28-12.53-28-28h-17.99v50.52Z"/><path fill="url(#b)" d="M274.009 82.54c-9.71 9.81-16.78 22.25-20.03 36.14-5.12-6.5-13.06-10.68-21.98-10.68-15.47 0-28 12.54-28 28h-39.99c0-37.55 30.42-68 67.98-68 15.85 0 30.44 5.43 42.01 14.54h.01Z"/><path fill="#80AEFF" fill-rule="evenodd" d="M164.009 228v-93h40v53c0 22.09-17.91 40-40 40Z" clip-rule="evenodd"/><path fill="url(#c)" d="M327.999 68c-37.56 0-68 30.45-68 68s30.44 68 68 68 68-30.44 68-68-30.45-68-68-68Zm0 96c-15.47 0-28-12.53-28-28s12.53-28 28-28 28 12.54 28 28-12.54 28-28 28Z"/><path fill="#80AEFF" d="M259.999 136h40v52.22c0 21.96-17.83 39.78-39.78 39.78h-.22v-92Z"/></g><defs><linearGradient id="b" x1="219.009" x2="219.009" y1="136" y2="68" gradientUnits="userSpaceOnUse"><stop offset=".1" stop-color="#80AEFF"/><stop offset="1" stop-color="#4642FF"/></linearGradient><linearGradient id="c" x1="327.999" x2="327.999" y1="68.82" y2="202.85" gradientUnits="userSpaceOnUse"><stop offset=".5" stop-color="#80AEFF"/><stop offset="1" stop-color="#4642FF"/></linearGradient><clipPath id="a"><path fill="#fff" d="M68 68h328v160H68z"/></clipPath></defs></svg>