<svg xmlns="http://www.w3.org/2000/svg" width="121" height="120" fill="none"><path fill="#000" d="M.5 0h120v120H.5z"/><path fill="#fff" fill-rule="evenodd" d="M49.176 44.809H38V90h11.176V44.81Zm35.048 2.584c0-9.59-7.809-17.392-17.408-17.392H38v9.652h27.446c4.344 0 7.942 3.413 8.022 7.607a7.701 7.701 0 0 1-2.22 5.581 7.7 7.7 0 0 1-5.536 2.326H55.021a.689.689 0 0 0-.689.688v8.578a.68.68 0 0 0 .13.402l18.14 25.166H85.88L67.698 64.766c9.157-.46 16.526-8.153 16.526-17.373Z" clip-rule="evenodd"/></svg>