<svg xmlns="http://www.w3.org/2000/svg" width="588" height="328" fill="none"><mask id="b" width="420" height="183" x="84" y="73" maskUnits="userSpaceOnUse" style="mask-type:alpha"><path fill="url(#a)" d="M84 73h420v183H84z"/></mask><g mask="url(#b)"><rect width="420" height="56" x="84" y="72" fill="#E0E0EE" fill-opacity=".03" rx="16"/><rect width="40" height="40" x="92" y="80" fill="#E0E0EE" fill-opacity=".03" rx="8"/><path stroke="#FCFCFD" stroke-linecap="round" stroke-linejoin="round" stroke-opacity=".98" stroke-width="2" d="M110 104h4m-5.2 6h6.4c1.68 0 2.52 0 3.162-.327a3.009 3.009 0 0 0 1.311-1.311c.327-.642.327-1.482.327-3.162V94.8c0-1.68 0-2.52-.327-3.162a3.004 3.004 0 0 0-1.311-1.311C117.72 90 116.88 90 115.2 90h-6.4c-1.68 0-2.52 0-3.162.327a3.004 3.004 0 0 0-1.311 1.311C104 92.28 104 93.12 104 94.8v10.4c0 1.68 0 2.52.327 3.162a3.009 3.009 0 0 0 1.311 1.311c.642.327 1.482.327 3.162.327Zm6.2-13a3 3 0 1 1-6 0 3 3 0 0 1 6 0Z"/><path fill="#FCFCFD" fill-opacity=".98" d="M145.067 95V84.773h1.928V95h-1.928Zm6.845.117c-2.22 0-3.506-1.549-3.506-3.799s1.286-3.798 3.477-3.798c.95 0 1.739.409 2.163 1.008V84.48h1.782V95h-1.782v-.92c-.424.642-1.242 1.037-2.134 1.037Zm-1.724-3.799c0 1.359.789 2.25 1.973 2.25 1.212 0 2.001-.891 2.001-2.25 0-1.358-.789-2.25-2.001-2.25-1.184 0-1.973.892-1.973 2.25Zm10.761 3.799c-2.411 0-3.755-1.9-3.755-3.828 0-1.943 1.198-3.77 3.609-3.77 2.469 0 3.579 1.798 3.579 3.55 0 .25-.014.468-.029.614h-5.435c.132 1.184.891 1.944 2.031 1.944.92 0 1.519-.38 1.709-1.081h1.754c-.278 1.563-1.651 2.57-3.463 2.57Zm-1.987-4.617h3.623c-.073-.935-.716-1.636-1.782-1.636-1.008 0-1.651.526-1.841 1.636Zm6.846 4.5v-7.363h1.797v1.14c.394-.804 1.242-1.257 2.294-1.257 1.651 0 2.732 1.198 2.732 2.922V95h-1.783v-4.178c0-1.009-.628-1.71-1.548-1.71-.994 0-1.695.79-1.695 1.87V95h-1.797Zm9.148-9.584h1.797v2.22h2.045v1.505h-2.045v3.215c0 .745.394 1.125 1.066 1.125h.979V95h-1.183c-1.608 0-2.659-.935-2.659-2.571V89.14h-1.447v-1.504h1.447v-2.221ZM180.075 95v-7.363h1.797V95h-1.797Zm-.058-8.518v-2.001h1.928v2.001h-1.928Zm4.369-1.066h1.797v2.22h2.046v1.505h-2.046v3.215c0 .745.395 1.125 1.067 1.125h.979V95h-1.184c-1.607 0-2.659-.935-2.659-2.571V89.14h-1.446v-1.504h1.446v-2.221Zm5.983 12.564 1.052-2.995-2.688-7.348h1.826l1.695 5.055 1.694-5.055h1.841l-2.25 6.165-1.461 4.178h-1.709Zm9.556-2.98V84.773h3.317c2.82 0 5.23 1.695 5.23 5.114 0 3.418-2.41 5.113-5.23 5.113h-3.317Zm1.914-1.68h1.228c1.767 0 3.447-.906 3.447-3.433 0-2.528-1.68-3.448-3.447-3.448h-1.228v6.88Zm11.46 1.797c-2.25 0-3.857-1.607-3.857-3.799 0-2.191 1.607-3.798 3.857-3.798 2.235 0 3.843 1.607 3.843 3.798 0 2.192-1.608 3.799-3.843 3.799Zm-2.045-3.799c0 1.33.818 2.25 2.045 2.25 1.213 0 2.031-.92 2.031-2.25s-.818-2.25-2.031-2.25c-1.227 0-2.045.92-2.045 2.25Zm10.575 3.799c-2.309 0-3.74-1.695-3.74-3.799s1.431-3.798 3.74-3.798c1.841 0 3.36 1.11 3.521 2.805h-1.797c-.117-.73-.833-1.257-1.68-1.257-1.257 0-1.929.965-1.929 2.25 0 1.286.687 2.25 1.943 2.25.862 0 1.505-.482 1.695-1.212h1.797c-.219 1.607-1.666 2.76-3.55 2.76Zm11.58-7.48V95h-1.783v-1.14c-.409.804-1.242 1.257-2.294 1.257-1.665 0-2.746-1.198-2.746-2.922v-4.558h1.797v4.178c0 1.008.613 1.71 1.534 1.71 1.008 0 1.709-.79 1.709-1.87v-4.018h1.783ZM235.234 95v-7.363h1.797v1.154c.351-.745 1.096-1.271 2.118-1.271 1.169 0 1.973.496 2.309 1.402.336-.76 1.271-1.402 2.44-1.402 1.592 0 2.615 1.154 2.615 2.717V95h-1.797v-4.222c0-1.038-.541-1.724-1.403-1.724-.949 0-1.548.686-1.548 1.724V95h-1.783v-4.222c0-1.038-.54-1.724-1.402-1.724-.965 0-1.549.686-1.549 1.724V95h-1.797Zm16.314.117c-2.411 0-3.755-1.9-3.755-3.828 0-1.943 1.198-3.77 3.609-3.77 2.469 0 3.579 1.798 3.579 3.55 0 .25-.014.468-.029.614h-5.435c.132 1.184.892 1.944 2.031 1.944.921 0 1.52-.38 1.709-1.081h1.754c-.278 1.563-1.651 2.57-3.463 2.57Zm-1.987-4.617h3.623c-.073-.935-.715-1.636-1.782-1.636-1.008 0-1.651.526-1.841 1.636Zm6.846 4.5v-7.363h1.797v1.14c.394-.804 1.242-1.257 2.294-1.257 1.651 0 2.732 1.198 2.732 2.922V95h-1.783v-4.178c0-1.009-.628-1.71-1.548-1.71-.994 0-1.695.79-1.695 1.87V95h-1.797Zm9.148-9.584h1.797v2.22h2.045v1.505h-2.045v3.215c0 .745.394 1.125 1.066 1.125h.979V95h-1.183c-1.607 0-2.659-.935-2.659-2.571V89.14h-1.447v-1.504h1.447v-2.221Z"/><path fill="#EBEBFD" fill-opacity=".45" d="M148.164 115.117c-2.294 0-3.55-1.651-3.55-3.799 0-2.147 1.256-3.798 3.55-3.798 1.037 0 2.001.526 2.44 1.315v-4.223h1.169V115h-1.169v-1.213c-.439.804-1.403 1.33-2.44 1.33Zm-2.338-3.799c0 1.666.965 2.747 2.44 2.747 1.476 0 2.44-1.081 2.44-2.747 0-1.665-.964-2.746-2.44-2.746-1.475 0-2.44 1.081-2.44 2.746Zm11.3 3.799c-2.177 0-3.638-1.739-3.638-3.843 0-2.162 1.344-3.754 3.506-3.754 2.148 0 3.433 1.49 3.433 3.448 0 .16-.014.409-.029.511h-5.756c.088 1.519 1.096 2.601 2.484 2.601 1.198 0 1.957-.526 2.191-1.447h1.184c-.249 1.505-1.549 2.484-3.375 2.484Zm-2.426-4.573h4.529c-.087-1.242-.92-2.031-2.235-2.031-1.242 0-2.075.731-2.294 2.031ZM168.251 115l-3.857-10.227h1.271l3.214 8.781 3.244-8.781h1.271L169.522 115h-1.271Zm8.849-6.326c-1.491 0-1.929 1.344-1.929 3.083V115h-1.169v-7.363h1.169v1.49c.321-1.008.92-1.49 2.002-1.49h.935v1.037H177.1Zm2.324 6.326v-7.363h1.169V115h-1.169Zm-.088-8.751v-1.637h1.344v1.637h-1.344Zm6.624 8.868c-2.177 0-3.638-1.739-3.638-3.843 0-2.162 1.345-3.754 3.507-3.754 2.148 0 3.433 1.49 3.433 3.448 0 .16-.014.409-.029.511h-5.756c.087 1.519 1.095 2.601 2.483 2.601 1.198 0 1.958-.526 2.192-1.447h1.183c-.248 1.505-1.548 2.484-3.375 2.484Zm-2.425-4.573h4.529c-.087-1.242-.92-2.031-2.235-2.031-1.242 0-2.075.731-2.294 2.031Zm9.855 4.573c-1.695 0-2.819-.95-2.936-2.484h1.125c.102.95.745 1.461 1.811 1.461.935 0 1.549-.511 1.549-1.11 0-2.192-4.295-.219-4.295-3.404 0-1.242 1.051-2.06 2.615-2.06 1.607 0 2.703.891 2.79 2.25h-1.125c-.117-.935-1.037-1.257-1.694-1.257-.862 0-1.432.409-1.432 1.052 0 1.987 4.31.015 4.31 3.39 0 1.315-1.096 2.162-2.718 2.162Z"/><rect width="98" height="20" x="358" y="90" fill="#FECACA" rx="4"/><g clip-path="url(#c)"><path stroke="#450A0A" stroke-linecap="round" stroke-linejoin="round" stroke-width="1.667" d="M374 102.667V100m0-2.666h.007m6.66 2.666a6.667 6.667 0 1 1-13.334 0 6.667 6.667 0 0 1 13.334 0Z"/></g><path fill="#450A0A" d="M390.576 105.107c-2.108 0-3.522-1.268-3.522-3.309v-6.136h1.12v6.19c0 1.374.961 2.228 2.402 2.228 1.454 0 2.414-.854 2.414-2.228v-6.19h1.121v6.136c0 2.041-1.414 3.309-3.535 3.309Zm5.466-.107v-6.723h1.067v1.294c.36-.934 1.187-1.401 2.228-1.401 1.521 0 2.508 1.08 2.508 2.721V105h-1.068v-3.935c0-1.147-.667-1.921-1.68-1.921-1.161 0-1.988.92-1.988 2.228V105h-1.067Zm9.316 0-2.468-6.723h1.107l1.908 5.389 1.92-5.39h1.108L406.478 105h-1.12Zm7.582.107c-1.988 0-3.322-1.588-3.322-3.509 0-1.974 1.228-3.428 3.202-3.428 1.961 0 3.135 1.36 3.135 3.148 0 .147-.013.374-.027.467h-5.256c.08 1.387 1.001 2.375 2.268 2.375 1.094 0 1.788-.481 2.001-1.321h1.081c-.227 1.374-1.414 2.268-3.082 2.268Zm-2.214-4.176h4.135c-.08-1.134-.84-1.854-2.041-1.854-1.134 0-1.894.667-2.094 1.854Zm9.665-1.707c-1.361 0-1.761 1.227-1.761 2.815V105h-1.067v-6.723h1.067v1.36c.294-.92.841-1.36 1.828-1.36h.854v.947h-.921Zm2.122 5.776v-6.723h1.068V105h-1.068Zm-.08-7.99v-1.495h1.228v1.494h-1.228Zm8.743 1.267V105h-1.067v-5.776h-2.841V105h-1.067v-5.776H424.8v-.947h1.401v-.68c0-1.281.813-2.082 2.094-2.082h1.054v.947h-1.014c-.64 0-1.067.427-1.067 1.148v.667h3.908Zm4.901 6.83c-1.988 0-3.322-1.588-3.322-3.509 0-1.974 1.227-3.428 3.202-3.428 1.961 0 3.134 1.36 3.134 3.148 0 .147-.013.374-.026.467h-5.256c.08 1.387 1 2.375 2.268 2.375 1.093 0 1.787-.481 2.001-1.321h1.08c-.227 1.374-1.414 2.268-3.081 2.268Zm-2.215-4.176h4.136c-.08-1.134-.841-1.854-2.041-1.854-1.134 0-1.895.667-2.095 1.854Zm9.626 4.176c-2.095 0-3.242-1.508-3.242-3.469 0-1.96 1.147-3.468 3.242-3.468.947 0 1.827.48 2.227 1.2v-3.855h1.068V105h-1.068v-1.107c-.4.733-1.28 1.214-2.227 1.214Zm-2.135-3.469c0 1.521.881 2.508 2.228 2.508 1.347 0 2.228-.987 2.228-2.508 0-1.52-.881-2.508-2.228-2.508-1.347 0-2.228.988-2.228 2.508Z"/><path stroke="#EBEBFB" stroke-linecap="round" stroke-linejoin="round" stroke-opacity=".36" stroke-width="2" d="m479 97.5 5 5 5-5"/><rect width="420" height="56" x="84" y="136" fill="#E0E0EE" fill-opacity=".03" rx="16"/><rect width="40" height="40" x="92" y="144" fill="#E0E0EE" fill-opacity=".03" rx="8"/><path stroke="#FCFCFD" stroke-linecap="round" stroke-linejoin="round" stroke-opacity=".98" stroke-width="2" d="M114 163h-6m2 4h-2m8-8h-8m12-.2v10.4c0 1.68 0 2.52-.327 3.162a3.009 3.009 0 0 1-1.311 1.311c-.642.327-1.482.327-3.162.327h-6.4c-1.68 0-2.52 0-3.162-.327a3.009 3.009 0 0 1-1.311-1.311C104 171.72 104 170.88 104 169.2v-10.4c0-1.68 0-2.52.327-3.162a3.009 3.009 0 0 1 1.311-1.311c.642-.327 1.482-.327 3.162-.327h6.4c1.68 0 2.52 0 3.162.327a3.009 3.009 0 0 1 1.311 1.311c.327.642.327 1.482.327 3.162Z"/><path fill="#FCFCFD" fill-opacity=".98" d="M147.243 169v-8.561h-3.097v-1.666h8.109v1.666h-3.083V169h-1.929Zm6.744.117c-1.446 0-2.44-.935-2.44-2.206 0-1.432 1.096-2.323 2.762-2.323h1.358c.351 0 .526-.205.526-.497 0-.716-.54-1.227-1.49-1.227s-1.519.599-1.549 1.256h-1.621c.102-1.461 1.344-2.6 3.243-2.6 1.885 0 3.2 1.081 3.2 2.746V169h-1.783v-1.096c-.292.731-1.154 1.213-2.206 1.213Zm-.701-2.279c0 .57.453.949 1.125.949 1.125 0 1.782-.789 1.782-1.899v-.117h-1.651c-.759 0-1.256.424-1.256 1.067ZM160.68 169h-1.899l2.659-3.842-2.469-3.521h1.972l1.476 2.118 1.461-2.118h1.957l-2.454 3.521 2.659 3.842h-1.914l-1.724-2.454L160.68 169Zm9.612 0v-10.227h1.928V169h-1.928Zm6.846.117c-2.221 0-3.507-1.549-3.507-3.799s1.286-3.798 3.477-3.798c.95 0 1.739.409 2.163 1.008v-4.047h1.782V169h-1.782v-.92c-.424.642-1.242 1.037-2.133 1.037Zm-1.724-3.799c0 1.359.788 2.25 1.972 2.25 1.213 0 2.001-.891 2.001-2.25 0-1.358-.788-2.25-2.001-2.25-1.184 0-1.972.892-1.972 2.25Zm10.76 3.799c-2.411 0-3.755-1.899-3.755-3.828 0-1.943 1.198-3.769 3.609-3.769 2.469 0 3.579 1.797 3.579 3.55 0 .248-.014.467-.029.614h-5.435c.132 1.183.891 1.943 2.031 1.943.92 0 1.519-.38 1.709-1.081h1.754c-.278 1.563-1.651 2.571-3.463 2.571Zm-1.987-4.617h3.623c-.073-.935-.716-1.636-1.782-1.636-1.008 0-1.651.526-1.841 1.636Zm6.846 4.5v-7.363h1.797v1.139c.394-.803 1.242-1.256 2.294-1.256 1.651 0 2.732 1.198 2.732 2.922V169h-1.783v-4.178c0-1.009-.628-1.71-1.548-1.71-.994 0-1.695.789-1.695 1.87V169h-1.797Zm9.148-9.584h1.797v2.221h2.045v1.504h-2.045v3.215c0 .745.394 1.125 1.066 1.125h.979V169h-1.183c-1.607 0-2.659-.935-2.659-2.571v-3.288h-1.447v-1.504h1.447v-2.221ZM205.3 169v-7.363h1.798V169H205.3Zm-.058-8.518v-2.001h1.929v2.001h-1.929Zm10.886 1.155V169h-1.798v-5.859h-2.863V169h-1.797v-5.859h-1.446v-1.504h1.446v-.687c0-1.49 1.037-2.469 2.63-2.469h1.315V160h-1.111c-.628 0-1.037.395-1.037 1.038v.599h4.661Zm5.13 7.48c-2.308 0-3.74-1.695-3.74-3.799s1.432-3.798 3.74-3.798c1.841 0 3.36 1.11 3.521 2.805h-1.797c-.117-.731-.833-1.257-1.68-1.257-1.257 0-1.929.965-1.929 2.25 0 1.286.687 2.25 1.943 2.25.862 0 1.505-.482 1.695-1.212h1.797c-.219 1.607-1.665 2.761-3.55 2.761Zm6.978 0c-1.447 0-2.44-.935-2.44-2.206 0-1.432 1.096-2.323 2.761-2.323h1.359c.35 0 .526-.205.526-.497 0-.716-.541-1.227-1.49-1.227-.95 0-1.52.599-1.549 1.256h-1.622c.102-1.461 1.344-2.6 3.244-2.6 1.884 0 3.199 1.081 3.199 2.746V169h-1.782v-1.096c-.292.731-1.154 1.213-2.206 1.213Zm-.702-2.279c0 .57.453.949 1.125.949 1.125 0 1.783-.789 1.783-1.899v-.117h-1.651c-.76 0-1.257.424-1.257 1.067Zm7.003-7.422h1.797v2.221h2.045v1.504h-2.045v3.215c0 .745.394 1.125 1.066 1.125h.979V169h-1.183c-1.607 0-2.659-.935-2.659-2.571v-3.288h-1.446v-1.504h1.446v-2.221Zm5.12 9.584v-7.363h1.797V169h-1.797Zm-.059-8.518v-2.001h1.929v2.001h-1.929Zm7.087 8.635c-2.25 0-3.857-1.607-3.857-3.799 0-2.191 1.607-3.798 3.857-3.798 2.236 0 3.843 1.607 3.843 3.798 0 2.192-1.607 3.799-3.843 3.799Zm-2.045-3.799c0 1.33.818 2.25 2.045 2.25 1.213 0 2.031-.92 2.031-2.25 0-1.329-.818-2.25-2.031-2.25-1.227 0-2.045.921-2.045 2.25Zm7.258 3.682v-7.363h1.797v1.139c.395-.803 1.242-1.256 2.294-1.256 1.651 0 2.732 1.198 2.732 2.922V169h-1.782v-4.178c0-1.009-.628-1.71-1.549-1.71-.993 0-1.695.789-1.695 1.87V169h-1.797Zm11.918 0v-10.227h2.074l4.442 7.217v-7.217h1.914V169h-2.075l-4.442-7.203V169h-1.913Zm17.004-7.363V169h-1.783v-1.14c-.409.804-1.242 1.257-2.294 1.257-1.665 0-2.746-1.198-2.746-2.922v-4.558h1.797v4.178c0 1.008.613 1.709 1.534 1.709 1.008 0 1.709-.789 1.709-1.87v-4.017h1.783Zm1.825 7.363v-7.363h1.797v1.154c.351-.745 1.096-1.271 2.118-1.271 1.169 0 1.973.496 2.309 1.402.336-.759 1.271-1.402 2.44-1.402 1.592 0 2.615 1.154 2.615 2.717V169h-1.797v-4.222c0-1.038-.541-1.724-1.403-1.724-.949 0-1.548.686-1.548 1.724V169h-1.783v-4.222c0-1.038-.54-1.724-1.402-1.724-.965 0-1.549.686-1.549 1.724V169h-1.797Zm16.928.117c-.906 0-1.724-.395-2.133-1.037v.92h-1.797v-10.519h1.797v4.047c.409-.599 1.198-1.008 2.147-1.008 2.192 0 3.478 1.548 3.478 3.798s-1.286 3.799-3.492 3.799Zm-2.25-3.799c0 1.359.789 2.25 1.987 2.25 1.183 0 1.972-.891 1.972-2.25 0-1.358-.789-2.25-1.972-2.25-1.198 0-1.987.892-1.987 2.25Zm10.454 3.799c-2.411 0-3.755-1.899-3.755-3.828 0-1.943 1.198-3.769 3.609-3.769 2.469 0 3.579 1.797 3.579 3.55 0 .248-.015.467-.029.614h-5.435c.131 1.183.891 1.943 2.031 1.943.92 0 1.519-.38 1.709-1.081h1.753c-.277 1.563-1.651 2.571-3.462 2.571Zm-1.987-4.617h3.623c-.073-.935-.716-1.636-1.782-1.636-1.009 0-1.651.526-1.841 1.636Zm10.235-1.359c-1.154 0-1.593.979-1.593 2.382V169h-1.797v-7.363h1.797v1.3c.366-.935.936-1.3 1.885-1.3h.862v1.504h-1.154Z"/><rect width="96" height="20" x="360" y="154" fill="#BDD7FF" rx="4"/><path fill="#151656" d="M372.576 169.107c-2.108 0-3.522-1.268-3.522-3.309v-6.136h1.12v6.19c0 1.374.961 2.228 2.402 2.228 1.454 0 2.414-.854 2.414-2.228v-6.19h1.121v6.136c0 2.041-1.414 3.309-3.535 3.309Zm5.466-.107v-6.723h1.067v1.294c.36-.934 1.187-1.401 2.228-1.401 1.521 0 2.508 1.08 2.508 2.721V169h-1.068v-3.935c0-1.148-.667-1.921-1.68-1.921-1.161 0-1.988.92-1.988 2.228V169h-1.067Zm10.526.107c-2.094 0-3.242-1.508-3.242-3.469 0-1.961 1.148-3.468 3.242-3.468.947 0 1.828.48 2.228 1.201v-3.856h1.067V169h-1.067v-1.107c-.4.733-1.281 1.214-2.228 1.214Zm-2.134-3.469c0 1.521.88 2.508 2.227 2.508 1.348 0 2.228-.987 2.228-2.508 0-1.52-.88-2.508-2.228-2.508-1.347 0-2.227.988-2.227 2.508Zm10.317 3.469c-1.988 0-3.322-1.588-3.322-3.509 0-1.974 1.227-3.428 3.202-3.428 1.961 0 3.135 1.361 3.135 3.148 0 .147-.014.374-.027.467h-5.256c.08 1.387 1.001 2.375 2.268 2.375 1.094 0 1.787-.481 2.001-1.321h1.08c-.226 1.374-1.414 2.268-3.081 2.268Zm-2.215-4.176h4.136c-.08-1.134-.841-1.854-2.041-1.854-1.134 0-1.895.667-2.095 1.854Zm9.666-1.707c-1.361 0-1.761 1.227-1.761 2.815V169h-1.067v-6.723h1.067v1.36c.293-.92.84-1.36 1.828-1.36h.853v.947h-.92Zm7.803 0c-1.36 0-1.761 1.227-1.761 2.815V169h-1.067v-6.723h1.067v1.36c.294-.92.841-1.36 1.828-1.36h.854v.947h-.921Zm4.73 5.883c-1.988 0-3.322-1.588-3.322-3.509 0-1.974 1.227-3.428 3.202-3.428 1.961 0 3.135 1.361 3.135 3.148 0 .147-.014.374-.027.467h-5.256c.08 1.387 1 2.375 2.268 2.375 1.094 0 1.787-.481 2.001-1.321h1.08c-.226 1.374-1.414 2.268-3.081 2.268Zm-2.215-4.176h4.136c-.08-1.134-.841-1.854-2.041-1.854-1.134 0-1.895.667-2.095 1.854Zm8.428 4.069-2.468-6.723h1.108l1.907 5.389 1.921-5.389h1.107L424.069 169h-1.121Zm4.871 0v-6.723h1.067V169h-1.067Zm-.08-7.991v-1.494h1.228v1.494h-1.228Zm6.049 8.098c-1.988 0-3.322-1.588-3.322-3.509 0-1.974 1.227-3.428 3.202-3.428 1.96 0 3.134 1.361 3.134 3.148 0 .147-.013.374-.026.467h-5.256c.08 1.387 1 2.375 2.268 2.375 1.093 0 1.787-.481 2.001-1.321h1.08c-.227 1.374-1.414 2.268-3.081 2.268Zm-2.215-4.176h4.136c-.081-1.134-.841-1.854-2.041-1.854-1.134 0-1.895.667-2.095 1.854Zm8.146 4.069-2.041-6.723h1.067l1.481 5.336 1.654-5.336h1.04l1.641 5.336 1.468-5.336h1.08L445.068 169h-1.027l-1.654-5.349-1.641 5.349h-1.027Z"/><path stroke="#EBEBFB" stroke-linecap="round" stroke-linejoin="round" stroke-opacity=".36" stroke-width="2" d="m479 161.5 5 5 5-5"/><rect width="420" height="56" x="84" y="200" fill="#E0E0EE" fill-opacity=".03" rx="16"/><rect width="40" height="40" x="92" y="208" fill="#E0E0EE" fill-opacity=".03" rx="8"/><path stroke="#fff" stroke-linecap="round" stroke-linejoin="round" stroke-width="2" d="M105 225v8m4.5-8v8m5-8v8m4.5-8v8m-16 1.6v.8c0 .56 0 .84.109 1.054.096.188.249.341.437.437.214.109.494.109 1.054.109h14.8c.56 0 .84 0 1.054-.109.188-.096.341-.249.437-.437.109-.214.109-.494.109-1.054v-.8c0-.56 0-.84-.109-1.054a1.003 1.003 0 0 0-.437-.437c-.214-.109-.494-.109-1.054-.109h-14.8c-.56 0-.84 0-1.054.109a1.003 1.003 0 0 0-.437.437c-.109.214-.109.494-.109 1.054Zm8.653-15.523-7.4 1.645c-.447.099-.671.149-.838.269-.147.106-.262.25-.334.417-.081.189-.081.418-.081.875v1.117c0 .56 0 .84.109 1.054.096.188.249.341.437.437.214.109.494.109 1.054.109h14.8c.56 0 .84 0 1.054-.109.188-.096.341-.249.437-.437.109-.214.109-.494.109-1.054v-1.117c0-.457 0-.686-.081-.875a1.002 1.002 0 0 0-.334-.417c-.167-.12-.391-.17-.838-.269l-7.4-1.645a2.061 2.061 0 0 0-.26-.049 1.011 1.011 0 0 0-.174 0c-.066.006-.131.02-.26.049Z"/><path fill="#FCFCFD" fill-opacity=".98" d="M145.067 223v-10.227h3.944c1.885 0 3.214.935 3.214 2.63 0 .964-.628 1.695-1.256 2.016.979.365 1.753 1.183 1.753 2.557 0 1.899-1.417 3.024-3.565 3.024h-4.09Zm1.899-1.68h2.001c1.301 0 1.9-.497 1.9-1.447 0-.935-.599-1.461-1.9-1.461h-2.001v2.908Zm0-4.544h1.914c1.022 0 1.534-.438 1.534-1.227 0-.789-.512-1.227-1.563-1.227h-1.885v2.454Zm9.393 6.341c-1.446 0-2.44-.935-2.44-2.206 0-1.432 1.096-2.323 2.761-2.323h1.359c.351 0 .526-.205.526-.497 0-.716-.54-1.227-1.49-1.227s-1.52.599-1.549 1.256h-1.621c.102-1.461 1.344-2.6 3.243-2.6 1.885 0 3.2 1.081 3.2 2.746V223h-1.783v-1.096c-.292.731-1.154 1.213-2.206 1.213Zm-.701-2.279c0 .57.453.949 1.125.949 1.125 0 1.782-.789 1.782-1.899v-.117h-1.651c-.76 0-1.256.424-1.256 1.067Zm6.561 2.162v-7.363h1.797v1.139c.395-.803 1.242-1.256 2.294-1.256 1.651 0 2.732 1.198 2.732 2.922V223h-1.782v-4.178c0-1.009-.629-1.71-1.549-1.71-.993 0-1.695.789-1.695 1.87V223h-1.797Zm8.707 0v-10.519h1.812v5.829l2.805-2.673h2.279l-2.995 2.878L178.07 223h-2.162l-2.308-3.287-.862.833V223h-1.812Zm14.74-7.758-1.374 3.74h2.747l-1.373-3.74ZM180.815 223l3.945-10.227h1.812L190.516 223h-2.001l-.877-2.381h-3.945l-.876 2.381h-2.002Zm13.826.117c-2.308 0-3.74-1.695-3.74-3.799s1.432-3.798 3.74-3.798c1.841 0 3.36 1.11 3.521 2.805h-1.797c-.117-.731-.833-1.257-1.68-1.257-1.257 0-1.929.965-1.929 2.25 0 1.286.687 2.25 1.943 2.25.862 0 1.505-.482 1.695-1.212h1.797c-.219 1.607-1.665 2.761-3.55 2.761Zm8.307 0c-2.308 0-3.74-1.695-3.74-3.799s1.432-3.798 3.74-3.798c1.841 0 3.36 1.11 3.521 2.805h-1.797c-.117-.731-.833-1.257-1.68-1.257-1.256 0-1.929.965-1.929 2.25 0 1.286.687 2.25 1.944 2.25.862 0 1.504-.482 1.694-1.212h1.797c-.219 1.607-1.665 2.761-3.55 2.761Zm8.41 0c-2.25 0-3.857-1.607-3.857-3.799 0-2.191 1.607-3.798 3.857-3.798 2.235 0 3.842 1.607 3.842 3.798 0 2.192-1.607 3.799-3.842 3.799Zm-2.046-3.799c0 1.33.818 2.25 2.046 2.25 1.212 0 2.03-.92 2.03-2.25 0-1.329-.818-2.25-2.03-2.25-1.228 0-2.046.921-2.046 2.25Zm14.14-3.681V223h-1.782v-1.14c-.409.804-1.242 1.257-2.294 1.257-1.666 0-2.747-1.198-2.747-2.922v-4.558h1.797v4.178c0 1.008.614 1.709 1.534 1.709 1.008 0 1.71-.789 1.71-1.87v-4.017h1.782Zm1.971 7.363v-7.363h1.797v1.139c.395-.803 1.242-1.256 2.294-1.256 1.651 0 2.732 1.198 2.732 2.922V223h-1.782v-4.178c0-1.009-.628-1.71-1.549-1.71-.993 0-1.695.789-1.695 1.87V223h-1.797Zm9.294-9.584h1.797v2.221h2.046v1.504h-2.046v3.215c0 .745.395 1.125 1.067 1.125h.979V223h-1.184c-1.607 0-2.659-.935-2.659-2.571v-3.288h-1.446v-1.504h1.446v-2.221Z"/><path fill="#EBEBFD" fill-opacity=".45" d="M145.242 243v-10.227h1.432l5.259 8.328v-8.328h1.257V243h-1.432l-5.26-8.298V243h-1.256Zm10.576 0v-10.227h1.256v9.102h5.114V243h-6.37Zm10.845.117c-2.046 0-3.653-1.33-3.653-3.331h1.228c0 1.329 1.052 2.206 2.425 2.206 1.432 0 2.337-.687 2.337-1.899 0-1.198-.905-1.841-2.337-1.841h-.818v-1.096h.818c1.212 0 1.943-.745 1.943-1.768 0-1.008-.789-1.607-2.016-1.607-1.169 0-1.929.687-2.002 1.899h-1.212c.073-1.855 1.402-3.024 3.228-3.024 1.9 0 3.258 1.125 3.258 2.688a2.507 2.507 0 0 1-1.475 2.28c1.081.35 1.899 1.256 1.899 2.483 0 1.958-1.695 3.01-3.623 3.01Zm5.303-7.028c-.073-2.089 1.271-3.433 3.375-3.433 1.928 0 3.316 1.198 3.316 3.054 0 1.329-.818 2.454-2.381 3.228l-1.461.746c-.833.423-1.768 1.198-1.768 2.191h5.669V243h-6.882v-.891c0-1.826 1.432-2.951 2.484-3.477l1.563-.804c1.096-.555 1.49-1.256 1.49-2.148 0-1.168-.862-1.928-2.03-1.928-1.315 0-2.148.935-2.09 2.337h-1.285Zm10.217 4.325a1.325 1.325 0 0 1-1.329-1.329c0-.731.584-1.33 1.329-1.33.716 0 1.315.599 1.315 1.33 0 .73-.599 1.329-1.315 1.329Zm5.34 0c-.745 0-1.33-.599-1.33-1.329 0-.731.585-1.33 1.33-1.33.716 0 1.315.599 1.315 1.33 0 .73-.599 1.329-1.315 1.329Zm5.339 0a1.325 1.325 0 0 1-1.329-1.329c0-.731.584-1.33 1.329-1.33.716 0 1.315.599 1.315 1.33 0 .73-.599 1.329-1.315 1.329Zm5.34 0c-.745 0-1.33-.599-1.33-1.329 0-.731.585-1.33 1.33-1.33.716 0 1.315.599 1.315 1.33 0 .73-.599 1.329-1.315 1.329Zm3.572-4.325c-.074-2.089 1.271-3.433 3.374-3.433 1.929 0 3.317 1.198 3.317 3.054 0 1.329-.818 2.454-2.382 3.228l-1.461.746c-.832.423-1.767 1.198-1.767 2.191h5.668V243h-6.881v-.891c0-1.826 1.432-2.951 2.484-3.477l1.563-.804c1.096-.555 1.49-1.256 1.49-2.148 0-1.168-.862-1.928-2.031-1.928-1.314 0-2.147.935-2.089 2.337h-1.285Zm11.839 7.028c-2.046 0-3.653-1.33-3.653-3.331h1.228c0 1.329 1.052 2.206 2.425 2.206 1.432 0 2.337-.687 2.337-1.899 0-1.198-.905-1.841-2.337-1.841h-.818v-1.096h.818c1.213 0 1.943-.745 1.943-1.768 0-1.008-.789-1.607-2.016-1.607-1.169 0-1.929.687-2.002 1.899h-1.212c.073-1.855 1.402-3.024 3.228-3.024 1.9 0 3.258 1.125 3.258 2.688a2.507 2.507 0 0 1-1.475 2.28c1.081.35 1.899 1.256 1.899 2.483 0 1.958-1.695 3.01-3.623 3.01Zm10.445-.117v-2.557h-5.478v-1.125l5.274-6.545h1.461v6.545h1.592v1.125h-1.592V243h-1.257Zm-4.149-3.682h4.164v-5.172l-4.164 5.172Z"/><rect width="64" height="20" x="392" y="218" fill="#BCECD7" rx="4"/><path fill="#064025" d="m403.735 233-3.522-9.338h1.161l2.935 8.017 2.961-8.017h1.161L404.896 233h-1.161Zm8.057.107c-1.987 0-3.321-1.588-3.321-3.509 0-1.974 1.227-3.428 3.201-3.428 1.961 0 3.135 1.361 3.135 3.148 0 .147-.013.374-.026.467h-5.256c.08 1.387 1 2.375 2.267 2.375 1.094 0 1.788-.481 2.001-1.321h1.081c-.227 1.374-1.414 2.268-3.082 2.268Zm-2.214-4.176h4.135c-.08-1.134-.84-1.854-2.041-1.854-1.134 0-1.894.667-2.094 1.854Zm9.799-1.707c-1.361 0-1.761 1.227-1.761 2.815V233h-1.067v-6.723h1.067v1.36c.293-.92.84-1.36 1.827-1.36h.854v.947h-.92Zm2.255 5.776v-6.723h1.068V233h-1.068Zm-.08-7.991v-1.494h1.228v1.494h-1.228Zm8.877 1.268V233h-1.067v-5.776h-2.842V233h-1.067v-5.776h-1.401v-.947h1.401v-.681c0-1.28.814-2.081 2.094-2.081h1.054v.947h-1.014c-.64 0-1.067.427-1.067 1.148v.667h3.909Zm5.034 6.83c-1.988 0-3.322-1.588-3.322-3.509 0-1.974 1.227-3.428 3.201-3.428 1.961 0 3.135 1.361 3.135 3.148 0 .147-.013.374-.026.467h-5.256c.08 1.387 1 2.375 2.268 2.375 1.093 0 1.787-.481 2.001-1.321h1.08c-.227 1.374-1.414 2.268-3.081 2.268Zm-2.215-4.176h4.135c-.08-1.134-.84-1.854-2.041-1.854-1.133 0-1.894.667-2.094 1.854Zm9.759 4.176c-2.094 0-3.242-1.508-3.242-3.469 0-1.961 1.148-3.468 3.242-3.468.947 0 1.827.48 2.228 1.201v-3.856h1.067V233h-1.067v-1.107c-.401.733-1.281 1.214-2.228 1.214Zm-2.134-3.469c0 1.521.88 2.508 2.227 2.508 1.348 0 2.228-.987 2.228-2.508 0-1.52-.88-2.508-2.228-2.508-1.347 0-2.227.988-2.227 2.508Z"/><path stroke="#EBEBFB" stroke-linecap="round" stroke-linejoin="round" stroke-opacity=".36" stroke-width="2" d="m479 225.5 5 5 5-5"/></g><defs><linearGradient id="a" x1="294" x2="294" y1="73" y2="256" gradientUnits="userSpaceOnUse"><stop stop-color="#fff"/><stop offset="1" stop-color="#fff" stop-opacity="0"/></linearGradient><clipPath id="c"><path fill="#fff" d="M366 92h16v16h-16z"/></clipPath></defs></svg>