<svg xmlns="http://www.w3.org/2000/svg" width="48" height="48" fill="none"><rect width="48" height="48" fill="#0171C0" rx="8"/><path fill="#fff" d="M32.664 17.936c-.022.14-.048.28-.076.426-1 4.917-4.418 6.615-8.783 6.615h-2.223c-.534 0-.984.372-1.068.877l-1.137 6.918-.322 1.96a.532.532 0 0 0 .129.44c.108.122.265.19.432.19h3.942a.938.938 0 0 0 .937-.766l.04-.192.742-4.515.046-.247a.939.939 0 0 1 .938-.768h.59c3.818 0 6.81-1.487 7.682-5.789.366-1.795.177-3.297-.789-4.351a3.742 3.742 0 0 0-1.08-.798Z" opacity=".6"/><path fill="#fff" d="M31.62 17.535a8.238 8.238 0 0 0-.972-.207 12.774 12.774 0 0 0-1.96-.136H22.75a.934.934 0 0 0-.936.768l-1.263 7.668-.037.225c.082-.506.535-.878 1.068-.878h2.223c4.365 0 7.783-1.7 8.782-6.615.03-.145.054-.286.077-.426a6.327 6.327 0 0 0-1.044-.399Z" opacity=".8"/><path fill="#fff" d="M21.814 17.961c.07-.442.468-.77.936-.768h5.939c.703 0 1.359.045 1.959.138.405.06.805.152 1.195.273.296.093.569.204.822.332.297-1.817-.003-3.054-1.027-4.175-1.13-1.233-3.17-1.761-5.78-1.761h-7.575c-.534 0-.988.372-1.07.877l-3.157 19.174a.613.613 0 0 0 .149.502.664.664 0 0 0 .493.219h4.679l1.174-7.143 1.263-7.668Z"/></svg>